<svg width="100" height="101" viewBox="0 0 100 101" fill="none" xmlns="http://www.w3.org/2000/svg">
<g clip-path="url(#clip0_82_1888)">
<path fill-rule="evenodd" clip-rule="evenodd" d="M46.2793 0.190873C34.7472 0.991411 23.6021 5.96628 15.1715 14.0765C8.70926 20.2929 3.74082 28.8475 1.54593 37.5366C-0.552027 45.8418 -0.514045 54.4865 1.65614 62.6527C3.3722 69.1091 6.89067 76.0348 11.1123 81.2654C11.8334 82.1585 14.6702 85.1545 17.4168 87.9233C21.9919 92.5352 22.4697 92.9571 23.1171 92.9565C23.7586 92.9557 24.2293 92.5526 28.2464 88.5634L32.6691 84.1711L34.4929 85.0092C35.496 85.4704 36.8071 86.0067 37.4064 86.2012L38.496 86.5549V92.7743V98.9936L39.0056 99.503L39.5149 100.013H50.1191H60.7232L61.2326 99.503L61.7421 98.9936V92.7743V86.5549L62.8318 86.2012C63.431 86.0067 64.7433 85.4698 65.7481 85.008L67.5748 84.1684L71.9858 88.5619C76.0109 92.5713 76.4592 92.9557 77.109 92.9557C77.7688 92.9557 78.3753 92.4017 85.3483 85.4287C92.2839 78.4929 92.8753 77.8463 92.8753 77.1983C92.8753 76.5605 92.4666 76.0836 88.483 72.0722L84.0907 67.6494L84.9288 65.8256C85.39 64.8225 85.9264 63.5114 86.1208 62.9122L86.4745 61.8225H92.6939H98.9132L99.4226 61.313L99.9321 60.8036V50.1994V39.5953L99.4226 39.0859L98.9132 38.5764H92.6939H86.4745L86.1208 37.4867C85.9264 36.8875 85.3894 35.5752 84.9276 34.5704L84.088 32.7437L88.4816 28.3328C92.4963 24.3021 92.8753 23.86 92.8761 23.2064C92.8767 22.5476 92.4786 22.0958 87.8429 17.4943C82.5397 12.2303 80.5717 10.5287 77.2663 8.34942C70.0343 3.58086 61.9148 0.844877 53.0248 0.181326C49.9835 -0.045531 49.6784 -0.045116 46.2793 0.190873ZM46.2793 3.83408C35.0249 5.01485 25.6247 9.29691 17.8875 16.7672C10.5158 23.8847 6.00067 32.5164 4.19931 42.935C3.54323 46.7298 3.55485 53.7422 4.22359 57.533C5.46248 64.5562 7.59843 70.04 11.2875 75.6693C12.7964 77.9717 15.7624 81.7477 16.0619 81.7477C16.1368 81.7477 16.6947 81.2448 17.3016 80.6302L18.4052 79.5128L17.0289 77.8802C12.0287 71.9489 8.66422 64.4142 7.43985 56.4062C6.94546 53.1731 6.94567 47.177 7.44027 44.0766C8.20552 39.2784 9.53429 35.0538 11.5299 31.0727C13.8292 26.4855 16.0168 23.4615 19.6991 19.7794C26.4442 13.0341 34.3098 9.06569 43.9962 7.52066C47.0967 7.02606 53.0927 7.02585 56.3258 7.52024C64.3515 8.7473 71.8556 12.0981 77.7998 17.1093L79.4324 18.4856L80.5499 17.382C81.1644 16.7751 81.6673 16.2172 81.6673 16.1423C81.6673 15.8419 77.8882 12.8749 75.5735 11.3581C69.9569 7.67695 64.4173 5.5217 57.4872 4.32121C55.0713 3.90278 48.3924 3.61241 46.2793 3.83408ZM45.7604 10.5821C36.4769 11.6504 27.5946 16.0534 21.2927 22.7111C9.83918 34.8109 7.03596 52.5158 14.2173 67.3962C15.6337 70.3312 17.4911 73.25 19.4174 75.5682L20.7501 77.172L27.3993 70.535C33.6992 64.2467 34.0882 63.898 34.8072 63.898C35.4219 63.898 35.7926 64.0963 36.758 64.941C39.1237 67.0114 41.7598 68.4443 44.8482 69.3387C46.2691 69.7503 46.9555 69.8133 50.0153 69.8133C53.0751 69.8133 53.7614 69.7503 55.1824 69.3387C60.9337 67.6728 65.6556 63.672 68.0908 58.4014C69.4511 55.4572 69.733 54.0311 69.733 50.0957C69.733 47.0359 69.6699 46.3495 69.2583 44.9286C68.3639 41.8402 66.931 39.204 64.8606 36.8383C64.0159 35.873 63.8177 35.5023 63.8177 34.8875C63.8177 34.1686 64.1663 33.7796 70.4546 27.4797L77.0916 20.8305L75.4878 19.4978C70.6912 15.5121 64.3318 12.4441 58.3175 11.2141C54.2345 10.3793 49.5651 10.1441 45.7604 10.5821ZM48.9682 12.519C48.4885 12.9986 48.4586 13.163 48.4586 15.3303C48.4586 17.4976 48.4885 17.662 48.9682 18.1416C49.2893 18.4629 49.7147 18.6512 50.1191 18.6512C50.5234 18.6512 50.9489 18.4629 51.27 18.1416C51.7496 17.662 51.7795 17.4976 51.7795 15.3303C51.7795 13.163 51.7496 12.9986 51.27 12.519C50.9489 12.1977 50.5234 12.0094 50.1191 12.0094C49.7147 12.0094 49.2893 12.1977 48.9682 12.519ZM30.6241 17.5376C30.0303 18.2925 30.0791 18.7182 30.9406 20.2944C32.2036 22.6055 32.5861 23.0098 33.5101 23.0098C34.1322 23.0098 34.4124 22.8857 34.7449 22.4629C35.3387 21.708 35.2899 21.2823 34.4284 19.7062C33.1654 17.3951 32.7829 16.9907 31.8588 16.9907C31.2368 16.9907 30.9566 17.1149 30.6241 17.5376ZM67.0655 17.6653C66.271 18.718 65.063 21.0275 65.063 21.4943C65.063 21.7263 65.2566 22.1622 65.4932 22.4629C65.8257 22.8857 66.1059 23.0098 66.728 23.0098C67.652 23.0098 68.0345 22.6055 69.2975 20.2944C70.1591 18.7182 70.2078 18.2925 69.614 17.5376C69.2815 17.1149 69.0013 16.9907 68.3793 16.9907C67.7145 16.9907 67.4864 17.1078 67.0655 17.6653ZM75.8894 26.816L67.7267 34.9805L68.7886 36.3834C70.9187 39.1976 72.6097 43.3871 73.1503 47.1899C74.1999 54.572 71.1034 62.7781 65.4237 67.6666C58.2228 73.8642 48.4651 75.1666 40.0207 71.0574C38.7476 70.4377 37.0743 69.4528 36.3026 68.8688L34.8995 67.8067L26.6839 76.0221L18.4685 84.2375L20.7999 86.569L23.1314 88.9005L27.3487 84.7014C31.0172 81.0489 31.6498 80.5024 32.2102 80.5024C32.5654 80.5024 33.7712 80.9588 34.8968 81.5194C36.0203 82.0788 37.8501 82.8345 38.963 83.1989C41.9935 84.1915 41.8169 83.7207 41.8169 90.8044V96.6916H50.1191H58.4212V90.8044C58.4212 83.7297 58.2417 84.2089 61.2676 83.2106C62.3847 82.842 64.2267 82.0819 65.361 81.5215C66.4953 80.9609 67.7043 80.5024 68.0478 80.5024C68.5823 80.5024 69.2788 81.1066 72.8897 84.7018L77.1074 88.9013L82.9641 83.0445L88.8209 77.1878L84.6215 72.97C80.9685 69.3013 80.422 68.6687 80.422 68.1083C80.422 67.7525 80.8782 66.5493 81.4409 65.4217C82.0013 64.2982 82.7614 62.4651 83.13 61.348C84.1285 58.3219 83.6493 58.5016 90.724 58.5016H96.6113V50.1994V41.8973H90.724C83.6493 41.8973 84.1285 42.0768 83.1302 39.0509C82.7616 37.9338 82.0015 36.0918 81.4411 34.9575C80.8805 33.8232 80.422 32.6142 80.422 32.2707C80.422 31.7362 81.026 31.0399 84.6198 27.4303L88.8178 23.2143L86.5432 20.9326C85.2923 19.6779 84.22 18.6512 84.1605 18.6512C84.1009 18.6512 80.379 22.3253 75.8894 26.816ZM48.9682 24.142L48.4586 24.6514V34.1931V43.7348L47.369 44.2404C45.9815 44.8844 44.804 46.0619 44.16 47.4494L43.6544 48.539H37.4335H31.2127L30.7034 49.0486C30.0292 49.7225 30.0292 50.6764 30.7034 51.3503L31.2127 51.8599H37.4335H43.6544L44.1616 52.9674C44.8104 54.3848 45.9373 55.5062 47.403 56.1936C48.9987 56.9421 51.3891 56.9491 52.921 56.2102C54.2444 55.5718 55.4914 54.3248 56.1298 53.0014C56.8687 51.4695 56.8617 49.0791 56.1132 47.4834C55.4258 46.0176 54.3044 44.8908 52.887 44.242L51.7795 43.7348V34.1931V24.6514L51.27 24.142C50.9489 23.8207 50.5234 23.6325 50.1191 23.6325C49.7147 23.6325 49.2893 23.8207 48.9682 24.142ZM17.4573 30.7045C17.0345 31.037 16.9104 31.3172 16.9104 31.9392C16.9104 32.8633 17.3147 33.2458 19.6258 34.5087C21.202 35.3703 21.6277 35.4191 22.3825 34.8253C22.8053 34.4928 22.9294 34.2126 22.9294 33.5905C22.9294 32.6665 22.5251 32.284 20.214 31.021C18.6378 30.1594 18.2121 30.1107 17.4573 30.7045ZM59.5534 38.4633C58.745 39.2715 58.8772 40.0087 60.0817 41.4135C61.3855 42.9338 62.6774 45.3848 63.084 47.1098C63.4511 48.6671 63.4964 51.5886 63.1776 53.1469C63.0536 53.7517 62.5316 55.1235 62.0175 56.1953C61.2718 57.749 60.7813 58.4435 59.5962 59.6249C57.8976 61.3175 55.5522 62.6608 53.4163 63.1643C51.7183 63.5647 48.7274 63.5647 47.0294 63.1643C45.3044 62.7577 42.8534 61.4659 41.3331 60.1621C39.9283 58.9576 39.1911 58.8254 38.3829 59.6338C37.5103 60.5062 37.7785 61.4869 39.2237 62.7075C44.03 66.7669 50.0049 67.8474 55.8864 65.7206C61.5943 63.6565 65.7797 58.3364 66.5607 52.1525C67.1207 47.7196 65.6566 42.8502 62.7461 39.4645C61.3496 37.8406 60.4563 37.5604 59.5534 38.4633ZM48.7035 47.2159C48.3243 47.4091 47.7639 47.8954 47.4582 48.2964C46.7299 49.2511 46.6658 51.098 47.3299 51.9875C48.1431 53.0766 48.8065 53.4165 50.1191 53.4165C51.4316 53.4165 52.095 53.0766 52.9082 51.9875C53.5082 51.1839 53.5082 49.215 52.9082 48.4114C51.8652 47.0145 50.089 46.5093 48.7035 47.2159ZM12.4386 49.0486C12.1173 49.3696 11.929 49.7951 11.929 50.1994C11.929 50.6038 12.1173 51.0293 12.4386 51.3503C12.9183 51.83 13.0826 51.8599 15.2499 51.8599C17.4172 51.8599 17.5816 51.83 18.0612 51.3503C18.3825 51.0293 18.5708 50.6038 18.5708 50.1994C18.5708 49.7951 18.3825 49.3696 18.0612 49.0486C17.5816 48.5689 17.4172 48.539 15.2499 48.539C13.0826 48.539 12.9183 48.5689 12.4386 49.0486ZM89.9695 50.1994V51.8599H91.6299H93.2904V50.1994V48.539H91.6299H89.9695V50.1994ZM19.2972 66.0944C17.1038 67.3466 16.9104 67.54 16.9104 68.4813C16.9104 69.0801 17.039 69.3656 17.4573 69.6944C18.2121 70.2882 18.6378 70.2395 20.214 69.3779C22.5251 68.1149 22.9294 67.7324 22.9294 66.8084C22.9294 66.1863 22.8053 65.9061 22.3825 65.5736C21.5982 64.9566 21.1613 65.0303 19.2972 66.0944ZM78.2875 78.3816L77.1001 79.5815L78.1968 80.6647C78.8 81.2604 79.3876 81.7477 79.5023 81.7477C79.7717 81.7477 81.6673 79.8272 81.6673 79.5541C81.6673 79.4401 81.174 78.8596 80.5712 78.2641L79.4749 77.1815L78.2875 78.3816ZM48.4586 91.7103V93.3708H50.1191H51.7795V91.7103V90.0499H50.1191H48.4586V91.7103Z" fill="#C5C5C5"/>
</g>
<defs>
<clipPath id="clip0_82_1888">
<rect width="100" height="100" fill="white" transform="translate(0 0.0124512)"/>
</clipPath>
</defs>
</svg>
