<svg width="64" height="65" viewBox="0 0 64 65" fill="none" xmlns="http://www.w3.org/2000/svg">
<g clip-path="url(#clip0_82_1959)">
<path d="M10.6667 18.6785C10.6667 17.2118 11.8667 16.0118 13.3333 16.0118H56C57.4667 16.0118 58.6667 14.8118 58.6667 13.3451C58.6667 11.8785 57.4667 10.6785 56 10.6785H10.6667C7.73333 10.6785 5.33333 13.0785 5.33333 16.0118V45.3451H4C1.78667 45.3451 0 47.1318 0 49.3451C0 51.5585 1.78667 53.3451 4 53.3451H37.3333V45.3451H10.6667V18.6785ZM61.3333 21.3451H45.3333C43.8667 21.3451 42.6667 22.5451 42.6667 24.0118V50.6785C42.6667 52.1451 43.8667 53.3451 45.3333 53.3451H61.3333C62.8 53.3451 64 52.1451 64 50.6785V24.0118C64 22.5451 62.8 21.3451 61.3333 21.3451ZM58.6667 45.3451H48V26.6785H58.6667V45.3451Z" fill="#636363"/>
</g>
<defs>
<clipPath id="clip0_82_1959">
<rect width="64" height="64" fill="white" transform="translate(0 0.0124512)"/>
</clipPath>
</defs>
</svg>
