<svg width="100" height="101" viewBox="0 0 100 101" fill="none" xmlns="http://www.w3.org/2000/svg">
<g clip-path="url(#clip0_82_1897)">
<path fill-rule="evenodd" clip-rule="evenodd" d="M45.2148 0.233526C29.8416 1.70501 15.8846 10.362 7.57813 23.5781C-1.58672 38.1599 -2.48164 56.8929 5.25137 72.2781C14.1088 89.9001 32.2307 100.681 51.7578 99.946C66.3154 99.398 79.3652 92.9144 88.7733 81.5554C93.269 76.1275 97.1606 68.1726 98.7162 61.2306C99.2912 58.6654 99.8047 55.2782 99.8047 54.0517C99.8047 53.5615 99.8926 53.1062 100 53.0398C100.117 52.9671 100.194 51.6575 100.192 49.7568C100.19 47.6429 100.127 46.6915 100 46.8874C99.8637 47.0982 99.8096 46.9066 99.8068 46.2038C99.7953 43.347 98.3891 36.7615 96.9547 32.8474C96.0947 30.5013 93.6942 25.5853 92.4609 23.6452C88.3973 17.2525 82.2283 11.1312 76.0742 7.38489C66.8262 1.75521 55.8615 -0.785615 45.2148 0.233526ZM46.6797 3.44661C46.3037 3.49036 45.1611 3.62044 44.1406 3.73528C36.3143 4.61732 27.5912 8.27728 21.0086 13.4408C18.9434 15.0607 14.3453 19.7814 12.7814 21.8874C10.7131 24.673 9.68223 26.3718 8.09981 29.6023C5.87871 34.137 4.51992 38.514 3.76817 43.5558C3.30274 46.6763 3.31016 53.3353 3.78242 56.5456C4.49981 61.4212 5.89375 65.9048 8.09629 70.4226C10.5668 75.4896 13.0045 78.8775 17.1691 83.032C21.1658 87.0187 24.6227 89.4913 29.5898 91.9161C36.3025 95.1933 42.3752 96.5806 50 96.5792C54.7393 96.5782 57.2024 96.2857 61.4354 95.2206C77.9289 91.071 91.0586 77.9413 95.2082 61.4478C96.2733 57.2148 96.5658 54.7517 96.5668 50.0124C96.5678 44.2075 95.8481 39.8331 94.0164 34.5117C92.5731 30.3179 89.4867 24.7284 86.5676 21.021C85.1719 19.2484 80.7705 14.8456 79.0033 13.4542C72.5975 8.41107 64.6613 4.99134 56.6404 3.8181C54.6615 3.52864 48.0807 3.28314 46.6797 3.44661ZM46.875 6.77337C36.3115 7.7431 27.2856 11.7921 19.96 18.847C16.2174 22.4511 13.4252 26.2847 11.1307 30.9695C8.06543 37.2273 6.75625 42.9267 6.75625 50.0124C6.75625 57.0982 8.06543 62.7976 11.1307 69.0554C13.4414 73.773 16.2699 77.646 20.0176 81.2241C26.7182 87.6216 34.6406 91.4919 43.9453 92.913C47.0193 93.3825 52.9807 93.3825 56.0547 92.913C60.9045 92.1722 64.7824 90.9687 69.043 88.8818C81.9828 82.5437 90.6846 70.5749 92.9006 56.0671C93.3705 52.9907 93.3703 47.0306 92.9 43.9577C91.425 34.3181 87.3572 26.2306 80.5695 19.4429C73.8049 12.6783 65.6621 8.56185 56.25 7.14857C54.2195 6.84388 48.5705 6.61771 46.875 6.77337ZM46.1914 10.1941C35.8438 11.1824 26.1186 16.3089 19.3764 24.3288C5.19082 41.2033 7.40293 66.4175 24.3164 80.6361C40.1797 93.9716 63.6137 92.932 78.2441 78.2435C92.9145 63.5148 93.9447 40.2802 80.6346 24.3288C72.2602 14.2925 59.2367 8.94798 46.1914 10.1941ZM47.5147 15.3521C42.208 16.7814 38.9781 22.2243 40.3381 27.4456C42.2834 34.9138 51.6156 37.4906 57.0469 32.0593C62.5004 26.6058 59.9143 17.2992 52.4018 15.3423C51.0223 14.9829 48.8688 14.9872 47.5147 15.3521ZM47.6035 18.8345C46.1203 19.4576 45.2008 20.1794 44.517 21.2577C42.2586 24.8191 43.5008 29.2867 47.2367 31.0382C48.1588 31.4704 48.6123 31.5554 50 31.5554C51.9938 31.5554 53.3813 31.0062 54.6875 29.6999C55.9938 28.3937 56.543 27.0062 56.543 25.0124C56.543 23.0187 55.9938 21.6312 54.6875 20.3249C52.86 18.4974 49.8926 17.8732 47.6035 18.8345ZM24.315 37.1904C22.3768 38.0929 21.4154 39.7222 21.5205 41.9259C21.5994 43.5796 22.291 44.8896 23.5395 45.7493C24.6344 46.5036 25.3811 46.624 33.4467 47.3468C42.3854 48.148 41.6016 47.7226 41.6016 51.7738C41.6016 54.0697 41.5289 54.8486 41.2354 55.6947C41.0338 56.2755 39.0869 61.2771 36.9088 66.8093C32.7348 77.4113 32.5303 78.0923 33.0094 79.8029C33.3201 80.913 34.5102 82.2757 35.6512 82.8281C37.4861 83.7165 40.1623 83.1675 41.4754 81.6333C41.9389 81.0919 43.1738 78.2931 45.9877 71.4072C48.1186 66.1929 49.915 61.9271 49.9799 61.9279C50.0447 61.9286 51.8494 66.1906 53.9904 71.399C56.3516 77.1423 58.0998 81.1314 58.4336 81.5363C58.7361 81.9034 59.4406 82.4314 59.999 82.7097C63.4641 84.4365 67.4891 81.6947 67.1391 77.846C67.0791 77.1872 65.7582 73.5845 63.0922 66.8093C60.9152 61.2771 58.9686 56.2755 58.7662 55.6947C58.4707 54.8464 58.3984 54.0755 58.3984 51.7738C58.3984 47.723 57.6143 48.1486 66.5529 47.3484C70.5006 46.995 74.194 46.6081 74.7604 46.4886C76.9371 46.0296 78.5195 44.0255 78.5113 41.7382C78.5014 38.9368 76.394 36.7382 73.7141 36.7331C73.168 36.732 68.8356 37.0827 64.0867 37.5124C52.0211 38.6042 48.0287 38.6042 35.9147 37.5124C31.1471 37.0829 26.8066 36.7322 26.2695 36.7331C25.6598 36.7343 24.9256 36.906 24.315 37.1904ZM25.2842 40.531C24.3828 41.4322 24.8023 42.9909 26.0205 43.2675C26.2648 43.323 29.8283 43.6722 33.9395 44.0437C41.0613 44.687 41.46 44.7439 42.3875 45.2488C43.4221 45.8117 44.1764 46.6533 44.6389 47.7601C45.0574 48.7617 45.0352 54.6374 44.6074 56.0804C44.4346 56.664 42.457 61.8191 40.2129 67.5365C37.9689 73.2536 36.1328 78.1464 36.1328 78.4091C36.1328 79.157 36.3297 79.4954 36.952 79.8171C37.617 80.1611 38.4877 80.0394 38.917 79.5423C39.0742 79.3605 40.9893 74.8743 43.1727 69.573C45.3561 64.2718 47.2996 59.7347 47.4916 59.4904C48.6002 58.0812 51.3998 58.0812 52.5084 59.4904C52.7004 59.7347 54.6428 64.2718 56.8248 69.573C59.0066 74.8743 60.9348 79.3634 61.1096 79.5488C61.2842 79.7341 61.6965 79.9396 62.0256 80.0054C62.8504 80.1704 63.8672 79.3357 63.8672 78.4935C63.8672 78.1714 62.0297 73.2294 59.7838 67.5115C57.5379 61.7935 55.5604 56.6437 55.3893 56.0673C54.9647 54.6378 54.9447 48.7566 55.3611 47.7601C55.8451 46.6017 56.6385 45.7454 57.7156 45.2183C58.6731 44.7499 59.3139 44.6607 66.1434 44.0431C70.209 43.6755 73.7352 43.3279 73.9795 43.2706C75.8063 42.8429 75.4615 40.0515 73.582 40.0515C73.2219 40.0515 69.0652 40.4029 64.3445 40.8322C56.65 41.532 55.1654 41.6126 50 41.6117C44.8506 41.6105 43.3262 41.5275 35.6535 40.831C30.9318 40.4023 26.775 40.0515 26.4162 40.0515C25.9836 40.0515 25.6018 40.2132 25.2842 40.531ZM0.0794939 50.0124C0.0794939 51.7849 0.109181 52.5101 0.145314 51.6238C0.181447 50.7374 0.181447 49.2872 0.145314 48.4011C0.109181 47.515 0.0794939 48.24 0.0794939 50.0124Z" fill="#C5C5C5"/>
</g>
<defs>
<clipPath id="clip0_82_1897">
<rect width="100" height="100" fill="white" transform="translate(0 0.0124512)"/>
</clipPath>
</defs>
</svg>
