<svg width="48" height="49" viewBox="0 0 48 49" fill="none" xmlns="http://www.w3.org/2000/svg">
<path d="M24 20.0425C26.1217 20.0425 28.1566 19.1996 29.6569 17.6993C31.1571 16.199 32 14.1642 32 12.0425C32 9.92075 31.1571 7.88592 29.6569 6.38563C28.1566 4.88534 26.1217 4.04248 24 4.04248C21.8783 4.04248 19.8434 4.88534 18.3431 6.38563C16.8429 7.88592 16 9.92075 16 12.0425C16 14.1642 16.8429 16.199 18.3431 17.6993C19.8434 19.1996 21.8783 20.0425 24 20.0425ZM11 26.0425C12.3261 26.0425 13.5979 25.5157 14.5355 24.578C15.4732 23.6403 16 22.3686 16 21.0425C16 19.7164 15.4732 18.4446 14.5355 17.5069C13.5979 16.5693 12.3261 16.0425 11 16.0425C9.67392 16.0425 8.40215 16.5693 7.46447 17.5069C6.52678 18.4446 6 19.7164 6 21.0425C6 22.3686 6.52678 23.6403 7.46447 24.578C8.40215 25.5157 9.67392 26.0425 11 26.0425ZM42 21.0425C42 22.3686 41.4732 23.6403 40.5355 24.578C39.5979 25.5157 38.3261 26.0425 37 26.0425C35.6739 26.0425 34.4021 25.5157 33.4645 24.578C32.5268 23.6403 32 22.3686 32 21.0425C32 19.7164 32.5268 18.4446 33.4645 17.5069C34.4021 16.5693 35.6739 16.0425 37 16.0425C38.3261 16.0425 39.5979 16.5693 40.5355 17.5069C41.4732 18.4446 42 19.7164 42 21.0425ZM24 22.0425C26.6522 22.0425 29.1957 23.096 31.0711 24.9714C32.9464 26.8468 34 29.3903 34 32.0425V44.0425H14V32.0425C14 29.3903 15.0536 26.8468 16.9289 24.9714C18.8043 23.096 21.3478 22.0425 24 22.0425ZM10 32.0425C10 30.6565 10.2 29.3185 10.576 28.0545L10.236 28.0825C8.52176 28.2707 6.93733 29.0851 5.78653 30.3695C4.63572 31.6539 3.99955 33.3179 4 35.0425V44.0425H10V32.0425ZM44 44.0425V35.0425C44.0002 33.2592 43.3198 31.5431 42.0977 30.2444C40.8757 28.9458 39.204 28.1625 37.424 28.0545C37.798 29.3185 38 30.6565 38 32.0425V44.0425H44Z" fill="#585858"/>
</svg>
