<svg width="49" height="49" viewBox="0 0 49 49" fill="none" xmlns="http://www.w3.org/2000/svg">
<path fill-rule="evenodd" clip-rule="evenodd" d="M17.0848 0.20129C12.6339 0.948977 9.0302 2.85647 5.94683 6.0966C2.60949 9.60357 0.863659 13.7899 0.674441 18.7396C0.343922 27.3863 5.77751 35.1793 14.0106 37.8669C16.0798 38.5423 17.6655 38.7804 20.0701 38.7764C24.2312 38.7695 27.5248 37.7686 30.9791 35.4611C35.1348 32.685 38.1577 28.0703 39.1534 22.9817C39.5089 21.1647 39.5112 17.6599 39.1578 15.8796C37.6051 8.05492 31.9529 2.2138 24.2035 0.425718C22.4956 0.0315136 18.7904 -0.0851402 17.0848 0.20129ZM20.1691 3.54552C19.9987 3.8194 18.5161 14.2957 18.5349 15.0929C18.5479 15.6451 19.5476 15.9698 19.9058 15.5382C20.0046 15.4193 20.4295 12.7243 20.8502 9.54937C21.5729 4.09588 21.6008 3.76092 21.3548 3.48888C20.9998 3.09666 20.4314 3.12391 20.1691 3.54552ZM13.6765 7.06856C12.1704 8.57787 11.6502 9.19635 11.6502 9.47773C11.6502 10.0313 15.5411 13.9173 16.0953 13.9173C16.593 13.9173 16.8552 13.6566 16.8552 13.162C16.8552 12.8734 16.4348 12.3524 15.2121 11.1259L13.569 9.47773L15.2121 7.82957C16.8776 6.15891 17.1398 5.69015 16.6715 5.22185C16.1802 4.73059 15.7367 5.00416 13.6765 7.06856ZM23.4687 5.22185C23.0004 5.69015 23.2626 6.15891 24.9281 7.82957L26.5712 9.47773L24.9281 11.1259C23.7053 12.3524 23.2849 12.8734 23.2849 13.162C23.2849 13.6542 23.5467 13.9173 24.0365 13.9173C24.5766 13.9173 28.49 10.0161 28.49 9.47773C28.49 9.20676 27.9442 8.56179 26.4553 7.07285C24.3916 5.00921 23.953 4.73747 23.4687 5.22185ZM6.10069 19.1346C5.74812 19.3399 5.75516 20.0762 6.11278 20.3999C6.3689 20.6317 7.55978 20.6532 20.0967 20.6532C33.1785 20.6532 33.8121 20.6405 34.054 20.3732C34.3864 20.006 34.3755 19.5377 34.0274 19.2226C33.7712 18.9907 32.5854 18.9697 20.058 18.9738C11.0449 18.9769 6.27705 19.0319 6.10069 19.1346ZM9.56938 24.4039C9.33714 24.7585 9.33714 24.8148 9.56938 25.1694L9.82014 25.5521H20.043C27.7899 25.5521 30.3104 25.5075 30.4495 25.3684C30.7072 25.1107 30.6782 24.5472 30.3927 24.2617C30.1789 24.0478 29.0238 24.0212 19.9862 24.0212H9.82014L9.56938 24.4039ZM13.6327 29.3936C13.3929 29.8415 13.5765 30.4297 13.9871 30.5295C14.1752 30.5753 17.0133 30.5935 20.2939 30.57L26.2585 30.5275L26.4889 30.1169C26.6994 29.7418 26.6945 29.6792 26.4328 29.3897C26.152 29.0796 26.0197 29.0731 19.9752 29.0731C13.8693 29.0731 13.8024 29.0765 13.6327 29.3936ZM34.8605 34.3065L33.5 35.6901L39.6228 41.8129C45.6031 47.7932 45.7616 47.9377 46.431 48.013C47.7908 48.1664 48.768 47.2177 48.6506 45.858L48.5865 45.1141L42.4809 39.0072C39.1229 35.6485 36.3407 32.9054 36.2983 32.9115C36.2557 32.9178 35.6088 33.5455 34.8605 34.3065ZM15.7836 34.2782C15.4022 34.6595 15.3926 35.0726 15.7574 35.4026C16.0028 35.6247 16.5305 35.656 20.0439 35.656C23.8463 35.656 24.066 35.6404 24.3566 35.3498C24.7512 34.9551 24.7436 34.6715 24.3276 34.2841C24.0084 33.9867 23.8062 33.972 20.0411 33.972C16.2938 33.972 16.074 33.9878 15.7836 34.2782Z" fill="#585858"/>
</svg>
