<svg width="180" height="53" viewBox="0 0 180 53" fill="none" xmlns="http://www.w3.org/2000/svg">
<g clip-path="url(#clip0_44_43)">
<path d="M65.3262 37.0217L53.7481 26.1632V37.0217H50.6578V14.9238H53.7481V25.8246L64.8182 14.9238V17.8871L56.7961 25.7822L65.3051 33.8044V36.9793L65.3262 37.0217Z" fill="#3C3C3C"/>
<path d="M74.0282 37.0887H71.7422V15.0332H74.0282V37.0887Z" fill="#3C3C3C"/>
<path d="M98.0497 15.031H100.272V37.0865L99.6583 37.5734L86.3234 22.1853C85.2228 20.873 84.1009 19.3067 84.1009 19.3067C84.1433 19.5395 84.2491 21.1481 84.2491 23.1166V37.0865H82.0266V15.031L82.8098 14.7559L96.3352 30.6307C97.0972 31.5197 98.1767 33.1072 98.1767 33.1072C98.1767 32.9379 98.0497 31.3292 98.0497 29.9534V15.0522V15.031Z" fill="#3C3C3C"/>
<path d="M106.873 26.6923C106.873 20.046 111.127 15.1777 118.218 15.1777C120.716 15.1777 122.875 15.7069 124.42 16.3419L123.658 18.141C122.218 17.5484 120.44 17.0827 118.345 17.0827C112.694 17.0827 109.328 21.2314 109.328 26.5441C109.328 31.8569 112.376 35.2436 118.176 35.2436C119.784 35.2436 121.16 35.0107 122.451 34.6721V26.5441H124.78V36.0267C123.002 36.6194 120.631 37.1486 117.858 37.1486C110.725 37.1486 106.852 33.0211 106.852 26.6923H106.873Z" fill="#3C3C3C"/>
<path d="M137.602 15.1152H132.014V37.1919H134.342V28.4925H135.633C141.518 28.3655 144.714 25.0635 144.714 21.0207C144.714 17.2531 142.322 15.1152 137.602 15.1152ZM135.633 26.524H134.342V17.1049H137.157C140.565 17.1049 142.364 18.3537 142.364 21.19C142.364 24.0263 140.607 26.4605 135.633 26.524Z" fill="#3C3C3C"/>
<path d="M153.847 37.1919H151.561V15.1152H153.847V37.1707V37.1919Z" fill="#3C3C3C"/>
<path d="M177.737 15.031H179.96V37.0865L179.346 37.5734L166.011 22.1853C164.91 20.873 163.788 19.3067 163.788 19.3067C163.831 19.5395 163.937 21.1481 163.937 23.1166V37.0865H161.714V15.031L162.497 14.7559L176.023 30.6307C176.785 31.5197 177.864 33.1072 177.864 33.1072C177.864 32.9379 177.737 31.3292 177.737 29.9534V15.0522V15.031Z" fill="#3C3C3C"/>
<path d="M26.0435 52.2832L-0.0124512 26.3119L26.0435 0.00195312L26.3399 8.89189L8.91982 26.3331L26.3399 43.478L26.0435 52.2832Z" fill="#3C3C3C"/>
<path d="M26.3362 11.6426L41.068 26.057L26.3362 40.2809L26.2938 33.1901L33.1094 26.057L26.3362 19.3895V11.6426Z" fill="#3C3C3C"/>
</g>
<defs>
<clipPath id="clip0_44_43">
<rect width="180" height="52.2813" fill="white"/>
</clipPath>
</defs>
</svg>
