<svg width="48" height="48" viewBox="0 0 48 48" fill="none" xmlns="http://www.w3.org/2000/svg">
<g clip-path="url(#clip0_29_424)">
<path d="M23.9775 0.958984C11.2527 0.958984 0.9375 11.2742 0.9375 23.999C0.9375 36.7238 11.2527 47.039 23.9775 47.039C36.7023 47.039 47.0175 36.7238 47.0175 23.999C47.0175 11.2742 36.7023 0.958984 23.9775 0.958984ZM18.3375 33.5486H13.6719V18.5342H18.3375V33.5486ZM15.9759 16.691C14.5023 16.691 13.5495 15.647 13.5495 14.3558C13.5495 13.0382 14.5311 12.0254 16.0359 12.0254C17.5407 12.0254 18.4623 13.0382 18.4911 14.3558C18.4911 15.647 17.5407 16.691 15.9759 16.691ZM35.3775 33.5486H30.7119V25.2278C30.7119 23.291 30.0351 21.9758 28.3479 21.9758C27.0591 21.9758 26.2935 22.8662 25.9551 23.723C25.8303 24.0278 25.7991 24.4598 25.7991 24.8894V33.5462H21.1311V23.3222C21.1311 21.4478 21.0711 19.8806 21.0087 18.5318H25.0623L25.2759 20.6174H25.3695C25.9839 19.6382 27.4887 18.1934 30.0063 18.1934C33.0759 18.1934 35.3775 20.2502 35.3775 24.671V33.5486Z" fill="#EFEFEF"/>
</g>
<defs>
<clipPath id="clip0_29_424">
<rect width="48" height="48" fill="white"/>
</clipPath>
</defs>
</svg>
