<svg width="200" height="46" viewBox="0 0 200 46" fill="none" xmlns="http://www.w3.org/2000/svg">
<mask id="mask0_44_87" style="mask-type:luminance" maskUnits="userSpaceOnUse" x="0" y="0" width="61" height="46">
<path d="M60.8023 0.548828H0V45.3221H60.8023V0.548828Z" fill="white"/>
</mask>
<g mask="url(#mask0_44_87)">
<mask id="mask1_44_87" style="mask-type:alpha" maskUnits="userSpaceOnUse" x="-6" y="0" width="73" height="46">
<path d="M66.2546 0.558594H-5.49219V45.135H66.2546V0.558594Z" fill="#C4C4C4"/>
</mask>
<g mask="url(#mask1_44_87)">
<path d="M17.9103 39.2541C18.4419 39.2547 18.9656 39.1247 19.4358 38.8759C19.9061 38.6272 20.3088 38.2671 20.6088 37.8266C20.9088 37.3861 21.0972 36.8791 21.1576 36.3488C21.2179 35.8188 21.1484 35.2823 20.9551 34.7853L13.7194 16.1675C13.4803 15.5526 13.0616 15.0246 12.5183 14.6524C11.975 14.2804 11.3324 14.0815 10.6746 14.082C10.143 14.0816 9.61928 14.2114 9.14907 14.4602C8.6788 14.7091 8.27616 15.0693 7.97607 15.5096C7.67607 15.95 7.48766 16.4572 7.42735 16.9872C7.36703 17.5173 7.4365 18.0541 7.62982 18.551L14.8625 37.1718C15.1024 37.7864 15.5217 38.3141 16.0655 38.6857C16.6094 39.0573 17.2524 39.2556 17.9103 39.2541Z" fill="#3C3C3C"/>
<path d="M32.5166 39.2533C33.0483 39.2539 33.572 39.1239 34.0423 38.8751C34.5126 38.6264 34.9152 38.266 35.2153 37.8258C35.5152 37.3853 35.7037 36.878 35.7639 36.348C35.8242 35.818 35.7548 35.2815 35.5616 34.7845L28.3288 16.1636C28.0896 15.5488 27.671 15.0207 27.1277 14.6486C26.5844 14.2765 25.9418 14.0776 25.284 14.0781C24.7524 14.0778 24.2287 14.2076 23.7584 14.4564C23.2881 14.7052 22.8855 15.0654 22.5855 15.5058C22.2855 15.9462 22.0971 16.4534 22.0368 16.9834C21.9764 17.5134 22.0459 18.0502 22.2392 18.5471L29.4718 37.1678C29.7111 37.7827 30.1298 38.3107 30.673 38.6829C31.2164 39.0551 31.8589 39.2539 32.5166 39.2533Z" fill="#3C3C3C"/>
<path d="M47.126 39.2533C47.6577 39.2539 48.1813 39.1239 48.6516 38.8751C49.1219 38.6264 49.5245 38.266 49.8247 37.8258C50.1245 37.3853 50.3131 36.878 50.3733 36.348C50.4336 35.818 50.3641 35.2815 50.1707 34.7845L42.9383 16.1636C42.699 15.5488 42.2803 15.0207 41.7372 14.6486C41.1937 14.2765 40.5512 14.0776 39.8932 14.0781C39.3618 14.0778 38.8382 14.2076 38.3679 14.4564C37.8976 14.7052 37.495 15.0654 37.1948 15.5058C36.895 15.9462 36.7064 16.4534 36.6462 16.9834C36.5856 17.5134 36.6554 18.0502 36.8485 18.5471L44.0812 37.1678C44.3205 37.7827 44.7392 38.3107 45.2823 38.6829C45.8255 39.0551 46.4683 39.2539 47.126 39.2533Z" fill="#3C3C3C"/>
<path d="M3.29964 39.2541C2.76799 39.2547 2.24431 39.1247 1.77402 38.876C1.30378 38.6272 0.90115 38.2671 0.601109 37.8266C0.301078 37.3861 0.112704 36.8791 0.052357 36.3488C-0.00798258 35.8188 0.0615177 35.2823 0.25484 34.7853L7.48604 16.1675C7.72527 15.5526 8.14389 15.0246 8.68719 14.6524C9.23046 14.2804 9.87304 14.0815 10.5308 14.082C11.0625 14.0816 11.5862 14.2114 12.0564 14.4602C12.5267 14.7091 12.9293 15.0693 13.2294 15.5096C13.5294 15.95 13.7178 16.4572 13.7781 16.9872C13.8384 17.5173 13.7689 18.0541 13.5757 18.5509L6.34441 37.1718C6.10472 37.7859 5.68596 38.3135 5.14266 38.6848C4.59944 39.0564 3.95709 39.255 3.29964 39.2541Z" fill="#3C3C3C"/>
<path d="M17.9246 39.2533C17.393 39.2539 16.8693 39.1239 16.399 38.8751C15.9288 38.6264 15.5261 38.266 15.2261 37.8258C14.9261 37.3853 14.7377 36.878 14.6774 36.348C14.617 35.818 14.6865 35.2815 14.8798 34.7845L22.111 16.1636C22.3502 15.5488 22.7689 15.0207 23.3122 14.6486C23.8554 14.2765 24.498 14.0776 25.1558 14.0781C25.6875 14.0778 26.2111 14.2076 26.6814 14.4564C27.1517 14.7052 27.5543 15.0654 27.8543 15.5058C28.1544 15.9462 28.3428 16.4534 28.4031 16.9834C28.4634 17.5134 28.3939 18.0502 28.2006 18.5471L20.9694 37.1678C20.7302 37.7827 20.3116 38.3107 19.7683 38.6829C19.225 39.0551 18.5824 39.2539 17.9246 39.2533Z" fill="#3C3C3C"/>
<path d="M32.5183 39.2553C31.9866 39.2556 31.4629 39.1259 30.9929 38.8771C30.5226 38.6283 30.1197 38.2679 29.8199 37.8278C29.5197 37.3873 29.3315 36.88 29.2712 36.35C29.2107 35.82 29.2801 35.2832 29.4735 34.7865L36.7034 16.1656C36.9424 15.5508 37.361 15.0227 37.9045 14.6506C38.4477 14.2785 39.0902 14.0796 39.7481 14.0801C40.2798 14.0797 40.8035 14.2095 41.2735 14.4583C41.7438 14.7071 42.1464 15.0673 42.4466 15.5077C42.7467 15.9481 42.9349 16.4553 42.9955 16.9854C43.0557 17.5153 42.9863 18.0521 42.7929 18.5491L35.5631 37.1698C35.324 37.7847 34.9054 38.3127 34.3619 38.6849C33.8187 39.057 33.1762 39.2559 32.5183 39.2553Z" fill="#3C3C3C"/>
<path d="M47.12 39.2538C46.5883 39.2541 46.0646 39.1244 45.5943 38.8757C45.124 38.6269 44.7214 38.2665 44.4213 37.826C44.1214 37.3858 43.9329 36.8785 43.8726 36.3485C43.8124 35.8186 43.8818 35.2817 44.0752 34.7847L54.4669 8.16171C54.7062 7.54682 55.1249 7.01876 55.668 6.64665C56.2112 6.27451 56.854 6.07568 57.5117 6.07617C58.0434 6.07577 58.567 6.20561 59.0373 6.45442C59.5076 6.7032 59.9102 7.06343 60.2104 7.50381C60.5102 7.94421 60.6987 8.45138 60.759 8.98142C60.8193 9.51141 60.7498 10.0482 60.5564 10.5452L50.1647 37.1698C49.9254 37.7844 49.5065 38.3121 48.9633 38.684C48.4201 39.0559 47.7777 39.2544 47.12 39.2538Z" fill="#3C3C3C"/>
<path d="M50.1667 34.7837L47.1262 26.9512L44.0829 34.7837C43.8255 35.4457 43.7894 36.1736 43.9799 36.858C44.1707 37.5424 44.5776 38.1461 45.14 38.5779L45.2631 38.6689L45.3107 38.7002C45.3627 38.7358 45.416 38.7702 45.4711 38.8015L45.4964 38.8164C45.7701 38.9751 46.0657 39.0927 46.3736 39.1647L46.4034 39.1722C46.4657 39.1857 46.5311 39.1992 46.5948 39.2095L46.6513 39.2184L46.8235 39.2379H46.8918C46.963 39.2379 47.0401 39.2468 47.107 39.2468H47.1457C47.2183 39.2468 47.2941 39.2468 47.361 39.2379H47.4292L47.6014 39.2184L47.6579 39.2095C47.7231 39.1992 47.7871 39.1857 47.8493 39.1722L47.8789 39.1647C48.1871 39.0927 48.4826 38.9751 48.7564 38.8164L48.7816 38.8015C48.8364 38.7702 48.8901 38.7358 48.942 38.7002L48.9894 38.6689C49.031 38.6391 49.0726 38.6092 49.1127 38.5779C49.6743 38.1455 50.0809 37.5418 50.2711 36.8574C50.4611 36.1731 50.4247 35.4454 50.1667 34.7837Z" fill="#3C3C3C"/>
<path d="M35.567 34.7837L32.5237 26.9512L29.4818 34.7837C29.2241 35.4457 29.1877 36.1734 29.3782 36.8577C29.5684 37.5421 29.9753 38.1458 30.5372 38.5779L30.6605 38.6689L30.7082 38.7002C30.7616 38.7358 30.8135 38.7702 30.8683 38.8015L30.8935 38.8164C31.1673 38.9751 31.4631 39.0927 31.771 39.1647L31.8006 39.1722C31.8646 39.1857 31.9283 39.1992 31.9923 39.2095L32.0485 39.2184L32.2207 39.2379H32.2892C32.3604 39.2379 32.4376 39.2468 32.5042 39.2468H32.5429C32.6158 39.2468 32.6913 39.2468 32.7581 39.2379H32.8264L32.9986 39.2184L33.0551 39.2095C33.1205 39.1992 33.1842 39.1857 33.2482 39.1722L33.2763 39.1647C33.5842 39.0927 33.8798 38.9751 34.1538 38.8164C34.1624 38.8121 34.171 38.8072 34.1788 38.8015C34.2339 38.7702 34.2872 38.7358 34.3392 38.7002L34.3868 38.6689C34.4284 38.6391 34.4697 38.6092 34.5099 38.5779C35.0723 38.1461 35.4795 37.5424 35.67 36.858C35.8608 36.1736 35.8244 35.4457 35.567 34.7837Z" fill="#3C3C3C"/>
<path d="M20.9576 34.7837L17.9142 26.9512L14.8724 34.7837C14.6147 35.4457 14.5783 36.1734 14.7687 36.8577C14.9591 37.5421 15.3659 38.1458 15.9279 38.5779L16.0511 38.6689L16.0986 38.7002C16.1521 38.7358 16.204 38.7702 16.259 38.8015L16.2842 38.8164C16.558 38.9751 16.8536 39.0927 17.1616 39.1647L17.1913 39.1722C17.2537 39.1857 17.319 39.1992 17.3828 39.2095L17.4392 39.2184L17.6114 39.2379H17.6797C17.751 39.2379 17.8281 39.2468 17.8949 39.2468H17.9335C18.0063 39.2468 18.082 39.2468 18.1488 39.2379H18.2171L18.3893 39.2184L18.4457 39.2095C18.511 39.1992 18.5749 39.1857 18.6372 39.1722L18.6669 39.1647C18.9749 39.0927 19.2705 38.9751 19.5443 38.8164L19.5696 38.8015C19.6244 38.7702 19.6779 38.7358 19.7299 38.7002L19.7773 38.6689C19.8189 38.6391 19.8605 38.6092 19.9006 38.5779C20.4628 38.1461 20.87 37.5424 21.0606 36.858C21.2513 36.1736 21.2151 35.4457 20.9576 34.7837Z" fill="#3C3C3C"/>
<path d="M42.9275 18.5494L39.8842 26.382L36.8408 18.5494C36.5834 17.8875 36.547 17.1595 36.7378 16.4751C36.9284 15.7908 37.3355 15.1872 37.8979 14.7552C37.9378 14.724 37.9794 14.6941 38.021 14.6643L38.0669 14.6271C38.1189 14.5913 38.1725 14.5571 38.2273 14.5259L38.2526 14.5109C38.5263 14.3521 38.8222 14.2346 39.1301 14.1624H39.1596C39.2222 14.149 39.2859 14.1356 39.3513 14.1251L39.4076 14.1162L39.5797 14.0968H39.648C39.7195 14.0968 39.7966 14.0879 39.8632 14.0879H39.902C39.9746 14.0879 40.0503 14.0879 40.1172 14.0968H40.1855L40.3576 14.1162L40.4141 14.1251C40.4781 14.1356 40.5433 14.149 40.6055 14.1624H40.6354C40.9433 14.2346 41.2388 14.3521 41.5126 14.5109L41.5381 14.5259C41.5929 14.5571 41.6463 14.5913 41.6982 14.6271L41.7459 14.6584L41.869 14.7493C42.4328 15.1814 42.8411 15.786 43.0319 16.4716C43.223 17.1572 43.1863 17.8866 42.9275 18.5494Z" fill="#3C3C3C"/>
<path d="M13.7244 18.5493L10.681 26.3819L7.63772 18.5493C7.38019 17.8874 7.344 17.1594 7.53465 16.4751C7.72526 15.7907 8.13244 15.1871 8.69476 14.7552L8.81792 14.6643L8.86544 14.633C8.91743 14.5973 8.97083 14.563 9.02578 14.5317L9.05103 14.5168C9.32475 14.3579 9.62042 14.2404 9.92833 14.1682H9.95809C10.0204 14.1548 10.0843 14.1414 10.1496 14.131L10.206 14.122L10.3782 14.1027H10.4465C10.5177 14.1027 10.5949 14.0938 10.6618 14.0938H10.7003C10.7731 14.0938 10.8488 14.0938 10.9156 14.1027H10.9839L11.1561 14.122L11.2126 14.131C11.2764 14.1414 11.3416 14.1548 11.404 14.1682H11.4337C11.7417 14.2404 12.0373 14.3579 12.3111 14.5168L12.3363 14.5317C12.3913 14.563 12.4447 14.5973 12.4967 14.633L12.5441 14.6643L12.6674 14.7552C13.2297 15.1871 13.6368 15.7907 13.8275 16.4751C14.0181 17.1594 13.9819 17.8874 13.7244 18.5493Z" fill="#3C3C3C"/>
<path d="M28.3259 18.5493L25.2826 26.3819L22.2393 18.5493C21.9817 17.8874 21.9456 17.1594 22.1362 16.4751C22.3269 15.7907 22.734 15.1871 23.2963 14.7552L23.4195 14.6643L23.467 14.633C23.5189 14.5973 23.5724 14.563 23.6273 14.5317L23.6525 14.5168C23.9263 14.3579 24.222 14.2404 24.5299 14.1682H24.5596C24.6219 14.1548 24.6858 14.1414 24.7511 14.131L24.8075 14.122L24.9798 14.1027H25.048C25.1193 14.1027 25.1965 14.0938 25.2633 14.0938H25.3019C25.3746 14.0938 25.4503 14.0938 25.5172 14.1027H25.5854L25.7576 14.122L25.8141 14.131C25.8779 14.1414 25.9432 14.1548 26.0056 14.1682H26.0353C26.3432 14.2404 26.6389 14.3579 26.9127 14.5168L26.9378 14.5317C26.9928 14.563 27.0463 14.5973 27.0982 14.633L27.1457 14.6643L27.2689 14.7552C27.8312 15.1871 28.2383 15.7907 28.429 16.4751C28.6196 17.1594 28.5834 17.8874 28.3259 18.5493Z" fill="#3C3C3C"/>
</g>
</g>
<path d="M89.3735 13.3138V32.5463H84.0266V21.9342L80.3985 32.5463H75.9245L72.2688 21.8524V32.5463H66.9219V13.3138H73.3873L78.216 25.808L82.9354 13.3138H89.3735ZM110.123 13.3138L103.358 26.4355V32.5463H97.9836V26.4355L91.2183 13.3138H97.3288L100.712 20.7339L104.094 13.3138H110.123ZM139.073 13.3138L134.354 32.5463H127.78L125.133 20.7612L122.433 32.5463H115.858L111.193 13.3138H116.977L119.213 26.4627L122.242 13.3138H128.107L131.053 26.3536L133.29 13.3138H139.073ZM150.783 32.7371C148.982 32.7371 147.327 32.3188 145.818 31.4823C144.308 30.6275 143.108 29.4545 142.217 27.9631C141.344 26.4536 140.907 24.7532 140.907 22.8618C140.907 20.9703 141.344 19.279 142.217 17.7877C143.108 16.2782 144.308 15.1051 145.818 14.2686C147.327 13.4319 148.982 13.0137 150.783 13.0137C152.601 13.0137 154.256 13.4319 155.747 14.2686C157.257 15.1051 158.448 16.2782 159.321 17.7877C160.194 19.279 160.631 20.9703 160.631 22.8618C160.631 24.7532 160.194 26.4536 159.321 27.9631C158.448 29.4545 157.257 30.6275 155.747 31.4823C154.238 32.3188 152.583 32.7371 150.783 32.7371ZM150.783 27.7722C152.147 27.7722 153.22 27.3266 154.002 26.4355C154.802 25.5443 155.202 24.3531 155.202 22.8618C155.202 21.3341 154.802 20.1338 154.002 19.2608C153.22 18.3697 152.147 17.9241 150.783 17.9241C149.4 17.9241 148.318 18.3697 147.536 19.2608C146.754 20.1338 146.363 21.3341 146.363 22.8618C146.363 24.3713 146.754 25.5716 147.536 26.4627C148.318 27.3357 149.4 27.7722 150.783 27.7722ZM172.993 32.5463L169.174 25.4534H168.601V32.5463H163.254V13.3138H171.683C173.229 13.3138 174.539 13.5866 175.612 14.1322C176.685 14.6596 177.494 15.3961 178.04 16.3418C178.585 17.2694 178.858 18.3151 178.858 19.479C178.858 20.7885 178.494 21.9433 177.767 22.9436C177.058 23.9257 176.012 24.6259 174.63 25.0442L178.967 32.5463H172.993ZM168.601 21.7979H171.247C171.974 21.7979 172.52 21.6251 172.884 21.2795C173.248 20.934 173.429 20.4338 173.429 19.7791C173.429 19.1608 173.238 18.6788 172.856 18.3333C172.493 17.9695 171.956 17.7877 171.247 17.7877H168.601V21.7979ZM192.885 32.5463L186.856 24.1167V32.5463H181.509V13.3138H186.856V21.6069L192.83 13.3138H198.996L191.93 22.6435L199.35 32.5463H192.885Z" fill="#3C3C3C"/>
</svg>
