<svg width="65" height="65" viewBox="0 0 65 65" fill="none" xmlns="http://www.w3.org/2000/svg">
<path d="M47.668 8.82007C46.8723 8.82007 46.1093 8.504 45.5466 7.94139C44.984 7.37878 44.668 6.61572 44.668 5.82007C44.668 5.02442 44.984 4.26136 45.5466 3.69875C46.1093 3.13614 46.8723 2.82007 47.668 2.82007H59.668C60.4636 2.82007 61.2267 3.13614 61.7893 3.69875C62.3519 4.26136 62.668 5.02442 62.668 5.82007V17.8201C62.668 18.6157 62.3519 19.3788 61.7893 19.9414C61.2267 20.504 60.4636 20.8201 59.668 20.8201C58.8723 20.8201 58.1093 20.504 57.5467 19.9414C56.984 19.3788 56.668 18.6157 56.668 17.8201V13.0621L39.289 30.4411C38.7264 31.0035 37.9635 31.3194 37.168 31.3194C36.3725 31.3194 35.6096 31.0035 35.047 30.4411L26.668 22.0621L10.789 37.9411C10.2232 38.4875 9.46536 38.7899 8.67877 38.7831C7.89217 38.7763 7.13974 38.4607 6.58351 37.9045C6.02729 37.3483 5.71178 36.5959 5.70495 35.8093C5.69811 35.0227 6.00049 34.2649 6.54697 33.6991L24.547 15.6991C25.1096 15.1367 25.8725 14.8207 26.668 14.8207C27.4635 14.8207 28.2264 15.1367 28.789 15.6991L37.168 24.0781L52.426 8.82007H47.668ZM11.668 50.8201V59.8201C11.668 60.6157 11.3519 61.3788 10.7893 61.9414C10.2267 62.504 9.46362 62.8201 8.66797 62.8201C7.87232 62.8201 7.10926 62.504 6.54665 61.9414C5.98404 61.3788 5.66797 60.6157 5.66797 59.8201V50.8201C5.66797 50.0244 5.98404 49.2614 6.54665 48.6987C7.10926 48.1361 7.87232 47.8201 8.66797 47.8201C9.46362 47.8201 10.2267 48.1361 10.7893 48.6987C11.3519 49.2614 11.668 50.0244 11.668 50.8201ZM26.668 38.8201C26.668 38.0244 26.3519 37.2614 25.7893 36.6987C25.2267 36.1361 24.4636 35.8201 23.668 35.8201C22.8723 35.8201 22.1093 36.1361 21.5467 36.6987C20.984 37.2614 20.668 38.0244 20.668 38.8201V59.8201C20.668 60.6157 20.984 61.3788 21.5467 61.9414C22.1093 62.504 22.8723 62.8201 23.668 62.8201C24.4636 62.8201 25.2267 62.504 25.7893 61.9414C26.3519 61.3788 26.668 60.6157 26.668 59.8201V38.8201ZM38.668 41.8201C39.4636 41.8201 40.2267 42.1361 40.7893 42.6987C41.3519 43.2614 41.668 44.0244 41.668 44.8201V59.8201C41.668 60.6157 41.3519 61.3788 40.7893 61.9414C40.2267 62.504 39.4636 62.8201 38.668 62.8201C37.8723 62.8201 37.1093 62.504 36.5467 61.9414C35.984 61.3788 35.668 60.6157 35.668 59.8201V44.8201C35.668 44.0244 35.984 43.2614 36.5467 42.6987C37.1093 42.1361 37.8723 41.8201 38.668 41.8201ZM56.668 29.8201C56.668 29.0244 56.3519 28.2614 55.7893 27.6987C55.2267 27.1361 54.4636 26.8201 53.668 26.8201C52.8723 26.8201 52.1093 27.1361 51.5466 27.6987C50.984 28.2614 50.668 29.0244 50.668 29.8201V59.8201C50.668 60.6157 50.984 61.3788 51.5466 61.9414C52.1093 62.504 52.8723 62.8201 53.668 62.8201C54.4636 62.8201 55.2267 62.504 55.7893 61.9414C56.3519 61.3788 56.668 60.6157 56.668 59.8201V29.8201Z" fill="#636363"/>
</svg>
