<svg width="75" height="65" viewBox="0 0 75 65" fill="none" xmlns="http://www.w3.org/2000/svg">
<g clip-path="url(#clip0_98_2871)">
<path fill-rule="evenodd" clip-rule="evenodd" d="M49.3773 4.68975C49.0751 5.10409 48.3698 6.06597 47.81 6.82722C47.2502 7.58847 46.065 9.20784 45.1765 10.4258C44.2879 11.6438 42.9262 13.5051 42.1505 14.5622C41.3749 15.6192 40.242 17.1691 39.6331 18.0063C39.0241 18.8435 37.4545 20.9876 36.1452 22.7711C34.8358 24.5544 32.8668 27.2399 31.7696 28.7387C30.6723 30.2376 29.5512 31.7676 29.2782 32.1388C27.0005 35.236 25.5775 37.1904 25.4659 37.375C25.3871 37.5052 26.2233 37.5207 30.9914 37.4773C34.945 37.4414 36.6233 37.4615 36.6552 37.5454C36.6979 37.6576 36.3396 38.7284 35.2631 41.7061C34.4229 44.0301 34.2448 44.5272 34.1519 44.8064C34.1013 44.9587 33.8006 45.8058 33.4838 46.6888C33.1672 47.5718 32.6946 48.8923 32.4337 49.623C32.1728 50.3538 31.7505 51.5248 31.4953 52.2251C31.24 52.9255 30.9906 53.623 30.941 53.7753C30.8914 53.9275 30.6423 54.6251 30.3874 55.3255C30.1325 56.0258 29.8829 56.7234 29.8327 56.8756C29.7826 57.0279 29.5595 57.6507 29.3369 58.2597C29.1144 58.8687 28.766 59.8403 28.5627 60.4189C28.3594 60.9974 27.9887 62.0391 27.739 62.7338C27.4893 63.4285 27.3061 64.0181 27.3318 64.0437C27.3576 64.0695 27.769 63.5561 28.2464 62.9029C28.7236 62.2496 29.8614 60.7043 30.7749 59.4689C31.6884 58.2334 32.8319 56.6836 33.3159 56.0249C34.2001 54.8214 35.5591 52.9764 37.3785 50.5089C37.9175 49.7781 39.0155 48.2833 39.8186 47.1871C40.6217 46.0909 41.3078 45.1691 41.3431 45.1386C41.3784 45.1082 41.7284 44.6348 42.121 44.0867C42.5134 43.5386 43.5543 42.1186 44.434 40.931C45.3138 39.7435 46.4742 38.1739 47.0125 37.4431C47.551 36.7123 48.2491 35.7656 48.5639 35.3393C48.8787 34.913 49.7563 33.7172 50.514 32.6819L51.8917 30.7995L46.233 30.7709C42.7367 30.7531 40.5742 30.7018 40.5742 30.6365C40.5742 30.5784 40.6788 30.2675 40.8065 29.9455C40.9343 29.6235 41.2288 28.812 41.461 28.1421C41.6932 27.4722 42.0655 26.4258 42.2884 25.8168C42.5113 25.2078 42.8596 24.2362 43.0625 23.6577C43.2653 23.0791 43.6895 21.8833 44.0051 21.0002C44.3205 20.1172 44.6195 19.2701 44.6692 19.1179C44.7189 18.9656 45.0181 18.1186 45.334 17.2355C45.6498 16.3525 46.0722 15.1566 46.2728 14.5781C46.4732 13.9995 46.7151 13.3269 46.8103 13.0833C46.9055 12.8397 47.5373 11.0708 48.2144 9.15248C48.8913 7.23414 49.5712 5.32854 49.7251 4.91785C49.8789 4.50705 49.9873 4.11829 49.9657 4.05374C49.9442 3.9893 49.6795 4.27553 49.3773 4.68975ZM36.2005 7.11699C31.4835 7.60873 27.5542 8.95782 23.9099 11.3369C23.3009 11.7345 22.7777 12.0924 22.7472 12.1321C22.7168 12.172 22.4751 12.3613 22.21 12.5531C21.1223 13.3399 19.164 15.2444 17.9644 16.6819C17.3212 17.4528 15.9929 19.294 15.9929 19.415C15.9929 19.4551 15.9233 19.5666 15.838 19.6628C15.5907 19.942 14.5281 21.9738 13.8646 23.4362C13.4382 24.3762 12.6035 26.9179 12.3374 28.0867C10.5199 36.0691 12.1325 43.9273 16.8707 50.1767C17.7168 51.2928 17.7628 51.3435 19.4779 53.0556C20.5189 54.0947 21.6461 55.0871 22.489 55.7064C23.8448 56.7026 26.0242 58.0881 26.2411 58.0917C26.3052 58.0927 26.4643 57.7823 26.5946 57.4016C26.7248 57.021 26.931 56.444 27.0528 56.1195L27.2744 55.5293L26.9338 55.3444C26.3351 55.0193 24.166 53.549 23.529 53.0365C22.5559 52.2537 20.6994 50.3792 19.8194 49.2909C18.717 47.9275 18.0148 46.8631 17.225 45.3589C16.0534 43.1273 15.5113 41.6598 14.8939 39.0487C14.7102 38.2714 14.4427 36.4399 14.4427 35.9583V35.523L15.1902 35.4544C16.4254 35.3409 16.6365 35.2872 16.9781 34.9997C17.3736 34.667 17.4943 34.2015 17.3211 33.6769C17.1387 33.124 16.6985 32.9254 15.4947 32.8527L14.4981 32.7926L14.4606 32.4051C14.391 31.6881 14.9154 28.8196 15.396 27.2884C17.7445 19.805 23.6637 13.5987 30.7196 11.2213C32.6569 10.5686 35.191 10.032 36.4773 10.0022L37.3078 9.98293L37.32 10.8165C37.3385 12.0845 37.8326 12.8065 38.6821 12.8065C39.5339 12.8065 40.0142 12.0604 40.0182 10.7303L40.0206 9.92756L40.4912 9.93022C40.7499 9.93166 41.1594 9.97861 41.4009 10.0346C41.7117 10.1067 41.887 10.0979 42.0009 10.0043C42.1924 9.84707 43.5638 7.74913 43.5638 7.61349C43.5638 7.40256 41.1414 7.13736 38.9133 7.10437C37.6649 7.08599 36.4441 7.09163 36.2005 7.11699ZM50.4912 11.39C50.0829 12.5863 50.0751 12.6363 50.276 12.7767C50.3905 12.8568 51.0074 13.2671 51.6469 13.6884C53.1917 14.7061 54.1275 15.4648 55.4995 16.8121C56.8499 18.1382 57.3513 18.7172 58.3327 20.0839C60.4229 22.9951 61.8157 26.1868 62.5058 29.647C62.6933 30.5866 62.9249 32.5396 62.8669 32.6908C62.8315 32.783 62.4577 32.8401 61.7237 32.8656C60.7631 32.8988 60.6003 32.9341 60.3589 33.1612C60.0164 33.4833 59.8486 34.115 59.9836 34.5745C60.1359 35.0928 60.6173 35.3179 61.695 35.3745C62.2021 35.4011 62.6479 35.4784 62.691 35.547C62.7945 35.7122 62.7435 36.9332 62.5956 37.8307C61.9571 41.7071 60.6159 44.9738 58.368 48.1282C57.2371 49.7152 55.9018 51.1742 54.3 52.5731C52.3935 54.238 49.0854 56.1648 46.7196 56.988C44.7387 57.6773 41.5312 58.2875 40.4126 58.188L39.9741 58.149L40.005 57.5783C40.108 55.6755 38.6089 54.6221 37.6953 55.9555C37.4742 56.2783 37.4073 56.5394 37.3632 57.2542L37.3078 58.149H36.3297H35.3517L34.5364 59.3116C34.0881 59.9511 33.7185 60.5252 33.7152 60.5874C33.7063 60.7547 34.8679 60.9448 36.8416 61.0993C39.6627 61.32 43.2688 60.958 45.9445 60.1857C52.2616 58.362 57.4618 54.6122 61.0527 49.2909C63.6613 45.4251 64.934 41.9577 65.596 36.9126C65.7452 35.7757 65.7405 32.6357 65.5878 31.3657C65.2835 28.8355 64.7217 26.5221 63.8689 24.2874C63.4635 23.2251 62.2941 20.8269 61.9367 20.325C61.8192 20.1599 61.723 19.9947 61.723 19.9577C61.723 19.8924 61.3253 19.3028 60.5215 18.1767C58.7889 15.7491 55.7791 12.9443 53.1971 11.3508C52.8128 11.1137 51.0183 10.149 50.9614 10.149C50.9358 10.149 50.7242 10.7074 50.4912 11.39Z" fill="#636363"/>
</g>
<defs>
<clipPath id="clip0_98_2871">
<rect width="74.3137" height="64" fill="white" transform="translate(0.00976562 0.820068)"/>
</clipPath>
</defs>
</svg>
