<svg width="49" height="49" viewBox="0 0 49 49" fill="none" xmlns="http://www.w3.org/2000/svg">
<path fill-rule="evenodd" clip-rule="evenodd" d="M28.2226 7.11349C27.4086 7.46795 27.075 8.31967 27.075 10.0436C27.075 11.0464 27.0004 11.3231 26.702 11.426C26.4968 11.497 25.7233 11.7909 24.9828 12.0791L23.6366 12.6032L22.2576 11.2789C21.0013 10.0726 20.8176 9.96684 20.1935 10.0905C19.7288 10.1825 19.0093 10.7248 17.9576 11.7747L16.4068 13.3232L18.7036 15.3589C20.6707 17.1027 21.1337 17.4128 21.9291 17.5194C22.7798 17.6332 22.9639 17.5656 24.1192 16.7152C25.9219 15.3881 27.4308 14.8625 29.7792 14.7436C32.9584 14.5827 35.1593 15.4286 37.444 17.6901C40.5248 20.7395 41.2761 25.3321 39.3423 29.2944C37.6122 32.839 34.2403 34.9427 30.2884 34.9427C27.6776 34.9427 25.6919 34.2202 23.5844 32.5037L22.4225 31.5574L20.3437 33.9427C19.2002 35.2548 18.0697 36.5469 17.831 36.8141L17.397 37.3003L18.133 38.035C18.5378 38.4391 19.1761 38.8311 19.5517 38.9057C20.169 39.0287 20.358 38.9238 21.5226 37.8129L22.8109 36.5842L24.2673 37.2556C25.0683 37.6247 25.8358 37.9267 25.9731 37.9267C26.1438 37.9267 26.2224 38.4941 26.2224 39.7265C26.2224 41.3012 26.2843 41.5981 26.7163 42.1007C27.152 42.6072 27.4016 42.6873 28.83 42.7789C30.7089 42.8994 32.1766 42.722 32.7478 42.3053C33.0712 42.0694 33.1705 41.6499 33.2562 40.1577L33.3627 38.3032L34.535 37.9397C35.1798 37.7398 35.9307 37.4559 36.2037 37.3088C36.6618 37.0618 36.795 37.1317 37.9349 38.2192C39.9329 40.1249 40.483 40.0499 42.9009 37.542C44.7955 35.5771 44.8245 35.1254 43.1633 33.4467L41.9872 32.2582L42.7903 30.5126L43.5936 28.7671L45.3284 28.7644C47.8904 28.7603 48.0492 28.5862 48.1427 25.6757C48.2542 22.2147 47.8931 21.7279 45.2158 21.7279H43.7678L43.4971 20.822C43.3483 20.3239 43.0367 19.5436 42.805 19.0883L42.3836 18.2607L43.6812 16.9511C45.4778 15.1385 45.4642 14.7295 43.5403 12.7343C41.1559 10.2612 40.5704 10.1648 38.6962 11.9373L37.5753 12.9975L36.215 12.354C35.4669 12 34.735 11.7103 34.5883 11.7103C34.399 11.7101 34.3219 11.251 34.3219 10.1254C34.3219 8.1061 34.09 7.50674 33.1577 7.11733C32.2137 6.7228 29.1259 6.72046 28.2226 7.11349ZM13.7041 18.0516L13.8299 20.4354L13.0457 20.5699C5.45719 21.8707 1.08733 26.547 0.311488 34.1967L0.160156 35.6887L1.15575 34.4689C2.25642 33.1204 4.29428 31.5672 5.82337 30.9118C7.89938 30.0219 11.4591 29.5937 13.7003 29.9641L14.4996 30.0963L14.5183 31.4005C14.5286 32.1177 14.6004 33.1675 14.6782 33.7329L14.8193 34.7611L18.869 30.1178C21.0964 27.5639 23.079 25.2733 23.2749 25.0275C23.6232 24.5908 23.5377 24.4977 19.4628 20.8631C17.1703 18.8182 14.9084 16.8128 14.4363 16.4065L13.5784 15.6678L13.7041 18.0516ZM28.8665 21.9205C27.7223 22.44 27.075 23.4874 27.075 24.8184C27.075 26.1495 27.7223 27.1969 28.8665 27.7163C29.9979 28.2302 30.7311 28.223 31.781 27.6873C32.913 27.1097 33.4678 26.1664 33.4678 24.8184C33.4678 23.4705 32.913 22.5272 31.781 21.9495C30.7311 21.4139 29.9979 21.4067 28.8665 21.9205Z" fill="#585858"/>
</svg>
