<svg width="49" height="49" viewBox="0 0 49 49" fill="none" xmlns="http://www.w3.org/2000/svg">
<path fill-rule="evenodd" clip-rule="evenodd" d="M38.5813 1.00087C38.3627 1.13407 38.1958 1.3584 38.031 1.74052L37.7943 2.28878L36.9836 2.39738C36.5378 2.45717 36.0674 2.52663 35.9384 2.55188C35.7459 2.58942 35.6551 2.52804 35.433 2.21049C34.8275 1.34442 34.2679 1.26519 33.171 1.89033C32.2491 2.41568 32.019 2.628 31.9025 3.06062C31.8076 3.41308 31.8496 3.64689 32.133 4.34467L32.2921 4.73608L31.8542 5.27373C31.6133 5.5695 31.3718 5.90891 31.3175 6.02821C31.2231 6.23527 31.1861 6.2425 30.4901 6.18881C29.8469 6.13925 29.7225 6.15662 29.4302 6.3373C29.0898 6.54765 28.9636 6.79648 28.6675 7.84222C28.344 8.98482 28.5713 9.51731 29.5581 9.92796C30.1252 10.164 30.1676 10.2025 30.1942 10.505C30.2226 10.8289 30.2231 10.8291 30.8043 10.892C31.41 10.9575 34.0883 11.4126 34.1344 11.4578C34.1489 11.4721 33.3572 12.4481 32.3751 13.6267C31.1302 15.1209 30.6248 15.7923 30.7061 15.8439C30.9198 15.9795 31.3388 15.9234 31.9116 15.6823L32.4786 15.4437L32.7919 15.7187C32.9642 15.87 33.2927 16.1229 33.5219 16.2806L33.9386 16.5672L33.8497 17.1543C33.7494 17.8177 33.8536 18.3232 34.1451 18.5871C34.3188 18.7443 34.3821 18.6806 36.0897 16.6309C37.1979 15.3006 37.8779 14.556 37.9169 14.6299C37.9512 14.6946 38.2041 15.3734 38.4792 16.1384L38.9792 17.529L39.4064 17.4773C39.8302 17.4259 39.8366 17.4294 40.1934 17.9014C40.5941 18.4316 41.072 18.6874 41.5245 18.614C41.9745 18.541 43.3759 17.6706 43.5648 17.3468C43.7842 16.9707 43.7633 16.4447 43.5065 15.8757L43.2955 15.4081L43.7559 14.8432C44.009 14.5324 44.2614 14.1828 44.3166 14.0661C44.4115 13.8657 44.456 13.857 45.129 13.9082C45.7405 13.9547 45.8834 13.9356 46.1414 13.7724C46.5172 13.535 46.6522 13.2695 46.9214 12.239C47.1286 11.4458 47.1303 11.4066 46.9747 10.999C46.8062 10.558 46.5191 10.3238 45.8645 10.0935C45.5633 9.98766 45.5119 9.92843 45.5087 9.68354C45.5066 9.52613 45.452 9.09539 45.3872 8.72641L45.2694 8.05548L45.7617 7.67458C46.1381 7.38341 46.2783 7.20329 46.3573 6.90949C46.4814 6.44891 46.4449 6.31065 45.969 5.43931C45.2968 4.20819 44.7413 3.94913 43.7177 4.38954L43.2491 4.59106L42.9024 4.26217C42.7118 4.0812 42.3599 3.80167 42.1205 3.64098L41.6853 3.34869L41.7342 2.73876C41.8211 1.6567 41.5439 1.32536 40.2823 1.00322C39.3283 0.759645 38.9777 0.759176 38.5813 1.00087ZM14.661 4.55455C14.1689 4.78236 14.0221 5.06123 13.7833 6.22213C13.6803 6.72242 13.5862 7.13768 13.574 7.145C13.5619 7.15223 13.2001 7.25022 12.77 7.36276C12.34 7.47521 11.6855 7.68809 11.3156 7.83574L10.6431 8.10428L9.89169 7.41279C9.03406 6.62349 8.64565 6.45088 8.11842 6.6249C7.819 6.72364 5.4265 8.66578 5.06917 9.10008C4.9983 9.18616 4.91964 9.43968 4.89449 9.66345C4.84192 10.1297 4.9402 10.3572 5.64708 11.4067C6.10692 12.0894 6.11255 12.1063 5.95899 12.3453C5.68895 12.7656 5.08822 13.9813 4.96911 14.3487L4.85497 14.7006L3.85316 14.7027C3.06396 14.7043 2.76594 14.7435 2.44849 14.8876C1.83725 15.1651 1.7234 15.5182 1.57735 17.5878C1.46781 19.1405 1.47091 19.332 1.61048 19.6247C1.69524 19.8024 1.87029 20.0171 1.99954 20.1017C2.20586 20.2369 3.08357 20.4633 4.12743 20.6505C4.44967 20.7082 4.47022 20.7351 4.58333 21.2491C4.64856 21.5452 4.82747 22.1155 4.98093 22.5167L5.26008 23.246L4.58089 23.9716C4.2074 24.3706 3.82397 24.8238 3.72898 24.9787C3.53215 25.2993 3.50803 25.8205 3.67604 26.1217C3.95012 26.613 6.03061 28.9596 6.28583 29.0652C6.80001 29.2782 7.30162 29.1354 8.22871 28.5119C8.70037 28.1949 9.12943 27.9354 9.18227 27.9354C9.23502 27.9354 9.47954 28.0592 9.72555 28.2105C9.97157 28.3618 10.4946 28.6385 10.8878 28.8251L11.6028 29.1647L11.6707 30.3569C11.7493 31.7375 11.8457 31.9725 12.4548 32.2673C12.8007 32.4348 12.8821 32.4453 12.9829 32.3357C13.0485 32.2645 14.1507 30.939 15.4322 29.3903C16.7137 27.8415 18.4975 25.6956 19.396 24.6216L21.0299 22.6687L20.8701 21.571C20.4426 18.6359 21.3169 15.8795 23.3564 13.7323C24.383 12.6516 25.8921 11.6994 27.1856 11.3162C27.405 11.2512 27.5845 11.1429 27.5845 11.0757C27.5845 10.9423 27.1309 10.3637 25.9216 8.9545C24.7661 7.60775 24.4819 7.56673 23.0327 8.53765L22.2837 9.03954L21.6723 8.66184C21.3361 8.45411 20.7442 8.1453 20.357 7.9756L19.653 7.66697L19.5919 7.17119C19.5583 6.89842 19.5266 6.44234 19.5215 6.15755C19.51 5.51459 19.2727 5.04902 18.8466 4.83314C18.6381 4.72754 18.1018 4.63603 17.3064 4.57032C16.6353 4.51494 15.8539 4.44783 15.57 4.42117C15.18 4.38456 14.9577 4.41723 14.661 4.55455ZM36.9867 6.76954C36.231 6.98168 35.4998 7.51304 35.089 8.14868C33.9946 9.84198 34.5896 12.0637 36.3805 12.9705C36.8737 13.2203 37.0107 13.2458 37.8626 13.2458C38.752 13.2458 38.832 13.2291 39.3896 12.9267C41.4524 11.8081 41.8007 9.17771 40.1018 7.54842C39.3247 6.80324 38.0248 6.47819 36.9867 6.76954ZM28.5231 12.4903C24.74 13.2851 22.0772 16.6794 22.2606 20.4733C22.2862 21.0035 22.3958 21.7448 22.5125 22.177L22.7192 22.9421L19.0225 27.3864C16.9893 29.8308 13.199 34.3862 10.5995 37.5095C7.42561 41.3231 5.79323 43.3578 5.62953 43.7045C5.41534 44.1581 5.38577 44.3403 5.38577 45.2063C5.38577 46.0812 5.4143 46.2527 5.63948 46.7333C5.96632 47.4307 6.77514 48.2395 7.47254 48.5664C7.95313 48.7915 8.12461 48.8201 8.99952 48.8201C10.0659 48.8201 10.5397 48.6771 11.238 48.1445C11.4164 48.0083 15.3321 43.3683 19.9393 37.8331L28.3162 27.7694L28.7247 27.8483C29.3644 27.9719 30.9475 27.9455 31.6349 27.7998C34.6545 27.1598 36.9676 24.8599 37.6818 21.7873C37.8786 20.9406 37.8202 18.862 37.5769 18.0563C37.4873 17.7594 37.3841 17.5166 37.3474 17.5166C37.3107 17.5166 36.4021 18.5725 35.3283 19.8631C34.2545 21.1538 33.3276 22.2097 33.2688 22.2097C33.1209 22.2097 28.9668 21.4663 28.9462 21.4362C28.9371 21.4229 28.5868 20.4837 28.1678 19.3492C27.5261 17.6119 27.4254 17.264 27.5289 17.1434C28.8821 15.5675 31.3406 12.512 31.2934 12.4649C31.1716 12.343 29.1354 12.3618 28.5231 12.4903ZM14.8511 13.4894C12.4818 13.8852 10.6891 16.0038 10.6891 18.4083C10.6891 19.8161 11.1514 20.906 12.1834 21.9305C13.1998 22.9395 14.3277 23.43 15.632 23.43C18.4119 23.43 20.654 21.2366 20.6694 18.5021C20.6777 17.0019 20.1862 15.8444 19.1088 14.8281C18.3662 14.1275 17.6215 13.735 16.6411 13.5273C15.9261 13.3758 15.5756 13.3683 14.8511 13.4894ZM42.368 23.0735C42.2648 23.1324 41.9557 23.3626 41.6811 23.585L41.1821 23.9895L40.6486 23.7219C40.0567 23.4248 38.9524 23.0072 38.9108 23.0645C38.8962 23.0848 38.7681 23.381 38.6262 23.7226C37.6023 26.188 35.5918 28.0642 33.0434 28.9323C31.8906 29.3252 31.081 29.4513 29.8493 29.4302L28.8676 29.4133L26.9676 31.7004C25.4929 33.4754 25.086 34.0218 25.1495 34.1405C25.2845 34.3928 25.8046 34.5785 26.5729 34.6488C26.9717 34.6853 27.334 34.7631 27.3781 34.8217C27.4222 34.8803 27.5351 35.1394 27.6289 35.3976C27.7228 35.6557 27.9008 36.0697 28.0246 36.3177L28.2498 36.7685L27.7899 37.3502C27.2032 38.0922 27.1152 38.2659 27.1152 38.6813C27.1152 39.1839 27.286 39.4355 28.3037 40.431C29.586 41.6854 29.8991 41.7303 31.0679 40.8272L31.7355 40.3113L32.2178 40.5227C32.4831 40.6389 32.9535 40.8274 33.2633 40.9415L33.8264 41.149L33.8915 41.6054C33.9273 41.8565 33.9832 42.2666 34.0159 42.5168C34.0596 42.8513 34.1586 43.0628 34.3893 43.3147L34.7032 43.6576L36.1891 43.6887C37.4649 43.7155 37.7183 43.6967 37.9822 43.5554C38.4363 43.3123 38.6333 42.9171 38.7084 42.0985C38.7444 41.7057 38.8011 41.3443 38.8344 41.2954C38.8678 41.2466 39.1696 41.1085 39.5052 40.9886C39.8408 40.8688 40.3175 40.669 40.5646 40.5447C40.8119 40.4204 41.0653 40.3493 41.1278 40.3869C41.1904 40.4243 41.5005 40.6523 41.817 40.8935C42.8944 41.7146 43.2142 41.6455 44.5456 40.3043C45.0721 39.7739 45.5495 39.215 45.6065 39.0625C45.7801 38.5981 45.6373 38.1619 45.085 37.469C44.8039 37.1161 44.5738 36.8132 44.5738 36.7959C44.5738 36.7784 44.6976 36.5201 44.849 36.2217C45.0003 35.9233 45.2009 35.4392 45.2949 35.1458L45.4655 34.6125L45.9348 34.5552C47.0263 34.4221 47.1371 34.388 47.4729 34.0806L47.8121 33.7699L47.842 32.2683C47.8835 30.1725 47.7432 29.9463 46.2903 29.7683L45.5034 29.6719L45.2889 29.0618C45.1709 28.7262 44.9662 28.2405 44.8339 27.9823L44.5935 27.513L45.0662 26.9115C45.5824 26.2548 45.7293 25.83 45.5983 25.3732C45.5058 25.0506 43.8615 23.3239 43.4287 23.0948C43.1264 22.9348 42.6286 22.9248 42.368 23.0735ZM35.3283 28.1611C34.1727 28.5281 33.2314 29.3248 32.721 30.3677C32.4313 30.9597 32.4185 31.0339 32.4185 32.1123C32.4185 33.1885 32.4318 33.2659 32.7177 33.8488C33.8113 36.0785 36.5863 36.8716 38.6429 35.5424C40.6845 34.2228 41.1295 31.4729 39.6113 29.5567C38.8422 28.5859 37.6458 28.0236 36.3744 28.0356C36.0055 28.039 35.5348 28.0954 35.3283 28.1611ZM7.99508 44.6394C7.61691 44.8699 7.37352 45.3309 7.37352 45.8164C7.37352 46.6082 7.93539 47.1768 8.71793 47.1768C10.0773 47.1768 10.616 45.5908 9.55885 44.7012C9.18687 44.3882 8.45445 44.3592 7.99508 44.6394Z" fill="#585858"/>
</svg>
