<svg width="162" height="41" viewBox="0 0 162 41" fill="none" xmlns="http://www.w3.org/2000/svg">
<g clip-path="url(#clip0_44_72)">
<mask id="mask0_44_72" style="mask-type:luminance" maskUnits="userSpaceOnUse" x="0" y="0" width="162" height="41">
<path d="M162 0.0722656H0V40.0723H162V0.0722656Z" fill="white"/>
</mask>
<g mask="url(#mask0_44_72)">
<path d="M59.5509 16.4523L69.4809 6.64227V1.13227H44.2409V8.53227H57.0709L48.9009 16.7023V22.3823H56.9309C60.3909 22.5923 62.2009 25.4723 61.0109 29.0023C61.0109 29.0023 60.5609 32.9823 52.4809 31.3823C52.4809 31.3823 47.8209 29.9423 46.7409 27.8123L42.2109 34.6423C42.2109 34.6423 46.4909 40.1323 56.8909 39.4923C56.8909 39.4923 66.3409 40.1023 70.2009 31.9623C74.0609 23.8223 66.0509 16.6423 59.5709 16.4523H59.5509ZM92.5009 13.7123C88.9609 13.7123 85.7609 15.1623 83.4609 17.5023C83.4609 17.5023 84.4709 2.43227 100.341 10.5123L104.041 3.36227C104.041 3.36227 81.4509 -8.63773 74.8109 14.6023C74.8109 14.6023 70.0909 40.9623 92.1709 39.0523H92.5009C99.5009 39.0523 105.171 33.3723 105.171 26.3823C105.171 19.3923 99.5009 13.7123 92.5009 13.7123ZM90.1609 31.5223C87.2309 31.5223 84.8609 29.1423 84.8609 26.2223C84.8609 23.3023 87.2309 20.9123 90.1609 20.9123C93.0909 20.9123 95.4609 23.2923 95.4609 26.2223C95.4609 29.1523 93.0909 31.5223 90.1609 31.5223ZM124.641 0.0722656C115.141 0.0722656 107.441 8.87226 107.441 19.7123C107.441 30.5523 115.141 39.3523 124.641 39.3523C134.141 39.3523 141.831 30.5623 141.831 19.7123C141.831 8.86226 134.131 0.0722656 124.641 0.0722656ZM129.451 27.6923C128.221 29.7523 126.641 30.7823 124.701 30.7823C122.761 30.7823 121.061 29.7723 119.791 27.7523C118.531 25.7423 117.891 23.0723 117.891 19.7523C117.891 16.4323 118.521 13.7123 119.771 11.6623C121.021 9.61227 122.631 8.59227 124.611 8.59227C126.591 8.59227 128.121 9.62227 129.391 11.6923C130.651 13.7623 131.291 16.4023 131.291 19.6223C131.291 22.8423 130.671 25.6223 129.451 27.6923Z" fill="#3C3C3C"/>
<path d="M35.2116 20.3429L18.1016 10.4629V30.2129L35.2116 20.3429Z" fill="#3C3C3C"/>
<path d="M18.1016 10.4716L35.2116 20.3516V0.601562L18.1016 10.4716Z" fill="#3C3C3C"/>
<path d="M18.1016 30.2216L35.2116 40.1016V20.3516L18.1016 30.2216Z" fill="#3C3C3C"/>
<path d="M18.1 10.4716L1 20.3516V0.601562L18.1 10.4716Z" fill="#3C3C3C"/>
<path d="M18.1 30.2216L1 40.1016V20.3516L18.1 30.2216Z" fill="#3C3C3C"/>
<path d="M1 20.3429L18.1 10.4629V30.2129L1 20.3429Z" fill="#3C3C3C"/>
<path d="M155.268 34.3025C155.968 33.3225 156.308 32.2625 156.308 31.1325C156.308 30.2725 156.118 29.5825 155.728 29.0525C155.338 28.5225 154.818 28.2625 154.148 28.2625C153.828 28.2625 153.538 28.3325 153.288 28.4725C153.038 28.6125 152.838 28.8025 152.678 29.0425C152.518 29.2825 152.378 29.5525 152.258 29.8525C152.138 30.1625 152.028 30.4825 151.928 30.8225C151.828 31.1625 151.728 31.5025 151.618 31.8425C151.508 32.1825 151.388 32.5125 151.228 32.8125C151.078 33.1225 150.898 33.3925 150.698 33.6225C150.498 33.8625 150.238 34.0525 149.918 34.1925C149.598 34.3325 149.238 34.4025 148.838 34.4025C147.908 34.4025 147.178 34.0725 146.638 33.4125C146.098 32.7525 145.828 31.9025 145.828 30.8525C145.828 29.6425 146.168 28.5425 146.858 27.5525L147.528 27.9725C146.958 28.8325 146.668 29.7725 146.668 30.7925C146.668 31.5725 146.858 32.2125 147.228 32.7125C147.598 33.2125 148.108 33.4725 148.768 33.4725C149.088 33.4725 149.378 33.4025 149.628 33.2625C149.878 33.1225 150.078 32.9325 150.238 32.6925C150.388 32.4525 150.528 32.1825 150.648 31.8725C150.768 31.5625 150.878 31.2425 150.978 30.9025C151.078 30.5625 151.178 30.2225 151.278 29.8825C151.388 29.5425 151.508 29.2225 151.668 28.9125C151.818 28.6025 151.998 28.3325 152.198 28.0925C152.398 27.8525 152.658 27.6625 152.978 27.5225C153.298 27.3825 153.658 27.3125 154.078 27.3125C154.738 27.3125 155.308 27.4925 155.778 27.8425C156.248 28.1925 156.598 28.6525 156.808 29.2125C157.018 29.7725 157.138 30.4025 157.138 31.1025C157.138 32.4525 156.738 33.6625 155.938 34.7225L155.258 34.2925L155.268 34.3025Z" fill="#3C3C3C"/>
<path d="M157.144 20.3124C157.144 21.3624 156.894 22.3124 156.404 23.1624C155.914 24.0124 155.234 24.6824 154.364 25.1624C153.494 25.6424 152.544 25.8824 151.484 25.8824C150.684 25.8824 149.934 25.7424 149.234 25.4524C148.534 25.1624 147.934 24.7724 147.444 24.2724C146.944 23.7724 146.554 23.1824 146.274 22.4924C145.984 21.8024 145.844 21.0624 145.844 20.2924C145.844 19.2524 146.084 18.3124 146.574 17.4624C147.064 16.6124 147.734 15.9524 148.594 15.4624C149.454 14.9824 150.414 14.7324 151.474 14.7324C152.264 14.7324 153.014 14.8724 153.714 15.1524C154.414 15.4324 155.014 15.8224 155.524 16.3124C156.024 16.8024 156.424 17.3924 156.714 18.0924C157.004 18.7824 157.154 19.5224 157.154 20.3024L157.144 20.3124ZM155.684 22.6924C156.104 21.9824 156.314 21.1924 156.314 20.3124C156.314 19.4324 156.104 18.6424 155.684 17.9424C155.264 17.2324 154.684 16.6824 153.954 16.2824C153.214 15.8824 152.394 15.6824 151.494 15.6824C150.594 15.6824 149.774 15.8824 149.034 16.2824C148.304 16.6824 147.724 17.2324 147.304 17.9424C146.884 18.6524 146.684 19.4324 146.684 20.3024C146.684 21.1724 146.894 21.9724 147.314 22.6824C147.734 23.3924 148.314 23.9524 149.044 24.3524C149.784 24.7524 150.594 24.9524 151.494 24.9524C152.394 24.9524 153.214 24.7524 153.954 24.3524C154.694 23.9524 155.264 23.4024 155.684 22.6924Z" fill="#3C3C3C"/>
<path d="M155.464 4.74273L156.134 4.30273C156.454 4.77273 156.704 5.30273 156.884 5.91273C157.054 6.51273 157.144 7.12273 157.144 7.74273C157.144 8.78273 156.904 9.72273 156.414 10.5627C155.924 11.4027 155.254 12.0527 154.404 12.5327C153.554 13.0027 152.594 13.2427 151.544 13.2427C150.494 13.2427 149.514 13.0027 148.634 12.5127C147.764 12.0227 147.074 11.3627 146.584 10.5027C146.084 9.65273 145.844 8.70273 145.844 7.66273C145.844 6.42273 146.184 5.31273 146.874 4.33273L147.544 4.76273C146.964 5.66273 146.684 6.62273 146.684 7.63273C146.684 8.50273 146.894 9.29273 147.314 10.0027C147.734 10.7127 148.314 11.2727 149.054 11.6827C149.794 12.0927 150.624 12.2927 151.544 12.2927C152.214 12.2927 152.854 12.1727 153.444 11.9427C154.034 11.7127 154.544 11.3927 154.964 10.9827C155.384 10.5727 155.714 10.0927 155.954 9.51273C156.194 8.93273 156.314 8.33273 156.314 7.67273C156.314 6.61273 156.034 5.63273 155.474 4.74273H155.464Z" fill="#3C3C3C"/>
</g>
</g>
<defs>
<clipPath id="clip0_44_72">
<rect width="162" height="40" fill="white" transform="translate(0 0.0722656)"/>
</clipPath>
</defs>
</svg>
