<svg width="200" height="51" viewBox="0 0 200 51" fill="none" xmlns="http://www.w3.org/2000/svg">
<g clip-path="url(#clip0_44_56)">
<path d="M64.2446 50.1405C42.8286 37.5902 21.4049 37.5902 -0.0112305 50.1405L29.1083 24.1586C29.792 24.8879 30.772 25.3438 31.8508 25.3438C33.9324 25.3438 35.6265 23.6496 35.6265 21.568C35.6265 19.4864 33.9324 17.7923 31.8508 17.7923C29.7692 17.7923 28.0751 19.4788 28.0751 21.568C28.0751 21.9251 28.1207 22.267 28.2194 22.5936L19.5056 25.9287L17.5076 22.7988L32.1167 0L64.2446 50.1405Z" fill="#3C3C3C"/>
<path d="M85.2958 3.10179C84.9008 4.53004 84.5969 6.20899 84.4829 7.24978H84.3158C84.4297 6.07224 84.2626 5.37331 82.9711 5.22897C81.8771 5.09222 79.5828 5.00865 77.676 4.97826C77.562 7.61444 77.5392 10.6912 77.5392 14.0567C77.5392 17.1108 77.5696 18.9872 77.7064 21.6766C77.7899 23.1884 78.5192 23.7506 80.0614 24.0013V24.1684C78.6332 24.0545 77.4025 24.0013 76.2477 24.0013C75.093 24.0013 73.8926 24.0545 72.4644 24.1684V24.0013C73.9762 23.7506 74.7359 23.1884 74.8195 21.6462C74.9562 19.124 74.9562 16.9132 74.9562 14.0567C74.9562 10.9192 74.9258 7.69801 74.8195 4.97826C72.943 5.00865 70.6715 5.11501 69.5775 5.22897C68.2328 5.3961 67.8986 6.1786 67.4503 7.38653L67.2832 7.35614C67.6175 6.37612 68.0125 4.38569 68.21 3.04102H68.3772C68.3468 3.68677 68.4911 3.73994 68.8254 3.77033C69.7219 3.88429 74.2041 3.96786 76.1945 3.96786C78.185 3.96786 83.199 3.88429 84.2094 3.74754C84.7412 3.69436 84.9919 3.61079 85.1363 3.10179H85.3034H85.2958Z" fill="#3C3C3C"/>
<path d="M109.618 23.8948V24.0619C101.747 24.0619 103.008 22.2158 98.465 15.4848C98.1536 15.5152 97.8497 15.538 97.5154 15.538C96.8393 15.538 96.0568 15.4848 95.4718 15.424C95.4718 17.6652 95.5022 19.3441 95.6389 21.5625C95.7225 23.0743 96.4518 23.6365 97.994 23.9175V24.0847C96.5658 23.9707 95.3047 23.9175 94.1803 23.9175C93.0559 23.9175 91.8024 23.9707 90.3666 24.0847V23.9175C91.8784 23.6668 92.6381 23.0743 92.7217 21.5625C92.8584 19.0402 92.8888 16.8295 92.8888 13.973C92.8888 12.0661 92.8888 8.44995 92.7521 6.23921C92.6381 4.697 91.9088 4.24878 90.397 4.02846V3.86133C91.772 3.97528 92.8356 4.02846 93.9828 4.02846C95.2439 4.02846 96.505 3.91451 97.5382 3.91451C101.884 3.91451 104.148 6.29239 104.148 9.43756C104.148 11.5951 103.054 13.6159 101.094 14.6795C104.763 20.7876 106.442 23.8416 109.61 23.8948H109.618ZM101.527 9.8554C101.527 7.41675 100.296 4.9781 97.2115 4.9781C96.6797 4.9781 96.1783 5.03127 95.6465 5.09205C95.4794 9.17927 95.4794 11.1469 95.4794 13.973V14.5048C95.958 14.5884 96.5126 14.6719 97.2191 14.6719C100.752 14.6719 101.534 11.7851 101.534 9.8554H101.527Z" fill="#3C3C3C"/>
<path d="M111.919 13.9733C111.919 8.00198 116.431 3.66406 122.395 3.66406C128.359 3.66406 133.039 8.09314 133.039 13.9733C133.039 19.8534 128.556 24.2825 122.562 24.2825C116.568 24.2825 111.919 19.8534 111.919 13.9733ZM130.212 14.5658C130.212 9.52139 127.158 4.70486 122.175 4.70486C117.776 4.70486 114.722 8.4578 114.722 13.3883C114.722 18.3188 117.806 23.2493 122.79 23.2493C127.158 23.2493 130.212 19.4963 130.212 14.5658Z" fill="#3C3C3C"/>
<path d="M146.143 3.86133V4.02846C144.6 4.30955 143.871 4.87174 143.788 6.38355C143.62 9.04252 143.62 10.9494 143.62 13.973C143.62 18.2881 143.567 19.5189 143.423 20.8939C143.005 25.2622 141.098 27.4502 137.262 29.6077L137.148 29.4406C139.556 27.7009 140.483 25.1787 140.847 21.1218C140.961 19.7772 141.045 18.5692 141.045 13.9806C141.045 11.1241 141.015 8.90577 140.878 6.39115C140.794 4.87933 140.035 4.28676 138.523 4.03606V3.86893C139.951 3.98288 141.182 4.03606 142.336 4.03606C143.491 4.03606 144.714 3.98288 146.15 3.86893L146.143 3.86133Z" fill="#3C3C3C"/>
<path d="M169.936 23.9156V24.0828C168.986 23.9688 167.444 23.9156 166.297 23.9156C165.233 23.9156 163.577 23.946 162.21 24.0828V23.9156C163.972 23.7485 164.785 23.1027 164.17 21.477C163.805 20.5273 163.243 19.2055 162.597 17.724C161.473 17.6709 160.128 17.6405 158.761 17.6405C157.393 17.6405 155.935 17.6709 154.841 17.724C154.362 18.9851 153.891 20.2463 153.443 21.477C152.827 23.1027 153.329 23.7485 155.152 23.9156V24.0828C154.172 23.9992 152.964 23.9156 152.128 23.9156C151.034 23.9156 150.024 23.9992 149.242 24.0828V23.9156C150.138 23.7789 151.004 23.1331 151.733 21.4466C153.807 16.7364 157.674 7.5212 159.156 3.6543H159.209C162.096 10.2409 163.744 13.7964 167.307 21.4998C168.037 23.0648 168.622 23.6877 169.944 23.908L169.936 23.9156ZM162.065 16.4629C160.835 13.69 159.429 10.6056 158.48 8.5316C157.469 11.0006 156.406 13.7128 155.342 16.4325C156.322 16.5161 157.697 16.5693 158.73 16.5693C159.824 16.5693 161.002 16.5161 162.065 16.4553V16.4629Z" fill="#3C3C3C"/>
<path d="M195.124 3.86159V4.02872C193.726 4.27942 192.967 4.78843 192.883 6.35342C192.746 8.7085 192.663 10.471 192.663 14.1176C192.663 17.1412 192.663 21.0385 192.746 24.2901H192.693C188.097 19.2456 183.167 14.2012 177.985 9.15673V13.4719C177.985 17.2248 178.039 19.0481 178.183 21.5399C178.266 23.1657 179.026 23.6671 180.394 23.9178V24.0849C179.019 23.971 178.153 23.9178 177.203 23.9178C176.253 23.9178 175.463 23.971 174.096 24.0849V23.9178C175.494 23.6671 176.223 23.1581 176.306 21.5399C176.443 19.0709 176.527 17.2248 176.527 13.4719C176.527 10.5546 176.527 6.58133 176.443 3.66406H176.496C181.457 8.90603 186.388 13.9201 191.265 18.767V14.0037C191.265 10.3875 191.212 8.67812 191.068 6.38381C190.954 4.78843 190.201 4.27942 188.826 4.02872V3.86159C190.171 3.97554 191.068 4.02872 191.994 4.02872C192.921 4.02872 193.787 3.97554 195.132 3.86159H195.124Z" fill="#3C3C3C"/>
<path d="M73.9685 44.4546C71.5836 44.4546 70.1367 42.9778 70.1367 40.7924C70.1367 38.597 71.6734 37.1302 74.0085 37.1302C74.8567 37.1302 75.5552 37.3198 76.1339 37.5792C76.084 38.0282 76.084 38.4573 76.1339 38.8964H76.0741C75.7947 37.8087 74.9964 37.4894 73.9985 37.4894C72.0027 37.4894 70.905 38.8565 70.905 40.6627C70.905 42.4688 71.883 44.0954 74.0484 44.0954C75.0462 44.0954 76.0242 43.7761 76.2337 42.6185H76.2936C76.2337 43.0975 76.2437 43.5565 76.2936 43.9856C75.7547 44.2251 74.8866 44.4546 73.9685 44.4546ZM81.0406 44.4546C78.9051 44.4546 77.3284 42.838 77.3284 40.7724C77.3284 38.627 78.955 37.1302 81.0006 37.1302C83.1361 37.1302 84.7128 38.7467 84.7128 40.8123C84.7128 42.9578 83.0862 44.4546 81.0406 44.4546ZM81.1204 44.1054C82.7469 44.1054 83.9544 42.7482 83.9544 40.982C83.9544 39.1658 82.737 37.4794 80.9208 37.4794C79.2843 37.4794 78.0769 38.8365 78.0769 40.6028C78.0769 42.4189 79.3042 44.1054 81.1204 44.1054ZM91.987 37.2499C92.3362 37.2499 92.5957 37.2299 93.0647 37.19V37.2499C92.5657 37.3198 92.3063 37.4794 92.2664 38.0382C92.2065 38.9164 92.1766 39.5151 92.1766 41.0219C92.1766 41.9898 92.1766 43.3769 92.2165 44.4546H92.1965C90.5999 42.5586 88.8536 40.6527 86.9776 38.7268C86.9676 39.3155 86.9676 39.9043 86.9676 40.523C86.9676 42.0497 86.9876 42.6385 87.0474 43.5266C87.0873 44.1054 87.3368 44.265 87.8358 44.3349V44.3947C87.3668 44.3548 87.0873 44.3349 86.7381 44.3349C86.3988 44.3349 86.1294 44.3548 85.6604 44.3947V44.3349C86.1593 44.265 86.4088 44.1054 86.4487 43.5266C86.4986 42.6385 86.5285 42.0497 86.5285 40.5329C86.5285 39.565 86.5285 38.0981 86.4986 37.1302H86.5186C88.2848 39.1159 90.0411 41.0219 91.7574 42.858C91.7674 42.2293 91.7674 41.5907 91.7674 41.0019C91.7674 39.5051 91.7375 38.9164 91.6776 38.0382C91.6377 37.4794 91.3782 37.3198 90.8793 37.2499V37.19C91.3483 37.2299 91.6477 37.2499 91.987 37.2499ZM95.7119 44.4546C94.9436 44.4546 94.4147 44.1652 93.9956 43.8559C94.0355 43.4567 94.0355 43.1374 93.9956 42.6684H94.0555C94.275 43.7461 95.0434 44.0954 95.7818 44.0954C96.5302 44.0954 97.2387 43.7461 97.2387 42.8281C97.2387 41.0019 94.1952 40.7624 94.1952 38.7767C94.1952 37.689 95.1332 37.1302 96.141 37.1302C96.7198 37.1302 97.1689 37.3098 97.5081 37.5094C97.4682 37.8387 97.4582 38.2877 97.5081 38.6968H97.4483C97.2686 37.7089 96.63 37.4894 96.0612 37.4894C95.213 37.4894 94.8538 37.9883 94.8538 38.5471C94.8538 40.2036 97.9073 40.4731 97.9073 42.5487C97.9073 43.7062 96.9493 44.4546 95.7119 44.4546ZM105.041 36.9306H105.101C104.961 37.4195 104.871 37.8985 104.821 38.2677H104.761C104.811 37.8287 104.751 37.6491 104.282 37.6091C103.873 37.5692 103.005 37.5293 102.327 37.5193C102.287 38.4374 102.277 39.5849 102.277 40.8323C102.277 41.8601 102.277 42.6584 102.327 43.5765C102.356 44.1453 102.656 44.3149 103.165 44.3748V44.4347C102.656 44.3947 102.307 44.3748 101.937 44.3748C101.568 44.3748 101.229 44.3947 100.71 44.4347V44.3748C101.219 44.3149 101.518 44.1453 101.548 43.5765C101.598 42.6784 101.598 41.8402 101.598 40.8323C101.598 39.6049 101.588 38.4474 101.548 37.5193C100.88 37.5393 100.051 37.5792 99.6422 37.6091C99.1632 37.659 99.0534 37.8586 98.8938 38.2777H98.8339C98.9636 37.9085 99.0634 37.3896 99.1333 36.9106H99.1931C99.1832 37.1202 99.2331 37.1501 99.3528 37.1601C99.6721 37.19 101.219 37.21 101.917 37.21C102.616 37.21 104.352 37.19 104.711 37.1501C104.901 37.1302 104.991 37.1002 105.041 36.9306ZM109.548 41.0419C110.975 43.317 111.534 44.3149 112.631 44.3249V44.3848C110.176 44.3848 110.506 43.6663 108.859 41.2614C108.72 41.2813 108.58 41.2913 108.42 41.2913C108.161 41.2913 107.891 41.2714 107.682 41.2514C107.682 42.0697 107.692 42.7582 107.732 43.5366C107.762 44.0954 108.061 44.275 108.57 44.3349V44.3947C108.051 44.3548 107.702 44.3349 107.342 44.3349C106.973 44.3349 106.624 44.3548 106.115 44.3947V44.3349C106.624 44.275 106.923 44.0954 106.953 43.5366C107.003 42.6385 107.003 41.8002 107.003 40.7924C107.003 39.8843 107.003 38.8765 106.953 38.0083C106.923 37.4495 106.624 37.2898 106.115 37.2399V37.18C106.604 37.22 106.883 37.2399 107.322 37.2399C107.732 37.2399 108.131 37.21 108.46 37.21C109.937 37.21 110.685 38.0682 110.685 39.1359C110.685 39.9342 110.286 40.6726 109.548 41.0419ZM108.35 41.0219C109.687 41.0219 109.977 39.9741 109.977 39.2856C109.977 38.4573 109.558 37.5592 108.39 37.5592C108.171 37.5592 107.961 37.5792 107.742 37.6091C107.682 39.076 107.682 39.7745 107.682 40.7924V40.962C107.881 41.0019 108.091 41.0219 108.35 41.0219ZM117.992 37.2499C118.341 37.2499 118.631 37.2299 119.11 37.19V37.2499C118.611 37.3098 118.321 37.4694 118.292 38.0482C118.242 38.9563 118.222 40.4032 118.222 41.5109C118.222 43.4567 117.373 44.4546 115.637 44.4546C113.821 44.4546 113.003 43.3669 113.003 41.4111C113.003 40.2036 113.003 38.9463 112.953 38.0482C112.923 37.4794 112.634 37.3198 112.115 37.2499V37.19C112.634 37.2299 112.983 37.2499 113.342 37.2499C113.711 37.2499 114.061 37.2299 114.579 37.19V37.2499C114.061 37.3198 113.771 37.4794 113.741 38.0482C113.681 38.9663 113.681 40.2635 113.681 41.461C113.681 43.2472 114.33 44.0854 115.737 44.0854C117.064 44.0854 117.753 43.337 117.753 41.5608C117.753 40.503 117.743 38.9363 117.693 38.0482C117.663 37.4694 117.364 37.3098 116.865 37.2499V37.19C117.344 37.2299 117.633 37.2499 117.992 37.2499ZM123.755 44.4546C121.371 44.4546 119.924 42.9778 119.924 40.7924C119.924 38.597 121.46 37.1302 123.795 37.1302C124.644 37.1302 125.342 37.3198 125.921 37.5792C125.871 38.0282 125.871 38.4573 125.921 38.8964H125.861C125.582 37.8087 124.783 37.4894 123.785 37.4894C121.79 37.4894 120.692 38.8565 120.692 40.6627C120.692 42.4688 121.67 44.0954 123.835 44.0954C124.833 44.0954 125.811 43.7761 126.021 42.6185H126.081C126.021 43.0975 126.031 43.5565 126.081 43.9856C125.542 44.2251 124.674 44.4546 123.755 44.4546ZM133.321 36.9306H133.38C133.241 37.4195 133.151 37.8985 133.101 38.2677H133.041C133.091 37.8287 133.031 37.6491 132.562 37.6091C132.153 37.5692 131.285 37.5293 130.606 37.5193C130.566 38.4374 130.556 39.5849 130.556 40.8323C130.556 41.8601 130.556 42.6584 130.606 43.5765C130.636 44.1453 130.936 44.3149 131.445 44.3748V44.4347C130.936 44.3947 130.586 44.3748 130.217 44.3748C129.848 44.3748 129.509 44.3947 128.99 44.4347V44.3748C129.499 44.3149 129.798 44.1453 129.828 43.5765C129.878 42.6784 129.878 41.8402 129.878 40.8323C129.878 39.6049 129.868 38.4474 129.828 37.5193C129.159 37.5393 128.331 37.5792 127.922 37.6091C127.443 37.659 127.333 37.8586 127.174 38.2777H127.114C127.243 37.9085 127.343 37.3896 127.413 36.9106H127.473C127.463 37.1202 127.513 37.1501 127.633 37.1601C127.952 37.19 129.499 37.21 130.197 37.21C130.896 37.21 132.632 37.19 132.991 37.1501C133.181 37.1302 133.271 37.1002 133.321 36.9306ZM136.85 37.2V37.2599C136.341 37.3198 136.041 37.5094 136.011 38.0781C135.962 38.9962 135.962 39.7745 135.962 40.7924C135.962 41.8102 135.962 42.5886 136.011 43.5066C136.041 44.0754 136.341 44.265 136.85 44.3249V44.3848C136.331 44.3449 135.982 44.3249 135.622 44.3249C135.253 44.3249 134.904 44.3449 134.395 44.3848V44.3249C134.904 44.265 135.203 44.0754 135.233 43.5066C135.283 42.6085 135.283 41.8002 135.283 40.7924C135.283 39.7845 135.283 38.9762 135.233 38.0781C135.203 37.5094 134.904 37.3198 134.395 37.2599V37.2C134.904 37.2399 135.253 37.2599 135.622 37.2599C135.982 37.2599 136.331 37.2399 136.85 37.2ZM141.508 44.4546C139.373 44.4546 137.796 42.838 137.796 40.7724C137.796 38.627 139.422 37.1302 141.468 37.1302C143.604 37.1302 145.18 38.7467 145.18 40.8123C145.18 42.9578 143.554 44.4546 141.508 44.4546ZM141.588 44.1054C143.214 44.1054 144.422 42.7482 144.422 40.982C144.422 39.1658 143.204 37.4794 141.388 37.4794C139.752 37.4794 138.544 38.8365 138.544 40.6028C138.544 42.4189 139.772 44.1054 141.588 44.1054ZM152.454 37.2499C152.804 37.2499 153.063 37.2299 153.532 37.19V37.2499C153.033 37.3198 152.774 37.4794 152.734 38.0382C152.674 38.9164 152.644 39.5151 152.644 41.0219C152.644 41.9898 152.644 43.3769 152.684 44.4546H152.664C151.067 42.5586 149.321 40.6527 147.445 38.7268C147.435 39.3155 147.435 39.9043 147.435 40.523C147.435 42.0497 147.455 42.6385 147.515 43.5266C147.555 44.1054 147.804 44.265 148.303 44.3349V44.3947C147.834 44.3548 147.555 44.3349 147.206 44.3349C146.866 44.3349 146.597 44.3548 146.128 44.3947V44.3349C146.627 44.265 146.876 44.1054 146.916 43.5266C146.966 42.6385 146.996 42.0497 146.996 40.5329C146.996 39.565 146.996 38.0981 146.966 37.1302H146.986C148.752 39.1159 150.509 41.0219 152.225 42.858C152.235 42.2293 152.235 41.5907 152.235 41.0019C152.235 39.5051 152.205 38.9164 152.145 38.0382C152.105 37.4794 151.846 37.3198 151.347 37.2499V37.19C151.816 37.2299 152.115 37.2499 152.454 37.2499ZM162.837 41.1317C163.206 41.1317 163.556 41.1117 164.065 41.0718V41.1317C163.566 41.1915 163.376 41.3412 163.326 41.91C163.246 42.7682 163.246 43.0875 163.306 43.9856C162.767 44.2251 161.899 44.4546 160.981 44.4546C158.596 44.4546 157.149 42.9778 157.149 40.7924C157.149 38.597 158.686 37.1302 161.021 37.1302C161.869 37.1302 162.568 37.3198 163.147 37.5792C163.097 38.0282 163.097 38.4573 163.147 38.8964H163.087C162.817 37.8187 162.009 37.4894 161.001 37.4894C159.015 37.4894 157.918 38.8665 157.918 40.6627C157.918 42.4589 158.896 44.0954 161.051 44.0954C161.63 44.0954 162.199 43.9856 162.618 43.6763C162.618 42.9977 162.608 42.6684 162.538 41.91C162.488 41.3412 162.129 41.1915 161.6 41.1317V41.0718C162.129 41.1117 162.468 41.1317 162.837 41.1317ZM168.329 41.0419C169.756 43.317 170.315 44.3149 171.413 44.3249V44.3848C168.958 44.3848 169.287 43.6663 167.641 41.2614C167.501 41.2813 167.361 41.2913 167.202 41.2913C166.942 41.2913 166.673 41.2714 166.463 41.2514C166.463 42.0697 166.473 42.7582 166.513 43.5366C166.543 44.0954 166.842 44.275 167.351 44.3349V44.3947C166.832 44.3548 166.483 44.3349 166.124 44.3349C165.755 44.3349 165.406 44.3548 164.897 44.3947V44.3349C165.406 44.275 165.705 44.0954 165.735 43.5366C165.785 42.6385 165.785 41.8002 165.785 40.7924C165.785 39.8843 165.785 38.8765 165.735 38.0083C165.705 37.4495 165.406 37.2898 164.897 37.2399V37.18C165.386 37.22 165.665 37.2399 166.104 37.2399C166.513 37.2399 166.912 37.21 167.242 37.21C168.718 37.21 169.467 38.0682 169.467 39.1359C169.467 39.9342 169.068 40.6726 168.329 41.0419ZM167.132 41.0219C168.469 41.0219 168.758 39.9741 168.758 39.2856C168.758 38.4573 168.339 37.5592 167.172 37.5592C166.952 37.5592 166.743 37.5792 166.523 37.6091C166.463 39.076 166.463 39.7745 166.463 40.7924V40.962C166.663 41.0019 166.872 41.0219 167.132 41.0219ZM175.138 44.4546C173.002 44.4546 171.426 42.838 171.426 40.7724C171.426 38.627 173.052 37.1302 175.098 37.1302C177.233 37.1302 178.81 38.7467 178.81 40.8123C178.81 42.9578 177.183 44.4546 175.138 44.4546ZM175.218 44.1054C176.844 44.1054 178.052 42.7482 178.052 40.982C178.052 39.1658 176.834 37.4794 175.018 37.4794C173.382 37.4794 172.174 38.8365 172.174 40.6028C172.174 42.4189 173.402 44.1054 175.218 44.1054ZM185.34 37.2499C185.689 37.2499 185.978 37.2299 186.457 37.19V37.2499C185.958 37.3098 185.669 37.4694 185.639 38.0482C185.589 38.9563 185.569 40.4032 185.569 41.5109C185.569 43.4567 184.721 44.4546 182.985 44.4546C181.168 44.4546 180.35 43.3669 180.35 41.4111C180.35 40.2036 180.35 38.9463 180.3 38.0482C180.27 37.4794 179.981 37.3198 179.462 37.2499V37.19C179.981 37.2299 180.33 37.2499 180.689 37.2499C181.059 37.2499 181.408 37.2299 181.927 37.19V37.2499C181.408 37.3198 181.118 37.4794 181.089 38.0482C181.029 38.9663 181.029 40.2635 181.029 41.461C181.029 43.2472 181.677 44.0854 183.084 44.0854C184.412 44.0854 185.1 43.337 185.1 41.5608C185.1 40.503 185.09 38.9363 185.04 38.0482C185.01 37.4694 184.711 37.3098 184.212 37.2499V37.19C184.691 37.2299 184.98 37.2499 185.34 37.2499ZM189.286 41.1516V41.0918C190.833 41.0119 191.142 39.8145 191.142 39.1459C191.142 38.2977 190.623 37.5493 189.556 37.5493C189.396 37.5493 189.157 37.5692 188.917 37.5992C188.857 39.076 188.857 39.8045 188.857 40.8323C188.857 41.8601 188.857 42.6584 188.907 43.5765C188.937 44.1453 189.236 44.3149 189.745 44.3748V44.4347C189.226 44.3947 188.877 44.3748 188.518 44.3748C188.149 44.3748 187.799 44.3947 187.29 44.4347V44.3748C187.799 44.3149 188.099 44.1453 188.129 43.5765C188.179 42.6784 188.179 41.8402 188.179 40.8323C188.179 39.8344 188.179 38.9563 188.129 38.0582C188.099 37.4794 187.799 37.2998 187.29 37.2499V37.19C187.779 37.2299 188.109 37.2499 188.398 37.2499C188.867 37.2499 189.186 37.2 189.626 37.2C191.023 37.2 191.861 37.8387 191.861 38.9762C191.861 40.1837 190.913 41.0818 189.286 41.1516Z" fill="#3C3C3C"/>
</g>
<defs>
<clipPath id="clip0_44_56">
<rect width="200" height="50.1405" fill="white" transform="translate(0 0.00195312)"/>
</clipPath>
</defs>
</svg>
