<svg width="110" height="42" viewBox="0 0 110 42" fill="none" xmlns="http://www.w3.org/2000/svg">
<path d="M35.2837 6.61871L22.2481 25.529V37.2633C22.2481 39.6628 20.2172 41.6035 17.7123 41.6035C15.2075 41.6035 13.1766 39.6628 13.1766 37.2633V25.6945L0.659985 7.10011C-1.15282 4.30945 0.938299 0.698897 4.36833 0.698897C5.91034 0.698897 7.33199 1.47366 8.1218 2.73736L18.1712 18.2176L28.6418 2.43648C29.3714 1.35331 30.6276 0.698897 31.9816 0.698897C35.1558 0.698897 37.0514 4.09132 35.2837 6.61119V6.61871ZM92.5712 0.518369H78.2118V36.97C78.2118 39.5274 80.2653 41.596 82.7926 41.596C85.32 41.596 86.9448 39.5274 86.9448 36.97V8.25098H93.7371C98.6189 8.25098 102.117 10.3271 102.117 14.5469C102.117 18.7667 98.807 20.7751 93.7371 20.7751H92.0823C90.1492 20.7751 88.5771 22.3472 88.5771 24.2803C88.5771 26.0255 89.9912 27.4471 91.7438 27.4471C96.6632 27.4471 101.357 27.2816 104.298 24.7317C107.239 22.1817 109.992 18.8645 109.992 14.7425C110 6.01695 102.824 0.518369 92.5712 0.518369ZM71.6902 41.2349C73.7362 40.227 74.5786 37.7447 73.5707 35.6912L57.6165 3.39177C56.7139 1.60154 54.9011 0.488281 52.8927 0.488281C50.8843 0.488281 49.0715 1.60154 48.1689 3.39929L32.2674 34.9541C31.2369 36.9925 32.0568 39.4823 34.1028 40.5128C36.1412 41.5433 38.631 40.7234 39.6615 38.6774L52.8702 12.4633L66.154 39.3544C66.8761 40.8137 68.3429 41.6637 69.8699 41.6637C70.4867 41.6637 71.111 41.5283 71.6977 41.2349H71.6902ZM52.9078 24.7542C50.2751 24.7542 48.1388 26.8905 48.1388 29.5232C48.1388 32.1559 50.2751 34.2921 52.9078 34.2921C55.5405 34.2921 57.6767 32.1559 57.6767 29.5232C57.6767 26.8905 55.5405 24.7542 52.9078 24.7542Z" fill="#3C3C3C"/>
</svg>
