<svg width="65" height="65" viewBox="0 0 65 65" fill="none" xmlns="http://www.w3.org/2000/svg">
<path d="M46.6727 33.3182C45.9153 39.6249 41.7847 42.1449 40.0007 43.9742C38.214 45.8089 38.534 46.1742 38.654 48.8649C38.674 49.1978 38.6257 49.5313 38.5119 49.8448C38.3982 50.1583 38.2214 50.4451 37.9926 50.6877C37.7637 50.9303 37.4876 51.1235 37.1813 51.2553C36.8749 51.3871 36.5448 51.4548 36.2113 51.4542H29.1233C28.7901 51.4537 28.4604 51.3852 28.1545 51.253C27.8485 51.1208 27.5727 50.9277 27.3439 50.6854C27.1151 50.4431 26.938 50.1567 26.8235 49.8437C26.709 49.5307 26.6595 49.1977 26.678 48.8649C26.678 46.2249 26.9233 45.6116 25.334 43.9742C23.3073 41.9476 18.5393 39.0862 18.5393 31.2169C18.5272 29.2622 18.9201 27.3262 19.6932 25.5309C20.4664 23.7357 21.6031 22.12 23.0317 20.7858C24.4603 19.4517 26.1498 18.4279 27.9937 17.7791C29.8376 17.1303 31.7959 16.8705 33.7452 17.0161C35.6944 17.1617 37.5924 17.7095 39.3195 18.625C41.0465 19.5406 42.5652 20.8039 43.7797 22.3355C44.9943 23.8671 45.8783 25.6337 46.3762 27.5239C46.8742 29.4142 46.9751 31.3871 46.6727 33.3182Z" stroke="#636363" stroke-width="4" stroke-linecap="round" stroke-linejoin="round"/>
<path d="M28.5599 51.3092V55.3412C28.5599 56.4425 29.1732 57.3466 29.9279 57.3466H35.4026C36.1626 57.3466 36.7732 56.4399 36.7732 55.3412V51.3092M30.5866 23.2026C29.012 23.2033 27.5022 23.8293 26.389 24.9429C25.2759 26.0565 24.6506 27.5667 24.6506 29.1412M52.2186 31.7572H57.1092M47.2959 15.7252L50.7652 12.2559M49.9626 45.3466L53.4319 48.8132M32.6666 6.35189V10.3066M14.6399 12.2532L18.0852 15.7252M11.9732 48.8132L15.4186 45.3466M13.1146 31.7572H8.22656" stroke="#636363" stroke-width="4" stroke-linecap="round" stroke-linejoin="round"/>
</svg>
