<svg width="100" height="101" viewBox="0 0 100 101" fill="none" xmlns="http://www.w3.org/2000/svg">
<path fill-rule="evenodd" clip-rule="evenodd" d="M70.366 6.46243C69.3193 6.99298 69.0737 7.61922 69.0737 9.75784V11.5048L68.4283 11.8124L67.7828 12.1202L66.6221 10.9894C65.1485 9.55344 64.7288 9.27927 64.0039 9.27927C63.088 9.27927 62.6223 9.6204 60.2336 12.0406C57.1769 15.1378 57.1131 15.5424 59.3293 17.7721L60.6775 19.1287L60.3555 19.8425L60.0336 20.5565H58.187C56.6416 20.5565 56.2464 20.6147 55.7643 20.9124C55.027 21.3683 54.9315 21.5974 54.8117 23.1996L54.7129 24.5212L28.6342 24.6093C-0.144206 24.7065 2.13785 24.6094 1.02317 25.783C-0.0608587 26.9241 0.000638557 25.4855 0.000638557 49.7189V71.8443L0.423182 72.6755C1.24572 74.2934 2.13204 74.673 5.4079 74.8109L7.90792 74.9163L7.21402 75.9473C6.01599 77.7275 6.2366 78.5136 8.37998 80.101C10.994 82.037 11.4724 81.8825 14.0831 78.2581C15.0929 76.8562 15.9731 75.7092 16.0392 75.7092C16.1052 75.7092 16.898 76.5351 17.8011 77.5446C18.7041 78.5541 19.6315 79.466 19.862 79.571C20.5573 79.8878 21.3361 79.7928 21.9629 79.3148C22.5814 78.8431 22.8578 78.1289 23.2737 75.9295L23.482 74.8282H26.0141H28.5461V78.9275V83.0269L26.2435 85.315C23.3539 88.1864 23.0182 88.7156 23.1156 90.2456C23.175 91.1791 23.2813 91.496 23.7197 92.0459C24.0123 92.4129 24.5639 92.8718 24.9452 93.0656C25.6151 93.406 25.9874 93.418 35.8587 93.418C45.5809 93.418 46.1119 93.4016 46.7599 93.0799C48.1594 92.3853 48.9201 90.5785 48.4609 89.0393C48.2892 88.4645 47.6813 87.7389 45.6188 85.647L42.9951 82.9861V78.9111V74.836L57.7572 74.788L72.5194 74.7401L73.394 74.2899C73.9233 74.0175 74.478 73.5421 74.7989 73.0855L75.3291 72.3314L75.3779 63.4479C75.4062 58.2778 75.4935 54.5644 75.5867 54.5644C75.6746 54.5644 75.9377 54.637 76.1711 54.7258C76.5694 54.8772 76.603 54.9981 76.713 56.6761C76.8466 58.7146 77.076 59.2922 77.9366 59.7556C78.5117 60.0654 78.7203 60.0711 81.7793 59.8591C83.5581 59.7357 85.1808 59.5712 85.385 59.4936C85.5894 59.4159 85.9786 59.0884 86.2502 58.7655L86.7439 58.1788L86.6362 56.1513L86.5284 54.1239L87.2274 53.8289L87.9264 53.534L89.3086 54.7264C91.6909 56.7816 92.2197 56.6433 95.221 53.1805C98.1641 49.7846 98.2245 49.2118 95.8487 47.2231C95.078 46.578 94.4475 46.0126 94.4475 45.9668C94.4475 45.9208 94.5393 45.5765 94.6515 45.2018C94.8015 44.7014 94.9534 44.5173 95.2242 44.5081C97.0231 44.447 98.6543 44.1909 99.0983 43.8999C100.03 43.2891 100.124 42.7536 99.894 39.3564C99.5733 34.6213 99.2694 34.2368 95.9925 34.4226L94.1213 34.5285L93.8428 33.8613C93.5275 33.1072 93.4322 33.304 95.0202 31.4327C95.888 30.4102 96.0334 30.137 96.0334 29.5298C96.0334 28.5403 95.703 28.0046 94.4653 26.9881L93.3927 26.107L93.3915 24.133C93.3896 20.9923 93.1089 20.6904 90.0661 20.5565L88.0635 20.4684L87.7946 19.7926L87.5257 19.1169L88.7643 17.8544C90.1222 16.4703 90.3947 16.0535 90.3947 15.3612C90.3947 14.5884 89.9777 14.0346 87.7197 11.8092C85.3808 9.50393 85.0705 9.27927 84.2275 9.27927C83.4402 9.27927 83.0645 9.51556 81.6574 10.8958L80.4087 12.1204L79.7631 11.8126L79.1175 11.5048V9.76648C79.1175 7.89375 78.9639 7.39597 78.1512 6.63616C77.6881 6.2034 77.6224 6.19477 74.3901 6.14296C71.3327 6.09398 71.0483 6.11653 70.366 6.46243ZM71.893 10.6065C71.893 13.1588 71.7177 13.4453 69.6023 14.3509C67.3016 15.3358 66.982 15.28 65.2026 13.5801L63.8525 12.2901L62.4105 13.7399C61.6172 14.5373 60.9682 15.2611 60.9682 15.3487C60.9682 15.4363 61.5169 16.0738 62.1874 16.7652C63.8018 18.4302 63.8571 18.7296 62.9523 20.9096C62.0242 23.1459 61.8403 23.2708 59.3647 23.3474L57.4335 23.4074L57.4828 25.55L57.5322 27.6929L59.4146 27.781C61.8461 27.8948 62.0568 28.0412 62.9652 30.2463C63.855 32.4066 63.8021 32.6797 62.1595 34.409L60.9035 35.7313L62.432 37.2595L63.9602 38.7879L65.1514 37.6213C66.9976 35.813 67.2641 35.7501 69.3861 36.6223C71.6474 37.5517 71.893 37.919 71.893 40.371V42.0537H74.0801H76.267L76.3267 40.1185C76.3849 38.2309 76.3993 38.1707 76.9149 37.6798C77.5073 37.1157 79.9219 36.0627 80.6228 36.0627C81.303 36.0627 81.7278 36.3364 83.0344 37.6158L84.2199 38.777L85.7688 37.2614L87.3175 35.7459L86.0475 34.4212C84.4023 32.7051 84.3442 32.4253 85.1933 30.3034C86.1127 28.0062 86.2752 27.8892 88.6906 27.781L90.659 27.6929L90.7084 25.55L90.7577 23.4074L88.8265 23.3474C86.351 23.2708 86.167 23.1459 85.2389 20.9096C84.3251 18.7081 84.3797 18.4359 86.0879 16.6807L87.3904 15.3422L85.8484 13.8074L84.3066 12.2727L83.2538 13.3516C82.0489 14.5864 80.97 15.1672 80.2258 14.9818C79.9555 14.9144 79.077 14.5575 78.2737 14.1886C76.4665 13.359 76.2982 13.0538 76.2982 10.6065V8.92685H74.0956H71.893V10.6065ZM72.2007 18.0937C70.4724 18.5298 68.429 20.0543 67.5407 21.5699C65.674 24.7553 66.2648 28.8002 68.9518 31.2285C73.1719 35.0423 80.0593 33.0068 81.4871 27.5237C82.4318 23.896 80.6732 20.1863 77.2497 18.584C76.2637 18.1227 75.8351 18.0299 74.4731 17.9827C73.5871 17.9518 72.5645 18.0019 72.2007 18.0937ZM72.1573 21.0617C70.3768 21.8735 69.4138 23.2708 69.2885 25.2249C69.2179 26.3255 69.2684 26.6444 69.6443 27.4656C70.1329 28.5327 70.9234 29.372 71.9811 29.9467C72.9809 30.4902 75.1995 30.4923 76.2194 29.9506C79.8084 28.0446 79.835 22.9688 76.2654 21.19C75.1153 20.6168 73.2604 20.5588 72.1573 21.0617ZM3.0314 27.64C2.86999 27.8014 2.81995 31.7985 2.81995 44.5559V61.2603L8.23831 61.2594L13.6567 61.2583L15.5949 60.1435C16.661 59.5303 19.1041 58.1035 21.0239 56.9728C24.0398 55.1965 24.6192 54.9168 25.2833 54.9168C26.2526 54.9168 27.0736 55.5478 27.2369 56.4183C27.3071 56.7924 27.1855 57.7834 26.9134 59.0545C26.6736 60.175 26.5365 61.1281 26.6088 61.1727C26.6808 61.2173 37.0777 61.2354 49.713 61.2131L72.686 61.1722L72.736 59.1687C72.7825 57.3066 72.7638 57.174 72.4717 57.2895C71.1736 57.8026 70.6043 57.5835 68.5032 55.763C64.3568 52.1701 64.2472 51.8433 66.3443 49.3309C66.9732 48.5773 67.4875 47.8805 67.4871 47.7826C67.4868 47.6844 67.3405 47.365 67.1622 47.0723L66.8378 46.5405L65.0923 46.6605C63.6513 46.7595 63.2414 46.7294 62.7417 46.4876C61.6522 45.9602 61.5095 45.5847 61.29 42.6669L61.0912 40.0274L59.5437 38.4175C57.2494 36.0306 57.2199 35.3861 59.3085 33.2399L60.6216 31.8907L60.352 31.2454L60.0824 30.6003L58.5431 30.5992C56.6145 30.598 55.827 30.383 55.2528 29.7006C54.9018 29.2833 54.801 28.9702 54.801 28.296V27.4286H29.0219C9.20639 27.4286 3.19386 27.4776 3.0314 27.64ZM89.91 30.5555L88.1037 30.6126L87.8387 31.2468L87.5737 31.881L88.8774 33.2455C91.0053 35.4728 90.9516 36.0579 88.3754 38.7058L86.5753 40.556L86.3601 41.7783C85.9025 44.3776 84.4308 46.3595 82.1363 47.4673C80.9598 48.0353 80.5931 48.1253 79.2056 48.1868C77.92 48.2435 77.4028 48.1849 76.4744 47.8765C75.0912 47.4173 73.733 46.5253 72.9695 45.5752C72.4558 44.9363 72.3304 44.873 71.5764 44.8723C70.6508 44.8716 69.7586 44.4251 69.3965 43.7813C69.2686 43.5538 69.1282 42.5261 69.0769 41.4437L68.9856 39.5121L68.3257 39.2616L67.6656 39.011L66.3874 40.2686C65.6844 40.9604 64.8567 41.6192 64.5484 41.733C63.9981 41.9359 63.9894 41.9563 64.0865 42.8336C64.1408 43.3254 64.2346 43.7744 64.2948 43.8317C64.3551 43.8888 65.0782 43.8808 65.902 43.814C67.5046 43.6842 68.2191 43.8019 68.7506 44.2828C69.273 44.7557 70.4834 47.3188 70.4834 47.9524C70.4834 48.5681 70.0249 49.339 68.8422 50.712C68.4365 51.183 68.1418 51.6279 68.1874 51.7007C68.3631 51.9821 71.2093 54.3882 71.3663 54.3882C71.5577 54.3882 72.9503 52.6732 72.9503 52.4378C72.9503 52.1691 74.3168 51.5689 74.9255 51.5701C75.4829 51.5714 77.6918 52.2404 78.4134 52.6265C79.0028 52.9419 79.2791 53.7516 79.404 55.5306L79.524 57.2378L81.3913 57.121C84.1398 56.949 83.9265 57.1344 83.793 55.0321C83.6462 52.7202 83.827 52.3893 85.7638 51.423C86.518 51.0468 87.3524 50.6865 87.6181 50.6223C88.3067 50.456 89.0788 50.8343 90.3965 51.9835C91.0245 52.5312 91.5905 52.9592 91.6543 52.9349C91.7182 52.9104 92.3864 52.1846 93.139 51.3217L94.5076 49.7529L93.9048 49.2306C91.3522 47.0184 91.2132 46.7068 91.8743 44.6815C92.7406 42.0275 92.8796 41.9063 95.3061 41.6893C96.2392 41.606 97.0659 41.5348 97.1435 41.5315C97.2208 41.5279 97.2425 41.0693 97.1912 40.5119C97.1399 39.9546 97.052 38.9775 96.9956 38.3407L96.8931 37.1825L94.9689 37.2618C92.5556 37.3613 92.419 37.2824 91.3635 35.1808C90.2983 33.0603 90.3158 32.7312 91.5751 31.173C91.908 30.7612 92.0759 30.4408 91.9484 30.4613C91.8208 30.4817 90.9035 30.5242 89.91 30.5555ZM40.3916 36.0231C40.1712 36.059 39.8674 36.2766 39.7166 36.5069C39.5658 36.737 38.375 41.1339 37.0703 46.2778C34.9243 54.7387 34.7201 55.6758 34.9277 56.1089C35.0538 56.3721 35.3879 56.6983 35.67 56.8334C36.4083 57.1873 37.2923 56.7004 37.5218 55.8137C39.2539 49.1177 42.1127 37.5465 42.1084 37.2495C42.0975 36.4741 41.2662 35.8803 40.3916 36.0231ZM27.9273 41.1993C25.5286 43.1601 23.5109 44.9409 23.4213 45.1763C23.0827 46.0668 23.3702 46.3886 27.6085 49.8602C29.8799 51.7206 31.9771 53.359 32.2692 53.501C32.7367 53.7283 32.8562 53.7278 33.268 53.4968C33.5252 53.3523 33.8558 53.0201 34.0026 52.7585C34.2457 52.3254 34.2406 52.2307 33.9464 51.7055C33.7686 51.3881 32.4213 50.1552 30.9524 48.9656C29.4836 47.7762 27.9708 46.5405 27.5908 46.2198L26.8997 45.6367L30.1457 42.9846C31.9311 41.526 33.5439 40.1637 33.7296 39.9574C34.23 39.4016 34.167 38.5596 33.5876 38.0612C33.3238 37.8343 32.9196 37.6486 32.6895 37.6486C32.4068 37.6486 30.8634 38.7994 27.9273 41.1993ZM43.8791 37.8752C43.3657 38.1349 43.0762 38.8311 43.2286 39.4388C43.2888 39.6788 43.8612 40.2929 44.5242 40.8291C45.9474 41.9797 50.0767 45.3828 50.2643 45.5599C50.3375 45.6288 48.8106 46.977 46.8715 48.5559C43.2943 51.4686 43.0122 51.7918 43.2429 52.7111C43.3755 53.2395 44.2874 53.7511 44.847 53.6106C45.0692 53.5548 46.0408 52.8545 47.0059 52.0545C47.971 51.2544 49.7815 49.7672 51.0293 48.7496C53.9532 46.3648 53.9199 46.4006 53.9199 45.6485C53.9199 44.9405 53.7596 44.758 51.6077 43.0171C50.893 42.4387 49.2334 41.0848 47.9197 40.008C44.834 37.4791 44.7498 37.4347 43.8791 37.8752ZM79.6902 39.3187L79.1175 39.5698V41.258C79.1175 43.6318 78.7064 44.4665 77.3554 44.835L76.7387 45.0033L77.2673 45.2256C77.5581 45.3477 78.2902 45.4475 78.8942 45.4469C80.8026 45.4452 82.343 44.4501 83.2147 42.6562L83.5694 41.9258L82.1185 40.5361C81.3204 39.7717 80.5765 39.1285 80.4651 39.107C80.354 39.0854 80.0052 39.1805 79.6902 39.3187ZM20.7909 60.3385C18.9993 61.3891 15.531 63.4234 13.084 64.8591C10.637 66.2949 8.63618 67.5197 8.63777 67.5808C8.63935 67.6418 9.09538 67.8851 9.65096 68.1214C12.1286 69.1751 12.9164 69.6201 13.2382 70.1478C13.9278 71.2789 13.7048 71.8202 11.0883 75.3644C10.3204 76.4046 9.69201 77.342 9.69201 77.4475C9.69201 77.7354 10.566 78.2554 10.7387 78.0702C10.8197 77.983 11.721 76.758 12.7414 75.3477C14.5957 72.7847 15.0586 72.3606 15.9997 72.362C16.7378 72.3631 17.4206 72.8831 18.8548 74.5368C19.5816 75.3748 20.2258 76.0608 20.2864 76.0611C20.3471 76.0615 20.4413 75.8437 20.4961 75.5771C20.5508 75.3105 21.395 71.4105 22.372 66.9102C23.3491 62.4099 24.126 58.6603 24.0987 58.5782C24.0712 58.4959 22.5828 59.288 20.7909 60.3385ZM2.81995 67.6818C2.81995 71.3867 2.82753 71.4656 3.21166 71.7345C3.77006 72.1257 9.89095 72.1419 10.2136 71.753C10.3887 71.5419 10.323 71.454 9.8388 71.2514C5.74445 69.5372 5.05478 69.0937 4.85866 68.0481C4.64158 66.8904 5.06236 66.338 7.03094 65.1969C8.00748 64.6308 8.80746 64.1083 8.80869 64.0355C8.80992 63.9628 7.463 63.9034 5.81546 63.9034H2.81995V67.6818ZM25.8227 64.1229C25.7843 64.2445 25.4241 65.8901 25.0224 67.7799C24.6206 69.6698 24.2493 71.3945 24.1974 71.6124L24.1027 72.0089H48.0059H71.9091L72.3452 71.5728L72.7815 71.1365L72.7337 67.5641L72.686 63.9915L49.2892 63.9467C30.6585 63.9111 25.8782 63.9471 25.8227 64.1229ZM31.3655 79.1509C31.3655 82.6424 31.3133 83.5984 31.0944 84.1224C30.9339 84.5064 29.784 85.8188 28.2751 87.3398C26.8736 88.7526 25.7268 89.9591 25.7268 90.0208C25.7268 90.0824 25.8514 90.2576 26.0037 90.41C26.2486 90.6549 27.3842 90.6868 35.836 90.6868C45.6851 90.6868 45.8144 90.6778 45.8144 89.9979C45.8144 89.8516 44.6329 88.5394 43.1891 87.0816C41.1104 84.9834 40.5234 84.2847 40.3707 83.7267C40.2568 83.3106 40.1774 81.3435 40.1769 78.925L40.1758 74.8282H35.7706H31.3655V79.1509Z" fill="#C5C5C5"/>
</svg>
