<svg width="65" height="65" viewBox="0 0 65 65" fill="none" xmlns="http://www.w3.org/2000/svg">
<path fill-rule="evenodd" clip-rule="evenodd" d="M28.3677 1.52408C27.6078 1.9002 27.3345 2.42083 27.2098 3.73033C27.1523 4.33233 27.0104 5.1062 26.8944 5.44995C25.654 9.12583 21.397 11.0776 17.8672 9.58895C17.257 9.3317 16.3782 8.7422 15.3225 7.88245C14.9209 7.55533 14.1242 7.43833 13.5618 7.62395C13.2687 7.7207 12.3327 8.5722 10.5572 10.3572C8.36792 12.5582 7.96517 13.0208 7.89192 13.4187C7.75642 14.1548 7.92504 14.7087 8.48004 15.3499C9.85367 16.9369 10.3643 18.1903 10.3798 20.0125C10.3965 21.9765 9.65979 23.7247 8.24329 25.0822C7.11179 26.1666 5.82942 26.7192 4.05129 26.8888C2.73429 27.0143 2.21354 27.2897 1.84229 28.0566C1.59954 28.5581 1.58354 28.8046 1.58617 32.0207C1.58867 35.0935 1.61304 35.5032 1.82142 35.9618C2.16217 36.7123 2.72742 37.01 4.05129 37.1361C4.65329 37.1936 5.42717 37.3355 5.77092 37.4515C8.84092 38.4875 10.8222 41.7142 10.3448 44.9003C10.1715 46.0571 9.45442 47.5497 8.59242 48.5482C7.92129 49.3256 7.74917 49.8312 7.89192 50.6062C7.96504 51.003 8.36554 51.4658 10.4997 53.6199C11.8863 55.0197 13.2019 56.2432 13.4232 56.3387C14.2953 56.7154 14.8652 56.5372 16.165 55.4812C18.5583 53.5368 21.6612 53.408 24.258 55.145C26.0695 56.3565 26.9869 57.9569 27.2098 60.2946C27.3359 61.6184 27.6335 62.1837 28.384 62.5245C28.8433 62.7331 29.249 62.757 32.3334 62.757C35.4178 62.757 35.8235 62.7331 36.2828 62.5245C37.0333 62.1837 37.3309 61.6184 37.457 60.2946C37.5145 59.6926 37.6564 58.9187 37.7724 58.575C38.847 55.3906 42.3139 53.3735 45.5405 54.0552C46.7584 54.3125 47.695 54.7802 48.7325 55.6491C49.6612 56.4268 50.1314 56.5996 50.9272 56.4552C51.3272 56.3826 51.7839 55.9821 54.0434 53.7225C56.303 51.463 56.7035 51.0062 56.7762 50.6062C56.91 49.8687 56.7413 49.3156 56.1868 48.6749C54.8114 47.0858 54.3014 45.833 54.289 44.0125C54.279 42.5581 54.5965 41.4178 55.3255 40.2898C56.5732 38.3595 58.2463 37.362 60.6155 37.1361C61.9394 37.01 62.5047 36.7123 62.8454 35.9618C63.054 35.5026 63.0779 35.0968 63.0779 32.0125C63.0779 28.9281 63.054 28.5223 62.8454 28.0631C62.5047 27.3126 61.9394 27.015 60.6155 26.8888C58.2463 26.663 56.5732 25.6655 55.3255 23.7351C54.6 22.6127 54.2804 21.468 54.286 20.0125C54.2932 18.2033 54.8059 16.9454 56.1868 15.3499C56.7413 14.7093 56.91 14.1562 56.7762 13.4187C56.7035 13.0187 56.303 12.562 54.0434 10.3025C51.7839 8.04283 51.3272 7.64233 50.9272 7.5697C50.1314 7.42533 49.6612 7.59808 48.7325 8.37583C47.2772 9.5947 46.0689 10.051 44.2709 10.0607C41.333 10.0765 38.7043 8.21133 37.7724 5.44995C37.6564 5.1062 37.5145 4.33233 37.457 3.73033C37.3309 2.40645 37.0333 1.8412 36.2828 1.50045C35.824 1.29208 35.4143 1.2677 32.3334 1.26533C29.0944 1.26283 28.8654 1.2777 28.3677 1.52408ZM30.2339 15.1503C22.8194 16.1514 17.0957 21.5651 15.6272 28.9657C15.3248 30.4898 15.3258 33.5401 15.6293 35.0704C16.3248 38.5778 17.8843 41.5327 20.3417 44C22.7727 46.4406 25.7582 48.0171 29.2754 48.7175C30.934 49.0478 33.9785 49.0195 35.6694 48.6581C42.5922 47.1785 47.6574 42.0299 49.0375 35.0704C49.3422 33.5346 49.3422 30.4903 49.0375 28.9545C47.6567 21.9913 42.5295 16.7843 35.6694 15.378C34.1919 15.0751 31.5967 14.9664 30.2339 15.1503ZM33.4675 25.2312C33.1477 25.5285 32.8258 26.4028 31.087 31.698C29.68 35.9827 29.098 37.9196 29.1487 38.1498C29.3529 39.0796 30.4423 39.4245 31.1879 38.7953C31.4947 38.5365 35.4584 26.6786 35.4584 26.0197C35.4584 25.7426 35.3452 25.505 35.093 25.2528C34.6018 24.7616 33.9817 24.7533 33.4675 25.2312ZM25.5209 25.1303C25.3834 25.1917 23.8659 26.652 22.1488 28.3753C19.1027 31.4323 19.0265 31.521 19.0265 32.0131C19.0265 32.506 19.1005 32.5914 22.2399 35.7309C25.3603 38.8512 25.4677 38.9443 25.9488 38.9443C26.8193 38.9443 27.4584 37.9852 27.0815 37.2443C26.9992 37.0825 25.8274 35.8391 24.4775 34.4812L22.0233 32.0125L24.4775 29.5437C25.8274 28.1858 26.9992 26.9425 27.0815 26.7806C27.2818 26.3868 27.1463 25.7401 26.7943 25.4093C26.4629 25.0981 25.8797 24.9703 25.5209 25.1303ZM38.3334 25.0961C37.683 25.35 37.2983 26.2162 37.5853 26.7806C37.6677 26.9425 38.8394 28.1858 40.1893 29.5437L42.6435 32.0125L40.1893 34.4812C38.8394 35.8391 37.6677 37.0825 37.5853 37.2443C37.2084 37.9852 37.8475 38.9443 38.718 38.9443C39.1992 38.9443 39.3065 38.8512 42.4269 35.7309C45.5677 32.5901 45.6403 32.5061 45.6403 32.0125C45.6403 31.5188 45.5679 31.4351 42.4555 28.3246C39.2429 25.1138 38.9253 24.8651 38.3334 25.0961Z" fill="#636363"/>
</svg>
