<svg width="100" height="101" viewBox="0 0 100 101" fill="none" xmlns="http://www.w3.org/2000/svg">
<path fill-rule="evenodd" clip-rule="evenodd" d="M34.7152 0.228392C34.3493 0.334032 33.8336 0.724086 33.5692 1.09497C33.0912 1.76507 33.0876 1.81862 33.023 9.2705C32.9874 13.3961 33.0191 17.1879 33.0939 17.6967C33.1904 18.3541 33.4291 18.8212 33.9194 19.3115C34.6043 19.9964 34.6231 20.0012 36.6094 20.0012C38.8966 20.0012 38.8214 19.912 38.3886 22.1086C38.0179 23.9886 38.0833 24.6164 38.7047 25.1511C39.2571 25.6261 39.2687 25.627 46.2368 25.627C55.2172 25.627 54.977 25.7291 54.3552 22.1734C54.1762 21.1505 54.0296 20.2435 54.0291 20.1574C54.0287 20.0714 54.877 20.0012 55.9142 20.0012C57.1921 20.0012 57.9968 19.8993 58.411 19.6851C59.6393 19.0498 59.6543 18.9333 59.6535 10.0623C59.6528 2.32098 59.6349 1.94843 59.2322 1.28812C58.4398 -0.0118502 58.5223 -0.00351696 46.3779 0.0171109C40.3291 0.0275291 35.0808 0.122544 34.7152 0.228392ZM35.742 10.0519L35.7968 17.3966H46.3191H56.8414L56.8962 10.0519L56.951 2.70707H46.3191H35.6872L35.742 10.0519ZM41.4588 20.1574C41.408 20.2435 41.3019 20.7357 41.223 21.2514C41.1442 21.7671 41.0331 22.3532 40.9767 22.5536C40.8804 22.8943 41.2319 22.9183 46.3051 22.9183C49.2924 22.9183 51.7365 22.8555 51.7365 22.7791C51.7365 22.7024 51.6332 22.046 51.5067 21.3205L51.2771 20.0012H46.4141C43.7396 20.0012 41.5097 20.0714 41.4588 20.1574ZM33.3646 27.6531C32.9833 27.9652 31.0755 29.7234 29.125 31.5599C27.1745 33.3964 24.1741 36.2178 22.4574 37.8295C20.7407 39.441 17.9839 42.0305 16.3313 43.5839L13.3263 46.4078L11.9557 45.7583C10.7039 45.1653 10.403 45.1089 8.49043 45.1089C6.48869 45.1089 6.32575 45.1435 4.80845 45.8936C2.17746 47.1938 0.481178 49.496 0.0898728 52.2974C-0.675443 57.7763 3.54536 62.3886 9.00446 62.0388C11.1806 61.8994 12.7254 61.2632 14.1971 59.901L15.3985 58.7885L19.1384 60.4544C37.3518 68.5676 39.8996 69.6403 40.407 69.409C40.6825 69.2835 41.0152 68.9452 41.1465 68.657C41.6063 67.6479 41.188 67.2803 37.956 65.8531C36.31 65.1263 30.9315 62.7516 26.0037 60.5758C21.076 58.4001 16.9704 56.5534 16.8804 56.4722C16.7005 56.3103 17.1319 53.3396 17.3352 53.3384C17.4471 53.3377 22.5889 52.8008 53.4034 49.5712C57.8155 49.1086 64.3702 48.4233 67.9694 48.048C74.1088 47.408 74.537 47.3365 74.8975 46.8914C75.1086 46.6306 75.2815 46.2399 75.2815 46.0234C75.2815 45.4712 74.5445 44.7963 73.9417 44.7963C73.6632 44.7963 68.1078 45.3572 61.5962 46.043C55.0847 46.7285 48.8194 47.3865 47.6734 47.5048C46.5275 47.6234 39.3348 48.3752 31.6895 49.1755C24.0445 49.9756 17.528 50.629 17.2083 50.627C16.7155 50.624 16.5286 50.4403 15.9771 49.4159L15.3268 48.2085L25.5097 38.6478C34.8935 29.8374 35.6926 29.0339 35.6926 28.4107C35.6926 27.9479 35.5463 27.6318 35.2294 27.4099C34.5731 26.9501 34.157 27.0042 33.3646 27.6531ZM80.5714 30.2068C80.3295 30.3045 79.9309 30.6396 79.6859 30.9511C79.2414 31.5159 79.2404 31.5482 79.2404 44.734C79.2404 53.4003 79.3142 58.0886 79.455 58.3514C79.9893 59.3496 80.306 59.3817 89.645 59.3817H98.4031L99.0836 58.7737L99.7641 58.1659L99.8208 45.0203C99.871 33.3456 99.8404 31.8033 99.5464 31.2348C98.9259 30.0347 98.6481 30.0013 89.4047 30.0157C84.7885 30.023 80.8135 30.1091 80.5714 30.2068ZM81.7903 40.3686L81.8449 48.026L89.5023 48.0805L97.1596 48.1353V40.4232V32.7113H89.4477H81.7355L81.7903 40.3686ZM6.59933 47.9555C6.24095 48.0766 5.49251 48.5198 4.93618 48.9403C1.42048 51.5975 2.10641 57.131 6.18073 58.9813C7.51383 59.5865 9.69476 59.5249 11.0627 58.8433C16.5689 56.0994 14.8417 47.9803 8.70963 47.7822C7.90743 47.7563 6.95771 47.8343 6.59933 47.9555ZM81.8797 50.7695C81.8033 50.8457 81.7407 52.2053 81.7407 53.7907V56.673H89.4502H97.1596V53.6518V50.6305H89.5891C85.4252 50.6305 81.956 50.693 81.8797 50.7695ZM88.5273 52.6247C88.3473 52.805 88.2 53.2202 88.2 53.5476C88.2 53.8749 88.3473 54.2902 88.5273 54.4704C88.7076 54.6504 89.1228 54.7977 89.4502 54.7977C89.7775 54.7977 90.1928 54.6504 90.373 54.4704C90.553 54.2902 90.7003 53.8749 90.7003 53.5476C90.7003 52.7883 90.2094 52.2974 89.4502 52.2974C89.1228 52.2974 88.7076 52.4447 88.5273 52.6247ZM33.7686 72.908L33.0881 73.5158L33.0247 81.654C32.9889 86.2597 33.0458 90.0973 33.1556 90.4953C33.3421 91.1706 33.2593 91.3233 31.0415 94.3954C28.4422 97.9959 28.238 98.5987 29.3075 99.5186L29.8818 100.012H46.2368C63.5757 100.012 63.5363 100.015 63.9005 99.0654C64.2422 98.1747 63.9655 97.5792 61.8248 94.5996L59.6197 91.5306L59.6451 82.7544C59.6731 73.2087 59.6576 73.0701 58.5141 72.5492C58.1112 72.3656 54.8818 72.3002 46.2085 72.3002H34.4491L33.7686 72.908ZM35.6926 82.3016V89.5943H46.3191H56.9456V82.3016V75.0089H46.3191H35.6926V82.3016ZM34.0663 94.7617L32.3359 97.1996L46.2368 97.2531C53.8822 97.2827 60.1785 97.2656 60.2288 97.2154C60.279 97.1652 59.5443 96.0394 58.596 94.7136L56.872 92.303L46.3343 92.3134L35.7968 92.3237L34.0663 94.7617Z" fill="#C5C5C5"/>
</svg>
