<svg width="100" height="101" viewBox="0 0 100 101" fill="none" xmlns="http://www.w3.org/2000/svg">
<path fill-rule="evenodd" clip-rule="evenodd" d="M44.1226 14.2249C39.4905 15.3457 36.0475 17.3538 32.1918 21.1832C29.6258 23.7317 28.2589 25.5135 27.2685 27.601C23.7049 35.1124 23.7049 42.822 27.2685 50.3334C29.1297 54.2562 34.6114 59.7305 38.6237 61.6733C46.8106 65.6373 56.5806 65.1039 63.8195 60.2977L66.1198 58.7703L67.491 60.185C68.3915 61.114 68.8618 62.0396 68.8618 62.8822C68.8618 63.9648 70.2124 65.5132 77.525 72.8127C83.0283 78.3059 86.6283 81.5681 87.3946 81.7549C90.7616 82.5774 93.6102 79.7288 92.7877 76.3618C92.6009 75.5955 89.3386 71.9955 83.8455 66.4922C76.546 59.1796 74.9976 57.829 73.915 57.829C73.0745 57.829 72.1481 57.3601 71.2292 56.4692L69.8259 55.1094L71.5051 52.4117C76.2095 44.8547 76.6504 35.737 72.7061 27.5909C70.7633 23.5786 65.289 18.0969 61.3662 16.2357C55.8314 13.61 49.6456 12.8884 44.1226 14.2249ZM46.0522 15.5545C37.3021 17.2507 30.225 23.458 27.3593 31.9489C26.7715 33.6921 26.5452 35.6396 26.5452 38.9672C26.5452 45.9399 28.5436 50.8479 33.3314 55.6358C38.1193 60.4236 43.0273 62.422 50 62.422C56.9727 62.422 61.8807 60.4236 66.6685 55.6358C71.4564 50.8479 73.4548 45.9399 73.4548 38.9672C73.4548 35.6396 73.2285 33.6921 72.6407 31.9489C70.1782 24.652 64.6718 19.0299 57.5456 16.5366C55.0804 15.6742 48.3849 15.1022 46.0522 15.5545ZM44.8889 17.6578C35.2738 19.9901 28.0677 29.1187 28.0677 38.9672C28.0677 50.8058 38.1614 60.8995 50 60.8995C61.8386 60.8995 71.9323 50.8058 71.9323 38.9672C71.9323 26.9527 61.6939 16.8923 49.6495 17.0722C48.2739 17.0928 46.132 17.356 44.8889 17.6578ZM44.4722 19.6181C40.8086 20.6669 38.3803 22.182 35.4698 25.2336C31.6791 29.2087 29.8223 33.7241 29.8223 38.9672C29.8223 44.6069 32.0024 49.4504 36.4143 53.6123C44.2853 61.0377 55.9454 60.9684 63.7748 53.4504C66.9896 50.3632 68.5775 47.6752 69.5018 43.7542C71.1541 36.7433 69.4575 30.4198 64.5354 25.2464C59.1423 19.5773 51.8046 17.5192 44.4722 19.6181ZM9.25417 22.911C7.03243 24.1423 7.04471 24.0032 7.02804 48.0691C7.01269 70.2624 7.0241 70.5497 7.88998 70.5497C8.75587 70.5497 8.76728 70.2571 8.76728 48.1788C8.76728 26.3925 8.79009 25.785 9.64457 24.9305C10.4587 24.1164 11.1066 24.0532 18.6368 24.0532C26.4592 24.0532 26.7518 24.0217 26.7518 23.176C26.7518 22.3294 26.4644 22.2991 18.5271 22.314C12.5453 22.3254 10.0165 22.4882 9.25417 22.911ZM73.2482 23.176C73.2482 24.0217 73.5408 24.0532 81.3632 24.0532C88.8934 24.0532 89.5413 24.1164 90.3554 24.9305C91.2099 25.785 91.2327 26.3925 91.2327 48.3981C91.2327 70.6958 91.2441 70.9884 92.11 70.9884C92.9759 70.9884 92.9873 70.6958 92.9873 48.3762C92.9873 23.8458 92.9943 23.9195 90.587 22.8228C89.8282 22.4768 86.684 22.2987 81.3426 22.2987C73.5408 22.2987 73.2482 22.3302 73.2482 23.176ZM11.3992 28.4397C10.5469 29.292 10.5219 29.9017 10.5219 49.9334C10.5219 70.2229 10.5359 70.5497 11.3948 70.5497C12.2523 70.5497 12.2699 70.1852 12.3817 50.043L12.4958 29.5363L18.3078 29.4139C23.7576 29.299 24.1199 29.2376 24.1199 28.427C24.1199 27.6093 23.7984 27.5624 18.1982 27.5624C12.8612 27.5624 12.1896 27.6493 11.3992 28.4397ZM75.8801 28.427C75.8801 29.2376 76.2424 29.299 81.6922 29.4139L87.5042 29.5363L87.6187 48.5078C87.7306 67.1147 87.7494 67.4792 88.6057 67.4792C89.4632 67.4792 89.4781 67.1528 89.4781 48.3981C89.4781 29.9017 89.4514 29.2902 88.6008 28.4397C87.8104 27.6493 87.1388 27.5624 81.8018 27.5624C76.2016 27.5624 75.8801 27.6093 75.8801 28.427ZM51.9919 33.6855L47.6396 38.0539L45.5491 36.098C44.3989 35.022 43.0431 34.1421 42.5364 34.1421C41.424 34.1421 37.9039 37.4609 37.4894 38.9001C37.2363 39.7805 37.8232 40.5595 41.5372 44.2735C45.5552 48.2915 46.0096 48.6174 47.5958 48.6174C49.2227 48.6174 49.6548 48.2731 56.0156 41.9123C59.7033 38.2246 62.7207 34.8606 62.7207 34.4364C62.7207 34.0127 61.8053 32.6876 60.6867 31.4914C57.7053 28.3037 57.235 28.4226 51.9919 33.6855ZM53.0617 35.2685C50.7746 37.5767 48.5345 39.669 48.0836 39.9178C47.3979 40.2959 46.8777 39.9884 44.8994 38.0342L42.5342 35.6989L40.6919 37.5416L38.8492 39.3839L42.5886 43.1234C45.246 45.7807 46.6387 46.8628 47.4019 46.8628C48.1998 46.8628 50.0855 45.2508 54.7286 40.599L60.9815 34.3351L59.3103 32.7033C58.3913 31.8059 57.5452 31.0716 57.4298 31.0716C57.3144 31.0716 55.3488 32.9604 53.0617 35.2685ZM14.9083 53.0039C14.4258 53.4864 14.031 54.276 14.031 54.7585C14.031 55.241 14.4258 56.0305 14.9083 56.5131C15.6685 57.2732 16.3703 57.3903 20.1721 57.3903C23.9738 57.3903 24.6756 57.2732 25.4358 56.5131C25.9183 56.0305 26.3131 55.241 26.3131 54.7585C26.3131 54.276 25.9183 53.4864 25.4358 53.0039C24.6756 52.2437 23.9738 52.1266 20.1721 52.1266C16.3703 52.1266 15.6685 52.2437 14.9083 53.0039ZM15.9913 54.3422C15.3777 55.3348 16.6111 55.6691 20.4313 55.5441C23.5558 55.4419 24.3392 55.2844 24.3392 54.7585C24.3392 54.2308 23.5439 54.0755 20.3177 53.975C17.6871 53.8926 16.1905 54.0198 15.9913 54.3422ZM67.7362 56.9982C67.5713 57.2653 68.0503 58.097 68.8004 58.8475C69.8667 59.9134 70.2799 60.0955 70.6944 59.681C71.109 59.2664 70.9489 58.8629 69.961 57.8321C68.5903 56.4012 68.1968 56.2534 67.7362 56.9982ZM14.9083 60.0222C14.4258 60.5047 14.031 61.2943 14.031 61.7768C14.031 62.2593 14.4258 63.0489 14.9083 63.5314C15.6685 64.2916 16.3703 64.4087 20.1721 64.4087C23.9738 64.4087 24.6756 64.2916 25.4358 63.5314C25.9183 63.0489 26.3131 62.2593 26.3131 61.7768C26.3131 61.2943 25.9183 60.5047 25.4358 60.0222C24.6756 59.262 23.9738 59.1449 20.1721 59.1449C16.3703 59.1449 15.6685 59.262 14.9083 60.0222ZM72.0183 61.0302C71.2471 61.8255 70.6164 62.6712 70.6164 62.9089C70.6164 63.1471 74.4278 67.1349 79.0857 71.7709C87.9411 80.5837 88.6316 81.0465 90.3554 79.3226C92.0793 77.5988 91.6165 76.9083 82.8037 68.0529C78.1677 63.395 74.1597 59.5836 73.8974 59.5836C73.6351 59.5836 72.7894 60.2345 72.0183 61.0302ZM15.9913 61.3605C15.3777 62.3532 16.6111 62.6874 20.4313 62.5624C23.5558 62.4602 24.3392 62.3027 24.3392 61.7768C24.3392 61.2491 23.5439 61.0938 20.3177 60.9934C17.6871 60.9109 16.1905 61.0381 15.9913 61.3605ZM0.820326 74.1102C-1.38562 76.3162 1.12036 82.1041 5.20547 84.2381L7.55135 85.4637H50H92.4487L94.7945 84.2381C98.8796 82.1041 101.386 76.3162 99.1797 74.1102C97.8861 72.8166 94.7419 72.7807 94.7419 74.0589C94.7419 74.7704 95.0345 74.9362 96.2908 74.9362C98.1717 74.9362 98.5603 75.6841 97.8721 77.9804C97.1803 80.2894 95.7824 81.9225 93.6799 82.8774C91.978 83.6499 89.8418 83.6898 50 83.6898C10.1582 83.6898 8.02202 83.6499 6.32007 82.8774C4.21764 81.9225 2.81967 80.2894 2.12793 77.9804C1.16115 74.7537 0.0658561 74.9362 20.3778 74.9362C38.3026 74.9362 38.5952 74.9502 38.5952 75.8135C38.5952 76.296 38.99 77.0855 39.4725 77.5681C40.2967 78.3923 40.9345 78.4453 50 78.4453C59.0655 78.4453 59.7033 78.3923 60.5275 77.5681C61.01 77.0855 61.4048 76.296 61.4048 75.8135C61.4048 74.9739 61.6974 74.9362 68.2038 74.9362C74.7102 74.9362 75.0028 74.8985 75.0028 74.0589C75.0028 73.1886 74.7102 73.1816 38.3759 73.1816H1.74894L0.820326 74.1102ZM40.4331 75.7038C40.5687 76.4065 41.3784 76.4714 50 76.4714C58.6216 76.4714 59.4313 76.4065 59.5669 75.7038C59.7037 74.9914 59.0159 74.9362 50 74.9362C40.9841 74.9362 40.2963 74.9914 40.4331 75.7038Z" fill="#C5C5C5"/>
</svg>
