<svg width="49" height="41" viewBox="0 0 49 41" fill="none" xmlns="http://www.w3.org/2000/svg">
<path fill-rule="evenodd" clip-rule="evenodd" d="M20.4245 0.763549C19.7272 1.14297 14.0805 8.59805 14.0773 9.14367C14.0769 9.20838 15.0044 9.20873 16.1381 9.14473C17.968 9.04112 18.3315 9.13872 19.3715 10.0139C20.0161 10.5563 20.8205 11.6189 21.1593 12.3753L21.7749 13.7505L24.0659 10.4449C25.3262 8.62705 26.5384 6.79219 26.7594 6.3675C28.5727 2.88342 23.9864 -1.17386 20.4245 0.763549ZM27.6794 4.41524C27.6893 6.09098 27.5076 6.76001 26.718 7.95449L25.7442 9.42761L26.8948 9.90286C31.9217 11.9789 33.1628 12.3477 34.3665 12.1217C35.9917 11.8169 37.0624 10.4591 37.0624 8.70307C37.0624 6.72252 35.9931 5.7639 31.9351 4.10654C29.9903 3.31199 28.2343 2.5917 28.0331 2.50542C27.8036 2.40711 27.6713 3.12069 27.6794 4.41524ZM21.5903 3.12812C20.8778 3.84063 21.0529 5.47182 21.8902 5.91984C23.5582 6.81234 25.4139 5.02097 24.4372 3.46051C23.9949 2.75365 22.1773 2.54113 21.5903 3.12812ZM41.381 7.0733L38.4506 7.39013L37.4305 9.63942C35.7664 13.3099 35.753 13.0828 37.8 15.8442L39.6515 18.342L42.5118 18.0995C45.2848 17.8643 46.8099 17.2133 46.0641 16.5828C45.8782 16.4255 44.8506 15.9135 43.7809 15.4449C42.7113 14.9768 41.7735 14.551 41.6968 14.499C41.4938 14.3615 42.7233 11.2459 43.0634 11.0358C43.2219 10.9379 44.248 11.2547 45.3442 11.7391C47.7371 12.7975 48.5242 12.8647 48.2958 11.9913C48.0889 11.2009 45.1416 7.05491 44.6649 6.88377C44.4704 6.81411 42.9927 6.89933 41.381 7.0733ZM13.9418 10.5302C12.0836 11.9916 11.9563 12.6582 11.9563 20.9127V28.533H9.5359C6.41179 28.533 5.94503 28.9849 5.94503 32.0086V34.1907H16.5532H27.1614V32.1479C27.1614 29.062 26.6413 28.533 23.6052 28.533H21.1501V21.0959C21.1501 12.9852 20.9567 11.94 19.2003 10.5584C17.8792 9.5192 15.2452 9.50505 13.9418 10.5302ZM15.404 11.9418C14.6933 12.3558 14.5734 14.0355 15.2095 14.6716C15.7565 15.2186 17.3499 15.2186 17.8969 14.6716C18.492 14.0765 18.4252 12.7748 17.7657 12.1154C17.131 11.4806 16.3004 11.4198 15.404 11.9418ZM0.976509 35.6231C0.395534 36.2041 0.272832 36.7133 0.357698 38.1868L0.464134 40.0252L16.4648 40.1171L32.4655 40.209V37.9194C32.4655 36.0177 32.3495 35.568 31.7816 35.2639C31.3414 35.0284 25.8552 34.8979 16.3998 34.8979C2.05253 34.8979 1.68443 34.9152 0.976509 35.6231Z" fill="#585858"/>
</svg>
