<svg width="49" height="45" viewBox="0 0 49 45" fill="none" xmlns="http://www.w3.org/2000/svg">
<path fill-rule="evenodd" clip-rule="evenodd" d="M22.4669 0.75035C19.143 2.59253 20.5489 7.83864 24.367 7.83864C27.9058 7.83864 29.4759 2.77808 26.5002 0.963715C25.0917 0.104921 23.7585 0.0344333 22.4669 0.75035ZM17.4719 5.05956C15.062 5.86807 10.9345 8.69134 9.06565 10.8101C6.21036 14.0464 4.13653 19.1523 4.13653 22.9457C4.13653 26.0345 5.04676 25.2214 5.6038 21.6346C6.68472 14.6743 11.5281 8.67763 17.8955 6.41634C19.5895 5.81472 20.2159 5.11672 19.4722 4.66027C19.3152 4.56349 18.4149 4.74333 17.4719 5.05956ZM29.1212 4.69837C28.5367 5.28322 29.0709 5.84368 30.8076 6.46815C37.2531 8.78583 41.9212 14.5395 43.0486 21.555C43.4853 24.27 43.9211 25.1658 44.6012 24.7455C45.3202 24.3009 43.9996 18.3004 42.4737 15.0778C40.9542 11.8693 36.8366 7.69577 33.6868 6.17173C31.0906 4.91554 29.4374 4.38213 29.1212 4.69837ZM19.7865 8.2749C18.9083 9.09293 17.4959 11.8008 17.4802 12.6965C17.4738 13.0604 19.093 13.1728 24.33 13.1728C29.7129 13.1728 31.1882 13.0661 31.1882 12.6759C31.1882 11.7878 29.2267 8.21623 28.536 7.84665C28.0578 7.59061 27.4391 7.70301 26.397 8.23413C24.5643 9.16875 24.0927 9.16684 22.2345 8.21965C21.4123 7.80054 20.7226 7.45764 20.7017 7.45764C20.6807 7.45764 20.2688 7.82531 19.7865 8.2749ZM22.7462 16.2288C22.1773 17.8603 21.1082 18.3492 19.876 17.5418C18.941 16.9295 18.8656 16.9402 17.9965 17.8089C17.1739 18.6319 17.1339 18.8269 17.5595 19.9536C18.1173 21.4315 17.6803 22.3799 16.2926 22.7045C15.5641 22.8748 15.3523 23.2013 15.2601 24.2975C15.1546 25.5483 15.2471 25.6988 16.2553 25.9206C17.7168 26.2414 18.3249 27.5357 17.6338 28.8543C17.1693 29.741 17.2059 29.9124 18.0224 30.6798C18.7829 31.3942 19.0542 31.4566 19.7575 31.0806C21.0651 30.3807 22.4105 30.9122 22.6745 32.2335C22.8776 33.2481 23.0502 33.3663 24.33 33.3663C25.6098 33.3663 25.7824 33.2481 25.9855 32.2335C26.2446 30.9366 27.5888 30.3772 28.8389 31.0463C30.2928 31.8247 31.9833 30.2092 31.1356 28.8517C30.409 27.6885 31.0186 26.225 32.3518 25.932C33.419 25.6977 33.5062 25.5613 33.3999 24.2975C33.3077 23.2013 33.0959 22.8748 32.3674 22.7045C30.9798 22.3799 30.5428 21.4315 31.1006 19.9536C31.5261 18.8269 31.4861 18.6319 30.6635 17.8089C29.7945 16.9402 29.719 16.9295 28.784 17.5418C27.5518 18.3492 26.4827 17.8603 25.9139 16.2288C25.5835 15.2817 25.3035 15.0778 24.33 15.0778C23.3565 15.0778 23.0765 15.2817 22.7462 16.2288ZM25.0105 23.7237C22.8635 25.8707 22.8311 25.8867 22.052 25.1818C21.442 24.6297 21.1612 24.5714 20.8099 24.9227C20.4586 25.274 20.6323 25.6535 21.5795 26.6003L22.8029 27.8241L25.4742 25.1734C26.9434 23.7157 28.0906 22.3585 28.0235 22.1581C27.7435 21.3172 27.0641 21.67 25.0105 23.7237ZM5.19383 25.578C3.87783 26.2921 3.37451 27.2358 3.37451 28.9888C3.37451 32.9826 9.34836 33.9614 10.5988 30.1726C11.1662 28.4539 10.7829 27.099 9.39979 25.9354C8.12722 24.8648 6.7274 24.7455 5.19383 25.578ZM40.1419 25.3266C38.7165 25.9431 37.873 27.2579 37.873 28.8635C37.873 30.8726 39.6451 32.6042 41.7014 32.6042C44.7449 32.6042 46.4575 28.6616 44.4283 26.326C43.4997 25.2572 41.4221 24.7726 40.1419 25.3266ZM2.39037 33.1727C1.86076 33.7023 1.1799 34.7284 0.876998 35.453C-0.194019 38.0169 -0.38719 37.9384 6.9941 37.9384C13.5124 37.9384 13.6618 37.9205 13.6618 37.1386C13.6618 36.0368 12.6494 34.0025 11.6188 33.0348L10.7619 32.2297L9.27368 32.9887C7.4014 33.9431 6.58299 33.9412 4.78691 32.9788L3.3528 32.2103L2.39037 33.1727ZM36.9951 33.0805C35.899 34.2506 35.0036 36.0467 35.0006 37.0811C34.9983 37.9376 35.0048 37.9384 41.6659 37.9384C49.0472 37.9384 48.8541 38.0169 47.783 35.453C47.4801 34.7284 46.7993 33.7023 46.2697 33.1727L45.3072 32.2103L43.8731 32.9788C42.0759 33.942 41.259 33.9431 39.3799 32.9852C38.5577 32.5661 37.8657 32.2232 37.8417 32.2232C37.8177 32.2232 37.4367 32.6088 36.9951 33.0805ZM11.4012 40.061C12.9504 41.7104 18.0803 43.9854 21.3772 44.4853C26.7029 45.293 32.8882 43.6318 37.0512 40.2755L38.5321 39.0814L37.4322 39.0883C36.8267 39.0921 35.5862 39.6003 34.6752 40.2179C31.4838 42.3806 29.141 43.0367 24.5205 43.0603C19.7663 43.085 17.758 42.5604 14.3899 40.4145C13.256 39.6922 11.9125 39.0966 11.4047 39.0913L10.4807 39.0814L11.4012 40.061Z" fill="#585858"/>
</svg>
