<svg width="49" height="46" viewBox="0 0 49 46" fill="none" xmlns="http://www.w3.org/2000/svg">
<path fill-rule="evenodd" clip-rule="evenodd" d="M1.74606 0.4391C1.29171 0.648768 1.00574 0.945906 0.812032 1.40973C0.682515 1.71972 0.666748 3.86398 0.666748 21.2052V40.6531L0.867968 41.0687C1.00171 41.345 1.21241 41.5753 1.49641 41.7553L1.92362 42.0262H17.0185C29.4843 42.0262 32.1663 42.0042 32.417 41.8994C32.8181 41.7318 33.2933 41.1795 33.4157 40.7383C33.4699 40.5433 33.5144 39.8721 33.5147 39.2467L33.5152 38.1095L34.1018 37.8971C34.8277 37.6341 36.0621 37.0214 36.5738 36.6702L36.9576 36.4068L37.5809 37.035L38.2043 37.6632L38.0979 38.0103C37.8851 38.7033 38.047 38.9176 41.0003 41.8547C42.5914 43.4371 43.8523 44.6151 44.0737 44.726C45.3898 45.3849 46.9166 45.0952 47.9016 43.9996C48.4383 43.4027 48.6691 42.7621 48.6667 41.876C48.6636 40.6652 48.4889 40.4244 45.3215 37.2701C42.9111 34.8696 42.5273 34.5237 42.2094 34.4655C42.0098 34.4291 41.7079 34.4418 41.5383 34.4939C41.2389 34.5858 41.2119 34.5703 40.618 33.9667L40.0061 33.3448L40.24 33.0163C40.6614 32.4244 41.3702 30.9226 41.6685 29.9898C42.2403 28.2019 42.4026 25.9782 42.0983 24.1003C41.4081 19.8411 38.3633 16.0932 34.3249 14.5319L33.5152 14.2189V12.1478V10.0767L30.77 7.32001C29.2602 5.80382 27.0252 3.59546 25.8035 2.41254L23.5821 0.261719L12.8518 0.263783C2.6202 0.265754 2.10401 0.27392 1.74606 0.4391ZM2.02339 1.61836L1.79298 1.84868V21.1867C1.79298 40.3995 1.7942 40.5258 1.98069 40.7123C2.1668 40.8984 2.2935 40.9 17.0841 40.9H32L32.1944 40.6527C32.3631 40.4383 32.389 40.2747 32.389 39.4234V38.4414L31.8024 38.521C31.4798 38.5647 30.4767 38.5981 29.5734 38.595C28.1947 38.5903 27.7879 38.5547 27.0394 38.3737C25.9068 38.1 24.4548 37.5382 23.6268 37.0535L22.9829 36.6766H17.4613H11.9397L11.7937 36.468C11.597 36.1873 11.6097 35.9636 11.8352 35.7381C12.018 35.5553 12.148 35.5504 16.7514 35.5504H21.4798L20.8817 34.9403L20.2836 34.3303H16.1116H11.9397L11.7937 34.1217C11.597 33.8409 11.6097 33.6173 11.8352 33.3918C12.0166 33.2104 12.148 33.204 15.7255 33.204H19.4281L19.0275 32.5236C18.2432 31.1918 17.6149 29.4112 17.4213 27.9718L17.3549 27.479H14.6565C12.1616 27.479 11.9464 27.4661 11.8029 27.3074C11.6123 27.0969 11.604 26.8237 11.7806 26.5819C11.9062 26.4101 12.0665 26.3981 14.5962 26.3721L17.2787 26.3445V25.7386V25.1327H14.6092C11.9571 25.1327 11.9388 25.1314 11.7937 24.9241C11.597 24.6434 11.6097 24.4197 11.8352 24.1942C12.0143 24.0151 12.148 24.0065 14.7429 24.0065H17.4628L17.5186 23.7484C17.8751 22.0982 18.5919 20.4052 19.4794 19.1167C19.766 18.7007 20.0004 18.3426 20.0004 18.3209C20.0004 18.2992 18.1909 18.2815 15.9793 18.2815C12.2029 18.2815 11.9487 18.271 11.8029 18.1098C11.6397 17.9296 11.6029 17.6488 11.7193 17.4743C11.9198 17.1742 12.2136 17.1552 16.6754 17.1552H21.1526L21.5385 16.8024C21.7508 16.6084 22.0722 16.3344 22.2529 16.1934L22.5814 15.9372L17.2606 15.9362L11.9397 15.9351L11.7937 15.7265C11.6123 15.4677 11.6087 15.2734 11.7807 15.038C11.9096 14.8616 12.1196 14.8541 18.3269 14.8024L24.74 14.7489L25.8193 14.3618C27.2895 13.8345 28.6411 13.6404 30.3242 13.715C31.0211 13.7457 31.7475 13.8096 31.9385 13.8567C32.1295 13.9038 32.3089 13.9191 32.3374 13.8907C32.3657 13.8623 32.389 13.1931 32.389 12.4037V10.9684L28.229 10.9411L24.069 10.914L23.6734 10.6522C23.2128 10.3471 22.9311 9.93118 22.8498 9.43583L22.792 9.08388H17.3751C12.2465 9.08388 11.9499 9.07478 11.8029 8.91222C11.5772 8.66295 11.6121 8.37454 11.8948 8.1522C12.1384 7.96056 12.2219 7.95765 17.4791 7.95765H22.816V7.3476V6.73756H17.3871C12.2469 6.73756 11.9499 6.72846 11.8029 6.5659C11.6397 6.38571 11.6029 6.1049 11.7193 5.93043C11.9221 5.62672 12.2014 5.61133 17.5071 5.61133H22.816V3.49964V1.38795H12.5349H2.25371L2.02339 1.61836ZM4.76389 4.93831C4.62827 5.08819 4.60857 5.40147 4.60857 7.41086C4.60857 9.52077 4.62283 9.72462 4.78022 9.86708C4.93029 10.003 5.24733 10.0224 7.3089 10.0224C9.63823 10.0224 9.6677 10.02 9.81205 9.81378C10.0291 9.50397 10.0291 5.2851 9.81205 4.97529C9.66761 4.769 9.63879 4.76665 7.29257 4.76665C5.11246 4.76665 4.90655 4.78064 4.76389 4.93831ZM4.86169 14.0602L4.60857 14.2594V16.5844C4.60857 18.7176 4.62274 18.9222 4.78022 19.0647C4.93011 19.2004 5.24442 19.22 7.26732 19.22C9.45766 19.22 9.5929 19.2098 9.77047 19.0323C9.94766 18.8551 9.95818 18.7195 9.95818 16.6025C9.95818 14.5355 9.94419 14.3431 9.77892 14.1389C9.60078 13.9187 9.58502 13.9171 7.35723 13.8892C5.19214 13.8621 5.10617 13.868 4.86169 14.0602ZM33.8706 23.7431C32.9783 24.4758 31.3084 25.8509 30.1598 26.7988C29.0111 27.7467 28.0319 28.4978 27.9836 28.468C27.9354 28.4382 27.0645 27.401 26.0485 26.1632C24.3421 24.0844 24.1784 23.9126 23.9027 23.9126C23.5276 23.9126 23.3785 24.059 23.3816 24.4241C23.3834 24.6536 23.6824 25.0731 24.8896 26.5405C27.5619 29.7886 27.6792 29.9192 27.9221 29.9192C28.0766 29.9192 29.3269 28.9487 31.98 26.7694C34.089 25.0371 35.9096 23.5142 36.0258 23.3855C36.142 23.2567 36.237 23.0693 36.237 22.9688C36.237 22.733 35.9138 22.411 35.6772 22.411C35.5758 22.411 34.7628 23.0104 33.8706 23.7431ZM4.93705 23.1801C4.83381 23.2387 4.71828 23.3324 4.68036 23.3885C4.64245 23.4445 4.61082 24.505 4.60997 25.7453C4.60875 27.636 4.63212 28.0341 4.75469 28.2089C4.89904 28.415 4.92907 28.4176 7.24179 28.4176C9.45766 28.4176 9.59281 28.4075 9.77047 28.2299C9.94776 28.0526 9.95818 27.917 9.95818 25.7855V23.5287L9.72777 23.2984L9.49745 23.0679L7.31106 23.0708C5.85915 23.0727 5.06169 23.1094 4.93705 23.1801ZM4.98398 32.3307C4.6325 32.4562 4.60857 32.6237 4.60857 34.9583C4.60857 37.1146 4.61889 37.25 4.79627 37.4274C4.97375 37.6049 5.10908 37.6151 7.28337 37.6151C9.45766 37.6151 9.59299 37.6049 9.77047 37.4274C9.94776 37.2501 9.95818 37.1146 9.95818 34.983V32.7262L9.72777 32.4959L9.49745 32.2655L7.31106 32.2729C6.10861 32.277 5.06141 32.303 4.98398 32.3307ZM38.5826 35.0348L37.8828 35.7394L38.4208 36.2775L38.959 36.8156L39.6842 36.0904L40.4095 35.3651L39.8984 34.8477C39.6174 34.5631 39.3639 34.3303 39.3349 34.3303C39.3061 34.3303 38.9675 34.6473 38.5826 35.0348ZM41.915 38.366L40.5093 39.774L42.3384 41.6103C43.3444 42.6201 44.3576 43.5597 44.5899 43.698C45.2079 44.066 45.9821 44.0547 46.615 43.6682C47.1464 43.3438 47.5935 42.5958 47.5926 42.0329C47.5913 41.1951 47.4907 41.0533 45.4056 38.9525C44.317 37.8557 43.4024 36.9582 43.3734 36.9582C43.3443 36.9582 42.688 37.5918 41.915 38.366Z" fill="#585858"/>
</svg>
