<svg width="49" height="35" viewBox="0 0 49 35" fill="none" xmlns="http://www.w3.org/2000/svg">
<path fill-rule="evenodd" clip-rule="evenodd" d="M15.0519 0.391284C14.6252 0.543425 14.1294 1.00149 13.891 1.46394C13.7876 1.66473 13.6693 2.20047 13.6018 2.77417L13.4876 3.74479L12.7737 4.00508C12.381 4.14819 11.7751 4.39652 11.4271 4.55688L10.7945 4.84848L10.0624 4.28098C9.65974 3.96894 9.18925 3.65462 9.01676 3.58252C8.60588 3.41084 7.7748 3.4155 7.34831 3.59192C7.1395 3.67826 6.43501 4.30115 5.51632 5.2119C3.86831 6.84548 3.5874 7.26075 3.5894 8.06052C3.59086 8.66005 3.80497 9.1078 4.52653 10.0203L5.1215 10.7727L4.87124 11.3333C4.68059 11.7602 4.18574 13.0876 4.18054 13.1861C4.18008 13.1941 3.71161 13.2656 3.13955 13.345C2.02016 13.5003 1.4951 13.7222 1.12064 14.1981C0.693235 14.7414 0.665856 14.932 0.666769 17.358L0.667681 19.6514L0.942395 20.1305C1.37956 20.8927 1.93675 21.1719 3.26705 21.2953C4.18309 21.3802 4.19623 21.3876 4.3711 21.9145C4.4578 22.1757 4.68397 22.7271 4.87371 23.1398L5.21861 23.8903L4.62519 24.6252C3.90847 25.5129 3.68213 25.9833 3.68067 26.5877C3.67866 27.3912 3.95757 27.8031 5.60895 29.4358C6.51158 30.3284 7.23852 30.9708 7.44186 31.0558C7.86872 31.2341 8.69769 31.2371 9.11743 31.0617C9.29494 30.9875 9.80157 30.6418 10.2432 30.2935L11.0462 29.6601L11.6744 29.9585C12.0198 30.1226 12.5784 30.348 12.9156 30.4594C13.6071 30.6879 13.5344 30.5435 13.7194 32.0548C13.8356 33.0038 14.0279 33.4308 14.5347 33.8645C15.098 34.3467 15.4452 34.4135 17.0034 34.3393C17.747 34.3039 18.3925 34.2498 18.438 34.2189C18.4836 34.1881 19.292 31.904 20.2344 29.1431C21.177 26.3823 21.9772 24.0714 22.0127 24.0076C22.0481 23.9439 24.4572 21.5041 27.366 18.5858L32.6549 13.2796L32.3355 13.2125C32.1598 13.1757 31.7871 13.1184 31.5072 13.0854L30.9982 13.0253L30.5636 11.9308L30.1291 10.8361L30.525 10.3381C31.6697 8.89789 31.8149 8.27007 31.2632 7.14785C30.9965 6.60555 28.3248 3.91601 27.7732 3.63463C26.8667 3.17218 26.0867 3.33427 24.9928 4.21244L24.267 4.79518L23.5326 4.45758C23.1286 4.27195 22.5722 4.0467 22.2962 3.95708C22.0201 3.86745 21.7628 3.76578 21.7246 3.73119C21.6862 3.69651 21.6128 3.30114 21.5614 2.85257C21.4001 1.44514 21.0766 0.859848 20.2464 0.473242C19.8031 0.266797 19.7062 0.259129 17.5959 0.262141C15.9707 0.264422 15.3143 0.297735 15.0519 0.391284ZM42.0554 5.85725C41.9048 5.92835 37.5929 10.1806 32.4735 15.3066C25.3862 22.403 23.1359 24.7081 23.0421 24.9683C22.9743 25.1561 22.6588 26.0697 22.341 26.9984C22.0231 27.927 21.3279 29.9559 20.7961 31.507C20.2643 33.0582 19.8421 34.3403 19.858 34.3562C19.8739 34.3721 21.0964 33.9616 22.5746 33.4441C24.0529 32.9265 26.3554 32.1226 27.6915 31.6577L30.1206 30.8125L39.2558 21.6725C45.6884 15.2365 48.4325 12.4322 48.5315 12.1933C48.7101 11.7627 48.712 10.98 48.5359 10.4805C48.2913 9.78738 47.7475 9.01088 46.8569 8.08297C45.3983 6.56338 44.1908 5.84329 42.9746 5.76799C42.5338 5.7407 42.2424 5.76899 42.0554 5.85725ZM31.7905 17.8235L24.4465 25.1678L26.7609 27.4293C28.0339 28.6731 29.121 29.7017 29.1768 29.7151C29.2324 29.7285 32.5635 26.4533 36.5789 22.4369L43.8798 15.1341L41.5537 12.8067C40.2742 11.5265 39.2065 10.4791 39.181 10.4791C39.1554 10.4791 35.8296 13.784 31.7905 17.8235ZM16.2726 10.7059C13.5637 11.3162 11.6452 13.1809 10.9685 15.8615C10.804 16.5129 10.781 16.801 10.8232 17.6869C10.8987 19.2748 11.2867 20.3645 12.2177 21.603C13.9845 23.9533 17.3492 24.8841 20.1362 23.7934C22.0407 23.048 23.6423 21.2457 24.2275 19.1899C24.4896 18.2689 24.5101 16.6777 24.2716 15.7726C23.7687 13.8634 22.3978 12.1566 20.6893 11.3122C19.3638 10.6571 17.5776 10.4118 16.2726 10.7059ZM23.6437 27.2477C23.5117 27.6377 23.0752 28.9115 22.6737 30.0786C22.2354 31.3529 21.9868 32.2001 22.0515 32.1993C22.1791 32.1978 27.5902 30.3139 27.656 30.248C27.6981 30.2058 24.0853 26.6167 23.9469 26.5632C23.9121 26.5498 23.7757 26.8578 23.6437 27.2477Z" fill="#585858"/>
</svg>
