<svg width="49" height="49" viewBox="0 0 49 49" fill="none" xmlns="http://www.w3.org/2000/svg">
<g clip-path="url(#clip0_89_2335)">
<path fill-rule="evenodd" clip-rule="evenodd" d="M24.2147 1.57518L20.5996 3.13108L21.0474 3.78509C21.2936 4.14474 21.6546 4.75756 21.8495 5.14701C22.0443 5.53636 22.2148 5.86742 22.2283 5.88272C22.2417 5.89812 23.4614 5.39188 24.9386 4.75786C26.4158 4.12395 27.7454 3.60521 27.8934 3.60521C28.0414 3.60521 29.475 4.16764 31.0793 4.85505C32.6836 5.54246 34.0416 6.10489 34.097 6.10489C34.2687 6.10489 36.7962 3.88218 36.7099 3.80709C36.6255 3.7336 27.9219 0.00048159 27.863 0.01248C27.8447 0.0162795 26.2029 0.719488 24.2147 1.57518ZM9.982 0.16346C8.80496 0.373333 8.497 0.441324 8.00016 0.601004C5.25712 1.48279 2.92902 3.54582 1.71708 6.16878C1.21264 7.26054 0.880985 8.65176 0.812794 9.96169C0.573125 14.5676 3.43865 18.7771 7.83778 20.2821C10.1017 21.0565 12.8772 20.9573 15.1337 20.0209C18.2708 18.7193 20.5901 15.892 21.274 12.5359C22.557 6.24057 17.897 0.349336 11.4818 0.156461C10.7944 0.135764 10.1195 0.138863 9.982 0.16346ZM10.2937 3.36834C9.81263 3.7052 9.80053 3.86348 9.94681 7.90466C10.0214 9.96689 10.1067 11.7593 10.1363 11.8876C10.2271 12.2819 10.6619 12.604 11.1031 12.604C11.3186 12.604 11.5815 12.5578 11.6873 12.5011C12.1337 12.2622 12.169 12.0105 12.3245 7.95975C12.4125 5.66475 12.437 4.00056 12.3847 3.86308C12.2159 3.41914 11.8115 3.20527 11.1407 3.20527C10.7346 3.20527 10.4475 3.26056 10.2937 3.36834ZM25.3477 6.30446C23.9826 6.89929 22.8428 7.40892 22.8148 7.43692C22.7867 7.46491 22.835 7.93575 22.9221 8.48308C23.5486 12.4244 22.3056 16.2316 19.4873 19.0032C17.813 20.6497 15.7682 21.7292 13.4316 22.1999L12.6317 22.361L12.602 23.7567C12.5481 26.2859 12.8499 28.4798 13.5499 30.645C13.998 32.0308 15.1768 34.3612 16.0569 35.6009C16.8631 36.7364 19.0173 38.9347 20.1302 39.7575C20.8961 40.3237 20.9715 40.3556 21.93 40.5189C22.4802 40.6126 23.0285 40.6918 23.1485 40.6949C23.3186 40.6992 23.6568 40.3029 24.6801 38.9006C25.4024 37.9108 26.0049 37.1009 26.0189 37.1009C26.0329 37.1009 25.829 38.237 25.5658 39.6255C25.3025 41.0142 25.0855 42.205 25.0835 42.272C25.0798 42.4005 26.3168 42.8065 27.3316 43.0099C28.0565 43.1552 28.8708 43.0023 30.6619 42.3848C36.3094 40.4374 40.7798 35.7333 42.4263 30.0056C43.1298 27.5582 43.1277 27.5897 43.1277 19.2585V11.7648L40.0352 10.4325C38.3343 9.69982 36.905 9.138 36.8589 9.18409C36.8128 9.23018 37.0076 9.75982 37.2917 10.361L37.8081 11.4542L37.6086 12.4842L37.4091 13.5142L38.4307 15.4838C38.9925 16.5671 39.443 17.4647 39.4318 17.4785C39.4205 17.4924 38.2002 16.919 36.72 16.2044C35.2399 15.4897 33.9839 14.8896 33.9289 14.871C33.8678 14.8502 33.9544 14.202 34.1511 13.2068L34.4732 11.5766L33.5414 10.5655L32.6097 9.55444L33.0394 8.57527C33.4679 7.5992 33.4686 7.5958 33.2491 7.50991C33.1281 7.46251 31.8665 6.92458 30.4456 6.31436C29.0248 5.70424 27.855 5.20901 27.846 5.214C27.837 5.2189 26.7128 5.70964 25.3477 6.30446ZM40.0709 6.85989C39.2814 7.42262 38.6216 7.92485 38.6045 7.97605C38.5874 8.02724 39.8681 8.62016 41.4505 9.29368C43.2908 10.077 44.4086 10.6079 44.5525 10.7669L44.7775 11.0155V18.4628C44.7775 27.5025 44.7206 28.1868 43.7185 31.2016C41.7157 37.2267 36.9001 42.0269 30.8729 44.0061C29.0441 44.6066 28.1111 44.7631 27.2451 44.6146C26.239 44.4421 24.6727 43.9705 23.5394 43.4988C23.0052 43.2765 22.3797 43.0703 22.1493 43.0405L21.7305 42.9864L21.2805 43.7619C21.0331 44.1883 20.7042 44.752 20.5497 45.0144L20.2689 45.4916L21.0497 45.881C22.6703 46.6893 24.5653 47.3222 26.6536 47.7525L27.9156 48.0124L29.1225 47.7454C35.4859 46.3373 40.8977 42.6484 44.3752 37.3486C45.6443 35.4148 46.878 32.4292 47.4113 30.0018C47.9183 27.6939 47.9271 27.4851 47.9271 17.7217V8.59107L44.7167 7.21395L41.5064 5.83672L40.0709 6.85989ZM26.2776 14.1314C24.5447 14.7223 23.1495 16.2637 22.7908 17.9832C22.73 18.2747 22.6804 19.3658 22.6804 20.4079V22.3028L22.0554 22.303C21.241 22.3032 20.7724 22.5303 20.6112 23.0027C20.4552 23.4601 20.4315 33.1706 20.585 33.7234C20.784 34.4397 20.3685 34.4012 27.8964 34.4012H34.6676L34.9482 34.1599L35.2287 33.9186V28.4129V22.9072L34.9516 22.63L34.6744 22.3528L29.8699 22.3241L25.0653 22.2954L25.0977 20.2743C25.1272 18.428 25.1487 18.2187 25.3462 17.8534C26.2788 16.1277 28.5246 15.7581 29.8746 17.1083C30.5079 17.7416 30.6793 18.2553 30.6793 19.5209V20.503H31.8792H33.079V19.3714C33.079 18.1059 32.9425 17.4982 32.4489 16.5658C31.8471 15.4293 30.6136 14.4533 29.2863 14.0634C28.4719 13.8242 27.0869 13.8555 26.2776 14.1314ZM10.3718 15.332C10.1533 15.4787 9.9795 15.7107 9.88512 15.9819C9.37378 17.4497 11.474 18.4049 12.2857 17.0736C12.6384 16.4954 12.485 15.7567 11.9203 15.3125C11.5482 15.0198 10.8228 15.0289 10.3718 15.332ZM7.80839 24.4621C7.87058 27.2509 8.02626 28.5548 8.53709 30.566C9.60715 34.7792 11.8442 38.6204 14.9938 41.6531C15.8638 42.4908 16.8845 43.3474 17.6509 43.8828L17.9707 44.1063L18.7211 42.9554C19.1337 42.3225 19.5189 41.716 19.5769 41.6076C19.6698 41.4338 19.5905 41.3405 18.9066 40.8197C15.447 38.1848 12.8181 34.24 11.689 29.9893C11.2283 28.2551 11.0776 27.0599 11.0125 24.6275L10.953 22.4028L10.4425 22.3993C9.9894 22.3962 9.10702 22.2632 8.09255 22.045L7.75289 21.9719L7.80839 24.4621ZM27.4297 24.7939C26.6542 24.9881 26.0078 25.5813 25.7941 26.2945C25.5504 27.1079 25.7269 27.8102 26.3488 28.5019L26.7798 28.9813V30.1515V31.3216L27.1198 31.6616C27.3967 31.9385 27.5363 32.0015 27.8732 32.0015C28.7926 32.0015 29.0795 31.5072 29.0795 29.9237V28.8393L29.3921 28.5457C30.2572 27.7329 30.3064 26.3188 29.4992 25.4682C28.9805 24.9217 28.0845 24.6297 27.4297 24.7939Z" fill="#585858"/>
</g>
<defs>
<clipPath id="clip0_89_2335">
<rect width="48" height="48" fill="white" transform="translate(0.330078 0.0124512)"/>
</clipPath>
</defs>
</svg>
