<svg width="100" height="101" viewBox="0 0 100 101" fill="none" xmlns="http://www.w3.org/2000/svg">
<path fill-rule="evenodd" clip-rule="evenodd" d="M36.0707 2.0457C31.5096 7.09727 23.6322 10.8045 14.6481 12.1279C11.3709 12.6107 6.73673 12.8989 4.42625 12.7638C3.21346 12.6928 2.36442 12.7198 2.1466 12.8364C1.74288 13.0526 1.55733 13.6874 1.17745 16.1535C-1.58031 34.0521 0.549456 52.29 7.1123 66.9775C13.0904 80.3558 22.8613 91.1226 35.9546 98.7597C36.752 99.2247 37.605 99.6053 37.85 99.6053C38.6632 99.6053 44.5185 95.91 48.0398 93.1744C50.4126 91.3311 53.5121 88.5497 55.5011 86.4787L57.3155 84.5896L59.0866 84.7647C63.4451 85.1953 69.0592 83.9623 72.8467 81.7425C73.426 81.403 73.9598 81.1488 74.033 81.1774C74.2202 81.2511 80.0776 87.7871 88.3955 97.2041C88.9272 97.8061 89.7565 98.5725 90.2384 98.9072C91.069 99.4841 91.1947 99.5157 92.6586 99.5157C93.7703 99.5157 94.3789 99.4279 94.8325 99.2018C95.695 98.7717 99.0729 95.406 99.5184 94.5326C100.268 93.0629 100.133 91.1899 99.1781 89.8C98.807 89.26 85.8457 77.5335 81.8615 74.1331L81.3183 73.6695L81.7197 73.1058C82.4074 72.1401 83.6718 69.2916 84.1614 67.605C86.9186 58.1092 83.8177 48.1427 76.1282 41.7856L75.2641 41.0711L75.4795 38.0241C75.7578 34.0882 75.6088 25.0166 75.2042 21.2628C75.0394 19.7344 74.7092 17.3143 74.4706 15.8845C73.9132 12.5459 73.9656 12.5986 71.3607 12.7584C67.6883 12.9835 60.6518 12.2838 56.7369 11.3043C49.0946 9.39198 43.4109 6.22905 39.111 1.49587C37.975 0.245256 37.6422 0.305313 36.0707 2.0457ZM36.6724 4.43882C30.3144 10.878 19.1253 14.765 6.7534 14.832C3.98882 14.8471 3.58026 14.8862 3.50424 15.1427C3.35258 15.6547 2.85276 19.2884 2.57615 21.8902C2.19483 25.4795 2.0541 33.775 2.31046 37.5767C4.08258 63.8754 15.4828 83.8615 35.7057 96.124L37.8608 97.4307L40.2162 95.9874C44.8247 93.1637 48.6823 90.1624 52.4802 86.4466L54.8588 84.1193L53.018 83.4668C49.4047 82.1862 46.5867 80.4094 43.9016 77.7182C40.5124 74.3217 38.3841 70.3785 37.2763 65.4435C36.7468 63.0844 36.6959 58.7193 37.1699 56.3219C38.9081 47.533 45.0651 40.4786 53.428 37.6939C59.4887 35.676 66.0706 36.1844 71.9511 39.1247C72.6295 39.4639 73.2345 39.6912 73.2956 39.6301C73.3569 39.5689 73.407 36.0365 73.407 31.7802C73.407 23.7554 73.2661 21.5245 72.4534 16.6913L72.1521 14.8985L69.6422 14.8718C64.7321 14.8193 61.1242 14.4505 57.362 13.6166C49.8617 11.9542 43.6995 8.91708 39.326 4.72746C38.5266 3.96178 37.8409 3.34221 37.8022 3.35063C37.7633 3.35906 37.2548 3.84884 36.6724 4.43882ZM57.0316 38.9314C52.9275 39.6808 48.6988 41.8595 45.6843 44.7779C38.8726 51.3725 36.9965 61.6413 41.0556 70.1148C44.2368 76.7558 50.5101 81.3967 57.7619 82.4734C60.1233 82.8241 61.7951 82.8262 64.0847 82.4818C66.7407 82.0821 68.336 81.5933 70.5856 80.4905C76.5586 77.5617 80.7904 72.3724 82.4 66.003C82.9553 63.8065 83.1612 59.7444 82.8319 57.4914C81.4644 48.1389 74.0986 40.5474 64.8224 38.9298C62.8861 38.5922 58.8853 38.593 57.0316 38.9314ZM51.5356 46.1425C50.0361 46.9412 49.7959 47.1065 48.4761 48.2458C46.3695 50.0643 44.493 53.2161 43.7279 56.2211C43.1777 58.3814 43.1757 61.3053 43.7227 63.4516C44.4173 66.1767 44.8327 66.7879 45.8216 66.5396C46.5996 66.3443 46.6834 65.7825 46.1646 64.237C45.4577 62.1316 45.2481 60.2716 45.5021 58.3625C45.7497 56.5037 46.4699 54.3506 47.3365 52.8782C48.1733 51.4562 50.5616 49.1031 51.9492 48.3331C54.3943 46.9762 54.6019 46.737 54.0562 45.9041C53.6523 45.2878 53.0298 45.3466 51.5356 46.1425ZM77.936 77.7666L75.8316 79.9087L77.9557 82.2724C79.1238 83.5723 80.3162 84.907 80.6053 85.2383L81.1311 85.8409L83.5436 83.3945C84.8704 82.0491 85.9774 80.8872 86.0034 80.8126C86.0578 80.6568 80.5933 75.7793 80.2601 75.6859C80.139 75.652 79.0932 76.5884 77.936 77.7666ZM85.1515 84.8131C82.7586 87.2102 82.5899 87.4228 82.8423 87.7207C83.1458 88.0789 85.0913 90.282 88.197 93.7845C90.9337 96.8707 91.3211 97.2332 92.1095 97.4456C93.2655 97.7568 93.9747 97.4203 95.7323 95.7258C96.5996 94.8897 97.4373 93.936 97.5937 93.6067C97.9649 92.8239 97.954 91.9409 97.5641 91.2273C97.3172 90.7756 93.698 87.4583 88.0099 82.4698C87.7689 82.2585 87.3982 82.5625 85.1515 84.8131Z" fill="#C5C5C5"/>
</svg>
