<svg width="48" height="49" viewBox="0 0 48 49" fill="none" xmlns="http://www.w3.org/2000/svg">
<path fill-rule="evenodd" clip-rule="evenodd" d="M37.1251 1.52796C35.7909 3.32723 34.2263 4.19189 31.3654 4.71092L29.3494 5.07679V9.98534C29.3494 16.414 29.4072 16.5397 34.3356 20.846C36.9745 23.1519 38.147 23.9972 38.7059 23.9966C39.7038 23.996 46.3819 18.0133 47.2537 16.3388C47.7959 15.297 47.8554 14.6855 47.8554 10.1454V5.108L45.8169 4.7641C44.6955 4.57481 43.3787 4.21386 42.8906 3.96157C41.987 3.49426 39.3253 0.737559 39.3253 0.268523C39.3253 0.126628 39.0833 0.0107422 38.7878 0.0107422C38.4746 0.0107422 37.7798 0.644793 37.1251 1.52796ZM37.49 3.6665C36.3392 4.94588 34.3611 5.89579 32.0935 6.25819L30.9398 6.44257V10.3602C30.9398 15.4759 31.1034 15.8192 35.3023 19.514C37.0528 21.0543 38.6414 22.2525 38.8329 22.1765C39.0243 22.1008 40.6398 20.7232 42.423 19.1152C46.3165 15.6045 46.5542 15.0762 46.5542 9.93418V6.66856L45.759 6.50817C42.9773 5.94695 41.7571 5.3811 40.2098 3.93353L38.6024 2.4299L37.49 3.6665ZM34.1928 7.44682C33.537 7.67542 33.77 9.51254 34.5542 10.2963C35.4656 11.2072 35.4622 11.4612 34.5354 11.6939C33.5743 11.9349 33.6431 13.1128 34.6265 13.2524C35.4162 13.3642 35.5087 14.4165 34.8211 15.4652C34.1514 16.4868 34.3778 17.4948 35.2771 17.4948C35.799 17.4948 36.0249 17.3203 36.0896 16.8665C36.1758 16.26 36.2151 16.2533 37.2205 16.6732C38.2707 17.1116 39.9933 17.0047 40.6534 16.4596C40.8604 16.2889 41.086 16.4542 41.3072 16.9397C41.7545 17.9211 42.6191 17.7642 42.744 16.679C42.7952 16.2328 42.661 15.5837 42.4459 15.2363C41.904 14.3621 42.1113 13.3044 42.8244 13.3044C43.6173 13.3044 43.881 12.4447 43.2333 11.9713C42.9455 11.7612 42.5991 11.6575 42.4635 11.7413C41.9549 12.0554 42.2409 10.8598 42.8221 10.2414C43.1549 9.88708 43.4478 9.16344 43.4727 8.63314C43.5126 7.78523 43.4307 7.66906 42.7952 7.66906C42.2657 7.66906 42.0477 7.84303 41.9798 8.31929C41.867 9.11489 41.7773 9.12038 40.85 8.39154C39.8805 7.62946 37.7673 7.61964 36.5332 8.37189C35.5666 8.96114 35.2771 8.89497 35.2771 8.08521C35.2771 7.5445 34.7696 7.24568 34.1928 7.44682ZM38.1935 8.79526C38.0004 9.0279 37.883 9.71484 37.933 10.322C38.0073 11.2216 38.1476 11.4433 38.6906 11.5205C39.323 11.6101 39.3525 11.5369 39.2689 10.098C39.1775 8.52534 38.7985 8.06642 38.1935 8.79526ZM4.19277 15.9502C2.87971 16.668 2.89157 16.5435 2.89157 29.5432V41.9147H1.90005C0.419855 41.9147 0 42.5138 0 44.6266C0 46.2222 0.0928197 46.5195 0.804434 47.2007L1.60858 47.9709L23.9792 47.9908L46.3498 48.0107L47.1747 47.2206C47.9098 46.5169 48 46.2332 48 44.6266C48 42.5138 47.5801 41.9147 46.1 41.9147H45.1084V31.511C45.1084 25.7889 45.0107 21.109 44.8916 21.1107C44.7724 21.1127 44.1218 21.6277 43.4458 22.2551L42.2169 23.3961V31.4994C42.2169 39.2176 42.1894 39.6302 41.6386 40.1808C41.0733 40.7458 40.6748 40.7588 24 40.7588C7.3252 40.7588 6.92675 40.7458 6.36145 40.1808C5.8054 39.625 5.78313 39.2176 5.78313 29.6325C5.78313 20.0475 5.8054 19.64 6.36145 19.0843C6.9201 18.5259 7.3252 18.5063 18.2169 18.5063C24.4193 18.5063 29.494 18.4447 29.494 18.3696C29.494 18.2942 29.2077 17.6439 28.8581 16.9246L28.222 15.6164L16.4967 15.625C8.56974 15.6311 4.58371 15.7363 4.19277 15.9502ZM21.1099 20.9937C17.2661 22.3898 15.0361 25.4863 15.0361 29.4273C15.0361 31.9685 15.6535 33.7466 17.1106 35.4008C19.1002 37.6602 22.7234 39.2595 23.686 38.3038C24.2712 37.7226 23.7016 37.1409 22.1702 36.7556C19.5386 36.0933 17.3326 33.7813 16.7763 31.1023C16.3799 29.1935 16.6005 27.7703 17.5755 25.9467C18.8455 23.5715 21.0856 22.2938 24 22.2823C25.6644 22.2756 28.2263 23.1865 27.923 23.677C27.5925 24.2113 28.1092 24.8113 29.0524 24.9881C29.5827 25.0875 30.0899 25.3603 30.1799 25.5944C30.3906 26.1432 31.4874 26.1473 31.6976 25.5999C31.7861 25.369 31.652 24.8849 31.3992 24.5243C31.1465 24.1636 30.9398 23.5882 30.9398 23.2458C30.9398 22.4901 30.3429 21.9459 29.6047 22.028C29.3052 22.0615 28.4117 21.7832 27.6191 21.4101C25.7456 20.5278 22.8946 20.3454 21.1099 20.9937ZM22.0262 24.6659C21.6321 25.0855 21.3976 25.706 21.3976 26.3305C21.3976 27.0131 21.2157 27.4396 20.8193 27.687C20.3017 28.0101 20.241 28.361 20.241 31.035C20.241 34.9194 20.2988 34.9789 24.0743 34.9789C27.7431 34.9789 27.759 34.9621 27.759 31.0593C27.759 28.361 27.6989 28.0104 27.1807 27.687C26.7771 27.435 26.6024 27.0131 26.6024 26.29C26.6024 24.8182 25.656 23.9972 23.9595 23.9972C22.9697 23.9972 22.5033 24.1587 22.0262 24.6659ZM23.1904 25.7889C22.9995 25.9797 22.8434 26.3698 22.8434 26.6559C22.8434 27.07 23.079 27.1761 24 27.1761C24.921 27.1761 25.1566 27.07 25.1566 26.6559C25.1566 26.0114 24.6142 25.4421 24 25.4421C23.7455 25.4421 23.3812 25.5982 23.1904 25.7889ZM31.3249 27.3431C31.2286 27.5937 31.3443 27.9931 31.5817 28.2306C31.9651 28.6135 32.066 28.6101 32.4766 28.1997C32.7311 27.9454 32.8658 27.546 32.7762 27.3122C32.5587 26.7466 31.5455 26.768 31.3249 27.3431ZM31.7208 29.6707C31.379 30.0123 31.4955 30.8625 31.9058 31.0197C32.4885 31.2434 33.0344 30.7897 32.9167 30.1793C32.8094 29.6227 32.0796 29.3123 31.7208 29.6707ZM23.5434 30.7434C23.2661 31.4662 23.5371 32.5225 24 32.5225C24.301 32.5225 24.4337 32.2202 24.4337 31.535C24.4337 30.5105 23.8369 29.9796 23.5434 30.7434ZM31.1425 32.2716C30.8007 32.6132 30.9172 33.4634 31.3275 33.6206C31.9102 33.8443 32.4561 33.3906 32.3384 32.7802C32.2311 32.2236 31.5013 31.9133 31.1425 32.2716ZM29.6039 34.8205C29.3798 35.4046 29.7132 35.8459 30.3785 35.8459C30.7845 35.8459 30.9398 35.6459 30.9398 35.1234C30.9398 34.5899 30.7862 34.4009 30.3525 34.4009C30.0292 34.4009 29.6923 34.5896 29.6039 34.8205ZM27.7767 36.1239C27.2244 36.4652 27.5352 37.4353 28.1968 37.4353C28.5617 37.4353 28.8029 37.2119 28.8587 36.8218C28.9541 36.1528 28.3553 35.7667 27.7767 36.1239ZM24.9724 37.4345C24.8724 37.6948 24.9241 38.0411 25.0875 38.2043C25.5588 38.6754 26.4578 38.3578 26.4578 37.7203C26.4578 36.9854 25.2353 36.7498 24.9724 37.4345ZM20.2959 42.7095C20.3827 43.1588 20.795 43.2152 24 43.2152C27.205 43.2152 27.6173 43.1588 27.7041 42.7095C27.7929 42.2485 27.4647 42.2037 24 42.2037C20.5353 42.2037 20.2071 42.2485 20.2959 42.7095Z" fill="#585858"/>
</svg>
