<svg width="48" height="49" viewBox="0 0 48 49" fill="none" xmlns="http://www.w3.org/2000/svg">
<path fill-rule="evenodd" clip-rule="evenodd" d="M3.41697 0.107981C2.42423 0.279102 1.39528 0.999125 0.876887 1.88543C0.294864 2.88048 0.330502 1.54919 0.330502 22.3053C0.330502 41.2204 0.331082 41.2735 0.530674 41.8661C0.902646 42.9704 1.75399 43.9045 2.7167 44.2647C3.23364 44.4581 3.42432 44.4616 13.4321 44.4615L23.6211 44.4614L24.2089 44.1834C25.27 43.6813 25.9341 42.9095 26.2866 41.7681C26.4651 41.1902 26.4779 40.8574 26.4779 36.809V32.4695L25.8982 32.7257L25.3186 32.9819L25.293 35.986L25.2674 38.99L13.38 39.0146L1.49261 39.0392V21.3826C1.49261 2.00987 1.45649 3.20248 2.06863 2.35753C2.22668 2.13925 2.56485 1.83797 2.82013 1.68796C3.27267 1.42194 3.32526 1.41439 4.94378 1.38311L6.60327 1.35105L6.64008 2.08027C6.67959 2.86121 6.81797 3.14961 7.34044 3.53969C7.60356 3.73618 7.70098 3.73938 13.4042 3.73938C19.1024 3.73938 19.2052 3.73599 19.474 3.53998C19.8984 3.23057 20.1832 2.58288 20.1832 1.92726V1.36674H21.667C23.4072 1.36674 23.8549 1.47801 24.4308 2.05393C24.6403 2.2634 24.914 2.64109 25.0393 2.89336C25.2627 3.34349 25.2675 3.4135 25.298 6.64891L25.3292 9.94591L25.9078 10.2017L26.4866 10.4574L26.458 6.75941C26.4301 3.14283 26.4246 3.04918 26.2035 2.50154C25.7913 1.48033 24.9884 0.664825 23.9877 0.251018C23.5371 0.064693 23.2513 0.0589794 13.6948 0.0450341C8.28852 0.037093 3.66353 0.0654672 3.41697 0.107981ZM4.39788 8.04886V8.72676H13.3074H22.2169V8.04886V7.37097H13.3074H4.39788V8.04886ZM19.5537 9.98687C14.9737 10.3936 11.1075 13.4794 9.62969 17.9078C8.87471 20.17 8.8996 23.0139 9.69361 25.2239C11.1268 29.2123 14.396 32.0167 18.5327 32.8059C19.7387 33.036 21.6181 33.0111 22.8884 32.7482C28.3076 31.6265 32.0948 26.9836 32.0948 21.4615C32.0948 17.3023 29.9361 13.5497 26.3509 11.4763C24.3767 10.3346 21.8564 9.78234 19.5537 9.98687ZM19.633 12.0257C18.1802 12.1663 16.5895 12.7298 15.3709 13.5357C14.6172 14.0339 13.3785 15.2259 12.8707 15.9415C11.9543 17.233 11.3696 18.7765 11.1686 20.4346C10.8995 22.6555 11.5346 25.0986 12.8707 26.9815C13.3785 27.6971 14.6172 28.8891 15.3709 29.3874C17.7724 30.9753 20.9524 31.3775 23.6695 30.437C26.6765 29.3961 28.9349 26.9588 29.788 23.8342C29.9794 23.133 30.0127 22.7813 30.0127 21.4615C30.0127 20.1418 29.9794 19.79 29.788 19.0889C29.3275 17.4023 28.4746 15.9312 27.2611 14.7303C25.6702 13.156 23.7415 12.26 21.4343 12.0233C20.8947 11.9679 20.4469 11.9285 20.4392 11.9357C20.4316 11.943 20.0687 11.9835 19.633 12.0257ZM4.39788 13.4236V14.1499H7.43118H10.4646L10.9961 13.5447C11.2885 13.2118 11.5602 12.885 11.6001 12.8183C11.6575 12.7224 10.9191 12.6973 8.03518 12.6973H4.39788V13.4236ZM18.8715 14.7622C18.7975 15.057 19.0425 16.2181 19.2251 16.4382C19.2868 16.5126 19.3361 16.965 19.3399 17.4931L19.3466 18.4178L19.0046 18.6501C18.8165 18.7779 18.5317 19.0458 18.3717 19.2453C18.09 19.5962 18.0706 19.604 17.7771 19.4825C17.1956 19.2416 16.5066 18.2708 16.2076 17.271C16.0624 16.7856 15.6964 16.6063 15.4734 16.9113C15.3166 17.1257 15.3725 17.4009 15.7349 18.1968C16.1319 19.0686 16.5558 19.6158 17.1517 20.0263C17.4919 20.2607 17.6534 20.4328 17.6184 20.524C17.589 20.6006 17.5179 20.8504 17.4603 21.079L17.3556 21.4947L16.6146 21.659C14.7448 22.0733 14.2888 22.3306 14.6449 22.7704L14.8174 22.9835L15.6311 22.7265C16.0786 22.5851 16.6322 22.4437 16.8613 22.4123L17.2779 22.3552L17.2802 22.8284C17.2816 23.0886 17.326 23.4893 17.3788 23.7187L17.4751 24.1359L16.8124 24.784C16.148 25.4337 15.6614 26.1727 15.4384 26.8711C15.3312 27.2069 15.3387 27.2642 15.512 27.4376C15.7729 27.6985 16.0612 27.5418 16.2159 27.055C16.3807 26.5368 16.8103 25.8885 17.3194 25.3897C17.5607 25.1534 17.7707 24.979 17.7862 25.0023C18.3889 25.9093 18.6106 26.1916 18.8834 26.3997C19.4605 26.8399 19.9889 27.0256 20.6674 27.0269C21.7206 27.0289 22.6059 26.4828 23.2847 25.4125L23.5549 24.9865L23.9199 25.3062C24.3493 25.6821 24.9863 26.6319 25.0726 27.0246C25.1621 27.4324 25.4416 27.6542 25.6952 27.5185C26.1949 27.2511 25.661 26.0144 24.5644 24.8994L23.8501 24.1731L23.9535 23.6485C24.0104 23.36 24.0569 22.9514 24.0569 22.7403V22.3567L24.4685 22.4198C24.6948 22.4544 25.2397 22.5958 25.6794 22.7341C26.3392 22.9418 26.5049 22.9639 26.6282 22.8615C26.8668 22.6636 26.7551 22.3503 26.3811 22.1677C26.0846 22.023 24.9813 21.7118 24.245 21.565C24.0446 21.5251 23.9659 21.4161 23.8334 20.9958C23.6179 20.3122 23.6154 20.3242 24.0177 20.1076C24.741 19.718 25.5296 18.5786 25.8154 17.5103C25.9103 17.1553 25.9085 17.0407 25.8062 16.9174C25.5753 16.6391 25.1222 16.7931 25.1222 17.1499C25.1222 17.4678 24.4567 18.6694 24.0641 19.0604C23.4753 19.6469 23.3075 19.6746 22.9608 19.2424C22.804 19.047 22.4878 18.7578 22.258 18.5996C21.8581 18.3245 21.8447 18.2995 21.9442 18.014C22.005 17.8395 22.0223 17.4635 21.9859 17.108C21.9387 16.6477 21.9563 16.473 22.0582 16.3884C22.2605 16.2205 22.4269 15.5155 22.3926 14.9715L22.3621 14.4889L22.0962 15.0303C21.7334 15.7691 21.5158 15.9578 21.1951 15.8117C20.8852 15.6705 20.328 15.667 20.0709 15.8046C19.8113 15.9435 19.4917 15.6497 19.1731 14.9795C18.9426 14.4945 18.9392 14.4921 18.8715 14.7622ZM4.39788 18.8004V19.4802L6.35507 19.4541L8.31215 19.4278L8.43292 18.8468C8.49935 18.5272 8.55552 18.2331 8.55784 18.1931C8.56017 18.1531 7.62515 18.1205 6.47999 18.1205H4.39788V18.8004ZM19.3464 20.5948C19.0814 20.8598 19.0876 21.2217 19.3618 21.5019C19.5743 21.719 20.0891 21.673 20.2951 21.4185C20.5266 21.1328 20.5208 20.918 20.273 20.603C20.0166 20.2772 19.6671 20.274 19.3464 20.5948ZM21.583 20.6824C21.4523 20.8132 21.3453 21.0112 21.3453 21.1226C21.3453 21.234 21.4523 21.432 21.583 21.5627C21.7138 21.6935 21.9118 21.8005 22.0232 21.8005C22.1346 21.8005 22.3326 21.6935 22.4633 21.5627C22.5941 21.432 22.7011 21.234 22.7011 21.1226C22.7011 20.8613 22.2845 20.4447 22.0232 20.4447C21.9118 20.4447 21.7138 20.5517 21.583 20.6824ZM18.7819 23.0562C18.5425 23.3208 18.563 23.7364 18.826 23.9494C19.12 24.1874 19.4293 24.1697 19.6821 23.9006C19.9307 23.6359 19.9495 23.3775 19.7419 23.081C19.5466 22.8022 19.024 22.7888 18.7819 23.0562ZM21.6993 23.3334C21.4865 23.5684 21.4954 24.0553 21.7161 24.255C22.1058 24.6077 22.7979 24.3074 22.7979 23.7857C22.7979 23.2554 22.0489 22.947 21.6993 23.3334ZM4.39788 24.2215V24.8994H6.4921H8.58631L8.52317 24.5847C8.4885 24.4115 8.43389 24.1066 8.40193 23.9068L8.34363 23.5436H6.37076H4.39788V24.2215ZM20.1832 24.9963C19.7857 25.3937 20.0529 26.0615 20.6095 26.0615C20.987 26.0615 21.2727 25.7904 21.2727 25.4321C21.2727 24.873 20.5825 24.597 20.1832 24.9963ZM4.39788 29.5963V30.3226H8.08496H11.7719L11.5955 30.1004C11.4984 29.9781 11.2269 29.6513 10.9922 29.374L10.5655 28.87H7.48163H4.39788V29.5963ZM30.1295 31.0328L29.0841 32.1031L30.4162 33.4377L31.7484 34.7724L31.492 35.0413C31.351 35.189 31.1892 35.4327 31.1326 35.5826C30.9886 35.9636 31.0042 36.662 31.1648 37.032C31.2424 37.2106 33.5474 39.5833 36.5638 42.5893C41.9802 47.9872 42.0442 48.0437 42.7475 48.0437C43.3623 48.0437 43.6839 47.8156 45.2521 46.2678C46.1236 45.4076 46.8972 44.5635 46.971 44.3921C47.1649 43.9423 47.1402 43.1651 46.9186 42.7388C46.6393 42.2017 36.5885 32.207 36.1411 32.0214C35.4821 31.7481 34.6678 31.8951 34.1509 32.3807L33.9286 32.5896L32.5989 31.2625C31.8675 30.5325 31.2479 29.9413 31.222 29.9488C31.196 29.9563 30.7044 30.4441 30.1295 31.0328ZM4.39788 34.971V35.6489H13.3074H22.2169V34.971V34.2931H13.3074H4.39788V34.971ZM9.95663 40.8203C9.66659 41.1104 9.62737 41.2096 9.62737 41.6532C9.62737 42.0967 9.66659 42.196 9.95663 42.486L10.2859 42.8153H13.3025C16.6151 42.8153 16.7458 42.795 17.0342 42.2374C17.3343 41.657 17.1335 40.9122 16.6032 40.638C16.3671 40.5159 15.8095 40.4911 13.3025 40.4911H10.2859L9.95663 40.8203Z" fill="#585858"/>
</svg>
