<svg width="49" height="49" viewBox="0 0 49 49" fill="none" xmlns="http://www.w3.org/2000/svg">
<path fill-rule="evenodd" clip-rule="evenodd" d="M28.0028 0.983327C26.69 2.38084 26.8313 4.50894 28.3191 5.76121L29.501 6.75522L29.6124 11.8276C29.7111 16.3042 29.8058 16.9115 30.4206 17.0014C31.0541 17.0937 31.117 16.6234 31.117 11.7929C31.117 6.82287 31.1683 6.46673 31.9172 6.22917C32.9904 5.88854 34.0286 3.80302 33.7258 2.59611C33.0927 0.0736687 29.7441 -0.869808 28.0028 0.983327ZM28.8731 2.25191C28.7469 2.58059 28.7557 3.29686 28.893 3.84361C29.0883 4.62235 29.3963 4.83762 30.3147 4.83762C31.7644 4.83762 32.557 3.6538 31.9128 2.45008C31.3975 1.4867 29.2208 1.34504 28.8731 2.25191ZM17.6568 17.5438C17.771 22.4251 17.886 23.2209 18.6189 24.209C19.6555 25.6057 21.8413 27.1214 22.8194 27.1214C23.9074 27.1214 23.7653 25.6686 22.6499 25.3884C22.1517 25.2635 21.2114 24.6057 20.5608 23.9273C19.4379 22.7562 19.3714 22.4947 19.2421 18.7674C19.11 14.9493 19.1295 14.847 19.9385 15.0587C21.1454 15.3743 21.0005 14.3588 19.6547 13.0695C17.6472 11.1463 17.5143 11.444 17.6568 17.5438ZM6.05686 19.7375C7.63901 21.2986 24.1183 35.4778 24.3502 35.4778C24.5791 35.4778 41.0332 21.3197 42.6476 19.7335L43.6337 18.765H32.4476H21.2616L21.0702 19.767C20.9647 20.3181 21.1676 21.3471 21.521 22.0538C22.2086 23.4291 23.5564 24.0371 23.5564 22.9722C23.5564 22.6117 23.8934 22.3463 24.3522 22.3463C25.0976 22.3463 25.1481 22.6117 25.1481 26.5245C25.1481 30.4373 25.0976 30.7027 24.3522 30.7027C23.8369 30.7027 23.5564 30.4373 23.5564 29.9499C23.5564 29.4596 23.1752 29.1035 22.4621 28.928C18.7721 28.0199 16.1188 24.8914 15.7145 20.9723L15.4865 18.765H10.2788H5.0708L6.05686 19.7375ZM3.66016 33.5081C3.66016 46.0153 3.69716 46.6882 4.35414 46.1709C5.91281 44.9448 18.5899 33.75 18.6866 33.5149C18.7737 33.3028 7.55703 23.371 4.58016 21.024L3.66016 20.299V33.5081ZM37.4838 26.702C33.4349 30.1906 30.1221 33.2152 30.1221 33.4233C30.1221 33.8921 44.6273 46.7713 44.8756 46.523C44.9743 46.4243 45.0081 40.4968 44.9504 33.3509L44.8454 20.3583L37.4838 26.702ZM13.4145 40.6867C9.69667 43.9564 6.34416 46.9424 5.96414 47.3221C5.30916 47.9774 6.23632 48.0125 24.1644 48.0125C34.5542 48.0125 43.0101 47.899 42.9552 47.7606C42.9007 47.6217 39.5741 44.6006 35.563 41.0468L28.2698 34.5857L27.0076 35.7488C24.3849 38.1654 24.5373 38.1463 22.3825 36.329C21.3081 35.4233 20.3718 34.6955 20.3018 34.7118C20.2313 34.7285 17.1323 37.4173 13.4145 40.6867Z" fill="#585858"/>
</svg>
