<svg width="100" height="101" viewBox="0 0 100 101" fill="none" xmlns="http://www.w3.org/2000/svg">
<path fill-rule="evenodd" clip-rule="evenodd" d="M49.2185 7.28245C42.9097 7.83957 37.3165 9.45318 31.8701 12.2875C23.6583 16.5608 16.7662 23.4928 12.6856 31.5826C11.7702 33.3974 11.8896 33.3006 11.0373 32.9185C10.6359 32.7387 8.17919 31.6998 5.57776 30.61C1.29418 28.8153 0.813619 28.6441 0.482243 28.7951C0.281086 28.8868 0.0766979 29.1203 0.0280942 29.3138C-0.0647585 29.6837 -0.057173 29.7 2.20276 34.0409C2.80609 35.1998 4.01626 37.5387 4.89211 39.2384C5.76782 40.9381 6.75114 42.8345 7.07731 43.4526C7.40335 44.0707 8.82803 46.8204 10.2432 49.5632C13.3187 55.5239 13.7464 56.3015 14.0581 56.4969C14.2364 56.6089 14.5384 56.5707 15.2521 56.3461C15.7775 56.1807 17.598 55.6243 19.2978 55.1096C20.9975 54.5948 23.1744 53.9278 24.1355 53.6273C25.0965 53.327 25.8951 53.0955 25.9101 53.1132C25.925 53.1308 25.9646 54.5834 25.9979 56.341L26.0586 59.5368H22.1731C18.5874 59.5368 18.2698 59.5566 18.0553 59.7937C17.7482 60.1329 17.7599 60.7004 18.0797 60.99C18.3062 61.1949 18.8134 61.2224 22.3615 61.2224H26.3863L26.4497 61.5385C26.7848 63.2111 27.2056 64.9298 27.6014 66.2428C27.8631 67.1111 28.0773 67.8855 28.0773 67.9636C28.0773 68.0573 25.8619 68.1056 21.5671 68.1056C15.4386 68.1056 15.0433 68.1206 14.8244 68.3625C14.4926 68.7292 14.531 69.3112 14.9042 69.5726C15.1763 69.7632 16.0882 69.7913 22.0068 69.7913H28.7973L29.2271 70.7395C29.79 71.981 31.4897 75.0196 32.0954 75.867C32.3578 76.2342 32.5725 76.5662 32.5725 76.6045C32.5725 76.643 27.8992 76.6745 22.1874 76.6745C12.9339 76.6745 11.7785 76.6985 11.5817 76.8952C11.2838 77.1932 11.3027 77.8425 11.618 78.1277C11.8524 78.3398 12.8381 78.3602 22.9015 78.3602H33.9282L34.6485 79.2479C35.6486 80.4807 38.3066 83.0786 39.7356 84.2201L40.9285 85.1731L24.6647 85.2433C6.88655 85.3202 8.13718 85.2543 8.13227 86.1133C8.12735 86.9778 7.05428 86.929 26.1132 86.929H43.4719L44.8702 87.7032C45.6393 88.1289 46.6226 88.6414 47.0554 88.842C47.7961 89.1851 47.8564 89.2517 48.0846 89.9757C48.3647 90.8645 49.0838 91.7288 49.9113 92.1717L50.4828 92.4777H73.9418H97.4008L98.1389 92.0688C98.5448 91.8439 99.0372 91.4497 99.233 91.1931C100.044 90.1294 99.9996 91.5709 99.9996 66.4934C99.9996 49.4049 99.9574 43.3005 99.8372 42.9467C99.6137 42.2897 98.9615 41.402 98.4544 41.0645C98.1058 40.8326 97.9494 40.5264 97.5573 39.3086C92.7337 24.3286 79.8387 12.5302 63.9484 8.55823C60.4339 7.67971 57.4844 7.30141 53.503 7.21839C51.9191 7.18538 49.9911 7.21418 49.2185 7.28245ZM50.4828 8.90955C46.9099 9.18277 44.5989 9.53803 41.9585 10.2197C32.4209 12.6822 24.0106 18.2794 18.1511 26.0638C16.5319 28.2149 15.3536 30.1208 14.0185 32.748C13.2455 34.2694 12.7892 35.0132 12.5673 35.1144C12.2915 35.2401 11.55 34.97 7.55745 33.2889C4.98019 32.2039 2.84683 31.3407 2.81677 31.3708C2.78656 31.401 3.31446 32.4881 3.98986 33.7868C4.66525 35.0854 5.69267 37.0646 6.27325 38.1848C6.85368 39.3051 8.0043 41.5176 8.83014 43.1014C9.65598 44.6852 11.3342 47.9248 12.5594 50.3007C13.7846 52.6765 14.8538 54.6198 14.9354 54.6194C15.0169 54.6188 16.5059 54.1815 18.2442 53.6476C38.3926 47.4585 39.8774 46.9956 39.8731 46.9063C39.8709 46.861 38.9702 46.4497 37.8714 45.9923C36.7726 45.5351 35.0202 44.8006 33.9772 44.3603C32.9342 43.9199 31.3647 43.2589 30.4894 42.8913C28.509 42.0595 28.4323 41.944 28.989 40.634C29.9843 38.2923 31.7091 35.3852 33.6094 32.8469C34.8702 31.1627 38.4087 27.5972 40.158 26.2484C45.5192 22.1144 51.2645 19.6961 58.0683 18.7091C60.4193 18.3682 65.5742 18.3661 67.9015 18.7053C77.4581 20.0981 86.0438 24.9778 91.918 32.3552C92.4717 33.0506 93.1914 34.0146 93.5174 34.4974C93.8435 34.9804 94.14 35.3754 94.1764 35.3754C94.2975 35.3754 92.6702 32.2354 91.817 30.8224C88.9653 26.1002 84.7476 21.4997 80.0524 17.9903C73.7782 13.3005 66.0193 10.1988 58.032 9.18755C56.3256 8.9715 51.8351 8.80616 50.4828 8.90955ZM60.452 20.2126C58.4771 20.3649 57.0686 20.5742 55.1924 20.9937C53.5308 21.3654 50.3009 22.3669 50.0928 22.5749C50.0288 22.639 50.3522 23.5699 50.8114 24.6437C52.6176 28.8663 52.5878 28.7793 52.3625 29.1828C52.1505 29.5622 51.498 29.7317 51.1432 29.4995C51.0427 29.4338 50.3897 28.027 49.6919 26.3729C48.9942 24.719 48.4021 23.3446 48.3761 23.3184C48.2802 23.2225 45.1479 24.9041 43.9025 25.7202C42.3799 26.718 40.5689 28.0958 39.3511 29.183L38.4742 29.966L40.8612 32.3561C43.3664 34.8643 43.5195 35.1043 42.9675 35.6563C42.4251 36.1987 42.1815 36.045 39.7408 33.6195C38.4579 32.3447 37.3632 31.3017 37.3078 31.3017C37.0204 31.3017 34.5017 34.431 33.2712 36.3173C32.0072 38.2545 30.6347 40.938 30.8166 41.1164C30.9305 41.2281 37.4673 44.0139 41.7417 45.7724C43.1147 46.3373 43.3889 46.5462 43.3889 47.0279C43.3889 47.2524 43.3043 47.5205 43.2009 47.6239C43.0976 47.7273 41.9124 48.1485 40.5671 48.5599C39.2218 48.9712 36.4144 49.8357 34.3284 50.4809C32.2424 51.1261 29.9437 51.8314 29.2201 52.0484C28.1309 52.375 27.8807 52.5033 27.7663 52.794C27.5631 53.3106 27.7301 59.0472 27.9974 60.7308C28.9074 66.4629 31.3008 72.0845 34.8071 76.7255C37.7423 80.6107 42.0803 84.303 46.3884 86.5832L47.8807 87.3729L47.9175 65.202C47.9529 43.8878 47.9644 43.0122 48.2158 42.5395C48.5809 41.8532 49.2586 41.1644 49.9209 40.8064L50.4828 40.5027L72.6424 40.4658C90.3586 40.4363 94.8021 40.3935 94.8021 40.2519C94.8021 39.9773 93.1956 37.1437 92.1807 35.628C91.2394 34.222 89.0879 31.5667 88.8221 31.483C88.7395 31.4569 87.6218 32.4801 86.3383 33.7567C84.5714 35.5139 83.9195 36.0777 83.6541 36.0777C83.2015 36.0777 82.6832 35.4441 82.803 35.0373C82.8506 34.8756 83.9293 33.6965 85.2003 32.4172L87.5111 30.0911L86.7667 29.3938C85.1197 27.8507 83.0029 26.2724 80.8823 25.0065C79.6436 24.2671 77.2589 23.0879 77.1793 23.1754C77.1463 23.2117 75.3047 27.7532 74.7603 29.1405C74.638 29.4525 74.0356 29.6206 73.6575 29.4484C72.9975 29.1476 73.0588 28.8088 74.3558 25.5869C75.027 23.9194 75.5245 22.5068 75.4614 22.4476C75.2638 22.2626 72.1841 21.3191 70.6407 20.9709C68.9117 20.5806 66.0347 20.2043 64.7801 20.2043H63.898V23.5676C63.898 26.8841 63.8936 26.9341 63.5857 27.1497C63.1655 27.444 62.8308 27.425 62.4932 27.0875C62.2279 26.8221 62.2123 26.6193 62.2123 23.4352C62.2123 20.8211 62.1728 20.0683 62.0367 20.0838C61.9402 20.0949 61.227 20.1527 60.452 20.2126ZM50.5869 42.3976C50.335 42.5514 50.0035 42.8834 49.85 43.1353C49.5744 43.5872 49.5707 43.8899 49.5704 66.4199C49.5701 87.8751 49.5849 89.2758 49.8158 89.7285C49.9508 89.9934 50.2398 90.3411 50.4579 90.5011C50.8531 90.7909 50.9163 90.7922 67.3125 90.8288L83.7704 90.8658L91.0422 83.595L98.3139 76.3243V59.98C98.3139 42.0866 98.3609 43.102 97.5015 42.4693C97.1239 42.1914 96.8707 42.1879 74.0823 42.1531C51.29 42.1181 51.0398 42.1208 50.5869 42.3976ZM60.4644 52.404C60.2903 52.6523 60.2457 53.1405 60.2457 54.792V56.8678H58.3573C56.565 56.8678 56.4577 56.8836 56.2502 57.18C56.0579 57.4544 56.0315 58.5499 56.0315 66.2406C56.0315 74.8016 56.0375 74.9948 56.3124 75.2697C56.5646 75.5219 56.7806 75.5507 58.4195 75.5507H60.2457V77.9387C60.2457 80.1395 60.2677 80.3488 60.5266 80.6077C60.8642 80.9453 61.1989 80.9642 61.6191 80.6699C61.9215 80.4583 61.9313 80.3738 61.9313 78.001V75.5507H63.6873H65.4432V77.9872C65.4432 80.1693 65.47 80.448 65.7001 80.6562C66.0541 80.9765 66.5015 80.9471 66.8424 80.5812C67.1071 80.2971 67.1289 80.0947 67.1289 77.9122V75.5507H68.8145H70.5002V77.9387C70.5002 80.1395 70.5223 80.3488 70.7812 80.6077C71.1318 80.9583 71.6483 80.9689 71.9534 80.6317C72.1508 80.4137 72.1859 80.0102 72.1859 77.9628V75.5507H73.9418H75.6977V78.001C75.6977 80.3738 75.7076 80.4583 76.01 80.6699C76.4301 80.9642 76.7649 80.9453 77.1024 80.6077C77.3613 80.3488 77.3834 80.1395 77.3834 77.9387V75.5507H79.0601H80.7366L80.7809 78.0032C80.8215 80.263 80.847 80.4723 81.1059 80.6677C81.486 80.9545 81.9274 80.9416 82.2044 80.6357C82.3935 80.4268 82.4401 79.9679 82.472 78.0018L82.5107 75.6209L84.2315 75.5815L85.9523 75.542V77.9344C85.9523 80.1395 85.9743 80.3488 86.2332 80.6077C86.3877 80.7622 86.6406 80.8887 86.7951 80.8887C86.9496 80.8887 87.2025 80.7622 87.357 80.6077C87.6159 80.3488 87.6379 80.1395 87.6379 77.9387V75.5507H89.4641C91.103 75.5507 91.319 75.5219 91.5712 75.2697C91.8462 74.9947 91.8521 74.8016 91.8521 66.1608C91.8521 57.7867 91.8389 57.3208 91.5952 57.1003C91.3835 56.9086 91.0127 56.8678 89.4881 56.8678H87.6379V54.7122C87.6379 52.8023 87.6087 52.5301 87.381 52.3242C87.0418 52.0171 86.4743 52.0288 86.1847 52.3486C85.9899 52.564 85.9523 52.951 85.9523 54.741V56.8765L84.2508 56.837L82.5494 56.7975L82.5475 54.9011C82.5454 53.0357 82.4456 52.4118 82.1155 52.2021C81.8128 52.0095 81.3211 52.0872 81.0357 52.3726C80.7798 52.6286 80.7547 52.8408 80.7547 54.7607V56.8678H79.0691H77.3834V54.792C77.3834 52.4689 77.2676 52.0917 76.5543 52.0917C75.7917 52.0917 75.6977 52.3818 75.6977 54.7367V56.8678H73.9418H72.1859V54.7122C72.1859 52.8023 72.1567 52.5301 71.929 52.3242C71.5835 52.0116 71.1228 52.031 70.7812 52.3726C70.5252 52.6286 70.5002 52.8408 70.5002 54.7607V56.8678H68.8145H67.1289V54.7607C67.1289 52.8408 67.1038 52.6286 66.8479 52.3726C66.499 52.0237 65.981 52.0111 65.6796 52.3443C65.4942 52.5492 65.4436 52.993 65.412 54.6972L65.3729 56.7975L63.6521 56.837L61.9313 56.8765V54.7166C61.9313 52.8025 61.9021 52.5302 61.6744 52.3242C61.3078 51.9924 60.7258 52.0307 60.4644 52.404ZM57.751 66.1741L57.7874 73.7948L73.9769 73.8305L90.1664 73.8661V66.2098V58.5534H73.9405H57.7148L57.751 66.1741ZM92.2033 84.8257L86.163 90.8711L91.6689 90.8315L97.1748 90.792L97.6726 90.3094C97.9464 90.0439 98.2052 89.633 98.2476 89.3963C98.2899 89.1596 98.3064 86.674 98.2841 83.873L98.2436 78.7802L92.2033 84.8257Z" fill="#C5C5C5"/>
</svg>
