<svg width="48" height="46" viewBox="0 0 48 46" fill="none" xmlns="http://www.w3.org/2000/svg">
<path fill-rule="evenodd" clip-rule="evenodd" d="M0.684258 0.885923L0 1.51029V5.40155V9.29296L0.644008 9.92184C1.21057 10.4752 1.28802 10.6396 1.28802 11.2904C1.28802 11.9411 1.21057 12.1055 0.644008 12.6589L0 13.2877V17.1669V21.0461L0.644008 21.675C1.21057 22.2283 1.28802 22.3927 1.28802 23.0435C1.28802 23.6943 1.21057 23.8587 0.644008 24.412L0 25.0409V28.9201V32.7992L0.644008 33.4281C1.21057 33.9815 1.28802 34.1459 1.28802 34.7966C1.28802 35.4474 1.21057 35.6118 0.644008 36.1652L0 36.794V40.6732V44.5524L0.610521 45.1486L1.22104 45.7448H20.4608H39.7005L40.3814 45.051L41.0623 44.3573L41.0186 41.0112L40.975 37.6652L40.5322 38.0136L40.0895 38.362V41.4095V44.4568H20.5278H0.966012V40.6732V36.8897H15.2411H29.5162L28.4727 35.8029C27.8989 35.2053 27.1119 34.2634 26.7241 33.7099L26.0189 32.7036H13.4924H0.966012V28.9201V25.1365H12.259H23.5522L23.4486 24.1468C23.3918 23.6027 23.3453 22.6608 23.3453 22.0538V20.9505H12.1556H0.966012V17.1669V13.3834H12.1556H23.3453V11.2904V9.19733H12.1556H0.966012V5.41378V1.63024H20.5278H40.0895V5.24714C40.0895 8.65829 40.1072 8.87355 40.4009 9.03069C40.5722 9.1223 40.7895 9.19733 40.8839 9.19733C41.0004 9.19733 41.0555 7.99416 41.0555 5.44727V1.69721L40.3664 1.021L39.6775 0.344796L20.5229 0.303258L1.36852 0.261719L0.684258 0.885923ZM34.5893 7.1753C32.1502 9.50935 28.6373 10.4523 24.8552 9.78821L23.7087 9.58695L23.5987 15.148C23.5382 18.2065 23.5283 21.4602 23.5768 22.3786C24.025 30.8785 27.5556 36.511 34.2857 39.4626C34.9456 39.7521 35.6449 39.989 35.8394 39.989C36.3235 39.989 39.3552 38.5229 40.5129 37.7288C44.1184 35.2563 46.3022 31.8461 47.5328 26.7675C47.8453 25.4775 47.8739 24.8119 47.9346 17.4772L48 9.57617L46.8221 9.78289C42.8428 10.481 39.3233 9.47409 36.6452 6.87117C36.2304 6.46802 35.8395 6.14071 35.7766 6.1436C35.7135 6.14666 35.1793 6.61083 34.5893 7.1753ZM34.8442 8.81269C32.5527 10.5948 30.3044 11.3283 27.0886 11.3433L24.9553 11.3531L24.9563 17.2386C24.9572 23.4344 25.0743 24.9271 25.77 27.6211C26.9796 32.3053 29.8065 35.7541 34.1632 37.861C34.8896 38.2123 35.6473 38.4997 35.8469 38.4997C36.4536 38.4997 39.2933 36.9502 40.6319 35.8887C43.4766 33.6334 45.2507 30.534 46.234 26.1025C46.5405 24.721 46.5804 23.929 46.6471 17.9137L46.7208 11.2541L45.4579 11.3644C42.26 11.6436 38.9155 10.5879 36.2932 8.47153L35.7973 8.07144L34.8442 8.81269ZM35.0105 9.54445C32.956 11.1273 30.4136 11.9545 27.4912 11.9912L25.5998 12.0149L25.5995 17.4126C25.5995 20.3815 25.6748 23.4244 25.7672 24.1747C26.4217 29.4947 28.56 33.4521 32.1031 35.9016C33.2419 36.6889 35.4631 37.8557 35.8229 37.8557C35.9165 37.8557 36.5156 37.6053 37.1543 37.2991C41.8645 35.0418 44.5827 31.285 45.6632 25.539C45.925 24.1472 45.9661 23.1254 45.9661 17.9975V12.0661L44.1145 12.0141C41.1949 11.9323 38.6698 11.1007 36.6205 9.54622L35.8081 8.93006L35.0105 9.54445ZM23.9088 9.36976C24.878 9.66021 27.3141 9.81718 28.5143 9.66633C31.0953 9.34207 30.7065 9.22502 27.0483 9.22502C24.6534 9.22502 23.5895 9.27413 23.9088 9.36976Z" fill="#585858"/>
</svg>
