<svg width="42" height="49" viewBox="0 0 42 49" fill="none" xmlns="http://www.w3.org/2000/svg">
<path fill-rule="evenodd" clip-rule="evenodd" d="M36.3591 0.359677C35.2505 0.728888 34.4164 1.45362 33.9383 2.46285C33.6554 3.0601 33.6388 3.15512 33.6388 4.17562V5.25605L31.3406 6.71479L29.0424 8.17353L28.6808 7.9121C27.1429 6.80062 24.9492 7.04986 23.6183 8.48731C22.8727 9.29261 22.6639 9.86754 22.6638 11.1154C22.6637 12.0334 22.6846 12.1444 22.9705 12.748C23.2295 13.2949 23.2586 13.4215 23.1581 13.562C23.0027 13.779 17.4382 20.8389 17.157 21.1758L16.9417 21.4336L16.4258 21.2942C15.8054 21.1264 15.3805 21.1174 14.7185 21.2579C14.2706 21.3531 13.4393 21.7265 13.0356 22.0139C12.9071 22.1054 12.5052 21.8839 10.6073 20.6765L8.33296 19.2294L8.32236 18.1457C8.31204 17.091 8.30228 17.0429 7.95793 16.3461C7.53994 15.5006 7.00066 14.977 6.10737 14.5496C5.54473 14.2803 5.42166 14.2578 4.5127 14.2578C3.59962 14.2578 3.48161 14.2797 2.89543 14.5574C2.07709 14.945 1.40086 15.6213 1.01316 16.4396C0.735224 17.0265 0.71365 17.1432 0.71365 18.0618C0.71365 19.0172 0.725937 19.0763 1.06691 19.7663C1.47646 20.5949 2.07859 21.1934 2.90003 21.5881C3.33584 21.7975 3.59774 21.8518 4.3251 21.8833C5.33912 21.9272 5.96638 21.7627 6.69421 21.262L7.10891 20.9766L9.39876 22.433L11.6887 23.8893V24.9849C11.6887 26.0301 11.7027 26.1087 11.9921 26.6969C12.3757 27.4767 13.1195 28.1916 13.9626 28.591C14.5375 28.8633 14.6797 28.8912 15.4878 28.8912C16.3192 28.8912 16.426 28.8685 17.0824 28.5522C17.9556 28.1314 18.5735 27.5299 18.9794 26.7055C19.2705 26.1143 19.2868 26.0261 19.2868 25.0453C19.2868 24.0598 19.2715 23.9784 18.9724 23.3707L18.6579 22.7319L18.934 22.3877C19.0859 22.1984 19.544 21.617 19.9521 21.0957C22.1003 18.3506 24.6072 15.1653 24.7951 14.9418L25.0088 14.6877L25.5218 14.8245C27.0544 15.2334 28.7202 14.6081 29.6265 13.2838C30.182 12.4721 30.3464 11.848 30.2835 10.7902L30.2331 9.94286L32.5436 8.47061L34.8541 6.99836L35.1626 7.23371C35.8934 7.7911 37.0139 8.06557 37.9935 7.92711C39.2548 7.74879 40.2959 6.97885 40.8836 5.78951C41.2248 5.0993 41.2369 5.04077 41.2369 4.08303C41.2369 3.14359 41.22 3.05682 40.9161 2.43968C40.5117 1.61815 39.9068 1.00974 39.0994 0.612197C38.5514 0.342417 38.3552 0.297392 37.6015 0.268219C37.0433 0.246644 36.6006 0.279193 36.3591 0.359677ZM36.9688 2.40516C35.3871 2.86865 35.2319 5.0054 36.7305 5.68604C38.0269 6.27504 39.4742 5.09461 39.1302 3.72864C38.9876 3.16216 38.7943 2.8935 38.3391 2.62935C37.8655 2.35441 37.4012 2.27843 36.9688 2.40516ZM25.7003 9.52131C24.473 10.1698 24.371 11.811 25.5129 12.5351C26.5675 13.204 27.9556 12.5864 28.2054 11.3373C28.3363 10.6825 27.8013 9.73312 27.1474 9.45987C26.7231 9.28258 26.1021 9.30894 25.7003 9.52131ZM33.5687 29.9934L33.545 45.1193L31.9269 45.145L30.3088 45.1706V33.4899V21.809H26.4628H22.6168V33.4876V45.1662H20.9753H19.3337V40.476V35.7858H15.4878H11.6418V40.476V45.1662H10.0002H8.35866V37.0053V28.8443H4.5127H0.666748V38.553V48.2617H20.9753H41.2838V31.5646V14.8676H37.4381H33.5924L33.5687 29.9934ZM3.93234 16.4209C3.17656 16.6571 2.64338 17.5457 2.77836 18.3443C2.85322 18.7873 3.28763 19.4078 3.65674 19.5986C4.4007 19.9833 5.28602 19.8301 5.81761 19.2246C6.3733 18.5917 6.41167 17.719 5.91394 17.0319C5.45337 16.3962 4.72761 16.1724 3.93234 16.4209ZM14.7824 23.4407C14.1343 23.7231 13.6187 24.6642 13.7579 25.3111C13.907 26.0035 14.4823 26.6305 15.0696 26.7407C16.1509 26.9435 17.055 26.3053 17.2291 25.2163C17.3349 24.5549 16.8395 23.7154 16.181 23.4403C15.7924 23.2779 15.1555 23.2781 14.7824 23.4407Z" fill="#585858"/>
</svg>
