<svg width="48" height="49" viewBox="0 0 48 49" fill="none" xmlns="http://www.w3.org/2000/svg">
<path fill-rule="evenodd" clip-rule="evenodd" d="M21.0629 0.489151C19.375 0.886402 17.5033 1.9511 15.9666 3.38879C13.1376 6.03505 12.249 8.29126 12.249 12.8275V15.8373H14.7456H17.242L17.3318 13.0153C17.4142 10.4259 17.4807 10.0849 18.1376 8.87921C20.3323 4.85218 25.5223 4.11148 28.7192 7.36922C30.0753 8.75095 30.3481 9.59133 30.4934 12.8351L30.6224 15.7172L33.2043 15.7855L35.7862 15.8537V13.3354C35.7862 11.9506 35.667 10.2446 35.5215 9.54449C34.6499 5.35151 31.1599 1.66049 27.0198 0.552798C25.6796 0.194215 22.4619 0.15987 21.0629 0.489151ZM12.249 19.0797V21.6015H14.7708H17.2926V19.0797V16.5579H14.7708H12.249V19.0797ZM30.6049 16.8771C30.5376 17.0526 30.5138 18.1606 30.5525 19.3389L30.6224 21.4815H33.1442H35.6661L35.7345 19.0197L35.803 16.5579H33.2653C31.3758 16.5579 30.6961 16.6395 30.6049 16.8771ZM14.319 24.5281C13.709 25.2256 13.2097 25.8793 13.2097 25.9807C13.2097 26.082 13.4799 26.1649 13.8101 26.1649C14.5136 26.1649 14.5148 26.1709 14.0625 27.2534C13.8711 27.7114 13.7964 28.0863 13.8966 28.0863C14.0945 28.0863 16.3319 25.5632 16.3319 25.3404C16.3319 25.2654 16.0132 25.2042 15.6237 25.2042H14.9154L15.2776 24.3376C15.4767 23.8609 15.592 23.4235 15.5341 23.3654C15.476 23.3075 14.9293 23.8306 14.319 24.5281ZM32.5947 24.6948C31.4452 25.9089 31.3996 26.1649 32.3329 26.1649C32.8726 26.1649 32.8762 26.1831 32.5373 27.1443C32.3471 27.6828 32.2729 28.0882 32.3723 28.045C32.6437 27.9268 34.8255 25.5383 34.8255 25.3593C34.8255 25.2741 34.5068 25.2042 34.1174 25.2042C33.4324 25.2042 33.4178 25.1804 33.6649 24.4714C33.8054 24.0684 33.8717 23.6901 33.8124 23.6306C33.7531 23.5712 33.205 24.0501 32.5947 24.6948ZM6.37186 27.7486C1.47804 29.5403 2.37005 36.9723 7.53023 37.4001C10.696 37.6626 13.0768 35.512 13.0552 32.4095C13.0439 30.8296 12.6075 29.9071 11.3209 28.7446C9.84576 27.4121 8.19743 27.0804 6.37186 27.7486ZM38.6668 27.5778C36.162 28.3911 34.8178 30.1453 34.8322 32.5819C34.8524 36.0169 38.3865 38.3598 41.6613 37.1092C43.547 36.3889 44.9174 34.3534 44.9061 32.2894C44.9018 31.4807 44.1376 29.6503 43.5186 28.9658C42.5248 27.8668 40.0008 27.1448 38.6668 27.5778ZM23.034 29.517C18.7769 30.3192 17.5018 36.0342 21.0331 38.4864C24.1922 40.6801 28.3491 38.9273 28.9539 35.1465C29.4715 31.9099 26.3069 28.9005 23.034 29.517ZM3.24237 39.095C1.10505 40.0982 0.0136908 41.9134 0.00528463 44.4783L0 46.0995H7.2987H14.5972L14.7648 45.1988C14.857 44.7036 15.1508 43.789 15.4174 43.1669L15.9025 42.0355L15.3739 41.1802C14.2998 39.4423 12.455 38.5238 10.5202 38.764C8.96552 38.9569 7.27684 38.9626 5.52404 38.7811C4.5177 38.6768 3.97419 38.7515 3.24237 39.095ZM34.9321 39.0969C33.8319 39.608 32.1835 41.3923 32.1835 42.0717C32.1835 42.3186 32.3476 42.8376 32.5479 43.225C32.7482 43.6127 32.9792 44.4194 33.0614 45.018L33.2105 46.1064L40.5628 46.0428L47.915 45.9794L47.9893 44.949C48.0923 43.5207 47.4414 41.4571 46.577 40.4726C46.1786 40.0187 45.3641 39.4111 44.7675 39.1221C43.858 38.6819 43.4617 38.6252 42.3163 38.771C40.7376 38.972 39.1018 38.9754 37.2272 38.7811C36.2211 38.6768 35.674 38.752 34.9321 39.0969ZM19.4895 40.8504C18.3689 41.173 16.5068 43.1081 16.1451 44.326C15.9837 44.8698 15.8516 45.9234 15.8516 46.6677V48.0209H23.8929H31.9342L32.0942 47.383C32.1823 47.0321 32.1341 46.0975 31.9868 45.3059C31.3415 41.8356 28.2668 39.8703 25.1428 40.9309C23.9842 41.3243 23.8326 41.3265 22.9675 40.9645C21.9422 40.5356 20.7226 40.4957 19.4895 40.8504Z" fill="#585858"/>
</svg>
