<svg width="23" height="49" viewBox="0 0 23 49" fill="none" xmlns="http://www.w3.org/2000/svg">
<path fill-rule="evenodd" clip-rule="evenodd" d="M10.9803 1.08506C10.9375 1.16501 10.5655 1.99355 10.1535 2.92627C9.74142 3.85898 9.27908 4.89577 9.12617 5.23019C8.97315 5.56461 8.84795 5.85543 8.84795 5.87646C8.84795 5.89739 8.57206 6.51768 8.23493 7.25494C7.8977 7.9921 7.48778 8.90049 7.32401 9.27358C7.16015 9.64666 6.76429 10.5406 6.44431 11.2601C6.12423 11.9797 5.32902 13.7676 4.67704 15.2333C4.02506 16.699 3.00116 19.0102 2.4016 20.3693C1.80205 21.7283 1.07022 23.3773 0.775242 24.0334C0.423959 24.8151 0.278115 25.2413 0.352345 25.2691C0.414655 25.2925 3.11425 25.3225 6.35157 25.3358L12.2374 25.3599L10.3378 29.1876C9.29294 31.2929 7.92512 34.062 7.29824 35.3411C6.67145 36.6203 4.90884 40.191 3.38142 43.276C1.85399 46.3609 0.622129 48.9029 0.643836 48.9246C0.681532 48.9623 1.30977 48.1426 5.37311 42.7544C6.35787 41.4486 7.72578 39.6389 8.41294 38.7328C9.65711 37.0923 11.0821 35.2031 17.3298 26.9104C21.846 20.9159 22.6085 19.8943 22.6085 19.838C22.6085 19.8112 19.8827 19.778 16.5512 19.7644L10.4938 19.7394L11.1574 18.5765C12.4752 16.2674 13.8811 13.7908 14.9533 11.89C15.5546 10.8241 16.3183 9.47223 16.6504 8.88595C16.9825 8.29968 17.7702 6.90424 18.4009 5.78498C19.0316 4.66572 19.8874 3.16417 20.3029 2.44814C20.7182 1.7321 21.058 1.09437 21.058 1.03089C21.058 0.943 19.8674 0.918386 16.0579 0.927592C11.7208 0.938058 11.0475 0.95899 10.9803 1.08506Z" fill="#585858"/>
</svg>
