<svg width="49" height="49" viewBox="0 0 49 49" fill="none" xmlns="http://www.w3.org/2000/svg">
<path fill-rule="evenodd" clip-rule="evenodd" d="M33.8745 0.378219C33.4005 0.563757 33.0536 0.835443 32.8308 1.19595L32.6234 1.53155H29.9152H27.207L27.1817 9.34656L27.1564 17.1615L26.0294 17.7869L24.9022 18.4123L24.2016 18.0572C23.8162 17.862 23.1046 17.5598 22.6201 17.3858L21.7392 17.0693L21.3088 15.5492C21.0721 14.7132 20.8073 13.7513 20.7204 13.4117L20.5625 12.7942H19.6853H18.8082V10.5927V8.39101L19.1032 8.21673C19.5327 7.96303 19.8739 7.46698 20.0021 6.90997C20.426 5.06675 18.0829 3.70515 16.7382 5.0133C15.7989 5.92706 15.8332 7.22325 16.8189 8.06706L17.2275 8.41679V10.6055V12.7942H16.3947H15.562L15.4157 13.3129C15.3353 13.5981 15.0614 14.5684 14.8071 15.4689L14.3448 17.1062L13.5386 17.3692C13.0951 17.5139 12.3828 17.8081 11.9556 18.0231L11.1788 18.4138L9.90755 17.7034L8.63625 16.993L8.63427 12.1767L8.6323 7.36048H6.41197H4.19155L4.03812 7.06369C3.8513 6.7023 3.2442 6.28548 2.73896 6.17157C2.1699 6.04324 1.4651 6.23372 1.01933 6.63641C-0.297906 7.82649 0.435551 9.97924 2.20162 10.107C2.89763 10.1573 3.41077 9.92737 3.91364 9.33974L4.25488 8.9412H5.70262H7.15037V12.628V16.3148L5.47085 17.9838C4.54711 18.9018 3.79133 19.686 3.79133 19.7265C3.79133 19.8123 5.75064 23.3747 5.86554 23.4977C5.90822 23.5433 5.7536 23.9879 5.52203 24.4856C5.29045 24.9834 5.00058 25.6901 4.87788 26.056C4.75518 26.422 4.60501 26.7608 4.54415 26.8088C4.48329 26.8568 3.51105 27.1542 2.3835 27.4696L0.333496 28.043V30.531V33.0191L2.48891 33.6349L4.64423 34.2506L4.75903 34.6797C4.82216 34.9158 5.0566 35.5231 5.27998 36.0293C5.50335 36.5355 5.73365 37.0646 5.79164 37.205C5.88619 37.4341 5.79095 37.653 4.86889 39.3266C4.30339 40.3529 3.82868 41.2383 3.81405 41.2941C3.79933 41.3498 4.56717 42.1735 5.52035 43.1244L7.25331 44.8533L7.62172 44.6483C10.3297 43.1411 11.0928 42.7292 11.1776 42.7292C11.2329 42.7292 11.5978 42.8872 11.9887 43.0803C12.3794 43.2734 13.068 43.5514 13.5187 43.6978L14.3383 43.9641L14.7628 45.4955C14.9963 46.3377 15.2705 47.3047 15.3723 47.6442L15.5573 48.2617H18.0494H20.5414L20.927 46.8539C21.1391 46.0796 21.4148 45.1106 21.5398 44.7006L21.7671 43.9552L22.4859 43.7244C22.8811 43.5975 23.5776 43.3216 24.0335 43.1114C24.4893 42.9012 24.8928 42.7292 24.93 42.7292C24.9671 42.7292 25.5498 43.0368 26.2249 43.4128C26.8999 43.7889 27.4666 44.082 27.4843 44.0643C27.502 44.0466 27.3945 43.8391 27.2455 43.6029C26.3658 42.2095 25.7603 40.2583 25.5721 38.2103L25.5064 37.4949L24.9482 37.994C23.7544 39.0616 22.1085 39.9603 20.5865 40.3759C19.8465 40.5779 19.5357 40.6042 17.9685 40.5978C16.3243 40.591 16.1233 40.57 15.3041 40.3203C11.8017 39.2522 9.31952 36.7532 8.26843 33.2366C8.0088 32.3681 7.99053 32.1914 7.99319 30.5774C7.99566 29.0892 8.02767 28.7315 8.22309 28.0087C9.01246 25.088 10.9443 22.7337 13.6174 21.4348C15.3108 20.6118 16.0357 20.4548 18.1166 20.4601C19.7042 20.4643 19.9165 20.4863 20.7134 20.7299C21.8864 21.0886 22.7305 21.4834 23.6913 22.1227C24.523 22.6761 25.843 23.9654 26.3856 24.7544C27.172 25.8976 27.9092 27.7619 28.0439 28.9472C28.1642 30.0075 28.1213 30.0026 29.0687 29.0652C29.5384 28.6005 30.3554 27.9346 30.8843 27.5854C31.7284 27.0281 31.8212 26.9396 31.6441 26.8606C31.5091 26.8004 31.36 26.5257 31.1938 26.0312C31.0571 25.6246 30.7716 24.9206 30.5593 24.4669C30.2383 23.781 30.1917 23.6062 30.2829 23.4295C30.3432 23.3127 30.8092 22.4769 31.3184 21.5722C31.8277 20.6675 32.2444 19.8668 32.2444 19.7928C32.2444 19.7189 31.4664 18.8813 30.5155 17.9316L28.7865 16.2047V9.60915V3.01348H30.7558C32.6117 3.01348 32.7285 3.02445 32.7853 3.20337C32.8862 3.52129 33.5909 4.08274 34.0413 4.20407C35.6728 4.64331 37.1193 2.83852 36.3415 1.33396C35.8997 0.479385 34.7521 0.0348067 33.8745 0.378219ZM17.4075 22.1778C16.9712 22.3095 16.4598 22.762 16.2445 23.2068C16.0504 23.6078 16.0419 23.7943 16.0419 27.6479C16.0419 31.0551 16.0654 31.7265 16.1949 32.0364C16.5105 32.7919 17.1936 33.2448 18.0171 33.2448C18.6421 33.2448 19.0614 33.0727 19.4776 32.6453C20.0533 32.0541 20.0926 31.7419 20.0926 27.7487C20.0926 25.5161 20.0516 23.9744 19.9839 23.6587C19.7397 22.52 18.5463 21.8341 17.4075 22.1778ZM35.7347 22.418C35.3053 22.611 35.2082 22.8408 35.2082 23.6628C35.2082 24.311 35.2317 24.392 35.497 24.6573C35.6667 24.827 35.8907 24.946 36.0404 24.946C36.2948 24.946 36.295 24.9468 36.295 25.8175V26.6889L35.5424 26.806C32.7449 27.2409 30.0574 28.98 28.4173 31.4171C27.5868 32.6514 27.065 33.9343 26.7529 35.51C26.5023 36.7756 26.5984 39.1081 26.9506 40.3087C27.8699 43.4415 29.9207 45.8788 32.775 47.2309C35.7453 48.6379 39.2972 48.5968 42.2227 47.1217C44.2271 46.1109 46.0546 44.2579 47.092 42.1842C47.4282 41.5123 47.9154 39.8839 48.0592 38.9514C48.2348 37.8131 48.1278 35.9827 47.8152 34.7762C47.5003 33.5611 46.751 31.9891 46.03 31.031C45.3737 30.159 44.2462 29.0717 43.4082 28.5027C42.1242 27.6307 40.2935 26.9165 38.954 26.765L38.3697 26.6989V25.8414V24.984L38.7896 24.8909C39.3718 24.7619 39.5852 24.3501 39.5224 23.4768C39.4857 22.9639 39.4292 22.7991 39.2177 22.5876C38.9638 22.3335 38.9271 22.3274 37.5031 22.3025C36.4105 22.2834 35.9699 22.3122 35.7347 22.418ZM44.3545 26.3522C44.1057 26.6365 43.9022 26.9686 43.9022 27.09C43.9022 27.2515 44.1437 27.4975 44.8011 28.0055C45.6986 28.6993 45.8253 28.7623 46.0433 28.6236C46.2926 28.465 46.8642 27.6516 46.8651 27.4543C46.8658 27.3084 46.5958 27.0336 45.9671 26.5405C45.4727 26.1525 45.0093 25.8352 44.9374 25.8352C44.8656 25.8352 44.6032 26.0679 44.3545 26.3522ZM36.2428 28.5004C34.8562 28.6967 33.3441 29.2659 32.2767 29.9933C31.5867 30.4635 30.5118 31.5201 30.0083 32.2229C28.1741 34.784 27.8216 38.3813 29.1279 41.2086C29.6416 42.3205 30.2722 43.2049 31.1475 44.0412C32.5769 45.4068 33.958 46.1019 35.9253 46.4457C40.6041 47.2634 45.2412 44.0631 46.2161 39.3434C46.4174 38.3687 46.4169 36.6151 46.2151 35.6379C45.5018 32.1848 42.8196 29.4547 39.3576 28.6578C38.5374 28.469 37.01 28.3918 36.2428 28.5004ZM37.412 32.2977L37.1347 32.536L37.1149 34.341C37.1001 35.6986 37.0633 36.1653 36.9667 36.2239C36.6769 36.3999 36.6051 36.4724 36.3569 36.84C36.1824 37.0983 36.0969 37.3574 36.0957 37.6304L36.094 38.0364L34.8556 38.9162C34.1745 39.4001 33.5528 39.8879 33.4742 40.0003C33.2639 40.3003 33.2996 40.6893 33.5597 40.9337C33.9533 41.3034 34.2068 41.2133 35.5671 40.2207C36.8003 39.3206 36.8464 39.2969 37.1051 39.4303C37.4463 39.6061 38.186 39.6068 38.5951 39.4317C39.6116 38.9968 39.9759 37.7165 39.3514 36.7737C39.185 36.5225 38.9627 36.2895 38.8574 36.2561C38.6319 36.1845 38.6473 36.3243 38.6648 34.514C38.681 32.845 38.5847 32.3416 38.2173 32.1742C37.8553 32.0093 37.7239 32.0295 37.412 32.2977ZM17.5689 35.0358C16.7258 35.2252 16.0463 36.1013 16.0463 36.9991C16.0463 38.1297 16.9173 38.975 18.0823 38.975C18.9991 38.975 19.739 38.3756 19.9863 37.4323C20.3521 36.0379 19.0139 34.7113 17.5689 35.0358Z" fill="#585858"/>
</svg>
