<svg width="49" height="49" viewBox="0 0 49 49" fill="none" xmlns="http://www.w3.org/2000/svg">
<path fill-rule="evenodd" clip-rule="evenodd" d="M24.8397 0.273762C24.7494 0.36403 24.6755 1.04142 24.6755 1.77915V3.1201L23.2297 3.12186C19.7523 3.12613 14.6055 5.10147 11.4129 7.65714C9.83834 8.91763 7.07448 12.0305 7.07448 12.5434C7.07448 13.0589 9.2115 16.0694 9.63241 16.1469C9.909 16.1979 10.4001 15.7136 11.0654 14.734C13.744 10.7894 19.2758 7.66494 23.6069 7.64985L24.6755 7.64608V8.88846C24.6755 9.57188 24.7819 10.1967 24.9121 10.2769C25.157 10.4285 32.5354 5.77861 32.6747 5.3851C32.7179 5.26265 31.4167 4.27246 29.7831 3.18422C25.8032 0.533251 25.0336 0.079899 24.8397 0.273762ZM34.4423 7.70894C33.5658 8.29656 32.8137 8.9654 32.771 9.19472C32.7207 9.46653 33.1808 9.93547 34.0908 10.5397C38.0274 13.1524 41.2519 18.829 41.267 23.1727L41.2708 24.2413H39.8878C39.1272 24.2413 38.5049 24.3517 38.5049 24.4865C38.5049 24.829 43.2564 32.1429 43.5448 32.2448C43.8423 32.3496 48.8415 24.7407 48.6639 24.4536C48.592 24.3369 47.9174 24.2413 47.1648 24.2413H45.7967L45.795 22.7955C45.7907 19.3578 44.02 14.6488 41.4722 11.3001C40.137 9.54498 36.9452 6.6403 36.3518 6.6403C36.1783 6.6403 35.3189 7.12132 34.4423 7.70894ZM3.05089 19.9924C1.66242 22.1023 0.613897 23.9147 0.720258 24.0198C0.82687 24.1252 1.47987 24.2464 2.17134 24.2891L3.42855 24.3671L3.58772 26.2529C3.67547 27.2901 3.93571 28.8742 4.16654 29.7731C4.73656 31.9948 6.56657 35.5993 8.09132 37.504C9.38826 39.124 12.4697 41.8424 13.0095 41.8424C13.5333 41.8424 16.4986 39.7267 16.5783 39.296C16.6268 39.0347 16.0679 38.4685 15.0296 37.7277C11.1891 34.9873 8.52682 30.4387 8.15292 25.9791L8.00734 24.2413H9.28618C9.98946 24.2413 10.6309 24.135 10.7111 24.0047C10.8652 23.7555 6.20901 16.38 5.80821 16.2386C5.67998 16.1934 4.4391 17.8826 3.05089 19.9924ZM19.018 18.563C16.7208 19.5884 15.5376 22.5969 16.5132 24.9318C16.9658 26.0148 24.0708 33.2933 24.6755 33.2933C25.2802 33.2933 32.3853 26.0148 32.8379 24.9318C33.3807 23.6321 33.3191 22.27 32.6588 20.9776C31.2437 18.2077 28.0961 17.3789 25.5515 19.1059C24.7107 19.6761 24.5744 19.7018 24.197 19.3601C23.0074 18.2836 20.5063 17.8987 19.018 18.563ZM38.1531 33.8995C35.4217 37.7272 30.8668 40.3905 26.4132 40.7639L24.6755 40.9095V39.4901C24.6755 38.682 24.5636 38.0707 24.416 38.0707C24.0655 38.0707 16.7769 42.8152 16.6721 43.1114C16.567 43.4081 24.1766 48.407 24.4633 48.2298C24.58 48.1579 24.6755 47.4832 24.6755 46.7307V45.3626L26.1213 45.3588C31.3061 45.3455 37.7865 41.9583 41.273 37.4391L42.3691 36.0184L41.8828 35.112C41.0807 33.6166 40.0332 32.2875 39.657 32.2875C39.4624 32.2875 38.7857 33.0129 38.1531 33.8995Z" fill="#585858"/>
</svg>
