<svg width="49" height="49" viewBox="0 0 49 49" fill="none" xmlns="http://www.w3.org/2000/svg">
<path fill-rule="evenodd" clip-rule="evenodd" d="M20.5349 0.309708C20.4098 0.332807 20.0686 0.374 19.7767 0.401193C18.998 0.473876 18.4007 0.556314 18.2857 0.606908C18.2301 0.631372 18.0542 0.665893 17.8948 0.683584C17.7353 0.701274 17.5937 0.733876 17.58 0.756065C17.5663 0.778254 17.4187 0.811866 17.2522 0.830719C17.0856 0.849521 16.9376 0.884043 16.9231 0.907344C16.9087 0.930644 16.7887 0.965823 16.6562 0.985535C16.5238 1.00525 16.3928 1.03901 16.365 1.06059C16.3372 1.08218 16.2263 1.11574 16.1187 1.13515C16.011 1.15456 15.8859 1.18918 15.8407 1.21202C15.7955 1.23487 15.5879 1.30498 15.3794 1.3678C15.1709 1.43068 14.9775 1.49937 14.9497 1.5205C14.9219 1.54157 14.8139 1.57478 14.7097 1.59429C14.6054 1.61375 14.5201 1.64994 14.5201 1.67461C14.5201 1.69932 14.4803 1.71969 14.4317 1.71984C14.383 1.72004 14.2822 1.75199 14.2076 1.79091C14.1331 1.82983 14.0022 1.87698 13.917 1.89569C13.8317 1.91444 13.762 1.95068 13.762 1.97625C13.762 2.00188 13.737 2.0228 13.7064 2.0228C13.6318 2.0228 13.4071 2.1248 12.6073 2.52193C11.7537 2.94564 11.6701 2.99017 11.6386 3.03748C11.6244 3.05881 11.5505 3.09187 11.4743 3.11097C11.3982 3.13008 11.3358 3.16602 11.3358 3.19078C11.3358 3.2156 11.3033 3.23587 11.2636 3.23587C11.2239 3.23587 11.1604 3.26432 11.1225 3.29905C11.0514 3.36425 11.0282 3.37946 10.6029 3.64022C10.2373 3.86444 10.1599 3.91346 10.1003 3.95845C10.0255 4.01496 9.3592 4.48507 9.24467 4.56215C9.19266 4.59718 9.12442 4.64888 9.09303 4.67704C9.0617 4.70519 8.87685 4.85222 8.68226 5.0038C8.48766 5.15544 8.28245 5.32572 8.22625 5.38228C8.16999 5.43884 8.01224 5.57536 7.87562 5.6857C7.73905 5.79609 7.55618 5.9553 7.4693 6.03951C7.38241 6.12376 7.16492 6.3313 6.98589 6.50067C6.6385 6.82946 5.85855 7.66178 5.66638 7.90889C5.6025 7.99097 5.49302 8.11986 5.42301 8.19522C5.23554 8.39725 4.99546 8.70066 4.97231 8.7649C4.96119 8.79579 4.93551 8.83238 4.91525 8.84628C4.84403 8.89516 4.51236 9.35319 4.51236 9.40272C4.51236 9.43027 4.49381 9.45281 4.47116 9.45281C4.42057 9.45281 3.60256 10.6789 3.60256 10.7547C3.60256 10.7846 3.58431 10.8166 3.56197 10.8259C3.50627 10.849 3.14766 11.449 3.14766 11.5191C3.14766 11.5502 3.12739 11.5757 3.10258 11.5757C3.07781 11.5757 3.04187 11.638 3.02277 11.7142C3.00366 11.7903 2.97136 11.8642 2.95094 11.8784C2.89241 11.9192 2.3895 12.9429 2.3895 13.0214C2.3895 13.0602 2.36857 13.092 2.34295 13.092C2.31737 13.092 2.28143 13.1602 2.26314 13.2436C2.24484 13.327 2.21138 13.3953 2.18879 13.3953C2.16619 13.3953 2.13309 13.4578 2.11525 13.5343C2.09735 13.6107 2.05111 13.7415 2.01244 13.8249C1.85034 14.1743 1.78297 14.3501 1.78297 14.4234C1.78297 14.4662 1.76199 14.5143 1.73631 14.5301C1.71064 14.546 1.6744 14.6284 1.65575 14.7134C1.6371 14.7984 1.58999 14.9289 1.55107 15.0034C1.51215 15.078 1.48021 15.1762 1.48001 15.2217C1.47985 15.2672 1.44574 15.3695 1.40419 15.4492C1.36269 15.5288 1.32857 15.6438 1.32837 15.7047C1.32822 15.7656 1.30745 15.8282 1.28228 15.8437C1.25705 15.8593 1.22081 15.9857 1.20171 16.1247C1.1826 16.2636 1.14702 16.3896 1.12261 16.4047C1.09824 16.4197 1.06327 16.5454 1.04487 16.6839C1.02652 16.8223 0.993314 16.9469 0.971125 16.9606C0.948936 16.9743 0.915021 17.1159 0.895763 17.2753C0.876455 17.4348 0.842945 17.5879 0.821261 17.6157C0.799578 17.6435 0.766775 17.8027 0.748326 17.9695C0.729928 18.1363 0.694496 18.3183 0.669679 18.3739C0.616052 18.4939 0.532553 19.1514 0.464268 19.9913C0.437125 20.3249 0.39108 20.7798 0.361916 21.0022C0.271997 21.6881 0.387692 24.7727 0.516428 25.1215C0.542105 25.191 0.578245 25.4299 0.596795 25.6523C0.615345 25.8746 0.648248 26.0793 0.669881 26.1071C0.691565 26.1349 0.725177 26.311 0.744636 26.4983C0.764096 26.6857 0.79796 26.8501 0.819947 26.8636C0.841883 26.8772 0.875294 27.0246 0.894147 27.1912C0.912949 27.3578 0.947419 27.5058 0.97067 27.5202C0.993971 27.5346 1.02864 27.6717 1.0478 27.825C1.06696 27.9782 1.10082 28.1036 1.12301 28.1036C1.14525 28.1036 1.17836 28.2165 1.19665 28.3543C1.21495 28.4921 1.25069 28.6178 1.27606 28.6335C1.30143 28.6492 1.33752 28.7641 1.35627 28.8889C1.37497 29.0137 1.41041 29.1282 1.43497 29.1434C1.45958 29.1586 1.47985 29.2095 1.48001 29.2565C1.48021 29.3035 1.51433 29.4071 1.55582 29.4867C1.59737 29.5664 1.63149 29.6574 1.63164 29.6889C1.63184 29.7205 1.6651 29.8099 1.70558 29.8875C1.74607 29.9651 1.79394 30.1072 1.81198 30.2034C1.83002 30.2995 1.86318 30.3781 1.88567 30.3781C1.90817 30.3781 1.94147 30.4461 1.95972 30.5292C1.97797 30.6123 2.0139 30.6932 2.03958 30.7091C2.06526 30.7249 2.08623 30.774 2.08623 30.8181C2.08623 30.8622 2.16584 31.0638 2.26314 31.2661C2.36044 31.4683 2.44004 31.6584 2.44004 31.6883C2.44004 31.7183 2.46097 31.7428 2.48659 31.7428C2.51217 31.7428 2.54811 31.8111 2.5664 31.8945C2.5847 31.9779 2.61882 32.0461 2.64222 32.0461C2.66562 32.0461 2.69974 32.1143 2.71804 32.1977C2.73633 32.2811 2.77045 32.3494 2.79385 32.3494C2.81725 32.3494 2.85137 32.4176 2.86967 32.501C2.88797 32.5844 2.9239 32.6526 2.94948 32.6526C2.9751 32.6526 2.99603 32.6781 2.99603 32.7092C2.99603 32.7793 3.35464 33.3793 3.41034 33.4024C3.43268 33.4117 3.45093 33.4428 3.45093 33.4716C3.45093 33.5387 3.81151 34.1382 3.86524 34.1605C3.88758 34.1698 3.90583 34.1991 3.90583 34.2258C3.90583 34.2824 4.11584 34.5909 4.17118 34.6154C4.19206 34.6247 4.20909 34.661 4.20909 34.696C4.20909 34.7311 4.25458 34.801 4.31018 34.8513C4.36578 34.9016 4.41127 34.9734 4.41127 35.0108C4.41127 35.0482 4.4283 35.0789 4.44918 35.0791C4.47005 35.0793 4.54395 35.1646 4.61345 35.2687C4.7761 35.5122 4.81224 35.5587 4.97989 35.7403C5.05631 35.8232 5.11919 35.9072 5.11949 35.9271C5.11985 35.947 5.20517 36.0586 5.30904 36.175C5.41295 36.2914 5.6117 36.5176 5.75069 36.6776C6.47454 37.5106 7.08435 38.1205 7.91742 38.8443C8.0774 38.9833 8.30358 39.182 8.42004 39.286C8.53644 39.3898 8.64986 39.4751 8.67205 39.4755C8.69424 39.4758 8.76505 39.533 8.82944 39.6025C8.89389 39.672 8.96885 39.7288 8.99614 39.7288C9.02338 39.7288 9.08687 39.7743 9.13716 39.8299C9.18745 39.8855 9.25922 39.931 9.29663 39.931C9.33403 39.931 9.36461 39.95 9.36461 39.9732C9.36461 39.9963 9.49537 40.1041 9.65524 40.2125C9.81511 40.3211 9.95724 40.4215 9.97114 40.4357C10.0435 40.51 10.3279 40.6892 10.3735 40.6892C10.4024 40.6892 10.426 40.7119 10.426 40.7397C10.426 40.7675 10.4468 40.7903 10.4722 40.7903C10.4976 40.7903 10.6392 40.8699 10.7869 40.9672C10.9347 41.0645 11.0845 41.1441 11.1199 41.1441C11.1552 41.1441 11.1842 41.1616 11.1842 41.183C11.1842 41.2045 11.2923 41.2784 11.4243 41.3473C11.5564 41.4162 11.6757 41.4858 11.6896 41.502C11.7035 41.5181 11.8286 41.5863 11.9676 41.6536C12.1066 41.7208 12.232 41.791 12.2461 41.8097C12.2603 41.8284 12.3342 41.8593 12.4104 41.8784C12.4866 41.8975 12.5489 41.9316 12.5489 41.9542C12.5489 41.9768 12.6171 42.0103 12.7005 42.0286C12.7839 42.0469 12.8522 42.0828 12.8522 42.1084C12.8522 42.134 12.8762 42.155 12.9055 42.155C12.9517 42.155 13.1092 42.2182 13.5345 42.4077C13.5901 42.4324 13.7493 42.5011 13.8883 42.5602C14.0273 42.6193 14.2127 42.7002 14.3003 42.7399C14.3879 42.7796 14.5073 42.812 14.5657 42.812C14.624 42.812 14.6718 42.8297 14.6718 42.8514C14.6718 42.873 14.848 42.9452 15.0635 43.0119C15.2789 43.0785 15.4779 43.1498 15.5057 43.1702C15.5335 43.1906 15.6473 43.2237 15.7585 43.2437C15.8697 43.2637 15.9834 43.2979 16.0112 43.3195C16.039 43.3412 16.1527 43.3753 16.2639 43.3954C16.3751 43.4154 16.4888 43.4494 16.5166 43.471C16.5444 43.4926 16.6809 43.5266 16.8199 43.5466C16.9589 43.5666 17.0954 43.6007 17.1232 43.6224C17.151 43.6441 17.2874 43.6769 17.4264 43.6953C17.5654 43.7137 17.7246 43.7493 17.7802 43.7745C17.8874 43.823 18.3277 43.8978 18.9933 43.9807C19.2157 44.0083 19.4659 44.0515 19.5493 44.0765C19.7813 44.1463 21.479 44.2511 22.3292 44.2482C22.7462 44.2468 23.3915 44.2241 23.7631 44.1978C24.3744 44.1546 24.4491 44.1585 24.5465 44.2383C24.7134 44.375 24.746 44.399 24.8873 44.4895C24.9598 44.536 25.0514 44.6041 25.0908 44.6408C25.2153 44.7567 25.4823 44.9349 25.5313 44.9349C25.5573 44.9349 25.5916 44.969 25.6076 45.0107C25.6236 45.0524 25.6696 45.0865 25.7099 45.0865C25.7501 45.0865 25.7906 45.1036 25.7999 45.1244C25.8267 45.1847 26.3675 45.5414 26.4321 45.5414C26.4643 45.5414 26.4983 45.5585 26.5076 45.5793C26.5321 45.6347 26.8405 45.8447 26.8972 45.8447C26.9238 45.8447 26.9532 45.8617 26.9625 45.8826C26.9717 45.9035 27.0475 45.9562 27.1309 45.9998C27.4627 46.1732 27.7385 46.3262 27.7626 46.3501C27.8269 46.4141 28.5289 46.7545 28.5965 46.7545C28.6383 46.7545 28.6725 46.7772 28.6725 46.805C28.6725 46.8328 28.6965 46.8556 28.7258 46.8556C28.772 46.8556 28.9296 46.9188 29.3549 47.1083C29.8122 47.312 29.944 47.361 30.0344 47.361C30.0915 47.361 30.1383 47.3827 30.1383 47.4093C30.1383 47.4358 30.2215 47.4731 30.3231 47.4922C30.4248 47.5113 30.567 47.5576 30.639 47.5953C30.7111 47.6329 30.8199 47.6638 30.8808 47.664C30.9418 47.6641 31.0044 47.6851 31.0201 47.7104C31.0358 47.7358 31.1452 47.7712 31.2632 47.7891C31.3812 47.807 31.5232 47.8423 31.5788 47.8676C31.6874 47.9169 32.0512 47.9946 32.5392 48.0728C32.7059 48.0996 32.9448 48.1473 33.0699 48.179C33.389 48.2597 35.7714 48.2934 36.3047 48.2248C37.1211 48.1197 37.4928 48.0628 37.5683 48.0312C37.6482 47.9979 38.0057 47.912 38.4907 47.8097C38.6506 47.776 38.7814 47.7321 38.7814 47.7121C38.7814 47.6921 38.8837 47.6604 39.0088 47.6416C39.1339 47.6229 39.2363 47.5888 39.2363 47.5658C39.2363 47.5429 39.3386 47.5088 39.4637 47.49C39.5888 47.4712 39.6912 47.4346 39.6912 47.4085C39.6912 47.3823 39.7309 47.3609 39.7796 47.3607C39.8283 47.3605 39.9291 47.3286 40.0037 47.2896C40.0782 47.2507 40.209 47.2036 40.2943 47.1849C40.3796 47.1661 40.4493 47.1299 40.4493 47.1043C40.4493 47.0787 40.4743 47.0577 40.5049 47.0577C40.6558 47.0577 42.521 46.1305 42.5637 46.0342C42.573 46.0134 42.6077 45.9963 42.6407 45.9963C42.6738 45.9963 42.8217 45.9167 42.9695 45.8194C43.1172 45.7221 43.2588 45.6425 43.2842 45.6425C43.3096 45.6425 43.3304 45.6198 43.3304 45.592C43.3304 45.5642 43.354 45.5414 43.3829 45.5414C43.4428 45.5414 43.7512 45.3336 43.7768 45.2761C43.7861 45.2552 43.8154 45.2382 43.8421 45.2382C43.8844 45.2382 44.1711 45.0557 44.2402 44.9847C44.2541 44.9705 44.3962 44.87 44.5561 44.7615C44.7159 44.6531 44.8467 44.5453 44.8467 44.5221C44.8467 44.4989 44.8692 44.48 44.8968 44.48C44.9424 44.48 45.3932 44.1577 45.4532 44.0822C45.4741 44.0559 45.7165 43.8582 46.049 43.5962C46.4726 43.2626 47.8254 41.9498 47.9864 41.7162C48.1 41.5515 48.1321 41.4485 48.1321 41.2487C48.1321 41.1077 48.1093 40.9924 48.0815 40.9924C48.0537 40.9924 48.031 40.9569 48.031 40.9135C48.031 40.8158 46.382 39.1728 46.284 39.1728C46.2737 39.1728 46.1896 39.0989 46.0971 39.0086C45.886 38.8025 45.4561 38.4465 45.3864 38.42C45.3575 38.4091 45.2842 38.3465 45.2234 38.281C45.1627 38.2155 45.0908 38.162 45.0635 38.162C45.0363 38.162 44.9728 38.1165 44.9225 38.0609C44.8722 38.0053 44.8004 37.9598 44.763 37.9598C44.7256 37.9598 44.695 37.9408 44.695 37.9176C44.695 37.8945 44.5642 37.7867 44.4044 37.6782C44.2446 37.5697 44.1024 37.4693 44.0885 37.455C44.0162 37.3807 43.7318 37.2016 43.6862 37.2016C43.6573 37.2016 43.6336 37.184 43.6336 37.1625C43.6336 37.1411 43.55 37.0785 43.4478 37.0235C43.3456 36.9686 43.2376 36.9006 43.2077 36.8725C43.1779 36.8444 43.0966 36.7929 43.0271 36.7581C42.9576 36.7233 42.787 36.6256 42.648 36.5408C42.509 36.456 42.3328 36.3604 42.2563 36.3282C42.1798 36.296 42.1173 36.2537 42.1173 36.2342C42.1173 36.2147 42.0491 36.1838 41.9657 36.1655C41.8823 36.1472 41.814 36.113 41.814 36.0896C41.814 36.0662 41.7458 36.0321 41.6624 36.0138C41.579 35.9955 41.5108 35.9614 41.5108 35.938C41.5108 35.9146 41.4425 35.8805 41.3591 35.8622C41.2757 35.8439 41.2075 35.8098 41.2075 35.7864C41.2075 35.763 41.1393 35.7289 41.0559 35.7106C40.9725 35.6923 40.9042 35.6573 40.9042 35.633C40.9042 35.6087 40.8246 35.5738 40.7273 35.5556C40.63 35.5373 40.5504 35.504 40.5504 35.4815C40.5504 35.459 40.4765 35.4248 40.3862 35.4055C40.2174 35.3694 40.0955 35.2966 40.0955 35.232C40.0955 35.2118 40.1353 35.1474 40.184 35.0889C40.3858 34.8461 40.4493 34.7518 40.4493 34.6948C40.4493 34.6617 40.4784 34.6235 40.514 34.6099C40.5496 34.5962 40.6236 34.4971 40.6783 34.3896C40.7331 34.2822 40.8063 34.176 40.841 34.1538C40.8758 34.1316 40.9042 34.079 40.9042 34.0371C40.9042 33.9951 40.9251 33.9737 40.9507 33.9895C40.9762 34.0053 41.0117 33.9517 41.0296 33.8703C41.0474 33.789 41.0948 33.71 41.1348 33.6946C41.1747 33.6792 41.2075 33.6319 41.2075 33.5893C41.2075 33.5467 41.2278 33.5119 41.2526 33.5119C41.2773 33.5119 41.3119 33.455 41.3294 33.3855C41.3468 33.316 41.3816 33.2592 41.4066 33.2592C41.4317 33.2592 41.4672 33.1909 41.4855 33.1075C41.5038 33.0241 41.5372 32.9559 41.5598 32.9559C41.5824 32.9559 41.6165 32.8936 41.6357 32.8174C41.6548 32.7412 41.6856 32.6673 41.7043 32.6531C41.765 32.607 42.2689 31.59 42.2689 31.5137C42.2689 31.4729 42.2899 31.4396 42.3155 31.4396C42.3411 31.4396 42.377 31.3713 42.3953 31.2879C42.4136 31.2045 42.4485 31.1363 42.4728 31.1363C42.4972 31.1363 42.532 31.0567 42.5503 30.9594C42.5685 30.8621 42.6019 30.7825 42.6244 30.7825C42.6468 30.7825 42.6803 30.714 42.6987 30.6304C42.7295 30.4899 42.8185 30.2696 42.9258 30.0685C42.9499 30.0232 42.9851 29.9038 43.004 29.8031C43.0229 29.7024 43.0572 29.62 43.0802 29.62C43.1032 29.62 43.1373 29.5176 43.1561 29.3925C43.1748 29.2674 43.2089 29.1651 43.2319 29.1651C43.2548 29.1651 43.289 29.0624 43.3078 28.937C43.3266 28.8116 43.3608 28.6973 43.3838 28.6831C43.4068 28.6689 43.4409 28.5552 43.4596 28.4304C43.4783 28.3056 43.5125 28.1918 43.5355 28.1776C43.5584 28.1634 43.5928 28.0443 43.6118 27.9129C43.6308 27.7815 43.664 27.6513 43.6855 27.6235C43.7071 27.5957 43.7489 27.4365 43.7784 27.2697C43.8935 26.6185 43.9461 26.353 43.9939 26.183C44.0551 25.965 44.1252 25.4315 44.1933 24.6666C44.2218 24.3469 44.2686 23.9375 44.2972 23.7568C44.399 23.116 44.2846 19.7794 44.1431 19.2584C44.1167 19.1611 44.072 18.9109 44.044 18.7024C44.0159 18.4939 43.9582 18.1527 43.9157 17.9443C43.8733 17.7358 43.8115 17.4173 43.7785 17.2366C43.7455 17.0559 43.7043 16.8967 43.6869 16.8828C43.6695 16.8689 43.6295 16.7438 43.5979 16.6048C43.4576 15.9873 43.418 15.8437 43.3756 15.7986C43.3507 15.7723 43.3302 15.704 43.3301 15.647C43.3298 15.59 43.2957 15.4782 43.2542 15.3986C43.2127 15.319 43.1786 15.2166 43.1784 15.1712C43.1782 15.1257 43.1463 15.0275 43.1074 14.9529C43.0684 14.8783 43.0213 14.7478 43.0027 14.6629C42.984 14.5779 42.9478 14.4954 42.9221 14.4795C42.8964 14.4637 42.8755 14.4167 42.8755 14.3751C42.8755 14.3335 42.8287 14.1927 42.7716 14.0622C42.7145 13.9317 42.6483 13.7794 42.6244 13.7238C42.2929 12.9512 41.6099 11.5757 41.5578 11.5757C41.5363 11.5757 41.5038 11.5074 41.4855 11.424C41.4672 11.3406 41.4313 11.2724 41.4057 11.2724C41.3801 11.2724 41.3591 11.2399 41.3591 11.2002C41.3591 11.1605 41.3307 11.097 41.2959 11.0591C41.215 10.9708 41.1221 10.8258 41.0439 10.6659C41.0099 10.5964 40.9703 10.5281 40.9558 10.5142C40.8824 10.4437 40.7021 10.1578 40.7021 10.1119C40.7021 10.083 40.6793 10.0593 40.6515 10.0593C40.6237 10.0593 40.601 10.0288 40.601 9.99136C40.601 9.95396 40.5555 9.88219 40.4999 9.83189C40.4443 9.7816 40.3988 9.70983 40.3988 9.67243C40.3988 9.63502 40.3817 9.60429 40.3609 9.60409C40.3401 9.60389 40.2661 9.51862 40.1966 9.41455C40.0424 9.18371 40.0309 9.16845 39.8431 8.94737C39.7604 8.85007 39.6924 8.75672 39.692 8.73994C39.6915 8.72316 39.64 8.65164 39.5774 8.58103C39.4285 8.41297 39.1168 8.03681 39.0846 7.98632C38.8563 7.62842 37.1565 5.93928 36.5345 5.45213C36.4524 5.38779 36.3239 5.27796 36.249 5.20795C36.1087 5.07694 35.9911 4.985 35.7952 4.85328C35.7332 4.81158 35.6468 4.73769 35.6032 4.68901C35.5597 4.64034 35.495 4.60056 35.4595 4.60056C35.424 4.60056 35.3943 4.58348 35.3935 4.56265C35.3928 4.54183 35.3018 4.469 35.1914 4.40086C35.0809 4.33273 34.9906 4.25878 34.9906 4.23659C34.9906 4.2144 34.96 4.19621 34.9226 4.19621C34.8852 4.19621 34.8134 4.15072 34.7631 4.09512C34.7128 4.03952 34.6429 3.99403 34.6078 3.99403C34.5728 3.99403 34.5365 3.97695 34.5272 3.95612C34.5016 3.89855 34.1932 3.69077 34.1333 3.69077C34.1044 3.69077 34.0808 3.66802 34.0808 3.64022C34.0808 3.61242 34.0501 3.58968 34.0127 3.58968C33.9752 3.58968 33.8921 3.54419 33.828 3.48859C33.7639 3.43299 33.6808 3.3875 33.6434 3.3875C33.6059 3.3875 33.5753 3.36627 33.5753 3.34034C33.5753 3.31441 33.5241 3.27726 33.4616 3.25775C33.3991 3.23819 33.3364 3.20827 33.3224 3.19114C33.2932 3.1553 32.976 2.97996 32.5392 2.75807C32.3724 2.67336 32.2243 2.5888 32.2101 2.57015C32.1959 2.5515 32.122 2.52062 32.0458 2.50151C31.9697 2.4824 31.9074 2.44647 31.9074 2.4217C31.9074 2.39688 31.8814 2.37661 31.8497 2.37661C31.818 2.37661 31.6986 2.3332 31.5844 2.28013C31.1916 2.09776 31.0075 2.0228 30.952 2.0228C30.9214 2.0228 30.8965 2.00188 30.8965 1.97625C30.8965 1.95068 30.8267 1.91444 30.7414 1.89569C30.6562 1.87698 30.5254 1.82983 30.4508 1.79091C30.3762 1.75199 30.2754 1.72004 30.2268 1.71984C30.1781 1.71969 30.1383 1.69781 30.1383 1.67127C30.1383 1.64473 30.0551 1.60743 29.9535 1.58838C29.8518 1.56927 29.7096 1.52292 29.6376 1.48527C29.5655 1.44766 29.468 1.41678 29.421 1.41658C29.374 1.41643 29.3223 1.39484 29.3061 1.36866C29.2899 1.34248 29.1692 1.30538 29.0378 1.28627C28.9064 1.26717 28.7375 1.22036 28.6624 1.18225C28.5873 1.14419 28.4793 1.11301 28.4223 1.11301C28.3653 1.11301 28.3187 1.09188 28.3187 1.0661C28.3187 1.04033 28.1933 1.00353 28.0401 0.984373C27.8868 0.965217 27.7496 0.930543 27.7352 0.907242C27.7209 0.883992 27.5733 0.849622 27.4074 0.83082C27.2414 0.812068 27.1056 0.779113 27.1056 0.757632C27.1056 0.73615 26.9635 0.703701 26.7897 0.685555C26.616 0.667359 26.4284 0.631473 26.3728 0.605796C26.2687 0.557729 25.773 0.487725 24.9322 0.402305C24.6681 0.375466 24.2981 0.331088 24.1099 0.303643C23.7041 0.244455 20.862 0.249257 20.5349 0.309708ZM20.8262 5.38754C20.8104 5.40336 20.528 5.44829 20.1986 5.48741C19.4275 5.57895 18.8047 5.67842 18.7406 5.72027C18.7128 5.73841 18.5763 5.7697 18.4373 5.78982C18.2983 5.80994 18.1618 5.8441 18.134 5.86584C18.1062 5.88752 17.9752 5.92139 17.8428 5.9411C17.7104 5.96081 17.5909 5.99508 17.5771 6.01722C17.5634 6.03941 17.4595 6.07322 17.3462 6.09238C17.2329 6.11148 17.0795 6.15884 17.0053 6.19756C16.9311 6.23623 16.8192 6.26802 16.7567 6.26822C16.6942 6.26837 16.643 6.28874 16.643 6.31346C16.643 6.33812 16.5606 6.37381 16.4599 6.39271C16.3591 6.41161 16.2397 6.44745 16.1945 6.47237C16.1493 6.49729 15.9985 6.56537 15.8595 6.62365C15.5135 6.76866 14.6579 7.1629 14.5748 7.21562C14.5472 7.23316 14.6791 7.4879 14.7602 7.57363C14.795 7.61037 14.8234 7.67295 14.8234 7.71262C14.8234 7.75235 14.8411 7.78485 14.8629 7.78485C14.8845 7.78485 14.9305 7.84742 14.9649 7.92385C14.9993 8.00027 15.0836 8.1652 15.1523 8.29029C15.3057 8.56955 15.3102 8.746 15.1712 9.0243C15.0058 9.35567 14.5834 9.53201 14.2547 9.40702C14.0944 9.34611 13.762 9.0195 13.762 8.92301C13.762 8.8808 13.741 8.84628 13.7154 8.84628C13.6898 8.84628 13.6539 8.77805 13.6356 8.69465C13.6173 8.61125 13.5851 8.54302 13.5641 8.54302C13.5431 8.54302 13.471 8.42939 13.4039 8.29045C13.2958 8.06694 13.2673 8.04126 13.1554 8.06704C13.0859 8.08306 13.0109 8.12845 12.9886 8.16798C12.9664 8.20745 12.9152 8.23975 12.8749 8.23975C12.8346 8.23975 12.801 8.25678 12.8003 8.27766C12.7995 8.29853 12.7085 8.37132 12.5981 8.43945C12.4876 8.50758 12.3973 8.58153 12.3973 8.60372C12.3973 8.62591 12.3667 8.6441 12.3293 8.6441C12.2919 8.6441 12.2201 8.68959 12.1698 8.74519C12.1195 8.80079 12.0599 8.84628 12.0373 8.84628C12.0148 8.84628 11.9298 8.90885 11.8485 8.98528C11.7672 9.0617 11.6339 9.17487 11.5523 9.23668C11.4707 9.2985 11.342 9.40651 11.2662 9.47677C11.1905 9.54698 11.1199 9.60444 11.1093 9.60444C11.0818 9.60444 9.66787 11.0223 9.66787 11.0499C9.66787 11.0625 9.60136 11.1462 9.52008 11.2359C9.37997 11.3903 9.2109 11.5902 9.12548 11.7025C9.1041 11.7306 9.00135 11.8596 8.89707 11.9891C8.79285 12.1186 8.70753 12.2472 8.70753 12.275C8.70753 12.3027 8.68792 12.333 8.66401 12.3423C8.64006 12.3515 8.50379 12.5297 8.36115 12.7382L8.10186 13.1173L8.2081 13.2057C8.26658 13.2543 8.34599 13.2942 8.3846 13.2942C8.42322 13.2942 8.45481 13.3169 8.45481 13.3447C8.45481 13.3725 8.48731 13.3953 8.52704 13.3953C8.56671 13.3953 8.62964 13.4237 8.66679 13.4584C8.70394 13.4932 8.82353 13.5671 8.93255 13.6227C9.04158 13.6783 9.21181 13.8001 9.31088 13.8933C9.48222 14.0546 9.49097 14.0791 9.49097 14.3988C9.49097 14.7694 9.38447 14.9866 9.17507 15.0434C9.11249 15.0603 9.06134 15.0945 9.06134 15.1192C9.06134 15.144 8.92487 15.1643 8.75808 15.1643C8.58961 15.1643 8.45481 15.1419 8.45481 15.1138C8.45481 15.086 8.42934 15.0632 8.39825 15.0632C8.33684 15.0632 7.73824 14.7138 7.69614 14.6533C7.68194 14.633 7.60804 14.6007 7.53187 14.5816C7.4557 14.5625 7.39338 14.5252 7.39338 14.4988C7.39338 14.3432 7.16947 14.7484 6.83022 15.5181C6.77507 15.6432 6.70866 15.785 6.68258 15.8333C6.65655 15.8816 6.63506 15.9498 6.63491 15.985C6.63471 16.0201 6.60373 16.108 6.56597 16.1804C6.48667 16.3323 6.23142 17.0722 6.10567 17.5146C6.0582 17.6814 5.98921 17.9202 5.95231 18.0453C5.91542 18.1704 5.86912 18.3865 5.84941 18.5255C5.82974 18.6645 5.79947 18.801 5.78218 18.8288C5.73649 18.9021 5.63065 19.5887 5.54836 20.3451C5.50904 20.7065 5.46158 21.1102 5.44293 21.2423L5.40901 21.4823H6.17375C6.64987 21.4823 6.93848 21.5014 6.93848 21.5329C6.93848 21.5607 6.97144 21.5834 7.01172 21.5834C7.05201 21.5834 7.15426 21.6573 7.23897 21.7477C7.37837 21.8965 7.39293 21.9435 7.39313 22.2461C7.39338 22.5582 7.38231 22.5909 7.22466 22.7451C6.97381 22.9903 6.74935 23.0476 6.03465 23.0485L5.40886 23.0492L5.44343 23.264C5.46249 23.3822 5.51071 23.7859 5.55069 24.1612C5.62408 24.8505 5.73199 25.5382 5.78865 25.6775C5.80558 25.7192 5.84304 25.8784 5.87185 26.0313C5.9325 26.3528 6.04809 26.8309 6.09192 26.9411C6.10844 26.9828 6.17223 27.1875 6.23359 27.396C6.29495 27.6045 6.36293 27.7979 6.38457 27.8257C6.40625 27.8535 6.43991 27.9615 6.45942 28.0657C6.47888 28.17 6.51507 28.2553 6.53974 28.2553C6.56445 28.2553 6.58543 28.2951 6.58639 28.3437C6.58735 28.3924 6.63203 28.5232 6.68576 28.6344C6.73949 28.7456 6.78417 28.8764 6.78513 28.925C6.78609 28.9736 6.80959 29.0134 6.83739 29.0134C6.86519 29.0134 6.88849 29.0419 6.8892 29.0766C6.89036 29.1325 7.20561 29.797 7.30836 29.9601C7.34961 30.0255 7.4834 29.9742 7.63513 29.8348C7.67294 29.8001 7.73637 29.7716 7.77605 29.7716C7.81578 29.7716 7.84828 29.7507 7.84828 29.7251C7.84828 29.6995 7.91651 29.6635 7.99991 29.6452C8.08331 29.6269 8.15154 29.5951 8.15154 29.5744C8.15154 29.5537 8.25071 29.4873 8.37192 29.4267C8.73594 29.2449 9.02879 29.2892 9.32306 29.5704C9.46666 29.7077 9.489 29.7652 9.50669 30.0435C9.5222 30.2867 9.50805 30.3791 9.44573 30.4414C9.4011 30.4861 9.36461 30.5469 9.36461 30.5767C9.36461 30.6065 9.34535 30.6309 9.3218 30.6309C9.29824 30.6309 9.22652 30.6763 9.16243 30.7319C9.09834 30.7875 9.01524 30.833 8.97779 30.833C8.94034 30.833 8.90971 30.8558 8.90971 30.8836C8.90971 30.9114 8.88424 30.9341 8.85315 30.9341C8.78198 30.9341 8.1892 31.2886 8.14123 31.3599C8.12167 31.389 8.15008 31.46 8.20441 31.5179C8.25875 31.5757 8.30318 31.6481 8.30318 31.6787C8.30318 31.7093 8.32026 31.742 8.34109 31.7513C8.39643 31.7758 8.60644 32.0843 8.60644 32.1409C8.60644 32.1676 8.62661 32.1969 8.65123 32.2062C8.69848 32.224 9.06134 32.6864 9.06134 32.7289C9.06134 32.7425 9.10117 32.7969 9.14979 32.8496C9.19842 32.9023 9.29511 33.0156 9.36461 33.1012C9.43411 33.1869 9.60479 33.3769 9.74389 33.5235C9.88299 33.67 10.0999 33.9036 10.2258 34.0426C10.3518 34.1816 10.6353 34.4545 10.8558 34.6491C11.0762 34.8437 11.2943 35.0371 11.3403 35.0788C11.3863 35.1205 11.5122 35.226 11.62 35.3133C11.7278 35.4007 11.8875 35.5314 11.9749 35.604C12.0624 35.6765 12.1507 35.7358 12.1713 35.7358C12.1919 35.7358 12.2615 35.7927 12.3259 35.8622C12.3903 35.9317 12.4633 35.9886 12.4882 35.9886C12.5278 35.9886 12.5846 36.0293 12.8308 36.2341C12.8607 36.2591 12.9347 36.2952 12.9951 36.3143C13.0555 36.3335 13.1049 36.3704 13.1049 36.3963C13.1049 36.4222 13.1504 36.4435 13.206 36.4435C13.2616 36.4435 13.3071 36.4109 13.3071 36.3712C13.3071 36.3315 13.3355 36.2686 13.3702 36.2314C13.405 36.1941 13.4898 36.056 13.5587 35.9245C13.6277 35.7929 13.6991 35.6853 13.7175 35.6853C13.7359 35.6853 13.766 35.6255 13.7843 35.5525C13.8027 35.4794 13.8881 35.3492 13.9742 35.263C14.1124 35.125 14.1709 35.1042 14.4707 35.0873C14.8017 35.0686 14.8153 35.0727 14.9933 35.2456C15.19 35.4366 15.2783 35.6151 15.2783 35.8221C15.2783 35.9533 15.0833 36.4038 15.0129 36.435C14.9921 36.4443 14.975 36.4825 14.975 36.5199C14.975 36.5573 14.9466 36.6183 14.9118 36.6554C14.8771 36.6926 14.8032 36.812 14.7476 36.9207C14.692 37.0294 14.6192 37.1457 14.5858 37.1791C14.5386 37.2264 14.6295 37.2917 14.9958 37.4735C15.2546 37.6019 15.4923 37.7071 15.524 37.7071C15.5557 37.7071 15.5816 37.7298 15.5816 37.7576C15.5816 37.7854 15.6214 37.8083 15.67 37.8084C15.7186 37.8087 15.8195 37.8406 15.8941 37.8795C15.9686 37.9184 16.0994 37.9656 16.1847 37.9843C16.27 38.003 16.3397 38.0373 16.3397 38.0605C16.3397 38.0836 16.4306 38.1179 16.5416 38.1366C16.6527 38.1554 16.7551 38.1896 16.7693 38.2125C16.7835 38.2354 16.8859 38.2696 16.9968 38.2883C17.1077 38.3071 17.2104 38.3418 17.2252 38.3656C17.2399 38.3894 17.3537 38.4241 17.4781 38.4428C17.6026 38.4614 17.7044 38.4939 17.7044 38.515C17.7044 38.536 17.8201 38.5686 17.9615 38.5874C18.103 38.6061 18.2565 38.6422 18.3027 38.6674C18.3854 38.7126 18.5968 38.7565 19.3976 38.8951C19.62 38.9335 19.8589 38.9775 19.9284 38.9929C19.9979 39.0082 20.339 39.0429 20.6865 39.0701C21.034 39.0973 21.3695 39.1342 21.4321 39.1521C21.5458 39.1846 21.5458 39.1845 21.5465 38.5343C21.5474 37.8233 21.6029 37.5765 21.8081 37.3713C21.9562 37.2231 22.255 37.1433 22.511 37.1835C22.7037 37.2138 23.0116 37.4596 23.0116 37.5833C23.0116 37.6236 23.0343 37.6565 23.0621 37.6565C23.0935 37.6565 23.1126 37.9429 23.1126 38.4147C23.1126 39.1366 23.1174 39.1728 23.2127 39.1728C23.3857 39.1728 23.7254 39.0114 23.8942 38.8489C24.0464 38.7025 24.1188 38.6435 24.5026 38.3538C24.7027 38.2028 24.7329 38.1788 24.8817 38.0541C24.9512 37.9958 25.0649 37.9111 25.1344 37.8659C25.2743 37.7748 25.307 37.7504 25.4833 37.605C25.5501 37.55 25.633 37.5049 25.6675 37.5049C25.7019 37.5049 25.7432 37.4708 25.7592 37.4291C25.7752 37.3874 25.8231 37.3532 25.8657 37.3532C25.9083 37.3532 25.9431 37.331 25.9431 37.3037C25.9431 37.2764 25.9983 37.2402 26.0658 37.2233C26.1333 37.2064 26.2009 37.1604 26.2159 37.1212C26.2309 37.082 26.278 37.05 26.3206 37.05C26.3632 37.05 26.398 37.0288 26.398 37.0028C26.398 36.9769 26.4492 36.9397 26.5117 36.9202C26.5743 36.9007 26.6368 36.8693 26.6507 36.8505C26.695 36.7907 27.2935 36.4435 27.3524 36.4435C27.3834 36.4435 27.4089 36.4232 27.4089 36.3984C27.4089 36.3736 27.4712 36.3377 27.5474 36.3186C27.6236 36.2994 27.6975 36.2672 27.7117 36.2467C27.7524 36.1882 28.7762 35.6853 28.8546 35.6853C28.8934 35.6853 28.9252 35.6625 28.9252 35.6347C28.9252 35.6069 28.9512 35.5842 28.9829 35.5842C29.0146 35.5842 29.134 35.5408 29.2482 35.4877C29.6705 35.2916 29.827 35.2304 29.9058 35.2304C29.9503 35.2304 29.9867 35.2102 29.9867 35.1855C29.9867 35.1608 30.0653 35.1258 30.1614 35.1078C30.2576 35.0897 30.3997 35.0419 30.4774 35.0014C30.5549 34.9609 30.681 34.9276 30.7575 34.9274C30.8339 34.9273 30.8965 34.9074 30.8965 34.8833C30.8965 34.8591 31.0045 34.8145 31.1365 34.7841C31.2686 34.7537 31.5245 34.6918 31.7052 34.6467C31.8859 34.6015 32.1588 34.5424 32.3117 34.5154C32.4646 34.4884 32.658 34.4455 32.7414 34.42C32.8249 34.3945 33.0978 34.3602 33.348 34.3438C34.1026 34.2942 34.2444 34.2465 34.5604 33.9355C34.7136 33.7848 34.8389 33.6505 34.8389 33.6372C34.8389 33.6238 34.8787 33.5721 34.9274 33.522C34.976 33.4721 35.1068 33.3222 35.218 33.189C35.3292 33.0558 35.494 32.8636 35.5842 32.7618C35.6744 32.6601 35.7484 32.5632 35.7485 32.5466C35.7486 32.5301 35.7885 32.4696 35.8372 32.4123C35.8858 32.3551 35.9543 32.2663 35.9893 32.2151C36.0244 32.1638 36.1665 31.9633 36.3052 31.7695C36.444 31.5757 36.5568 31.3937 36.5561 31.3651C36.5554 31.3366 36.464 31.2713 36.3529 31.2201C36.2418 31.1689 36.1226 31.1006 36.0879 31.0685C36.0533 31.0363 35.9157 30.9531 35.7822 30.8836C35.1297 30.5438 34.9495 29.989 35.3564 29.5728C35.6433 29.2794 35.9882 29.2346 36.33 29.4464C36.4412 29.5153 36.5947 29.5989 36.6711 29.6322C36.7476 29.6655 36.8101 29.7104 36.8101 29.7321C36.8101 29.7539 36.839 29.7716 36.8742 29.7716C36.9095 29.7716 37.0192 29.8266 37.1181 29.8938C37.217 29.961 37.3189 30.0008 37.3447 29.9822C37.4226 29.926 37.9221 28.8718 37.9221 28.7635C37.9221 28.7342 37.9449 28.7102 37.9727 28.7102C38.0005 28.7102 38.0234 28.6703 38.0235 28.6217C38.0237 28.5731 38.0557 28.4723 38.0946 28.3977C38.1335 28.3231 38.1806 28.1926 38.1993 28.1076C38.2179 28.0227 38.2541 27.9402 38.2798 27.9243C38.3055 27.9085 38.3266 27.8457 38.3268 27.7848C38.327 27.7239 38.3588 27.6133 38.3974 27.5392C38.4362 27.465 38.4835 27.3116 38.5026 27.1982C38.5218 27.0849 38.5561 26.9807 38.5788 26.9666C38.6016 26.9526 38.6359 26.8274 38.655 26.6884C38.6741 26.5495 38.7081 26.4245 38.7306 26.4106C38.7531 26.3967 38.7873 26.2488 38.8066 26.0819C38.826 25.915 38.8601 25.7672 38.8823 25.7534C38.9045 25.7397 38.939 25.5635 38.9589 25.3618C38.9787 25.1602 39.0095 24.9724 39.0272 24.9446C39.0449 24.9168 39.0882 24.6098 39.1236 24.2623C39.1588 23.9148 39.2014 23.4997 39.2181 23.3398L39.2484 23.0492L38.7243 23.0474C38.1933 23.0456 37.6092 22.9444 37.5773 22.8488C37.5677 22.8201 37.5277 22.7965 37.4883 22.7965C37.4489 22.7965 37.4167 22.7643 37.4167 22.7249C37.4167 22.6855 37.39 22.6444 37.3574 22.6335C37.3241 22.6224 37.2882 22.4763 37.2755 22.3002C37.256 22.0315 37.2699 21.9612 37.3727 21.809C37.4386 21.7113 37.5437 21.6182 37.6062 21.6019C37.6687 21.5858 37.7199 21.5522 37.7199 21.5274C37.7199 21.5026 38.0642 21.4823 38.485 21.4823H39.2501L39.2175 21.1412C39.1996 20.9536 39.1743 20.6635 39.1612 20.4967C39.136 20.1754 39.0855 19.8413 38.9628 19.1826C38.9214 18.9602 38.8625 18.6418 38.8321 18.475C38.8016 18.3082 38.7569 18.1353 38.7327 18.0907C38.7085 18.0461 38.6728 17.9037 38.6534 17.7742C38.634 17.6446 38.5993 17.527 38.5763 17.5128C38.5533 17.4986 38.5192 17.3852 38.5005 17.2607C38.4819 17.1363 38.4479 17.0345 38.4249 17.0345C38.402 17.0345 38.3679 16.9321 38.3491 16.807C38.3304 16.6819 38.2966 16.5796 38.2742 16.5796C38.2518 16.5796 38.2189 16.5057 38.2012 16.4153C38.1834 16.3249 38.1488 16.2055 38.1241 16.1499C38.0819 16.0549 37.9608 15.7714 37.7893 15.3665C37.7481 15.2692 37.6816 15.1292 37.6414 15.0554C37.6012 14.9816 37.5683 14.885 37.5683 14.8406C37.5683 14.7963 37.5474 14.76 37.5218 14.76C37.4962 14.76 37.4602 14.6917 37.4419 14.6083C37.4236 14.5249 37.3763 14.4567 37.3369 14.4567C37.2973 14.4567 37.265 14.4744 37.265 14.4962C37.265 14.5179 37.2025 14.563 37.126 14.5965C37.0496 14.6299 36.8733 14.7273 36.7343 14.8128C36.5953 14.8984 36.4191 14.9946 36.3426 15.0268C36.2661 15.059 36.2036 15.1032 36.2036 15.1248C36.2036 15.1466 36.0671 15.1643 35.9003 15.1643C35.7319 15.1643 35.5971 15.1419 35.5971 15.1138C35.5971 15.086 35.5641 15.0632 35.5238 15.0632C35.4223 15.0632 35.2002 14.7593 35.1619 14.568C35.0932 14.2241 35.2739 13.8672 35.5971 13.7087C35.6666 13.6746 35.8372 13.578 35.9762 13.494C36.1152 13.41 36.2857 13.3141 36.3552 13.2809C36.4247 13.2476 36.4966 13.1993 36.5148 13.1734C36.5479 13.1267 36.5154 12.9887 36.46 12.9404C36.3911 12.8802 36.2036 12.5861 36.2036 12.538C36.2036 12.5091 36.1847 12.4855 36.1615 12.4855C36.1383 12.4855 36.0303 12.3547 35.9216 12.1948C35.8129 12.035 35.6998 11.8815 35.6703 11.8537C35.6408 11.8259 35.5577 11.7235 35.4856 11.6262C35.4136 11.5289 35.3069 11.3991 35.2484 11.3377C35.19 11.2763 35.1422 11.2134 35.1422 11.1979C35.1422 11.1455 33.4284 9.45281 33.3753 9.45281C33.3463 9.45281 33.3226 9.43472 33.3226 9.41263C33.3226 9.39059 33.2032 9.28354 33.0572 9.17482C32.9113 9.0661 32.7551 8.94201 32.7102 8.89905C32.6653 8.85614 32.5772 8.78689 32.5145 8.74519C32.4517 8.70349 32.3707 8.64097 32.3344 8.6062C32.2981 8.57147 32.2433 8.54302 32.2126 8.54302C32.182 8.54302 32.1438 8.5089 32.1278 8.4672C32.1118 8.4255 32.0775 8.39138 32.0516 8.39138C32.0044 8.39138 31.7025 8.1934 31.6546 8.13108C31.6272 8.09545 31.5152 8.0726 31.4145 8.08215C31.3798 8.08544 31.3514 8.12062 31.3514 8.16034C31.3514 8.20002 31.323 8.26295 31.2882 8.3001C31.2535 8.33725 31.1795 8.45663 31.1239 8.56536C31.0683 8.67408 31.0001 8.7878 30.9723 8.81808C30.9445 8.84835 30.88 8.95495 30.829 9.05503C30.7039 9.30042 30.3591 9.47541 30.0756 9.43735C29.9631 9.42228 29.8572 9.39115 29.8404 9.3682C29.8236 9.34525 29.7658 9.30219 29.7121 9.27252C29.6583 9.24285 29.5901 9.17462 29.5604 9.12089C29.5308 9.06716 29.4878 9.00949 29.465 8.99271C29.3799 8.93023 29.4057 8.50925 29.5068 8.31107C29.5622 8.20235 29.6246 8.10581 29.6455 8.09656C29.6664 8.08726 29.6834 8.05612 29.6834 8.02731C29.6834 7.97732 30.0256 7.38257 30.0847 7.32995C30.1633 7.25985 30.1199 7.18231 29.9854 7.15279C29.9027 7.1346 29.835 7.09881 29.835 7.07324C29.835 7.04761 29.811 7.02669 29.7817 7.02669C29.7355 7.02669 29.578 6.96341 29.1527 6.77397C29.0971 6.7492 28.9379 6.68142 28.7989 6.62334C28.6599 6.56522 28.5067 6.49577 28.4584 6.46893C28.4101 6.44209 28.3419 6.42 28.3068 6.41985C28.2716 6.41965 28.1819 6.38771 28.1073 6.34879C28.0327 6.30987 27.8963 6.2619 27.804 6.24219C27.7118 6.22243 27.6136 6.18876 27.5858 6.16733C27.558 6.14585 27.4386 6.11239 27.3205 6.09288C27.2023 6.07342 27.1056 6.04163 27.1056 6.02222C27.1056 5.98972 26.9494 5.95025 26.2717 5.81135C26.1327 5.78289 25.9735 5.73887 25.9179 5.7136C25.8623 5.68833 25.6689 5.65239 25.4882 5.63379C25.3075 5.61519 25.1369 5.58547 25.1091 5.56778C25.0543 5.5329 24.1978 5.43015 23.5296 5.37839L23.1126 5.34604V6.03673C23.1126 6.6328 23.0985 6.75521 23.0093 6.9301C22.9524 7.0415 22.8671 7.14698 22.8197 7.16447C22.7723 7.18191 22.7173 7.22063 22.6975 7.25045C22.6777 7.28027 22.5175 7.30468 22.3415 7.30468C22.0427 7.30468 22.0094 7.29275 21.8343 7.12267C21.7312 7.02254 21.6469 6.90447 21.6469 6.8603C21.6469 6.81612 21.6241 6.76588 21.5963 6.74869C21.5667 6.7304 21.5458 6.43648 21.5458 6.03809V5.35873H21.2004C21.0104 5.35873 20.842 5.37167 20.8262 5.38754ZM21.9962 12.3C21.8503 12.3659 21.5458 12.6542 21.5458 12.7265C21.5458 12.7521 21.5003 12.8143 21.4447 12.8645C21.3891 12.9148 21.3436 12.9842 21.3436 13.0186C21.3436 13.053 21.3095 13.0943 21.2678 13.1103C21.2261 13.1263 21.192 13.1742 21.192 13.2168C21.192 13.2594 21.1707 13.2942 21.1448 13.2942C21.1189 13.2942 21.085 13.334 21.0695 13.3826C21.0541 13.4313 20.99 13.5279 20.9272 13.5974C20.7203 13.8262 20.5854 14.1645 20.6188 14.3707C20.6355 14.4736 20.669 14.5578 20.6931 14.5578C20.7173 14.5578 20.7371 14.5868 20.7371 14.6224C20.7371 14.7595 20.9627 14.8816 21.2551 14.9027L21.5458 14.9237V17.4077V19.8916L21.2931 20.0116C21.1541 20.0776 21.0403 20.1512 21.0403 20.1752C21.0403 20.1991 21.007 20.2187 20.9663 20.2187C20.8761 20.2187 20.2822 20.8201 20.2822 20.9116C20.2822 20.9475 20.2612 20.9769 20.2356 20.9769C20.21 20.9769 20.1741 21.0451 20.1558 21.1285C20.1375 21.2119 20.1018 21.2802 20.0766 21.2802C20.0513 21.2802 20.016 21.3717 19.9981 21.4835C19.9803 21.5953 19.9458 21.699 19.9217 21.7139C19.8602 21.7519 19.8663 22.7329 19.9284 22.7712C19.9562 22.7884 19.9789 22.8534 19.9789 22.9156C19.9789 22.9779 20.0585 23.1842 20.1558 23.3742C20.2531 23.5642 20.3327 23.7247 20.3327 23.7309C20.3327 23.737 20.2815 23.8004 20.219 23.8716C20.0946 24.0134 19.9791 24.1504 19.7597 24.4167C19.5074 24.723 19.2524 25.0184 19.0074 25.2883C18.8761 25.4329 18.7681 25.5674 18.7673 25.5874C18.7665 25.6073 18.6919 25.6997 18.6016 25.7926C18.4315 25.9676 18.3733 26.0359 18.0328 26.46C17.9217 26.5985 17.773 26.7691 17.7024 26.8391C17.6318 26.9091 17.5428 27.0287 17.5046 27.1048C17.4433 27.227 17.4464 27.2643 17.5309 27.421C17.5836 27.5188 17.6688 27.6122 17.7204 27.6286C17.8303 27.6635 18.1593 27.6101 18.1593 27.5575C18.1593 27.5376 18.2109 27.4647 18.2738 27.3955C18.3369 27.3263 18.479 27.1573 18.5897 27.0199C18.7005 26.8826 18.8593 26.6978 18.9427 26.6092C19.1003 26.4418 19.1965 26.3288 19.513 25.9396C19.6164 25.8125 19.7578 25.647 19.8273 25.5718C19.8968 25.4966 19.9889 25.3883 20.0319 25.331C20.075 25.2739 20.1831 25.1471 20.272 25.0493C20.361 24.9515 20.4338 24.8582 20.4338 24.842C20.4338 24.8258 20.499 24.7513 20.5787 24.6764C20.6584 24.6015 20.7618 24.4801 20.8085 24.4066C20.8675 24.3137 20.9234 24.2808 20.9921 24.2988C21.0464 24.313 21.0909 24.3403 21.0909 24.3595C21.0909 24.4064 21.4165 24.5464 21.6974 24.6203C22.4875 24.8281 23.265 24.654 23.9158 24.1234C24.2007 23.8912 24.3725 23.7018 24.3746 23.6178C24.3755 23.5831 24.3972 23.5547 24.4228 23.5547C24.4484 23.5547 24.4843 23.4864 24.5026 23.403C24.5209 23.3196 24.5542 23.2514 24.5766 23.2514C24.5989 23.2514 24.6291 23.2059 24.6436 23.1503C24.6694 23.0516 24.7126 23.0492 26.4438 23.0492H28.2176V23.2261C28.2176 23.3234 28.2379 23.403 28.2627 23.403C28.2875 23.403 28.321 23.4542 28.3372 23.5168C28.3534 23.5793 28.4467 23.6845 28.5445 23.7505C28.6924 23.8502 28.7684 23.8667 28.9954 23.8479C29.1456 23.8354 29.3042 23.7928 29.3478 23.7531C29.515 23.6012 29.5795 23.5547 29.6229 23.5547C29.6476 23.5547 29.7089 23.5092 29.7592 23.4536C29.8095 23.398 29.8813 23.3525 29.9187 23.3525C29.9561 23.3525 29.9868 23.3355 29.987 23.3146C29.9872 23.2937 30.0725 23.2198 30.1766 23.1503C30.4399 22.9744 30.4735 22.9476 30.6979 22.7333C30.8866 22.5532 30.8965 22.5284 30.8965 22.2355C30.8965 21.9532 30.8825 21.9137 30.7309 21.7679C30.6399 21.6804 30.5126 21.5746 30.4482 21.5329C30.3837 21.4912 30.2842 21.4172 30.227 21.3686C30.1697 21.32 30.0922 21.2802 30.0548 21.2802C30.0173 21.2802 29.9867 21.2612 29.9867 21.238C29.9867 21.2149 29.8559 21.1071 29.696 20.9986C29.5362 20.8901 29.3938 20.7857 29.3796 20.7667C29.3654 20.7476 29.2562 20.6984 29.137 20.6573C28.9427 20.5904 28.8982 20.5912 28.7079 20.6647C28.5911 20.7099 28.4715 20.7701 28.4421 20.7987C28.3417 20.8959 28.2176 21.1943 28.2176 21.3385V21.4823H26.4583H24.699L24.6048 21.2675C24.3745 20.7422 23.8681 20.2344 23.3288 19.9878L23.1153 19.8902L23.114 17.4009L23.1126 14.9116H23.2691C23.4924 14.9116 23.6928 14.7756 23.7883 14.5591C23.8765 14.3594 23.9004 14.0018 23.8257 14.0018C23.801 14.0018 23.7664 13.9449 23.7489 13.8754C23.7315 13.8059 23.6949 13.7491 23.6677 13.7491C23.6404 13.7491 23.6181 13.7142 23.6181 13.6717C23.6181 13.6291 23.584 13.5812 23.5423 13.5652C23.5006 13.5492 23.4665 13.5079 23.4665 13.4735C23.4665 13.4391 23.421 13.3697 23.3654 13.3194C23.3098 13.2692 23.2643 13.1974 23.2643 13.16C23.2643 13.1226 23.2461 13.092 23.2239 13.092C23.2017 13.092 23.1278 13.0016 23.0596 12.8912C22.9915 12.7807 22.9187 12.6898 22.8978 12.689C22.877 12.6883 22.8599 12.6586 22.8599 12.623C22.8599 12.5422 22.7259 12.4258 22.5073 12.3168C22.3143 12.2205 22.182 12.2161 21.9962 12.3ZM30.584 36.6159C30.5094 36.6548 30.3786 36.702 30.2933 36.7207C30.2081 36.7394 30.1383 36.7747 30.1383 36.799C30.1383 36.8233 30.0587 36.8582 29.9614 36.8764C29.8641 36.8947 29.7845 36.9298 29.7845 36.9545C29.7845 36.9792 29.7561 36.9995 29.7213 36.9995C29.6383 36.9996 27.7802 37.9373 27.7122 38.0134C27.6602 38.0717 27.0652 38.4147 27.016 38.4147C26.9878 38.4147 26.9517 38.4488 26.9357 38.4905C26.9197 38.5322 26.8718 38.5663 26.8292 38.5663C26.7867 38.5663 26.7518 38.5886 26.7518 38.6159C26.7518 38.6431 26.6966 38.6793 26.6291 38.6963C26.5616 38.7132 26.4941 38.7591 26.4791 38.7983C26.464 38.8375 26.4169 38.8696 26.3743 38.8696C26.3318 38.8696 26.2969 38.8908 26.2969 38.9167C26.2969 38.9427 26.2571 38.977 26.2085 38.993C26.1599 39.0091 26.0404 39.09 25.9431 39.1728C25.7201 39.3627 25.694 39.3825 25.5332 39.4857C25.4607 39.5322 25.3697 39.6005 25.331 39.6375C25.2924 39.6745 25.1039 39.8286 24.9121 39.9799C24.7204 40.1311 24.4674 40.3469 24.35 40.4594C24.2327 40.5719 23.9898 40.7974 23.8105 40.9607L23.4844 41.2574L23.8068 41.5799C23.9841 41.7572 24.1393 41.9022 24.1516 41.9022C24.164 41.9022 24.215 41.9421 24.265 41.9907C24.315 42.0393 24.4658 42.1701 24.6002 42.2813C24.7345 42.3925 24.9218 42.5574 25.0164 42.6478C25.111 42.7381 25.1988 42.812 25.2115 42.812C25.2382 42.812 25.7031 43.1619 25.7409 43.2106C25.7548 43.2284 25.897 43.3318 26.0569 43.4403C26.2167 43.5488 26.3475 43.6565 26.3475 43.6797C26.3475 43.7029 26.3781 43.7218 26.4156 43.7218C26.4753 43.7218 26.5304 43.7589 26.781 43.9674C26.8109 43.9923 26.8849 44.0284 26.9453 44.0476C27.0057 44.0667 27.0551 44.1036 27.0551 44.1296C27.0551 44.1555 27.0899 44.1767 27.1325 44.1767C27.1751 44.1767 27.223 44.2108 27.239 44.2525C27.255 44.2942 27.2911 44.3284 27.3192 44.3284C27.3768 44.3284 27.976 44.6809 28.0159 44.7383C28.0301 44.7586 28.104 44.7909 28.1802 44.81C28.2564 44.8291 28.319 44.8594 28.3192 44.8772C28.3195 44.895 28.4446 44.9651 28.5972 45.033C28.7498 45.1009 28.8747 45.1748 28.8747 45.1973C28.8747 45.2198 28.9007 45.2382 28.9326 45.2382C28.9644 45.2382 29.156 45.3178 29.3583 45.4151C29.5605 45.5124 29.7506 45.592 29.7805 45.592C29.8105 45.592 29.835 45.6147 29.835 45.6425C29.835 45.6703 29.8749 45.6938 29.9235 45.6948C29.9721 45.6957 30.1029 45.7404 30.2141 45.7941C30.3253 45.8479 30.4561 45.8926 30.5047 45.8935C30.5534 45.8945 30.5932 45.918 30.5932 45.9458C30.5932 45.9736 30.6281 45.9963 30.6708 45.9963C30.7145 45.9963 30.582 45.8252 30.3677 45.6046C30.1583 45.3891 29.9869 45.1845 29.9868 45.1497C29.9867 45.115 29.9676 45.0865 29.9444 45.0865C29.8915 45.0865 29.3801 44.3148 29.3801 44.2351C29.3801 44.203 29.3574 44.1767 29.3296 44.1767C29.3018 44.1767 29.279 44.1508 29.279 44.1191C29.279 44.07 29.1676 43.8045 29.0267 43.518C29.0058 43.4754 28.9717 43.3616 28.9511 43.2653C28.9304 43.1689 28.8945 43.0662 28.8712 43.0371C28.8296 42.9851 28.76 42.6562 28.6739 42.1044C28.6181 41.7467 28.618 40.7948 28.6738 40.4364C28.7489 39.9537 28.835 39.5537 28.8749 39.5014C28.8962 39.4736 28.9297 39.3754 28.9494 39.2832C28.9692 39.1909 29.0171 39.0545 29.056 38.9799C29.095 38.9053 29.1269 38.8159 29.1271 38.7811C29.1273 38.7464 29.1483 38.7179 29.174 38.7179C29.1995 38.7179 29.2355 38.6497 29.2538 38.5663C29.2721 38.4829 29.3062 38.4147 29.3296 38.4147C29.353 38.4147 29.3871 38.3464 29.4054 38.263C29.4237 38.1796 29.4596 38.1114 29.4852 38.1114C29.5108 38.1114 29.5318 38.0878 29.5318 38.0588C29.5318 38.0138 29.7084 37.7326 29.7845 37.6565C29.7984 37.6426 29.8998 37.5175 30.0099 37.3785C30.12 37.2395 30.3408 36.995 30.5006 36.8352C30.8007 36.5349 30.8159 36.4949 30.584 36.6159ZM34.4598 37.5504C34.4042 37.5739 34.2373 37.6099 34.0888 37.6302C33.9403 37.6506 33.7584 37.6988 33.6844 37.7374C33.6105 37.7759 33.5221 37.8076 33.488 37.8078C33.4073 37.8082 32.8761 38.0958 32.7818 38.1902C32.7416 38.2302 32.689 38.263 32.6647 38.263C32.5542 38.263 31.7557 39.1492 31.7557 39.2719C31.7557 39.3008 31.733 39.3245 31.7052 39.3245C31.6774 39.3245 31.6546 39.357 31.6546 39.3967C31.6546 39.4364 31.6233 39.5002 31.585 39.5385C31.5467 39.5768 31.4994 39.6808 31.4798 39.7696C31.4604 39.8584 31.4255 39.931 31.4023 39.931C31.3792 39.931 31.3443 40.0277 31.3248 40.1458C31.3053 40.2639 31.2646 40.3913 31.2343 40.4288C31.2005 40.4705 31.1782 40.7743 31.1768 41.2122C31.1749 41.7805 31.1942 41.9898 31.2707 42.2308C31.4423 42.7712 31.6432 43.2182 31.7431 43.2821C31.7779 43.3043 31.8063 43.3443 31.8063 43.3709C31.8063 43.4666 32.4206 44.1155 32.6649 44.2778C32.7276 44.3195 32.8046 44.3764 32.836 44.4042C32.9168 44.4759 33.3477 44.6822 33.4166 44.6822C33.4483 44.6822 33.4742 44.7024 33.4742 44.7271C33.4742 44.7518 33.5595 44.788 33.6638 44.8074C33.768 44.8269 33.8852 44.8692 33.9243 44.9015C34.0251 44.9849 35.7564 44.9828 35.8572 44.8992C35.8976 44.8656 36.0261 44.8229 36.143 44.8043C36.2597 44.7856 36.3552 44.7523 36.3552 44.7303C36.3552 44.7082 36.4235 44.6752 36.5069 44.6569C36.5903 44.6386 36.6585 44.6027 36.6585 44.5771C36.6585 44.5515 36.687 44.5305 36.7218 44.5305C36.8784 44.5305 37.6883 43.8222 37.9474 43.4587C38.1582 43.163 38.4194 42.6036 38.5325 42.2055C38.6104 41.9316 38.6544 40.6547 38.5889 40.5714C38.5633 40.5388 38.5282 40.4186 38.5108 40.3041C38.4933 40.1897 38.4448 40.0305 38.4031 39.9503C38.3613 39.8702 38.327 39.7648 38.3268 39.7162C38.3266 39.6676 38.3087 39.6277 38.287 39.6277C38.2653 39.6277 38.2206 39.5652 38.1878 39.4887C38.1262 39.3456 38.0359 39.1967 37.9474 39.0922C37.7859 38.9015 37.7199 38.8153 37.7199 38.7949C37.7199 38.7627 37.3687 38.4147 37.3362 38.4147C37.3216 38.4147 37.2257 38.3476 37.1231 38.2655C36.8944 38.0827 36.267 37.7576 36.1429 37.7576C36.0929 37.7576 36.052 37.7389 36.052 37.7161C36.052 37.6074 34.6658 37.4632 34.4598 37.5504ZM34.5609 39.2165C34.1573 39.3135 33.9291 39.3911 33.9291 39.4316C33.9291 39.456 33.898 39.4761 33.86 39.4761C33.8221 39.4761 33.6555 39.6069 33.4899 39.7667C33.1259 40.1181 32.893 40.573 32.8458 41.0247C32.8123 41.3453 32.8905 42.0055 32.9676 42.0531C32.9916 42.068 33.027 42.1425 33.0461 42.2186C33.0652 42.2948 33.1011 42.3571 33.1259 42.3571C33.1507 42.3571 33.171 42.3864 33.171 42.4222C33.171 42.5043 33.6334 42.9637 33.716 42.9637C33.7498 42.9637 33.7775 42.982 33.7775 43.0045C33.7775 43.049 34.0268 43.1657 34.384 43.2884C34.6277 43.3721 35.2701 43.3968 35.315 43.3241C35.3299 43.3 35.4336 43.2656 35.5454 43.2477C35.6572 43.2298 35.7487 43.1952 35.7487 43.1707C35.7487 43.1463 35.806 43.1119 35.8761 43.0943C35.9461 43.0767 36.0622 43.0117 36.134 42.9498C36.4124 42.7099 36.5069 42.6129 36.5069 42.5671C36.5069 42.541 36.541 42.5065 36.5827 42.4905C36.6244 42.4745 36.6585 42.4266 36.6585 42.384C36.6585 42.3414 36.6813 42.3066 36.7091 42.3066C36.7369 42.3066 36.7598 42.2782 36.7599 42.2434C36.7601 42.2087 36.7996 42.112 36.8478 42.0286C36.9728 41.8121 36.9715 40.7344 36.846 40.5123C36.7988 40.4289 36.7601 40.3322 36.7599 40.2975C36.7598 40.2627 36.7369 40.2343 36.7091 40.2343C36.6813 40.2343 36.6582 40.2059 36.6579 40.1711C36.6576 40.1364 36.5666 40.0103 36.4557 39.8909C36.3448 39.7715 36.2542 39.6871 36.2542 39.7033C36.2542 39.7195 36.203 39.6843 36.1404 39.6251C36.0779 39.5659 35.9244 39.4722 35.7993 39.4169C35.6742 39.3615 35.5327 39.2956 35.4848 39.2703C35.3662 39.2077 34.7476 39.1717 34.5609 39.2165ZM34.302 40.183C34.0259 40.2242 33.9185 40.3419 33.8904 40.6342C33.8706 40.8398 33.886 40.8942 33.9979 41.0149C34.1066 41.1321 34.17 41.1557 34.3767 41.1557C34.7239 41.1557 34.8642 41.0132 34.8642 40.6603C34.8642 40.2898 34.6731 40.1275 34.302 40.183Z" fill="#585858"/>
</svg>
