<svg width="49" height="45" viewBox="0 0 49 45" fill="none" xmlns="http://www.w3.org/2000/svg">
<path fill-rule="evenodd" clip-rule="evenodd" d="M21.9728 0.368347C15.4508 1.20524 9.61759 4.85644 6.05916 10.3293C5.24112 11.5875 4.23885 13.614 3.76644 14.9652L3.3836 16.06L2.52437 14.3438C1.81775 12.9325 1.62064 12.6164 1.41456 12.5647C1.07761 12.4801 0.666748 12.7548 0.666748 13.0647C0.666748 13.195 1.23143 14.406 1.92159 15.7557C2.91 17.6887 3.2247 18.2219 3.40395 18.2668C3.68235 18.3367 8.5855 15.9194 8.68345 15.6639C8.84534 15.2422 8.59557 14.818 8.1853 14.818C8.07748 14.818 7.24447 15.1996 6.33427 15.6659C5.42416 16.1322 4.63096 16.5138 4.57171 16.5138C4.39296 16.5138 5.11554 14.5679 5.84959 13.0724C6.98333 10.7629 8.23677 9.0387 10.0557 7.28701C16.4595 1.12005 25.9559 -0.368297 33.8755 3.55382C39.4488 6.31407 43.4317 11.1294 44.9974 17.0005C45.1347 17.5151 45.3229 18.0201 45.4158 18.1227C45.7576 18.5005 46.3516 18.2291 46.3516 17.6953C46.3516 17.3249 45.8052 15.4479 45.3908 14.3944C42.4434 6.90258 35.8112 1.61531 27.9054 0.45463C26.4436 0.239971 23.3263 0.194685 21.9728 0.368347ZM22.0689 8.35931C22.0428 8.4827 21.9555 9.09157 21.8749 9.7121C21.7944 10.3327 21.6616 10.9426 21.5799 11.0674C21.4923 11.2011 21.1509 11.3984 20.7495 11.5474C20.3746 11.6866 19.8382 11.9023 19.5575 12.0267C19.2434 12.1659 18.9551 12.2298 18.8076 12.1928C18.676 12.1597 18.0752 11.751 17.4727 11.2844L16.3772 10.4362L14.5418 12.2684L12.7063 14.1006L13.5214 15.1564C13.9695 15.737 14.3802 16.3274 14.4338 16.4684C14.5278 16.7158 14.3173 17.3374 13.5814 18.9848C13.3964 19.3992 13.2669 19.4446 11.664 19.6565L10.3424 19.8314V22.4073V24.9833L10.6666 25.0373C10.8448 25.0669 11.4788 25.1561 12.0754 25.2355C13.2857 25.3966 13.54 25.5405 13.742 26.1791C13.8044 26.3768 14.0093 26.8841 14.1971 27.3067C14.519 28.0309 14.5305 28.0936 14.3973 28.4039C14.3194 28.5848 13.9092 29.177 13.4855 29.7196L12.7152 30.7061L14.5508 32.5417L16.3862 34.3772L17.479 33.5391C18.0799 33.0781 18.6709 32.6698 18.7923 32.6317C18.9421 32.5845 19.2622 32.6714 19.7898 32.9023C20.217 33.0894 20.7283 33.2952 20.926 33.3596C21.5859 33.5749 21.7156 33.817 21.8763 35.1331C21.9555 35.7825 22.042 36.4148 22.0684 36.5383L22.1165 36.7627H24.6969H27.2772L27.3992 35.7403C27.6311 33.7964 27.7206 33.5607 28.2796 33.4234C28.4264 33.3872 28.9544 33.1796 29.4529 32.9618C30.5533 32.481 30.5046 32.4689 31.9483 33.5835L33.0038 34.3982L34.79 32.614C35.7725 31.6327 36.5763 30.7814 36.5763 30.7224C36.5763 30.6633 36.2154 30.1472 35.7743 29.5757C34.9123 28.4586 34.7902 28.1919 34.9579 27.7927C35.0173 27.6515 35.2408 27.1128 35.4547 26.5955C35.6695 26.076 35.9372 25.5927 36.0528 25.516C36.168 25.4395 36.7705 25.311 37.3918 25.2303C38.013 25.1497 38.6223 25.0623 38.7458 25.0362L38.9702 24.9886V22.4085V19.8284L38.1972 19.7182C37.7721 19.6575 37.1606 19.5782 36.8385 19.5419C36.062 19.4544 35.8822 19.2723 35.3747 18.0599C34.7417 16.5473 34.7336 16.6262 35.6451 15.4313C36.0749 14.8678 36.4712 14.3424 36.5257 14.2636C36.6027 14.1523 36.2256 13.7208 34.831 12.3246C33.8444 11.3369 33.0004 10.5288 32.9552 10.5288C32.91 10.5288 32.3772 10.9104 31.7712 11.3767C31.0855 11.9043 30.5778 12.2246 30.4275 12.2246C30.2945 12.2246 29.974 12.1181 29.7153 11.988C29.4565 11.8579 28.9622 11.6491 28.6167 11.524C27.7689 11.2172 27.6492 11.0378 27.5052 9.85814C27.4398 9.32179 27.361 8.71472 27.3302 8.50893L27.2741 8.13488H24.6953H22.1165L22.0689 8.35931ZM22.9107 13.9696C19.6896 14.6908 17.1539 17.1248 16.3115 20.3042C16.0061 21.4572 16.005 23.3843 16.3091 24.5134C16.7623 26.1957 17.6025 27.5886 18.8666 28.7534C22.7607 32.3415 28.8648 31.6053 31.8566 27.1869C33.396 24.9134 33.7159 21.8929 32.697 19.251C32.2651 18.131 31.5355 17.0724 30.5624 16.1541C29.5847 15.2313 28.6138 14.6524 27.2996 14.2085C26.444 13.9195 26.2166 13.8853 24.9555 13.8564C23.9902 13.8342 23.3589 13.8692 22.9107 13.9696ZM26.7195 19.7185C26.4273 19.8265 26.3393 20.2436 26.5428 20.5543C26.6722 20.7518 26.7891 20.803 27.1107 20.803C27.3336 20.803 27.5008 20.8421 27.4825 20.8897C27.4642 20.9375 26.9331 21.4517 26.3022 22.0325L25.155 23.0884L24.4047 22.3447C23.8051 21.7504 23.5947 21.6014 23.3574 21.6032C23.1241 21.605 22.7125 21.8948 21.4394 22.9534C20.0492 24.1094 19.8185 24.3411 19.8185 24.5815C19.8185 24.9004 20.0879 25.1919 20.3827 25.1919C20.4924 25.1919 21.1791 24.6981 21.9087 24.0947C22.6384 23.4912 23.2567 22.9974 23.2829 22.9974C23.309 22.9974 23.7012 23.3341 24.1544 23.7455C24.6076 24.157 25.0669 24.4937 25.1749 24.4937C25.2888 24.4937 25.986 23.9251 26.8342 23.1405L28.2971 21.7872V22.1774C28.2971 22.6317 28.5294 22.8977 28.9261 22.8977C29.3627 22.8977 29.473 22.5898 29.5105 21.2646C29.5435 20.0984 29.5402 20.0777 29.2946 19.9013C29.1035 19.7642 28.7982 19.7127 27.9883 19.6812C27.407 19.6585 26.836 19.6753 26.7195 19.7185ZM3.19717 26.724L2.92356 26.9593L3.20396 28.0457C3.71736 30.0351 4.576 32.0648 5.67772 33.8939C9.14748 39.6541 15.0872 43.5186 21.9132 44.4571C23.2891 44.6463 26.3927 44.6188 27.7948 44.4051C34.2321 43.4238 39.7091 39.9396 43.2582 34.5683C44.0098 33.4307 45.1946 31.0521 45.5934 29.8801C45.752 29.4138 45.9154 28.9944 45.9563 28.9482C45.9973 28.902 46.3923 29.579 46.8342 30.4527C47.2761 31.3264 47.7047 32.0969 47.7866 32.1648C48.0339 32.3701 48.4786 32.258 48.6237 31.9538C48.7453 31.6989 48.6796 31.539 47.4774 29.1666C46.5179 27.2733 46.1462 26.6305 45.9764 26.5719C45.7978 26.5104 45.2257 26.7593 43.2384 27.7632C40.6061 29.0928 40.4601 29.2038 40.7018 29.6911C40.9339 30.1594 41.3157 30.0717 43.1247 29.1347C44.0359 28.6627 44.8026 28.2979 44.8287 28.3238C44.8987 28.3938 44.4882 29.5864 43.9841 30.7778C42.1116 35.2027 38.6078 38.9488 34.2925 41.1398C29.984 43.3274 25.0864 43.9789 20.3955 42.9885C13.0399 41.4355 6.9976 36.0214 4.70906 28.9331C4.46099 28.1647 4.21331 27.3526 4.15865 27.1283C4.08903 26.8426 3.98309 26.6859 3.80464 26.6046C3.47976 26.4566 3.51647 26.4493 3.19717 26.724Z" fill="#585858"/>
</svg>
