<svg width="45" height="49" viewBox="0 0 45 49" fill="none" xmlns="http://www.w3.org/2000/svg">
<path fill-rule="evenodd" clip-rule="evenodd" d="M16.1163 0.399815C13.859 0.875434 12.0774 1.87222 10.5321 3.52419C9.28853 4.85361 8.40312 6.51715 8.00035 8.28152C7.71303 9.54013 7.73648 11.6811 8.05167 12.9605C9.02897 16.9269 12.281 20 16.2108 20.6708L17.0794 20.819L15.9659 20.9608C13.1114 21.324 10.5338 22.2512 8.24224 23.7392C3.60999 26.7473 0.591096 31.7049 0.0414942 37.2065C-0.118254 38.806 0.155243 39.5333 1.35449 40.6988C2.16852 41.4897 2.89407 41.9837 4.11949 42.5811C6.79045 43.8835 10.5606 44.767 14.9267 45.1134C16.5565 45.2428 21.8329 45.2019 21.976 45.0588C22.0109 45.024 21.9022 44.8157 21.7345 44.5959C20.824 43.4022 20.8904 42.3963 21.9545 41.2586C22.2443 40.9489 22.4483 40.6419 22.4078 40.5765C22.3674 40.5111 22.0916 40.4575 21.795 40.4575C20.4783 40.4575 19.469 39.7987 19.158 38.7362C18.9638 38.0723 18.9673 34.9016 19.163 34.2262C19.4613 33.1972 20.5112 32.5267 21.8247 32.5267C22.105 32.5267 22.3688 32.4709 22.411 32.4026C22.4532 32.3344 22.2546 32.0412 21.9697 31.7511C21.1086 30.8745 20.8926 29.9923 21.3134 29.0712C21.7608 28.0921 23.9174 25.9295 24.8257 25.549C25.3156 25.3439 26.1003 25.3444 26.5931 25.5504C26.8054 25.6391 27.2108 25.9253 27.494 26.1863C28.1917 26.8294 28.3512 26.7507 28.3563 25.7608C28.3587 25.3096 28.4273 24.8756 28.5223 24.7093C28.6114 24.5535 28.686 24.3867 28.6883 24.3388C28.6945 24.2024 27.2719 23.3195 26.0983 22.7314C24.2227 21.7914 22.2816 21.2331 19.7418 20.903L19.1187 20.822L19.9118 20.6824C21.346 20.43 23.0181 19.7198 24.1604 18.8781C24.8262 18.3875 25.9709 17.2127 26.4818 16.4953C28.3444 13.8805 28.8683 10.4571 27.8774 7.37492C26.8221 4.09204 24.2796 1.62818 20.9084 0.621422C19.6811 0.255021 17.3218 0.145917 16.1163 0.399815ZM30.5106 24.8177C29.9266 24.9653 29.8252 25.1852 29.8252 26.3045C29.8252 27.5017 29.7398 27.6295 28.6566 28.0538C27.7095 28.4247 27.5029 28.365 26.6538 27.4754C25.9765 26.7657 25.6687 26.7024 25.0604 27.1474C24.4967 27.5599 23.1969 28.8647 22.8475 29.3688C22.4451 29.9496 22.5321 30.2318 23.3888 31.124C24.1827 31.9509 24.1976 32.0805 23.6337 33.2645L23.3107 33.943L22.1464 34.0066C21.3182 34.0519 20.932 34.1205 20.8083 34.2441C20.3936 34.6588 20.3226 37.7923 20.7109 38.5431C20.8042 38.7236 20.892 38.8776 20.9061 38.8853C20.92 38.8929 21.4668 38.9311 22.1211 38.9703L23.3107 39.0413L23.631 39.7023C23.807 40.0658 23.98 40.5415 24.0154 40.7591C24.0747 41.125 24.0275 41.2079 23.3907 41.8542C22.6003 42.6564 22.4537 43.0308 22.7505 43.489C23.0427 43.9399 24.4831 45.4191 24.9988 45.7978C25.6623 46.285 25.9632 46.2325 26.6538 45.5088C27.5094 44.6123 27.7229 44.5516 28.6628 44.9375C29.7565 45.3865 29.8252 45.4908 29.8252 46.7014C29.8252 47.9318 29.9468 48.1039 30.8996 48.223C31.6127 48.3121 33.9722 48.2355 34.2568 48.114C34.5624 47.9836 34.697 47.5154 34.697 46.5828C34.697 45.9006 34.7431 45.6403 34.8952 45.4618C35.0882 45.2357 36.3931 44.6495 36.7037 44.6495C36.7889 44.6495 37.2115 44.9809 37.6427 45.3859C38.6362 46.3189 38.8453 46.3376 39.7611 45.5749C40.6162 44.8628 41.6052 43.7757 41.7832 43.3526C41.9679 42.9132 41.9 42.7672 41.1266 41.9395C40.3814 41.1422 40.3389 40.9383 40.7212 39.9911C41.109 39.0302 41.1389 39.0113 42.3495 38.967C43.7519 38.9157 43.8619 38.8157 43.9985 37.4675C44.0552 36.9082 44.0547 36.071 43.9974 35.505C43.9098 34.6413 43.8596 34.4853 43.5961 34.2587C43.3315 34.0311 43.1733 33.9996 42.2954 33.9996C41.1351 33.9996 41.1323 33.9978 40.6865 32.8802C40.3223 31.9669 40.366 31.8043 41.2091 30.9406C42.1161 30.0116 42.0981 29.7961 41.0157 28.6214C39.9295 27.4426 39.1854 26.8619 38.761 26.8619C38.5057 26.8619 38.2418 27.0356 37.6427 27.5983C37.2115 28.0034 36.7889 28.3348 36.7037 28.3348C36.3931 28.3348 35.0882 27.7486 34.8952 27.5224C34.7408 27.3415 34.697 27.0809 34.697 26.3459C34.697 25.5173 34.6642 25.3637 34.4298 25.0911C34.1644 24.7825 34.1526 24.7803 32.5321 24.7497C31.6353 24.7327 30.7256 24.7633 30.5106 24.8177ZM31.3826 32.6428C30.6275 32.8331 29.8699 33.2934 29.3376 33.8855C27.5772 35.8436 28.2368 38.9701 30.642 40.0679C31.2434 40.3424 31.4988 40.3928 32.2768 40.3904C33.0842 40.3881 33.2915 40.3422 33.9434 40.0212C36.9395 38.5463 36.8797 34.297 33.8436 32.9071C33.17 32.5986 32.0396 32.4772 31.3826 32.6428Z" fill="#585858"/>
</svg>
