<svg width="49" height="49" viewBox="0 0 49 49" fill="none" xmlns="http://www.w3.org/2000/svg">
<g clip-path="url(#clip0_79_775)">
<path fill-rule="evenodd" clip-rule="evenodd" d="M22.8433 0.843048C21.9226 1.76344 21.6885 3.40427 22.3122 4.56944C22.8921 5.65277 24.6318 6.18039 25.897 5.65633C27.2009 5.11626 27.6623 4.33996 27.6623 2.68703C27.6623 0.256019 24.6016 -0.915548 22.8433 0.843048ZM21.2609 7.34057C20.7681 7.96709 20.5468 8.78502 20.5468 9.97935V11.7102H24.8161H29.0854V9.97935C29.0854 8.78502 28.8641 7.96709 28.3714 7.34057C27.6684 6.44722 27.6349 6.44153 26.2367 6.99084C24.9463 7.49782 24.6859 7.49782 23.3955 6.99084C21.9973 6.44153 21.9639 6.44722 21.2609 7.34057ZM19.915 14.1707C17.2918 15.142 15.9292 16.051 13.9913 18.123C7.04728 25.5467 9.38828 37.3018 18.6886 41.7074C20.9069 42.7583 21.3526 42.8405 24.8346 42.8405C28.4582 42.8405 28.6827 42.7939 31.2994 41.5007C35.8106 39.2714 38.6419 35.4397 39.5061 30.3944C40.546 24.3224 37.0196 17.6531 31.2724 14.8239C29.1957 13.8014 28.5681 13.6691 25.3704 13.5777C22.5153 13.4962 21.4124 13.6161 19.915 14.1707ZM9.92514 16.4242C7.36 19.8596 5.96003 23.5568 5.96003 26.8954C5.96003 28.3398 6.08633 28.7874 6.49369 28.7874C6.87401 28.7874 7.02735 28.4003 7.02735 27.439C7.02735 24.3445 8.84999 19.6572 11.1607 16.8092C12.4643 15.2025 12.6596 14.5564 11.8417 14.5564C11.5546 14.5564 10.6922 15.3967 9.92514 16.4242ZM37.2682 14.9413C37.2682 15.153 37.8097 15.9934 38.4715 16.8092C40.7822 19.6572 42.6049 24.3445 42.6049 27.439C42.6049 28.4003 42.7582 28.7874 43.1385 28.7874C44.3588 28.7874 43.537 23.1573 41.814 19.7151C40.1874 16.4651 37.2682 13.3998 37.2682 14.9413ZM20.4974 16.0151C20.2309 16.1823 19.7307 16.231 19.3852 16.1236C18.2795 15.7796 15.0501 18.3315 13.3427 20.8988C12.6105 22.0003 13.0777 23.6931 14.7014 25.8202C16.1324 27.6945 16.1473 27.8044 15.1899 29.3538C14.3926 30.6442 14.5513 31.3454 16.0025 32.9404C16.5628 33.5562 16.6714 34.0618 16.5372 35.4308C16.4447 36.3754 16.2508 37.5039 16.1064 37.9387C15.8965 38.5709 16.0228 38.8103 16.7372 39.1358C17.5163 39.4909 17.839 39.3998 19.2582 38.4232C22.0176 36.5248 23.5755 32.8187 22.1218 31.6119C21.8141 31.3565 21.2537 30.5428 20.8766 29.8039C20.3504 28.7725 19.858 28.3605 18.7573 28.0307C17.6711 27.7051 17.1328 27.2622 16.5376 26.2027C16.1053 25.4335 15.3094 24.5754 14.7694 24.2961C13.5818 23.682 13.516 22.9694 14.578 22.2258C15.6478 21.4762 16.3938 21.5292 17.1926 22.4119C18.0386 23.3465 19.15 23.158 21.4708 21.6865C22.8234 20.8284 23.1867 20.395 23.1991 19.6241C23.2158 18.6051 23.873 18.4052 25.2647 18.9951C25.7443 19.1982 25.8407 19.1285 25.6753 18.6973C25.3882 17.9487 23.3162 17.584 22.3353 18.1088C21.908 18.3376 21.3309 18.4372 21.0527 18.3305C20.2433 18.0199 20.4678 17.0593 21.4363 16.6911C21.9254 16.505 22.3257 16.2876 22.3257 16.2076C22.3257 15.8788 20.946 15.7333 20.4974 16.0151ZM24.5575 16.6911C25.5013 17.4336 26.2392 17.6146 26.2392 17.1041C26.2392 16.7811 24.6713 15.9795 24.0398 15.9795C23.8271 15.9795 24.0597 16.2997 24.5575 16.6911ZM33.9033 20.2246C33.7905 20.4071 34.1399 20.6071 34.6796 20.6693C35.2972 20.7405 35.7075 21.0269 35.7864 21.4421C35.8964 22.022 35.7466 22.0736 34.5441 21.8708C33.581 21.7082 32.9666 21.7993 32.4653 22.1785C32.0739 22.4745 31.4737 22.7218 31.1311 22.7278C30.7885 22.7342 30.5085 22.9922 30.5085 23.301C30.5085 23.7322 30.7419 23.8119 31.5104 23.6429C32.2354 23.4839 32.7808 23.6344 33.4856 24.189C34.0214 24.6102 34.5608 24.854 34.6842 24.7301C34.9835 24.4309 37.2682 26.6645 37.2682 27.2561C37.2682 28.2086 35.5032 27.6945 33.8443 26.2589C32.3272 24.9457 32.0127 24.817 30.7419 24.9874C29.1399 25.2023 27.1365 26.9491 26.7739 28.4469C26.4819 29.653 27.6427 31.1138 29.1295 31.4112C29.7528 31.5358 30.4783 31.8165 30.7415 32.0349C31.4535 32.6259 31.324 35.3721 30.5085 36.9702C29.7585 38.4403 29.5348 40.3764 30.1595 39.9901C30.3587 39.867 30.9116 38.9974 31.3876 38.0578L32.2532 36.3494L34.0495 36.4359L35.8459 36.5223L37.0018 34.1742C38.0727 31.999 38.1577 31.5642 38.1577 28.2612C38.1577 25.1322 38.0403 24.4455 37.1982 22.6485C36.5421 21.2489 35.9444 20.4893 35.3072 20.247C34.1684 19.814 34.157 19.814 33.9033 20.2246ZM6.47768 37.1321C5.35272 38.2567 5.34098 39.8264 6.44744 41.1129C8.01961 42.9405 10.9565 42.1742 11.4781 39.8004C12.1011 36.9645 8.54331 35.0661 6.47768 37.1321ZM39.1186 36.9802C38.0449 37.9803 37.8204 39.1878 38.4736 40.4511C39.9177 43.2433 44.028 42.1766 44.028 39.0095C44.028 36.7034 40.8331 35.3828 39.1186 36.9802ZM4.88879 43.8189C4.47894 44.491 4.18329 45.6081 4.18257 46.4872L4.18115 47.9993H8.62834H13.0755V46.9551C13.0755 45.7031 12.5145 44.1302 11.7773 43.3158C11.2995 42.7875 11.1092 42.7772 10.0454 43.2216C8.85248 43.7204 6.84093 43.5802 6.46523 42.9725C6.10447 42.3887 5.59322 42.6633 4.88879 43.8189ZM37.8549 43.3158C37.1178 44.1302 36.5567 45.7031 36.5567 46.9551V47.9993H41.0039H45.4511L45.4496 46.4872C45.4479 44.3273 43.8501 41.8671 43.167 42.9725C42.7913 43.5802 40.7797 43.7204 39.5868 43.2216C38.5231 42.7772 38.3327 42.7875 37.8549 43.3158ZM17.1819 44.7731C16.7781 45.4267 17.3132 45.8347 19.4087 46.4705C23.1899 47.6175 31.5563 46.9796 32.4873 45.4733C32.9979 44.6471 32.0188 44.5173 30.1527 45.1637C26.8725 46.2997 21.4188 46.0638 18.0034 44.6379C17.6807 44.5031 17.311 44.5639 17.1819 44.7731Z" fill="#585858"/>
</g>
<defs>
<clipPath id="clip0_79_775">
<rect width="48" height="48" fill="white" transform="translate(0.666992 0.0124512)"/>
</clipPath>
</defs>
</svg>
