<svg width="48" height="49" viewBox="0 0 48 49" fill="none" xmlns="http://www.w3.org/2000/svg">
<g clip-path="url(#clip0_79_584)">
<path fill-rule="evenodd" clip-rule="evenodd" d="M16.5002 0.429607C11.1235 1.58311 7.07473 5.60872 5.87499 10.9944C5.76265 11.4986 5.65344 12.7118 5.63149 13.6993C5.60967 14.684 5.55533 15.5487 5.51078 15.6208C5.46611 15.6929 5.06441 15.9454 4.61803 16.1817C4.12763 16.4415 3.39125 17.0259 2.75767 17.6581C1.08138 19.3308 0.200643 21.2992 0.0112232 23.7965C-0.0593192 24.7262 -0.0344985 24.9061 0.235914 25.4264C0.821285 26.5531 0.715863 26.5345 6.71222 26.5781L11.9702 26.6162V25.3953C11.9702 24.3557 12.0184 24.0784 12.2946 23.5282C12.4826 23.1538 12.8217 22.7448 13.101 22.5555C13.565 22.241 13.6721 22.2273 15.9772 22.1881L18.3713 22.1474V18.5382V14.9291L17.0186 16.2602C16.2746 16.9924 15.5665 17.5914 15.4451 17.5914C15.1524 17.5914 14.5829 17.0119 14.5829 16.7141C14.5829 16.583 15.5285 15.5338 16.7072 14.3568C18.4929 12.5735 18.8929 12.2354 19.2173 12.2354C19.5414 12.2354 19.9337 12.5658 21.6652 14.2975C23.4572 16.0892 23.7273 16.4135 23.7273 16.7721C23.7273 17.1914 23.3532 17.5914 22.9609 17.5914C22.8586 17.5914 22.1776 17.0035 21.4475 16.285C20.7174 15.5666 20.0783 14.9787 20.0274 14.9787C19.9764 14.9787 19.9504 16.5805 19.9695 18.5385L20.0042 22.0983L24.6416 22.1326L29.279 22.167L27.5482 20.4327C25.7242 18.6048 25.5378 18.2768 26.0564 17.8076C26.5427 17.3675 26.8604 17.5287 28.2646 18.928L29.6058 20.2647L29.6078 16.4786C29.609 14.3963 29.653 12.6289 29.7058 12.5509C30.0011 12.1146 30.797 12.1069 31.0708 12.5376C31.1251 12.6229 31.1703 14.3963 31.1715 16.4786L31.1734 20.2647L32.5147 18.928C33.9328 17.5147 34.2976 17.3352 34.7456 17.8303C35.1959 18.3279 35.0322 18.6089 33.2372 20.4218L31.5124 22.1636H33.5878C36.0134 22.1636 36.5485 22.326 37.1586 23.2473C37.468 23.7147 37.5169 23.9388 37.5745 25.1584L37.6398 26.5398H42.0912H46.5424L47.0743 26.1876C47.8926 25.6459 48.1082 24.9554 47.9073 23.519C47.6349 21.5722 46.9133 20.0022 45.6269 18.5572C44.9066 17.748 44.9074 17.7613 45.4888 16.1544C45.9616 14.8477 46.0693 12.8512 45.7454 11.3954C45.0495 8.26765 42.5693 5.70591 39.4012 4.84268C38.2605 4.53178 36.1047 4.53178 34.9641 4.84268C34.0092 5.10278 32.8947 5.62623 32.0337 6.21865C31.0779 6.87613 31.0542 6.86542 29.6812 5.16156C27.7264 2.73582 25.0449 1.10368 21.9637 0.464486C20.5217 0.165204 17.813 0.14796 16.5002 0.429607ZM13.874 23.9363C13.7611 24.049 13.6377 24.2695 13.5996 24.4262C13.5615 24.5828 13.5467 26.8272 13.5667 29.4138L13.6032 34.1166L22.6061 34.1502L31.6088 34.1837L32.2894 33.715C32.6637 33.4573 33.1949 33.016 33.4699 32.7344C34.1512 32.0365 34.5992 32.0391 35.2884 32.7449C35.569 33.0323 35.8456 33.2675 35.9028 33.2675C35.96 33.2675 36.0069 31.2394 36.0069 28.7606C36.0069 24.4279 35.9968 24.2437 35.7456 23.9925C35.4887 23.7355 35.3102 23.7312 24.7817 23.7312C15.2305 23.7312 14.057 23.7533 13.874 23.9363ZM31.5392 28.1788C31.1954 28.5227 31.1518 28.6425 31.2182 29.0605C31.3318 29.7735 31.8527 30.1807 32.5347 30.0891C33.2005 29.9999 33.5249 29.6223 33.5249 28.9362C33.5249 27.8307 32.3394 27.3786 31.5392 28.1788ZM15.4413 28.378C15.1642 28.6552 15.1819 29.259 15.475 29.5242C15.6907 29.7194 16.3618 29.7404 22.3986 29.7404C28.9092 29.7404 29.0901 29.7336 29.3446 29.4791C29.4883 29.3354 29.6058 29.1002 29.6058 28.9565C29.6058 28.8128 29.4883 28.5777 29.3446 28.434C29.0901 28.1795 28.9092 28.1727 22.3649 28.1727C16.4317 28.1727 15.6226 28.1968 15.4413 28.378ZM33.6555 34.6589C32.7373 35.3827 31.0782 36.3199 29.9324 36.7618L28.8873 37.1649L28.8523 40.0965L28.8172 43.0281L31.5745 45.4305C33.091 46.752 34.3625 47.826 34.4001 47.8172C34.4377 47.8085 35.6964 46.7307 37.1972 45.4223L39.9259 43.0432V40.0641V37.085L39.4832 37.0019C38.7851 36.8709 36.5625 35.724 35.4437 34.9175C34.8825 34.5129 34.3829 34.1849 34.3334 34.1886C34.2838 34.1924 33.9788 34.4039 33.6555 34.6589ZM13.5661 40.709C13.6002 45.2663 13.6221 45.6875 13.8364 45.9017C14.0542 46.1196 14.5895 46.1373 21.9802 46.1706C26.3311 46.1902 29.8708 46.1576 29.8463 46.0982C29.8218 46.0389 29.2607 45.5072 28.5996 44.9169C27.9383 44.3266 27.3576 43.7796 27.3093 43.7013C27.261 43.6231 27.2114 43.1687 27.1993 42.6915L27.1772 41.824L21.4225 41.7587C15.2083 41.6881 15.234 41.6914 15.2381 40.9916C15.2425 40.2274 14.9777 40.2621 21.3384 40.1911L27.1891 40.1258L27.2082 38.1916C27.2244 36.5464 27.2616 36.2193 27.457 36.0035C27.6843 35.7523 27.61 35.7495 20.6079 35.7495H13.5288L13.5661 40.709Z" fill="#585858"/>
</g>
<defs>
<clipPath id="clip0_79_584">
<rect width="48" height="48" fill="white" transform="translate(0 0.0124512)"/>
</clipPath>
</defs>
</svg>
