<svg width="48" height="49" viewBox="0 0 48 49" fill="none" xmlns="http://www.w3.org/2000/svg">
<g clip-path="url(#clip0_79_780)">
<path fill-rule="evenodd" clip-rule="evenodd" d="M18.8521 0.420021C9.61636 2.38963 2.24913 9.89628 0.348971 19.274C-0.239351 22.1782 -0.0563584 27.8454 0.70677 30.3494C1.42738 32.7133 2.09783 34.3103 2.37007 34.3103C2.4955 34.3103 3.13927 34.0476 3.80048 33.7262C4.67741 33.3003 4.956 33.0323 4.8303 32.736C1.80393 25.5964 2.58713 17.9057 6.96917 11.7333C9.69901 7.88812 13.5041 5.23671 18.3749 3.78518C21.4615 2.86546 25.9552 2.80896 29.1181 3.65024C31.3843 4.25283 34.432 5.62936 35.869 6.69933L36.7787 7.37637H35.803H34.8276V8.96072V10.5451H38.2543C42.7113 10.5451 42.6268 10.6407 42.1821 6.09437C41.8296 2.49261 41.9696 2.65105 39.5017 3.05902C38.5595 3.21455 38.5086 3.27079 38.6643 3.98032C38.8708 4.91984 38.7557 4.91984 37.3837 3.97873C34.8867 2.26605 31.2879 0.822974 28.1115 0.260266C25.9045 -0.130804 21.0408 -0.0468339 18.8521 0.420021ZM27.5021 9.51762C25.7551 9.84056 24.1921 11.0758 23.2933 12.8445C22.3194 14.7602 21.7702 14.8978 20.2592 13.6042C17.2468 11.0257 13.1553 12.6375 12.6604 16.5973C12.5337 17.6121 12.3594 17.8735 11.3264 18.5981C9.55879 19.8381 8.90763 21.1198 9.01695 23.1441C9.09009 24.4976 9.24536 24.9595 9.90471 25.7847C11.225 27.4369 12.0486 27.7081 15.7494 27.7083L18.9841 27.7089V24.6548C18.9841 22.9751 19.1071 21.3709 19.2574 21.09C19.5109 20.6162 19.8513 20.5793 23.9576 20.5793C27.0487 20.5793 28.4802 20.6749 28.7014 20.8962C28.9137 21.1085 29.0183 22.2914 29.0183 24.4813V27.7498L32.5387 27.6632C35.9277 27.58 36.0953 27.5491 37.0301 26.8353C38.8782 25.4242 39.5315 23.0292 38.6464 20.9104C38.0972 19.5962 37.563 19.053 36.0819 18.3018L34.8276 17.6657L34.8218 15.8878C34.8078 11.605 31.5501 8.76981 27.5021 9.51762ZM44.1288 14.3137C43.312 14.7238 43.0472 14.9934 43.1718 15.2876C48.3767 27.5673 41.907 40.9836 29.1503 44.3641C26.2346 45.1367 21.7807 45.1404 18.8843 44.3722C16.62 43.7718 13.5722 42.3963 12.1334 41.3247L11.2237 40.6477H12.1994H13.1748V39.0634V37.479H9.74812C5.29108 37.479 5.37558 37.3834 5.82026 41.9297C6.17278 45.5315 6.03282 45.373 8.50071 44.9651C9.44287 44.8095 9.49384 44.7533 9.33804 44.0438C9.13155 43.1042 9.24641 43.1042 10.6187 44.0448C13.2519 45.8502 16.8196 47.2534 20.1343 47.7881C22.6342 48.1916 27.8155 47.9854 29.9425 47.3981C38.9004 44.9249 45.8082 37.5857 47.6751 28.5578C48.2407 25.8227 48.0421 20.124 47.2956 17.6746C46.5164 15.118 45.8974 13.7117 45.5592 13.7301C45.3936 13.7391 44.7498 14.0019 44.1288 14.3137ZM21.8106 23.1222C21.7084 23.2244 21.6247 26.0659 21.6247 29.4368C21.6247 36.0013 21.6191 36.0293 20.2579 36.2015C19.5579 36.29 19.5708 36.3182 21.6215 39.1954C22.7604 40.7929 23.8177 42.1 23.9714 42.1C24.125 42.1 25.1984 40.7929 26.3566 39.1954L28.4625 36.2907L27.7038 36.2094C27.2866 36.1648 26.8198 35.977 26.6663 35.7922C26.4931 35.5833 26.3608 33.1183 26.3167 29.2721L26.2457 23.0878L24.1211 23.012C22.9524 22.9703 21.9128 23.0197 21.8106 23.1222Z" fill="#585858"/>
</g>
<defs>
<clipPath id="clip0_79_780">
<rect width="48" height="48" fill="white" transform="translate(0 0.0124512)"/>
</clipPath>
</defs>
</svg>
