<svg width="48" height="49" viewBox="0 0 48 49" fill="none" xmlns="http://www.w3.org/2000/svg">
<g clip-path="url(#clip0_79_600)">
<path fill-rule="evenodd" clip-rule="evenodd" d="M30.2248 -0.257364C28.3643 0.436758 26.625 1.84961 26.0338 3.14673C25.8754 3.49452 25.7029 3.60566 25.4767 3.50599C25.2963 3.42655 24.532 3.31958 23.778 3.26787C22.681 3.19302 22.1927 3.26641 21.3355 3.63526C20.1635 4.13944 18.4698 5.77977 18.2607 6.61338C18.155 7.03436 17.965 7.14945 17.2033 7.25392C14.8676 7.57397 12.5482 9.44324 11.7114 11.6797C11.1391 13.2091 11.1391 15.3271 11.7114 16.8565C12.2775 18.3697 13.7137 19.9381 15.2025 20.6693C16.2698 21.1933 16.6531 21.2606 18.9458 21.3267L21.5 21.4003V20.2683C21.5 18.9249 21.9715 18.3419 23.2776 18.0705C24.4819 17.8202 24.7317 17.2029 24.0858 16.073C23.323 14.7393 23.4179 14.1672 24.5978 12.9872C25.7868 11.7983 26.3337 11.7126 27.6835 12.5039C28.8151 13.167 29.3099 12.9666 29.6433 11.7103C30.0363 10.2297 30.5103 9.88945 32.1798 9.88945C33.4037 9.88945 33.6836 9.96055 34.1002 10.3774C34.3685 10.6455 34.6519 11.2433 34.7301 11.7053C34.9359 12.9243 35.5756 13.1709 36.7657 12.4904C38.0981 11.7287 38.4976 11.8111 39.8033 13.1165C40.8247 14.1382 40.9317 14.3269 40.8158 14.9066C40.7445 15.2627 40.4947 15.8232 40.2607 16.1516C39.5708 17.1207 39.8648 17.7273 41.2146 18.1197C42.477 18.4866 42.9763 19.0333 42.9763 20.0486C42.9763 20.8849 43.1102 20.8945 44.144 20.1322C46.3619 18.4966 47.4155 16.5584 47.4392 14.0696C47.4749 10.3206 45.2501 7.51205 41.518 6.59461L39.9596 6.21159L39.8145 5.36171C39.4617 3.29498 37.7914 1.16737 35.7296 0.158609C34.7934 -0.299483 34.2153 -0.423753 32.7763 -0.476297C31.6237 -0.518624 30.7159 -0.440642 30.2248 -0.257364ZM29.9081 3.76183C28.8276 4.29457 28.4803 4.79269 28.7603 5.40737C29.0499 6.04311 29.37 6.05771 30.4692 5.48473C32.0916 4.63902 33.7668 5.26621 34.4961 6.99224C34.9311 8.02185 35.3443 8.33649 35.954 8.10254C36.5589 7.87047 36.5716 7.19929 35.9932 6.01747C35.13 4.25286 33.7282 3.42113 31.6337 3.43051C31.0487 3.43301 30.2722 3.5821 29.9081 3.76183ZM15.9996 11.6105C15.3343 12.4827 15.0363 13.279 15.0363 14.1841C15.0363 16.025 16.7223 18.1526 17.7469 17.6042C18.3134 17.3011 18.2726 16.5279 17.6593 15.952C16.5649 14.9237 16.5157 13.4214 17.5463 12.4887C18.0105 12.0686 18.0734 11.5504 17.7052 11.1822C17.249 10.726 16.538 10.9045 15.9996 11.6105ZM31.3925 12.1182C31.0161 13.8134 30.9048 13.9739 29.7801 14.4399C28.39 15.016 28.2317 15.01 27.2492 14.3423C26.6614 13.9428 26.3501 13.8461 26.12 13.9912C25.4273 14.4282 25.3921 14.7917 25.9561 15.6851C26.627 16.7479 26.6289 16.8534 26.0021 18.2706C25.5119 19.3788 25.4723 19.412 24.3341 19.6668C23.2094 19.9185 23.1681 19.9518 23.1681 20.6095C23.1681 21.2663 23.2102 21.3004 24.3251 21.55C25.4563 21.8032 25.4936 21.8346 25.9932 22.9643C26.6306 24.4055 26.6287 24.5142 25.9517 25.5373L25.3991 26.3724L25.8712 26.8749L26.3433 27.3774L27.3397 26.8211L28.3362 26.2648L29.5466 26.6968C30.865 27.1676 30.9748 27.2869 31.3032 28.603C31.5086 29.4252 31.5749 29.4892 32.223 29.4892C32.8645 29.4892 32.9336 29.4256 33.0674 28.711C33.2874 27.5388 33.5101 27.2519 34.561 26.7871C35.8176 26.2312 36.2518 26.2502 37.2117 26.9024L38.0078 27.4433L38.5076 26.9737L39.0076 26.5042L38.4021 25.4425L37.7966 24.3807L38.2493 23.3376C38.8933 21.8532 38.9044 21.8424 40.0566 21.5661C41.052 21.3271 41.0998 21.2838 41.0998 20.6149C41.0998 19.9639 41.0366 19.898 40.2136 19.6926C38.9236 19.3709 38.8168 19.2783 38.2801 18.0194L37.7918 16.8745L38.391 15.8046L38.9903 14.7348L38.4865 14.2616L37.983 13.7885L37.1479 14.3411C36.1573 14.9966 36.0718 15.0031 34.7907 14.5164C33.5259 14.0363 33.4215 13.922 33.1164 12.686C32.885 11.7477 32.8074 11.6563 32.1932 11.5969C31.6062 11.5402 31.5065 11.6051 31.3925 12.1182ZM30.238 16.8384C29.7326 17.1051 29.0376 17.7231 28.6936 18.2116C28.1362 19.0029 28.068 19.2662 28.068 20.6276C28.068 21.9894 28.136 22.2517 28.6936 23.0411C30.2861 25.2957 33.4907 25.4904 35.3387 23.445C36.8345 21.7894 36.8627 19.535 35.4083 17.8786C34.0735 16.3584 31.9546 15.932 30.238 16.8384ZM30.5493 18.9387C29.9442 19.5438 29.8404 19.7911 29.8404 20.6276C29.8404 21.4641 29.9442 21.7114 30.5493 22.3165C31.0966 22.8638 31.4317 23.0254 32.0193 23.0254C34.0178 23.0254 35.2094 21.1943 34.3245 19.4831C33.8758 18.6153 33.2132 18.2298 32.1708 18.2298C31.411 18.2298 31.1396 18.3484 30.5493 18.9387ZM43.1848 28.8674C42.8981 28.9477 39.9903 30.725 36.7228 32.8174C30.4527 36.8324 29.4596 37.4125 28.8583 37.4125C28.1212 37.4123 18.1051 35.1212 17.8249 34.8887C17.4206 34.553 17.4688 33.7112 17.9058 33.4775C18.1641 33.3391 19.6462 33.5832 22.9054 34.3007C27.6933 35.3547 28.1502 35.3781 28.7959 34.5999C29.2257 34.082 29.1642 32.8897 28.6831 32.4137C28.1106 31.8474 16.0565 29.1604 15.2371 29.4166C14.9258 29.5138 12.9831 30.6664 10.9197 31.9777L7.16827 34.3618L8.84071 36.9819C9.76065 38.4229 10.7884 40.0474 11.1247 40.5922C11.4608 41.1368 11.7838 41.5826 11.8422 41.5826C11.9008 41.5826 12.2296 41.3824 12.5732 41.1379C13.7104 40.328 14.5167 40.3983 21.1973 41.8887C26.3303 43.0338 27.5622 43.2457 28.1147 43.0789C28.4844 42.9673 32.5086 40.5009 37.0574 37.598C44.2257 33.0236 45.3679 32.2246 45.6269 31.6047C45.7914 31.2114 45.8731 30.6802 45.8089 30.4241C45.5272 29.3013 44.2799 28.5615 43.1848 28.8674ZM1.82985 33.5799C0.810669 34.2475 0.439317 34.6057 0.527724 34.8361C0.781061 35.4965 8.4777 47.4183 8.7081 47.5076C8.84009 47.5587 9.59072 47.2034 10.3762 46.7182C11.4104 46.0795 11.8009 45.7184 11.7913 45.4089C11.7719 44.7778 3.94496 32.6166 3.56839 32.6326C3.39637 32.6399 2.61405 33.0661 1.82985 33.5799Z" fill="#585858"/>
</g>
<defs>
<clipPath id="clip0_79_600">
<rect width="48" height="48" fill="white" transform="translate(0 0.0124512)"/>
</clipPath>
</defs>
</svg>
