<svg width="49" height="49" viewBox="0 0 49 49" fill="none" xmlns="http://www.w3.org/2000/svg">
<g clip-path="url(#clip0_79_594)">
<path fill-rule="evenodd" clip-rule="evenodd" d="M16.2159 0.194266C13.1199 0.943358 10.7416 3.93432 10.7416 7.07895C10.7416 7.61328 10.7133 7.6685 10.3654 7.81256C9.92113 7.99659 8.93314 8.75949 8.45104 9.29057C7.96629 9.82466 7.41875 10.888 7.20399 11.7125C6.97278 12.6 6.97266 13.5318 7.20363 14.5115L7.38358 15.2748L6.84313 15.8308C5.04075 17.6852 4.76284 20.7236 6.19199 22.9507C6.66978 23.6952 7.73015 24.6624 8.49173 25.0484C9.54406 25.5816 10.4134 25.6886 13.7128 25.6909L16.744 25.6929V28.1539V30.6148H14.0651H11.3863L11.1927 30.2086C10.2582 28.2491 7.8095 27.8032 6.29571 29.317C5.74074 29.872 5.46535 30.55 5.46223 31.369C5.45899 32.2202 5.69356 32.8116 6.27579 33.4202C6.88442 34.0566 7.52307 34.3307 8.40074 34.3325C9.63962 34.335 10.7306 33.6417 11.1816 32.5656L11.3451 32.1755H14.64C17.8752 32.1755 17.9395 32.1707 18.1799 31.9127C18.4125 31.663 18.4246 31.5031 18.4246 28.6714V25.6929H19.385H20.3454V32.0554V38.4179H17.5988H14.8524L14.6935 38.0342C13.7495 35.7554 10.4298 35.6698 9.30049 37.8952C8.46136 39.5491 9.35751 41.56 11.1684 42.0864C12.0144 42.3324 12.6409 42.2492 13.4577 41.7828C13.9978 41.4743 14.6889 40.6815 14.857 40.1775C14.8906 40.0768 15.7972 40.0385 18.1519 40.0385C21.1782 40.0385 21.4179 40.0229 21.6533 39.8098C21.9047 39.5823 21.906 39.5443 21.906 32.637V25.6929H22.8664H23.8267L23.8251 33.8861L23.8233 42.0793L23.2355 42.4034C21.4828 43.3698 21.1495 45.7107 22.5631 47.1244C23.7373 48.2987 25.5968 48.2987 26.771 47.1244C28.1847 45.7107 27.8513 43.3698 26.0986 42.4034L25.5109 42.0793L25.5091 33.8861L25.5074 25.6929H26.4678H27.4282V32.6471C27.4282 38.8061 27.4496 39.6228 27.6166 39.7897C27.9008 40.0738 28.3177 40.138 29.3004 40.0491C29.7906 40.0047 31.15 40.0055 32.3213 40.051L34.4509 40.1338L34.811 40.7433C35.8105 42.435 38.0541 42.712 39.45 41.3162C41.6731 39.093 39.444 35.4887 36.4085 36.3982C35.7924 36.5829 34.9391 37.3425 34.6748 37.9419L34.4647 38.4179H31.7268H28.9888V32.0554V25.6929H29.9491H30.9095V28.6941C30.9095 31.5352 30.9224 31.7081 31.1496 31.9354C31.3781 32.1638 31.5497 32.1755 34.6894 32.1755H37.989L38.1525 32.5656C38.5983 33.6293 39.6938 34.3331 40.9072 34.3351C42.0715 34.3371 42.9838 33.7784 43.5521 32.7157C43.88 32.1027 43.9147 30.6278 43.6142 30.0746C42.873 28.7097 41.1271 28.0438 39.773 28.6096C39.1624 28.8648 38.4315 29.56 38.1743 30.1305L37.9558 30.6148H35.273H32.5902V28.1539V25.6929H35.6455C37.444 25.6929 38.9624 25.6376 39.3369 25.5584C40.8363 25.2412 42.3327 24.2172 43.1334 22.9604C44.3144 21.1067 44.3269 18.5168 43.1635 16.7038C42.2595 15.295 40.6897 14.2622 39.0631 14.006L38.2324 13.8752V13.2007C38.2324 12.2689 37.8241 10.7603 37.3599 9.97652C36.0763 7.8098 33.4528 6.50513 31.034 6.83069C30.5099 6.90116 29.7455 7.09516 29.3357 7.26178L28.5904 7.56454L27.9705 6.97823C27.2182 6.26671 26.5483 5.91102 25.5943 5.71642L24.8742 5.5696L24.6455 4.82447C24.338 3.82292 23.3236 2.36135 22.4409 1.64779C20.6852 0.2286 18.3386 -0.319294 16.2159 0.194266Z" fill="#585858"/>
</g>
<defs>
<clipPath id="clip0_79_594">
<rect width="48" height="48" fill="white" transform="translate(0.666992 0.0124512)"/>
</clipPath>
</defs>
</svg>
