<svg width="48" height="49" viewBox="0 0 48 49" fill="none" xmlns="http://www.w3.org/2000/svg">
<g clip-path="url(#clip0_79_765)">
<path d="M14.0831 16.0156C14.2547 15.5534 14.5575 15.2244 14.9906 15.0266C15.4237 14.8278 15.8738 14.8109 16.3322 14.9834L18.8316 15.9078C19.4709 14.8916 20.3184 13.9503 21.1959 13.1309L19.9903 10.5031C19.7869 10.0606 19.7681 9.61531 19.9341 9.16812C20.1019 8.71531 20.4047 8.39468 20.8472 8.19218L24.1462 6.67812C24.5681 6.48406 25.0059 6.46437 25.4681 6.62749C25.9228 6.79062 26.2519 7.09343 26.4544 7.53687L27.5588 9.94249C28.7447 9.70343 29.9691 9.61999 31.1756 9.70624L32.2153 6.96406C32.3653 6.51124 32.6541 6.18499 33.0928 5.98343C33.5259 5.78468 33.9713 5.77437 34.4362 5.94406L37.8084 7.19749C38.2716 7.36906 38.6006 7.67187 38.7994 8.10499C38.9972 8.53718 39.0141 8.98812 38.8416 9.44656L37.9172 11.9459C38.9325 12.5853 39.8737 13.4328 40.6941 14.3103L43.3209 13.1047C43.7644 12.9012 44.2097 12.8825 44.6569 13.0484C45.1097 13.2162 45.4303 13.5191 45.6328 13.9616L47.1469 17.2606C47.3409 17.6834 47.3597 18.1194 47.1966 18.5825C47.0344 19.0362 46.7316 19.3662 46.2881 19.5687L43.8825 20.6731C44.1253 21.8769 44.1975 23.0947 44.1328 24.3209L46.8609 25.3297C47.3138 25.4806 47.64 25.7684 47.8416 26.2081C48.0403 26.6403 48.0506 27.0856 47.8809 27.5516L46.6416 30.9547C46.4616 31.3991 46.1522 31.715 45.72 31.9128C45.2869 32.1116 44.8434 32.1425 44.3916 31.9869L41.8781 31.0316C41.2256 32.0534 40.4006 32.9806 39.5147 33.8084L40.7203 36.4362C40.9238 36.8787 40.9425 37.3231 40.7766 37.7712C40.6087 38.2241 40.3059 38.5447 39.8634 38.7472L36.5644 40.2612C36.1416 40.4553 35.7047 40.4741 35.2425 40.3109C34.7878 40.1478 34.4588 39.8459 34.2553 39.4025L33.1519 36.9969C31.9472 37.2406 30.7303 37.3119 29.5041 37.2472L28.4953 39.9753C28.3444 40.4281 28.05 40.7572 27.6066 40.9606C27.1575 41.1669 26.7159 41.1753 26.2734 40.9953L22.8703 39.755C22.425 39.5759 22.11 39.2666 21.9113 38.8344C21.7125 38.4012 21.6825 37.9578 21.8381 37.5059L22.7925 34.9934C22.4606 34.7844 22.1362 34.5528 21.8212 34.3053L24.3047 33.0547C24.8831 32.7772 25.3622 32.7369 25.8122 32.7912C26.1169 32.9412 26.4291 33.0753 26.7488 33.1944C27.9816 33.6519 29.2903 33.8572 30.6684 33.8309C34.8422 33.7006 38.6269 30.9941 40.08 27.0762C41.04 24.4869 40.9097 21.6547 39.7612 19.1525C37.9997 15.3153 34.2778 13.0241 30.0422 13.1075C27.2841 13.1956 24.5691 14.4425 22.7034 16.4759C21.5063 17.8156 20.6878 19.3662 20.2809 21.005C19.9303 21.6312 19.5891 22.1309 19.2628 22.2866L19.2656 22.2922L16.5609 23.6197C16.5591 23.2944 16.5684 22.97 16.5909 22.6494L13.8497 21.6097C13.3969 21.4587 13.0706 21.1709 12.8691 20.7312C12.6703 20.2981 12.66 19.8537 12.8297 19.3878L14.0831 16.0156ZM7.16906 42.1625C5.19187 42.2834 3.13875 41.4312 1.52625 39.9134C9.62531 39.9209 8.08125 30.0866 0 33.4231C1.10625 29.3966 4.69969 27.8019 8.56875 28.6381C10.6153 29.0787 11.8303 29.4472 13.7634 28.5725L20.6362 25.1984C24.3009 23.4556 23.5987 16.9306 29.7591 16.5566C31.7362 16.4347 33.7866 17.2887 35.4028 18.8056C27.3028 18.7972 28.8469 28.6316 36.9291 25.295C35.8228 29.3216 32.2284 30.9162 28.3603 30.08C26.6625 29.7106 25.3622 28.9625 22.8909 30.1616L16.395 33.4325C15.1078 34.1112 14.6728 34.5556 13.9575 35.8137C12.2072 38.8916 11.3063 41.9103 7.16906 42.1625Z" fill="#585858"/>
</g>
<defs>
<clipPath id="clip0_79_765">
<rect width="48" height="48" fill="white" transform="translate(0 0.0124512)"/>
</clipPath>
</defs>
</svg>
