<svg width="48" height="49" viewBox="0 0 48 49" fill="none" xmlns="http://www.w3.org/2000/svg">
<g clip-path="url(#clip0_79_605)">
<path fill-rule="evenodd" clip-rule="evenodd" d="M20.885 0.188066C12.9675 1.18856 5.8331 6.25231 2.51266 13.2282C0.4952 17.4657 -0.0412323 19.868 0.00241741 24.4646C0.0663604 31.1916 2.54788 36.6823 7.73569 41.5764C11.9173 45.5206 18.1695 48.0125 23.8865 48.0125C26.9439 48.0125 31.48 46.93 34.5282 45.4735C37.7686 43.9247 41.8644 40.2746 44.0408 36.9959C48.6106 30.1115 49.0938 20.8708 45.2863 13.1865C43.3362 9.25189 39.1363 4.83255 35.5647 2.95791C31.0278 0.576702 25.7267 -0.423413 20.885 0.188066ZM19.7038 1.88313C16.5717 2.45019 12.258 4.41366 9.97753 6.31089L8.51296 7.52926L10.1533 9.20058L11.7932 10.8719H24.5404H37.2877V14.3179C37.2877 17.1257 37.1813 17.764 36.7134 17.764C36.3975 17.764 36.139 17.9363 36.139 18.1469C36.139 18.39 33.1931 18.5298 28.0665 18.5298C21.7787 18.5298 20.0288 18.6354 20.1529 19.0084C20.2727 19.3679 22.425 19.5126 28.8001 19.59L37.2877 19.693V23.1317C37.2877 25.933 37.1813 26.5705 36.7134 26.5705C36.3975 26.5705 36.139 26.8289 36.139 27.1448C36.139 27.6154 35.4743 27.7192 32.4548 27.7192C29.2232 27.7192 28.8288 27.7896 29.247 28.2935C29.6122 28.7338 30.6143 28.8678 33.5369 28.8678H37.3501L37.244 32.5084L37.138 36.1485L38.6309 37.6774C39.4518 38.5179 40.2425 39.2059 40.388 39.2059C40.5331 39.2059 41.4497 38.0389 42.4242 36.6126C47.0549 29.8354 47.62 21.645 43.9856 13.9917C42.971 11.8552 41.9012 10.4178 39.6746 8.20009C36.0881 4.6277 32.474 2.68567 27.8931 1.86973C24.2265 1.21651 23.3803 1.21766 19.7038 1.88313ZM6.29372 9.99738C3.6016 13.2336 1.32033 19.5245 1.30234 23.7608C1.29276 26.0666 2.25076 30.6743 3.19421 32.8626C6.65862 40.8949 15.1462 46.4809 23.8865 46.4809C28.673 46.4809 34.6006 44.3516 38.2388 41.3249L39.381 40.3745L23.44 24.4619L7.49906 8.5489L6.29372 9.99738ZM13.9313 12.5723C13.9313 12.876 14.1036 13.2305 14.3142 13.3607C14.5248 13.4909 14.6971 13.2424 14.6971 12.809C14.6971 12.3755 14.5248 12.0206 14.3142 12.0206C14.1036 12.0206 13.9313 12.2687 13.9313 12.5723ZM15.3055 12.3483C15.0263 12.8002 15.3602 14.3685 15.8369 14.8452C16.1038 15.1121 16.2286 14.7253 16.2286 13.6287C16.2286 12.1492 15.7979 11.5519 15.3055 12.3483ZM16.6873 14.0005C16.8531 16.8366 17.7602 16.9702 17.7602 14.1583C17.7602 12.4812 17.6319 12.0206 17.1659 12.0206C16.6904 12.0206 16.5947 12.4165 16.6873 14.0005ZM27.0158 14.1874C27.0905 14.5752 27.4075 14.8923 27.7208 14.8923C28.5413 14.8923 28.423 13.7796 27.5848 13.6184C27.0733 13.52 26.9174 13.6758 27.0158 14.1874ZM29.3197 14.2222C29.3909 14.5909 29.7026 14.8923 30.0127 14.8923C30.3229 14.8923 30.6346 14.5909 30.7058 14.2222C30.7961 13.752 30.5894 13.5522 30.0127 13.5522C29.4361 13.5522 29.2293 13.752 29.3197 14.2222ZM31.7151 13.9684C31.5738 14.1973 31.6347 14.5615 31.8506 14.7774C32.3338 15.2606 33.0759 14.8525 33.0759 14.1039C33.0759 13.4591 32.0903 13.3611 31.7151 13.9684ZM34.0599 13.8918C33.7992 14.3133 34.7752 15.1714 35.1213 14.8253C35.2599 14.6867 35.3732 14.3436 35.3732 14.0625C35.3732 13.4924 34.3861 13.3638 34.0599 13.8918ZM10.4852 15.5731C10.4852 17.7173 11.3992 18.5298 13.811 18.5298H15.5965L14.7032 17.579C14.2119 17.0564 13.5357 16.5399 13.2007 16.4315C12.8653 16.3231 12.2975 15.717 11.9391 15.0849C11.0244 13.4729 10.4852 13.654 10.4852 15.5731ZM10.4852 23.1245C10.4852 25.8147 10.6024 26.5705 11.0186 26.5705C11.3119 26.5705 11.6511 26.8289 11.7725 27.1448C11.9555 27.6223 13.028 27.7192 18.1312 27.7192C21.5072 27.7192 24.2694 27.5744 24.2694 27.3972C24.2694 27.2203 22.5483 25.4111 20.445 23.3768L16.6207 19.6784H13.553H10.4852V23.1245ZM12.3997 23.1245C12.3997 24.4006 12.5697 25.4218 12.7826 25.4218C12.9955 25.4218 13.1655 24.4006 13.1655 23.1245C13.1655 21.8483 12.9955 20.8271 12.7826 20.8271C12.5697 20.8271 12.3997 21.8483 12.3997 23.1245ZM13.9313 23.1245C13.9313 24.4006 14.1013 25.4218 14.3142 25.4218C14.5271 25.4218 14.6971 24.4006 14.6971 23.1245C14.6971 21.8483 14.5271 20.8271 14.3142 20.8271C14.1013 20.8271 13.9313 21.8483 13.9313 23.1245ZM15.415 22.3587C15.3886 23.201 15.3457 24.1774 15.3193 24.5285C15.2928 24.8793 15.487 25.2384 15.75 25.3261C16.0981 25.4421 16.2286 24.8498 16.2286 23.1562C16.2286 20.5997 15.4923 19.8779 15.415 22.3587ZM16.8562 21.0928C16.7218 21.2276 16.6115 22.2564 16.6115 23.3798C16.6115 24.9397 16.7471 25.4218 17.1859 25.4218C17.6262 25.4218 17.7602 24.9352 17.7602 23.3385C17.7602 21.3823 17.4175 20.5315 16.8562 21.0928ZM27.213 22.606C26.6869 23.1321 26.9596 23.9446 27.6197 23.8175C27.9884 23.7463 28.2897 23.4465 28.2897 23.1513C28.2897 22.5467 27.6143 22.2048 27.213 22.606ZM29.4177 22.7749C29.0234 23.4135 29.9105 24.1456 30.4389 23.6172C30.8808 23.1754 30.6043 22.3587 30.0127 22.3587C29.827 22.3587 29.5594 22.5459 29.4177 22.7749ZM31.7484 22.7213C31.4115 23.2661 31.8411 23.8902 32.5521 23.8902C32.8875 23.8902 33.0797 23.6211 33.0081 23.252C32.8592 22.4827 32.0945 22.1611 31.7484 22.7213ZM34.0457 22.7213C33.7088 23.2661 34.1384 23.8902 34.8494 23.8902C35.1849 23.8902 35.3771 23.6211 35.3055 23.252C35.1565 22.4827 34.3919 22.1611 34.0457 22.7213ZM10.4852 32.0374C10.4852 36.7807 9.788 36.5257 22.7634 36.5257H33.5009L29.7225 32.6968L25.9441 28.8678H18.2147H10.4852V32.0374ZM12.3997 32.1224C12.3997 33.2807 12.572 34.2283 12.7826 34.2283C12.9932 34.2283 13.1655 33.2807 13.1655 32.1224C13.1655 30.9642 12.9932 30.0165 12.7826 30.0165C12.572 30.0165 12.3997 30.9642 12.3997 32.1224ZM13.9313 32.1224C13.9313 33.2807 14.1036 34.2283 14.3142 34.2283C14.5248 34.2283 14.6971 33.2807 14.6971 32.1224C14.6971 30.9642 14.5248 30.0165 14.3142 30.0165C14.1036 30.0165 13.9313 30.9642 13.9313 32.1224ZM15.4035 31.733C15.2511 33.6498 15.361 34.2283 15.8775 34.2283C16.0709 34.2283 16.2286 33.2807 16.2286 32.1224C16.2286 29.5984 15.5969 29.3001 15.4035 31.733ZM16.6115 32.1224C16.6115 33.739 16.7448 34.2283 17.1859 34.2283C17.6269 34.2283 17.7602 33.739 17.7602 32.1224C17.7602 30.5059 17.6269 30.0165 17.1859 30.0165C16.7448 30.0165 16.6115 30.5059 16.6115 32.1224ZM27.0158 32.1833C27.177 33.0215 28.2897 33.1398 28.2897 32.3192C28.2897 32.006 27.9727 31.689 27.5848 31.6143C27.0733 31.5159 26.9174 31.6718 27.0158 32.1833ZM34.0599 31.8877C33.7992 32.3093 34.7752 33.1673 35.1213 32.8212C35.2599 32.6826 35.3732 32.3395 35.3732 32.0585C35.3732 31.4884 34.3861 31.3597 34.0599 31.8877Z" fill="#585858"/>
</g>
<defs>
<clipPath id="clip0_79_605">
<rect width="48" height="48" fill="white" transform="translate(0 0.0124512)"/>
</clipPath>
</defs>
</svg>
