<svg width="49" height="49" viewBox="0 0 49 49" fill="none" xmlns="http://www.w3.org/2000/svg">
<g clip-path="url(#clip0_79_785)">
<path fill-rule="evenodd" clip-rule="evenodd" d="M22.4021 0.132106C22.3301 0.204294 22.271 0.673606 22.271 1.17536C22.271 1.88017 22.1964 2.11061 21.9429 2.18954C21.7623 2.24561 21.1132 2.49686 20.5004 2.74773L19.3859 3.20392L18.8039 2.63992C18.4839 2.32961 18.0971 2.07573 17.9446 2.07573C17.6349 2.07573 15.146 4.50667 15.146 4.80929C15.146 4.91542 15.4334 5.28086 15.7848 5.62136L16.4238 6.24067L15.8787 7.39248C15.5789 8.02604 15.3337 8.65004 15.3337 8.77886C15.3335 8.93111 15.0423 9.01323 14.5031 9.01323C13.2611 9.01323 13.0835 9.29148 13.0835 11.239C13.0835 12.262 13.1679 12.9601 13.3085 13.1007C13.4322 13.2245 13.9231 13.3257 14.3992 13.3257H15.2651L15.5774 14.317C15.7494 14.8623 16.01 15.4724 16.1566 15.673C16.3981 16.0032 16.3629 16.1049 15.7846 16.7448C15.4334 17.1337 15.146 17.5422 15.146 17.6527C15.146 17.902 17.1716 20.0427 17.6497 20.2987C17.9343 20.4509 18.1319 20.3575 18.701 19.8018L19.4019 19.1174L20.0396 19.4868C20.3904 19.69 21.0357 19.9612 21.4741 20.0894L22.271 20.3227V21.3241C22.271 22.3747 22.2552 22.358 23.3022 22.4077C23.6356 22.4234 23.6834 22.5759 23.7324 23.7819L23.7875 25.1382L21.4824 25.139C18.8992 25.1397 18.2379 25.3666 17.6816 26.4425L17.3864 27.0132H14.5921C12.3018 27.0132 11.7446 27.0663 11.5031 27.3078C11.2599 27.551 11.2085 28.124 11.2085 30.589V33.5757H6.7085C2.45843 33.5757 2.18768 33.5965 1.8335 33.9507C1.48362 34.3006 1.4585 34.5757 1.4585 38.0467C1.4585 41.4134 1.49112 41.7972 1.80143 42.0779C2.10125 42.3494 2.73537 42.3882 6.86393 42.3882H11.5835V43.0224C11.5835 43.5153 11.4116 43.8286 10.8114 44.4286C10.0702 45.17 9.99218 45.2007 8.85612 45.2007C8.03037 45.2007 7.58375 45.2898 7.37806 45.4953C7.01618 45.8574 7.01618 45.8566 7.37806 46.2187C7.58787 46.4283 8.03806 46.5132 8.94012 46.5132C10.1114 46.5132 10.2273 46.55 10.4671 46.9979C10.7772 47.5777 11.5548 48.0134 12.2772 48.0125C12.9481 48.0115 13.9512 47.4035 14.1106 46.9012C14.2201 46.556 14.3834 46.5132 15.5898 46.5132C17.2541 46.5132 17.771 46.165 17.1014 45.4953C16.8916 45.2855 16.4414 45.2007 15.5377 45.2007C14.3641 45.2007 14.2526 45.1653 14.0538 44.7292C13.9357 44.4699 13.6269 44.161 13.3676 44.0429C12.983 43.8676 12.896 43.6953 12.896 43.108V42.3882H17.6482C22.2421 42.3882 22.4122 42.3751 22.7576 41.9934C23.0831 41.6334 23.1147 41.2745 23.1147 37.9454C23.1147 34.3325 23.1099 34.2884 22.6721 33.934C22.2618 33.602 21.8746 33.5757 17.3752 33.5757H12.521V30.9507V28.3257H14.927H17.3332L17.7864 29.0242C18.551 30.202 18.5936 30.2092 24.5531 30.1555L29.9289 30.107L30.4323 29.6382C30.7092 29.3804 31.0091 28.9797 31.0987 28.7476C31.2562 28.34 31.3445 28.3257 33.7038 28.3257H36.146V30.9507V33.5757H31.2918C26.7916 33.5757 26.4052 33.6018 25.9949 33.9342C25.5571 34.2886 25.5522 34.3327 25.5522 37.9458C25.5522 41.275 25.5839 41.6339 25.9094 41.9935C26.2546 42.3751 26.4258 42.3882 31.0188 42.3882H35.771V43.108C35.771 43.6953 35.684 43.8676 35.2994 44.0429C35.0401 44.161 34.7313 44.4699 34.6132 44.7292C34.415 45.1642 34.3014 45.2007 33.1518 45.2007C31.6976 45.2007 31.0452 45.5253 31.3844 46.0803C31.5494 46.3505 31.8813 46.4305 33.0149 46.474C34.2539 46.5217 34.4538 46.5777 34.5588 46.9089C34.7161 47.4046 35.7232 48.0117 36.3897 48.0125C37.1122 48.0134 37.8897 47.5777 38.1999 46.9979C38.4397 46.55 38.5556 46.5132 39.7269 46.5132C40.6289 46.5132 41.0791 46.4283 41.2889 46.2187C41.6508 45.8566 41.6508 45.8574 41.2889 45.4953C41.0791 45.2857 40.6289 45.2007 39.7269 45.2007C38.5824 45.2007 38.4361 45.1572 38.2196 44.7526C38.0876 44.5062 37.778 44.1967 37.5316 44.0647C37.1787 43.8759 37.0835 43.672 37.0835 43.1065V42.3882H41.8357C46.2014 42.3882 46.6132 42.3603 46.8982 42.0453C47.1648 41.7507 47.2085 41.183 47.2085 38.014C47.2085 34.5757 47.183 34.3002 46.8335 33.9507C46.4793 33.5965 46.2086 33.5757 41.9585 33.5757H37.4585V30.589C37.4585 28.124 37.4071 27.551 37.1639 27.3078C36.9224 27.0663 36.3652 27.0132 34.0749 27.0132H31.2806L30.9854 26.4425C30.4291 25.3666 29.7678 25.1397 27.1846 25.139L24.8795 25.1382L24.9346 23.7789L24.9897 22.4195L25.6023 22.4007C26.3982 22.3764 26.4496 22.3087 26.4496 21.2827C26.4496 20.5276 26.5113 20.393 26.9384 20.2175C27.2073 20.1069 27.8619 19.8275 28.3931 19.5963L29.3591 19.1759L29.9767 19.8134C30.3166 20.1639 30.6858 20.4507 30.7972 20.4507C31.0985 20.4507 33.521 17.9532 33.521 17.6425C33.521 17.4952 33.2561 17.1014 32.9321 16.7673L32.3431 16.1596L32.6634 15.4848C32.8394 15.1135 33.0914 14.497 33.2232 14.1147C33.4529 13.448 33.5043 13.4157 34.4763 13.3257L35.4897 13.232L35.5436 11.3847C35.5786 10.1836 35.5214 9.44561 35.3801 9.27536C35.2482 9.11636 34.8024 9.01323 34.2481 9.01323C33.5289 9.01323 33.3335 8.94817 33.3335 8.70854C33.3335 8.54092 33.1094 7.90454 32.8357 7.29442L32.3377 6.18498L32.9294 5.57448C33.2547 5.23886 33.521 4.88148 33.521 4.78061C33.521 4.49261 31.0117 2.07573 30.7128 2.07573C30.5654 2.07573 30.1769 2.33561 29.849 2.65342L29.2531 3.23111L28.5277 2.86623C28.1287 2.66561 27.4901 2.40048 27.1085 2.27711C26.4386 2.06054 26.4129 2.01967 26.3585 1.07992L26.3022 0.106981L24.4177 0.053919C23.3814 0.0248565 22.4742 0.059919 22.4021 0.132106ZM22.5858 6.49004C19.3299 7.68442 18.2763 11.879 20.576 14.4914C21.5982 15.6528 22.7872 16.1967 24.3335 16.2102C26.4489 16.2288 28.0638 15.1707 28.9822 13.1647C29.8565 11.255 29.2906 8.78223 27.6654 7.41029C26.2822 6.24273 24.2591 5.87617 22.5858 6.49004ZM2.5835 37.982V41.2632H12.2397H21.896V37.982V34.7007H12.2397H2.5835V37.982ZM26.771 37.982V41.2632H36.4272H46.0835V37.982V34.7007H36.4272H26.771V37.982ZM4.63156 36.9363C3.92037 37.6475 3.92037 38.3165 4.63156 39.0277C5.33093 39.727 6.16568 39.7606 6.81068 39.1154C7.48831 38.4378 7.43956 37.501 6.69406 36.8737C5.93806 36.2375 5.31125 36.2566 4.63156 36.9363ZM11.1941 36.9363C10.8637 37.2667 10.646 37.682 10.646 37.982C10.646 38.6709 11.5814 39.5757 12.2936 39.5757C13.0276 39.5757 13.8335 38.7699 13.8335 38.0358C13.8335 37.3237 12.9286 36.3882 12.2397 36.3882C11.9397 36.3882 11.5244 36.6059 11.1941 36.9363ZM17.7566 36.9363C17.4262 37.2667 17.2085 37.682 17.2085 37.982C17.2085 38.6632 18.1451 39.5776 18.8347 39.5697C19.6827 39.5602 20.396 38.791 20.396 37.8862C20.396 37.3165 19.4082 36.3882 18.8022 36.3882C18.5022 36.3882 18.0869 36.6059 17.7566 36.9363ZM28.8191 36.9363C28.0681 37.6872 28.1446 38.675 29.0047 39.3354C29.8346 39.9725 31.4585 39.0768 31.4585 37.982C31.4585 37.682 31.2408 37.2667 30.9104 36.9363C30.5801 36.6059 30.1647 36.3882 29.8647 36.3882C29.5647 36.3882 29.1494 36.6059 28.8191 36.9363ZM35.3816 36.9363C34.6756 37.6422 34.6563 38.4099 35.3277 39.0815C35.9994 39.7529 36.767 39.7336 37.4729 39.0277C37.8033 38.6973 38.021 38.282 38.021 37.982C38.021 37.682 37.8033 37.2667 37.4729 36.9363C37.1426 36.6059 36.7272 36.3882 36.4272 36.3882C36.1272 36.3882 35.7119 36.6059 35.3816 36.9363ZM41.9441 36.9363C41.2267 37.6537 41.207 38.4809 41.8921 39.116C42.1841 39.3865 42.6144 39.5757 42.9378 39.5757C43.6481 39.5757 44.5835 38.6697 44.5835 37.982C44.5835 37.682 44.3658 37.2667 44.0354 36.9363C43.7051 36.6059 43.2897 36.3882 42.9897 36.3882C42.6897 36.3882 42.2744 36.6059 41.9441 36.9363Z" fill="#585858"/>
</g>
<defs>
<clipPath id="clip0_79_785">
<rect width="48" height="48" fill="white" transform="translate(0.333496 0.0124512)"/>
</clipPath>
</defs>
</svg>
