<svg width="49" height="49" viewBox="0 0 49 49" fill="none" xmlns="http://www.w3.org/2000/svg">
<g clip-path="url(#clip0_79_790)">
<path fill-rule="evenodd" clip-rule="evenodd" d="M4.32984 3.2597C3.37098 3.39702 2.49226 3.87458 1.81115 4.62848C0.607493 5.96071 0.685601 4.9731 0.685601 18.8591C0.685601 28.7293 0.72778 31.3976 0.891183 31.8588C1.19924 32.7284 2.34666 33.9127 3.29772 34.3425C4.12114 34.7146 4.13332 34.7152 11.035 34.7632L17.9476 34.8111V36.052V37.2928L16.3464 37.2944C14.9961 37.2956 14.6218 37.3533 13.9577 37.6626C12.6889 38.2534 11.8906 39.3869 11.7441 40.8055C11.6721 41.503 11.7096 41.6775 11.9915 41.9595C12.3232 42.2911 12.3412 42.2918 21.9312 42.2918C31.3303 42.2918 31.5453 42.285 31.851 41.9793C32.4757 41.3546 32.085 39.5369 31.0998 38.4838C30.8686 38.2365 30.3279 37.8681 29.8983 37.6651C29.2364 37.3522 28.8729 37.2956 27.516 37.2944L25.9147 37.2928V36.0468V34.8007L28.6095 34.758L31.3042 34.7152L30.4271 34.3039C28.3449 33.3275 26.4509 31.7625 25.368 30.1238L24.7431 29.1781L14.589 29.1703C5.20779 29.1631 4.40952 29.142 4.10161 28.8927C3.91837 28.7441 3.68982 28.4692 3.5939 28.2815C3.47065 28.0403 3.41941 24.9111 3.41941 17.6119C3.41941 6.45451 3.40551 6.64853 4.24111 6.17113C4.70805 5.90431 38.324 5.78324 39.2239 6.04506C40.3194 6.36375 40.443 6.70493 40.443 9.41124V11.7937L41.4974 12.4376C42.0773 12.7919 42.7102 13.1951 42.9034 13.3337L43.2549 13.5858V10.2139C43.2549 6.27627 43.1107 5.64077 41.9677 4.53803C40.5823 3.2019 42.418 3.32532 22.6196 3.23736C12.9459 3.19441 4.71539 3.2044 4.32984 3.2597ZM16.494 8.82761C16.3158 9.02445 15.9546 10.8841 15.266 15.1485C14.7296 18.4715 14.2662 21.1661 14.2365 21.1365C14.2069 21.1066 13.6651 19.103 13.0326 16.6836C12.4 14.2643 11.7975 12.1824 11.6935 12.0571C11.4621 11.7782 10.6987 11.7575 10.4942 12.0246C10.412 12.1321 9.79699 13.4676 9.12744 14.9927L7.9102 17.7656H6.37145C4.91363 17.7656 4.81943 17.7856 4.58354 18.1457C4.27501 18.6165 4.48591 19.1097 5.09484 19.3412C5.54569 19.5126 8.32136 19.5065 8.80235 19.3331C9.00544 19.2598 9.40707 18.5503 9.99601 17.224L10.8838 15.2252L11.125 16.0658C11.2576 16.5282 11.8781 18.9077 12.5041 21.3538C13.6143 25.6929 13.8682 26.3576 14.4154 26.3576C14.5348 26.3576 14.7746 26.2346 14.9483 26.0842C15.2171 25.8516 15.3965 24.9732 16.1525 20.187C16.641 17.0939 17.077 14.4577 17.1213 14.3288C17.1655 14.1999 17.6905 16.3089 18.288 19.0153C19.032 22.3856 19.4544 23.9977 19.6281 24.1315C19.9611 24.3877 20.5205 24.3805 20.7391 24.1171C20.8347 24.002 21.4233 21.7884 22.0469 19.1981C22.6706 16.6079 23.2161 14.4878 23.259 14.4871C23.302 14.4863 23.5777 15.1675 23.8717 16.0008C24.3201 17.272 24.4333 17.4702 24.5747 17.2316C24.6673 17.0751 24.9264 16.6671 25.1504 16.3248L25.5576 15.7024L24.9362 13.9611C24.5944 13.0035 24.2026 11.8803 24.0654 11.4652C23.9284 11.0501 23.6843 10.64 23.5231 10.5537C23.1077 10.3314 22.5587 10.5102 22.3758 10.9273C22.29 11.1228 21.772 13.1609 21.2246 15.4565C20.6772 17.7523 20.2111 19.6124 20.1889 19.5902C20.1666 19.568 19.6192 17.1624 18.9723 14.2446C17.7796 8.86495 17.6704 8.54876 17.0047 8.54876C16.8626 8.54876 16.6328 8.67421 16.494 8.82761ZM32.5096 12.301C30.3618 12.8636 28.1076 14.3198 26.7686 16.0094C25.8897 17.1185 24.9093 19.0749 24.5575 20.4213C24.202 21.7823 24.2035 24.3824 24.561 25.7327C25.6418 29.8178 28.7148 32.8614 32.7844 33.8779C33.9101 34.1589 34.3777 34.1939 35.9088 34.1113C36.899 34.0577 37.8734 33.996 38.0739 33.9741C38.4017 33.9382 38.7222 34.4492 41.2342 39.0112C42.7719 41.8036 44.2108 44.2464 44.4322 44.4398C44.9255 44.8708 46.1401 44.9197 46.8948 44.5391C48.0191 43.972 48.8176 42.8846 48.6661 42.1271C48.6185 41.8886 47.4614 39.6664 46.0948 37.1889C44.7282 34.7115 43.4574 32.3835 43.2707 32.0158L42.9312 31.347L43.6726 30.5062C44.7158 29.3229 45.5382 27.8999 46.0229 26.439C46.3908 25.3304 46.4388 24.9427 46.4388 23.077C46.4388 21.2096 46.3911 20.825 46.0224 19.7183C45.4221 17.9159 44.6038 16.6112 43.1788 15.1844C41.7282 13.7319 40.0856 12.7859 38.1586 12.293C36.5618 11.8846 34.0851 11.8881 32.5096 12.301ZM33.5694 15.6712C30.8565 16.3918 28.8071 18.3847 28.0791 21.0096C26.8916 25.2923 29.5304 29.5899 33.9185 30.5192C37.7917 31.3395 41.7299 28.8745 42.7806 24.9724C43.084 23.8461 43.0146 21.8765 42.6313 20.7297C41.3611 16.9291 37.3218 14.6744 33.5694 15.6712Z" fill="#585858"/>
</g>
<defs>
<clipPath id="clip0_79_790">
<rect width="48" height="48" fill="white" transform="translate(0.666992 0.0124512)"/>
</clipPath>
</defs>
</svg>
