<svg width="48" height="49" viewBox="0 0 48 49" fill="none" xmlns="http://www.w3.org/2000/svg">
<path fill-rule="evenodd" clip-rule="evenodd" d="M23.4789 0.304666C23.3042 0.351009 20.0647 4.15316 19.8371 4.57888C19.5313 5.15096 20.0945 5.87795 20.7482 5.7553C21.035 5.70151 21.2504 5.5087 21.9728 4.65926L22.8493 3.62841L22.8989 7.06866C22.934 9.4999 22.9838 10.5703 23.0688 10.7185C23.1349 10.8338 23.3247 10.9843 23.4906 11.053C23.8552 11.2041 24.3246 11.0508 24.5153 10.7185C24.6003 10.5701 24.65 9.49335 24.6851 7.0382L24.7348 3.56748L25.5705 4.57719C26.551 5.76165 26.8231 5.9237 27.3539 5.63949C27.6238 5.49501 27.7345 5.35608 27.804 5.07455C27.9156 4.62284 27.9881 4.73011 25.9071 2.26474C24.2671 0.321636 24.0563 0.151548 23.4789 0.304666ZM20.5173 14.1426C18.7435 15.1728 16.4747 16.4904 15.4755 17.0706L13.6588 18.1253L13.987 18.3251C14.1675 18.435 15.4985 19.2045 16.9449 20.0352C18.3912 20.8658 20.4857 22.0692 21.5991 22.7094C22.7126 23.3497 23.6799 23.8952 23.7487 23.9216C23.9097 23.9833 33.9398 18.1851 33.8401 18.0878C33.7988 18.0476 32.8943 17.5147 31.83 16.9038C30.7657 16.2927 28.5999 15.0465 27.0171 14.1343C25.4344 13.2222 24.05 12.4294 23.9409 12.3726C23.773 12.2853 23.2452 12.5582 20.5173 14.1426ZM13.277 24.5967L13.2874 30.3985L14.6945 31.2089C15.4683 31.6547 16.4363 32.2152 16.8456 32.4544C17.255 32.6938 18.8849 33.6415 20.4677 34.5605L23.3455 36.2314L23.4069 33.9881C23.4406 32.7543 23.4742 30.1308 23.4813 28.1579L23.4943 24.5709L21.9314 23.6776C21.0717 23.1862 19.6763 22.3836 18.8303 21.8939C14.3615 19.3074 13.458 18.7949 13.3665 18.7949C13.3003 18.7949 13.27 20.7566 13.277 24.5967ZM29.6862 21.3568C27.2791 22.7585 25.0464 24.0617 24.7245 24.2527L24.1394 24.6L24.1123 30.303C24.0974 33.4396 24.1072 36.0631 24.134 36.133C24.1681 36.2218 24.4301 36.1142 25.0046 35.7753C25.4565 35.5086 26.5185 34.8922 27.3645 34.4056C28.2104 33.9188 30.1195 32.8109 31.6067 31.9435L34.3108 30.3662V26.8293C34.3108 22.9377 34.213 18.7911 34.1213 18.8015C34.0892 18.8051 32.0934 19.955 29.6862 21.3568ZM4.33818 20.3144C4.19965 20.3882 3.18856 21.1929 2.09133 22.1028C0.000464289 23.8368 -0.1464 24.0158 0.0773724 24.5559C0.176606 24.7955 2.06831 26.4788 3.7793 27.85C4.58518 28.4958 5.1011 28.4683 5.39543 27.7638C5.6067 27.2582 5.3992 26.9319 4.26733 25.9893L3.31409 25.1955L6.86349 25.1458L10.4128 25.0962L10.6523 24.8178C11.0928 24.3054 10.8695 23.64 10.1961 23.4587C9.96634 23.3967 8.5603 23.3675 6.58475 23.3832C4.80548 23.3975 3.36093 23.3816 3.37452 23.3478C3.38822 23.314 3.83388 22.922 4.36498 22.4767C4.89598 22.0315 5.37608 21.5819 5.43175 21.4779C5.81003 20.771 5.03362 19.9448 4.33818 20.3144ZM42.5827 20.2804C42.294 20.3998 42.0511 20.7678 42.0511 21.086C42.0511 21.4373 42.2652 21.6861 43.3236 22.5652C43.816 22.9741 44.208 23.3198 44.1945 23.3333C44.181 23.3468 42.6326 23.3694 40.7537 23.3835C37.0534 23.4114 37.0146 23.4171 36.7889 23.9619C36.6455 24.308 36.7569 24.7071 37.0643 24.949C37.3033 25.1369 37.4742 25.1458 40.8308 25.1458H44.347L43.2927 26.0471C42.7129 26.5429 42.1943 27.0645 42.1403 27.2065C41.9546 27.6948 42.4195 28.3222 42.9655 28.3206C43.2751 28.3197 43.4281 28.2059 45.6041 26.3579C47.5274 24.7244 47.6972 24.5217 47.569 24.011C47.517 23.8038 45.5183 22.0515 43.6885 20.6088C43.2392 20.2547 42.8933 20.1519 42.5827 20.2804ZM23.5439 37.4522C23.4348 37.4931 23.2562 37.6259 23.147 37.7471C22.9587 37.9563 22.946 38.1449 22.8989 41.4375L22.8493 44.9075L22.0554 43.9644C21.6188 43.4457 21.1238 42.9452 20.9554 42.8521C20.5365 42.6204 20.1322 42.76 19.8791 43.2237C19.7166 43.5217 19.7056 43.6184 19.807 43.862C20.0064 44.3413 23.2223 48.1053 23.5228 48.211C24.0226 48.3868 24.2806 48.1805 25.813 46.3796C28.0827 43.7125 28.0921 43.6953 27.6037 43.1148C27.3988 42.8713 27.2695 42.8095 26.965 42.8095C26.6158 42.8095 26.5296 42.8703 25.9566 43.5211C25.6121 43.9125 25.1863 44.3926 25.0103 44.5879L24.6905 44.943L24.6878 41.5489C24.686 39.2781 24.6487 38.0748 24.575 37.913C24.415 37.5621 23.8838 37.3246 23.5439 37.4522Z" fill="#585858"/>
</svg>
