<svg width="45" height="49" viewBox="0 0 45 49" fill="none" xmlns="http://www.w3.org/2000/svg">
<path fill-rule="evenodd" clip-rule="evenodd" d="M22.1303 0.317569C21.9235 0.408861 21.3067 1.03867 19.2614 3.24692C18.5175 4.05008 17.6493 4.98278 17.3321 5.31959C14.9947 7.80124 13.325 9.65242 13.1938 9.90774C13.1066 10.0775 13.0388 10.4307 13.0388 10.716C13.0388 11.9652 14.4193 12.8618 15.5309 12.3343C15.8741 12.1715 16.6632 11.3769 19.0728 8.76805L20.7171 6.98772L20.7715 13.8555C20.8302 21.2709 20.8215 21.1419 21.3593 22.5705C21.9437 24.123 22.7763 25.4075 23.9312 26.5381C25.1935 27.774 26.4467 28.5366 28.0657 29.0541C29.1331 29.3952 30.0492 29.5367 31.3453 29.5606L32.3638 29.5793L32.6312 30.2134C33.6109 32.5369 35.8711 34.0505 38.382 34.0647C40.9305 34.0789 43.0495 32.7797 44.1384 30.5352C44.6473 29.486 44.8258 28.598 44.7642 27.4211C44.5402 23.1355 40.2286 20.3437 36.1878 21.8675C34.8062 22.3885 33.5095 23.5677 32.834 24.9173C32.621 25.3429 32.4466 25.7499 32.4466 25.8217C32.4466 25.9237 32.2504 25.9521 31.5476 25.9521C30.5747 25.9521 29.5 25.7671 28.7358 25.468C27.2484 24.8859 25.8552 23.5984 25.1443 22.149C24.3738 20.5781 24.4032 20.8671 24.3676 14.5053C24.3502 11.3963 24.3485 8.43331 24.3636 7.92099L24.3914 6.98941L26.0864 8.81601C29.5711 12.5712 29.5424 12.5474 30.4775 12.4576C31.3886 12.37 32.0697 11.6163 32.0697 10.6957C32.0697 9.86129 32.4295 10.2978 26.5482 3.99741C24.8327 2.15971 23.3415 0.578255 23.2346 0.483195C23.0118 0.285255 22.4085 0.194811 22.1303 0.317569ZM5.17209 21.6086C3.82353 21.9787 2.86878 22.5434 2.01097 23.4786C0.951932 24.6332 0.430372 25.8682 0.346146 27.4211C0.279255 28.6552 0.472391 29.5483 1.05104 30.6804C1.90659 32.3543 3.55361 33.6118 5.36051 33.9706C6.06051 34.1097 7.54323 34.0802 8.18688 33.9145C10.0387 33.4377 11.7217 32.0035 12.445 30.2859C12.5868 29.9491 12.7422 29.646 12.7905 29.6123C12.8386 29.5786 13.3621 29.5454 13.9536 29.5385C16.275 29.5115 18.3296 28.8178 20.1604 27.4428C20.4242 27.2447 20.6684 27.0827 20.7031 27.0827C20.7378 27.0827 20.7551 29.0562 20.7416 31.4685L20.7171 35.8541L20.1732 36.0753C18.479 36.7638 17.1069 38.2354 16.5234 39.9898C16.2382 40.8468 16.1682 42.4433 16.3765 43.3343C16.9966 45.986 19.3415 48.017 22.0417 48.2409C25.1234 48.4965 28.022 46.3707 28.7321 43.3343C28.9573 42.3708 28.8712 40.844 28.5371 39.875C27.9558 38.1899 26.5954 36.7498 24.9552 36.0834L24.3914 35.8542L24.3443 32.5657L24.2972 29.2771L23.5906 28.7146C22.1095 27.5356 20.8521 25.9342 20.0583 24.2162C19.8411 23.746 19.635 23.2824 19.6004 23.186C19.5473 23.0383 19.4408 23.1153 18.9206 23.6771C17.5072 25.2036 15.7439 25.9521 13.561 25.9521C12.8581 25.9521 12.662 25.9237 12.662 25.8217C12.662 25.7499 12.4855 25.3366 12.2699 24.9032C11.547 23.45 10.071 22.2109 8.46952 21.7124C7.51637 21.4157 6.04412 21.3694 5.17209 21.6086ZM5.98731 25.1506C4.38748 25.5292 3.50631 27.3047 4.15176 28.8493C4.22657 29.0284 4.48066 29.3811 4.71647 29.6332C6.00229 31.0078 8.30013 30.6106 9.11572 28.8727C9.39591 28.2757 9.38791 27.1924 9.09933 26.6378C8.78202 26.0282 8.3641 25.6058 7.82718 25.3526C7.21141 25.0621 6.6305 24.9983 5.98731 25.1506ZM37.9416 25.111C37.1411 25.264 36.4401 25.7994 36.0499 26.556C35.8496 26.9446 35.8018 27.1696 35.7983 27.7422C35.7929 28.6072 36.0033 29.1201 36.6007 29.6987C37.6205 30.6862 39.1599 30.7276 40.2184 29.7958C41.3838 28.7699 41.4891 27.0976 40.4618 25.9275C39.9011 25.2889 38.8289 24.9415 37.9416 25.111ZM21.6779 39.3664C20.3877 39.8472 19.6196 41.1969 19.9064 42.4791C20.1976 43.7799 21.2242 44.6062 22.5494 44.6062C23.6456 44.6062 24.5026 44.0811 24.9745 43.1199C25.6273 41.7905 25.0858 40.1876 23.753 39.5045C23.2486 39.246 22.1901 39.1755 21.6779 39.3664Z" fill="#585858"/>
</svg>
