<svg width="41" height="49" viewBox="0 0 41 49" fill="none" xmlns="http://www.w3.org/2000/svg">
<path fill-rule="evenodd" clip-rule="evenodd" d="M18.983 1.49886C15.6635 4.54942 11.6336 6.46914 6.77544 7.31443C5.99288 7.45065 4.24266 7.61755 2.88602 7.68523C1.52925 7.75303 0.398898 7.829 0.373782 7.85399C0.34879 7.87911 0.242262 8.89402 0.136972 10.1096C-0.180754 13.7792 0.0551898 17.7232 0.835276 21.7846C1.55251 25.519 2.61407 28.6503 4.3164 32.0537C7.08426 37.5876 11.0353 42.1478 16.1587 45.7221C17.5374 46.684 20.149 48.2617 20.3626 48.2617C20.8207 48.2617 24.694 45.7581 26.7565 44.1289C28.2358 42.9603 31.1369 40.0753 32.3049 38.6112C34.9584 35.2848 37.3828 30.7575 38.6762 26.7138C40.0909 22.2904 40.7142 18.2705 40.726 13.495C40.7318 11.0991 40.5401 7.99751 40.3759 7.83345C40.3561 7.81366 39.2325 7.74573 37.8789 7.68239C31.1623 7.3685 26.1447 5.44234 21.7866 1.50529C21.0263 0.81837 20.3861 0.258761 20.3638 0.261731C20.3415 0.2647 19.7202 0.821463 18.983 1.49886ZM19.5936 3.78653C17.934 5.318 14.7931 7.11795 12.046 8.11184C9.48032 9.04014 6.63526 9.6099 3.80604 9.76196L2.25947 9.8451L2.16272 11.2061C2.10952 11.9546 2.09838 13.43 2.13798 14.4848C2.42848 22.2235 4.48875 29.0245 8.25507 34.6765C9.67803 36.8117 10.7169 38.0899 12.4668 39.8578C14.5413 41.9536 16.4064 43.4309 19.2256 45.2109L20.355 45.9239L21.329 45.339C22.8758 44.4098 24.9056 42.9273 26.4701 41.584C30.9439 37.7426 34.3687 32.6328 36.4649 26.6717C37.3204 24.2386 38.0902 20.6934 38.4664 17.4542C38.6802 15.6132 38.6746 10.2405 38.4586 9.98033C38.3368 9.83359 38.0685 9.78324 37.4085 9.78324C36.2939 9.78324 34.0782 9.51055 32.3865 9.16511C28.4469 8.36089 23.7114 6.09227 21.17 3.79173C20.7509 3.41239 20.389 3.10456 20.3658 3.10765C20.3424 3.11075 19.995 3.41622 19.5936 3.78653ZM19.8903 6.09042C19.0404 6.83648 16.8349 8.2217 15.3743 8.92694C12.3217 10.4009 9.41585 11.1905 5.68765 11.5589L4.23908 11.7021L4.2559 14.6091C4.27409 17.7349 4.4843 19.6579 5.1195 22.5082C6.71531 29.6697 10.6895 36.2103 16.0548 40.5055C17.3127 41.5125 19.9444 43.3177 20.2842 43.4065C20.5611 43.479 23.0113 41.8749 24.7042 40.5129C30.2847 36.0232 34.2913 29.2809 35.7867 21.8629C36.303 19.3015 36.4806 17.6227 36.5552 14.5966L36.6271 11.6772L35.4657 11.5917C30.0421 11.1925 24.5359 9.1338 20.9866 6.17826C20.671 5.91535 20.3926 5.70254 20.368 5.70538C20.3435 5.70811 20.1285 5.88144 19.8903 6.09042Z" fill="#585858"/>
</svg>
