<svg width="48" height="36" viewBox="0 0 48 36" fill="none" xmlns="http://www.w3.org/2000/svg">
<path fill-rule="evenodd" clip-rule="evenodd" d="M15.6951 0.509205C15.5196 0.647137 15.376 0.863178 15.376 0.989C15.376 1.51542 14.8458 2.58956 14.281 3.20753C13.7922 3.74254 13.4641 3.95665 12.4197 4.42288C10.4716 5.29237 9.1112 5.31114 7.8106 4.48633C6.85936 3.88314 6.68438 3.94708 5.18481 5.44653C3.70934 6.922 3.6207 7.14361 4.17702 7.96345C5.04216 9.23826 5.04215 10.6763 4.17715 12.64C3.69747 13.729 3.49718 14.0389 2.95017 14.5388C2.32797 15.1076 1.25539 15.6377 0.727281 15.6377C0.601459 15.6377 0.385418 15.7813 0.247486 15.9568C0.0182463 16.2482 -0.00318824 16.4346 0.000323628 18.1063C0.00323 19.4714 0.0467047 19.9928 0.171437 20.1574C0.263472 20.2787 0.656801 20.46 1.04553 20.5603C2.82423 21.0186 3.81361 22.1548 4.65524 24.7055C4.99638 25.7392 4.87298 26.9029 4.31459 27.9188C4.07094 28.3621 3.87161 28.87 3.87161 29.0475C3.87161 29.2966 4.17061 29.6693 5.17948 30.6782C6.65568 32.1544 6.88068 32.2421 7.73757 31.675C8.76909 30.9923 10.0319 30.848 11.2928 31.2684C12.7342 31.7491 13.7469 32.3133 14.3277 32.9592C14.844 33.5336 15.376 34.6292 15.376 35.1181C15.376 35.2372 15.5022 35.4531 15.6562 35.598C15.9191 35.8449 16.0531 35.8612 17.8129 35.8612C19.1309 35.8612 19.7514 35.8158 19.898 35.7087C20.0128 35.6247 20.1916 35.2309 20.2953 34.8336C20.6878 33.3308 21.5517 32.381 23.099 31.7513C24.6017 31.1398 24.7006 31.0021 24.7006 29.525C24.7006 28.6976 24.6562 28.4461 24.4693 28.2152L24.238 27.9293L20.0795 27.8618C15.4313 27.7864 15.2354 27.7577 13.4702 26.8936C11.0008 25.6848 9.18119 23.5406 8.33338 20.8407C8.0867 20.0552 8.04952 19.6908 8.04952 18.0597C8.04952 16.4286 8.0867 16.0642 8.33338 15.2787C9.34153 12.0681 11.6808 9.69165 14.8698 8.63869C15.7725 8.34055 15.9241 8.32953 20.0189 8.26087L24.238 8.19014L24.4693 7.90423C24.658 7.67112 24.7006 7.42105 24.7006 6.54865C24.7006 5.20578 24.5716 5.03346 23.0703 4.36972C21.4604 3.65802 20.683 2.79906 20.2986 1.30725C20.1983 0.918519 20.017 0.525191 19.8957 0.433156C19.7311 0.308424 19.2096 0.264949 17.8446 0.262042C16.1728 0.258531 15.9865 0.279965 15.6951 0.509205ZM30.8767 2.30171C29.874 2.63195 29.071 3.29472 28.619 4.16518C28.314 4.75299 28.2544 6.19189 28.5076 6.85503C28.6294 7.174 28.6731 7.465 28.6144 7.56709C28.5599 7.66203 28.0462 8.23604 27.4728 8.84287L26.4305 9.94608H22.4304C17.6615 9.94608 17.8585 9.89122 17.8585 11.2176C17.8585 12.5529 17.6117 12.4892 22.7885 12.4892C26.5448 12.4892 27.2033 12.4623 27.5576 12.2941C27.7838 12.1868 28.5822 11.4272 29.3319 10.6061L30.695 9.11316L31.5514 9.10577C33.1068 9.09233 34.2138 8.4631 34.8335 7.24037C35.9755 4.98647 34.4571 2.38793 31.9134 2.2437C31.5098 2.22082 31.0432 2.24685 30.8767 2.30171ZM31.1794 4.18322C29.9524 4.72853 29.7999 6.36603 30.9129 7.04455C31.3928 7.33724 32.1177 7.34935 32.5862 7.07264C33.0702 6.78673 33.4681 5.94291 33.3688 5.41323C33.2686 4.87966 32.8715 4.38715 32.3739 4.17923C31.8835 3.97433 31.6477 3.97506 31.1794 4.18322ZM43.9398 8.14401C42.9975 8.28254 42.0886 8.90947 41.5853 9.76818L41.2772 10.294L38.2552 10.3053C36.4873 10.3118 35.0956 10.3687 34.9016 10.4423C34.7194 10.5116 33.669 11.4637 32.5676 12.5581L30.565 14.5478H24.611C20.4439 14.5478 18.567 14.5889 18.3569 14.6847C18.1917 14.7599 17.9914 14.9788 17.9117 15.171C17.7076 15.6638 17.8346 16.5759 18.1514 16.8926C18.4092 17.1504 18.4357 17.1515 24.7343 17.1515C28.2125 17.1515 31.2212 17.1063 31.4203 17.0511C31.6521 16.9868 32.5271 16.2137 33.8533 14.9016L35.9242 12.8525H38.6535H41.3828L41.5329 13.2144C41.9227 14.1558 43.3232 14.9642 44.5608 14.9621C46.5209 14.9591 48.0124 13.4664 47.9999 11.5204C47.986 9.33174 46.1646 7.81704 43.9398 8.14401ZM43.4567 10.4162C43.0449 10.828 42.9866 10.9565 42.9866 11.4516C42.9866 12.7849 44.0364 13.5127 45.2105 12.9933C46.3314 12.4974 46.5202 11.1422 45.583 10.3193C45.2274 10.0071 45.0572 9.94608 44.5424 9.94608C43.9889 9.94608 43.8795 9.99343 43.4567 10.4162ZM35.0467 17.3198C34.3794 17.6229 33.6975 18.2418 33.4102 18.8051L33.1726 19.2707H25.7463C18.3502 19.2707 18.319 19.2718 18.0892 19.5256C17.9125 19.7208 17.8585 19.9635 17.8585 20.5618C17.8585 21.9079 17.2218 21.808 25.8165 21.8111L33.1691 21.8138L33.314 22.0862C33.6541 22.725 34.2343 23.2923 34.8642 23.6017C36.2387 24.2767 37.9986 23.9541 38.9686 22.8493C39.5618 22.1738 39.7514 21.703 39.8129 20.7529C39.8836 19.663 39.6464 18.9681 38.9411 18.1998C38.2395 17.4354 37.4477 17.0928 36.3867 17.0948C35.8237 17.0958 35.3737 17.1713 35.0467 17.3198ZM35.5626 19.133C35.0398 19.4776 34.8299 19.8626 34.8207 20.494C34.8107 21.186 35.1062 21.6508 35.764 21.9776C36.3572 22.2725 36.9397 22.1628 37.4982 21.6509C38.2765 20.9376 38.1576 19.6927 37.2587 19.1447C36.7698 18.8465 36.005 18.8413 35.5626 19.133ZM18.1643 24.1116C17.8549 24.421 17.7515 24.853 17.8359 25.4831C17.9629 26.4293 17.8951 26.4155 22.3968 26.4155C26.928 26.4155 26.4641 26.3073 27.6127 27.6331L28.2514 28.3703L28.0502 29.0081C27.6479 30.2843 27.878 31.4509 28.7207 32.4082C29.3892 33.1678 30.0136 33.4647 31.0898 33.5349C32.1989 33.6073 32.8884 33.3641 33.6849 32.6188C34.79 31.5852 35.0674 29.9922 34.3815 28.6195C33.9883 27.8326 33.5763 27.4159 32.7677 26.9874C32.3741 26.7787 32.0568 26.722 31.2581 26.7175L30.2471 26.7117L29.7567 26.1701C29.4871 25.8722 28.9973 25.3191 28.6685 24.9411C27.7259 23.8573 27.8098 23.8724 22.7606 23.8724C18.5837 23.8724 18.3935 23.8824 18.1643 24.1116ZM30.6369 28.6803C30.122 28.9464 29.6657 29.5993 29.6657 30.0703C29.6657 31.0076 30.3845 31.743 31.3005 31.743C32.55 31.743 33.3355 30.4033 32.6985 29.3587C32.2278 28.5867 31.3666 28.3033 30.6369 28.6803Z" fill="#585858"/>
</svg>
