<svg width="49" height="49" viewBox="0 0 49 49" fill="none" xmlns="http://www.w3.org/2000/svg">
<path fill-rule="evenodd" clip-rule="evenodd" d="M17.4852 1.23261C15.8707 1.73978 15.2012 2.01145 13.601 2.80912C11.733 3.74009 11.8334 3.61906 12.1571 4.55201C12.9619 6.87157 12.3583 9.31699 10.5673 10.9924C8.85242 12.5966 6.58477 13.0674 4.39083 12.2748L3.62276 11.9973L3.15424 12.8778C2.39101 14.3123 1.79947 15.6743 1.34247 17.0494C0.636348 19.1741 0.625198 19.0292 1.52768 19.4578C4.08521 20.6723 5.49226 23.6681 4.78353 26.3891C4.34511 28.0724 3.02478 29.6808 1.5112 30.3755C0.650099 30.7708 0.662486 30.5829 1.35709 32.7097C1.80034 34.0673 3.52192 37.7295 3.71666 37.7295C3.77315 37.7295 4.14876 37.6143 4.55113 37.4735C7.71172 36.3681 11.1582 38.0585 12.2922 41.2701C12.6796 42.3669 12.6674 43.9578 12.2626 45.1338L11.9527 46.0343L13.7663 46.9412C14.7638 47.4401 16.2177 48.051 16.9971 48.2988C19.1928 48.9968 18.9836 49.0108 19.3838 48.1388C20.5524 45.5929 23.6149 44.1474 26.3376 44.8565C28.0209 45.2949 29.6292 46.6153 30.3239 48.1288C30.6344 48.8051 30.6931 48.8651 30.9814 48.7998C31.7519 48.6254 33.8735 47.8714 34.9208 47.3998C35.8847 46.9658 37.5085 46.1153 37.6595 45.9651C37.6834 45.9415 37.5807 45.57 37.4314 45.1396C36.3167 41.9272 37.9817 38.5005 41.2186 37.3448C42.2832 36.9648 43.901 36.9658 45.0303 37.3473C45.7462 37.5893 45.9047 37.6076 46.0445 37.465C46.2722 37.2326 47.3625 35.0248 47.8215 33.8666C48.216 32.871 48.881 30.677 48.8078 30.6124C48.7844 30.5918 48.4401 30.4224 48.0427 30.236C45.525 29.0554 44.1008 26.0058 44.805 23.3025C45.2416 21.626 46.5585 20.0181 48.0773 19.3071C48.9274 18.909 48.912 19.0904 48.2656 17.0951C47.8135 15.7001 47.1536 14.189 46.4298 12.8912C46.1637 12.4143 45.9284 12.004 45.907 11.9793C45.8856 11.9548 45.5164 12.0556 45.0868 12.2036C42.7584 13.0048 40.3245 12.4113 38.6655 10.6379C37.4604 9.3497 37.0044 8.19029 37.0179 6.44938C37.0246 5.5832 37.0949 5.14999 37.3334 4.50766L37.6403 3.681L37.0087 3.33326C35.2539 2.36699 32.2925 1.17562 30.9229 0.88487C30.5623 0.808187 30.5347 0.833955 30.2035 1.55532C29.5052 3.07671 27.9007 4.39567 26.2137 4.83508C23.496 5.54294 20.5072 4.14134 19.2782 1.58257C19.0756 1.161 18.882 0.817849 18.8479 0.820079C18.8139 0.822309 18.2007 1.00801 17.4852 1.23261ZM22.8741 10.0572C22.6697 10.0883 21.9171 10.2574 21.2017 10.4328C18.4977 11.0961 16.3774 12.3081 14.317 14.3685C12.2538 16.4316 11.0751 18.4955 10.3497 21.3152C10.0354 22.5365 9.99857 22.89 9.99473 24.7219C9.9899 27.0245 10.12 27.8759 10.7618 29.7391C11.5291 31.9665 12.8097 33.9383 14.585 35.6261C16.4898 37.4369 18.6306 38.6119 21.2636 39.2915C22.4977 39.61 22.8251 39.6435 24.7323 39.6453C26.9348 39.6473 27.5715 39.5596 29.3159 39.0131C33.7162 37.6347 37.4544 33.9437 38.9158 29.5345C39.3719 28.1579 39.5575 27.0587 39.6237 25.3413C39.7894 21.0478 38.2162 17.1703 35.0836 14.1505C33.0391 12.1795 30.9788 11.0575 28.0771 10.3348C27.105 10.0926 23.7989 9.91621 22.8741 10.0572ZM17.4852 16.9793V17.6607H16.5561H15.627V18.6517V19.6428H16.5561H17.4852V26.5182V33.3936H18.1046H18.724V26.5182V19.6428H19.6532H20.5823V18.6517V17.6607H19.6532H18.724V16.9793V16.298H18.1046H17.4852V16.9793ZM24.1748 21.9911V27.6842L23.2767 27.7206L22.3786 27.757V28.7481V29.7391L23.2767 29.7755L24.1748 29.812V31.6028V33.3936H24.7942H25.4137V31.6028V29.812L26.3118 29.7755L27.2099 29.7391V28.7481V27.757L26.3118 27.7206L25.4137 27.6842V21.9911V16.298H24.7942H24.1748V21.9911ZM30.8644 18.8995V21.501H29.9353H29.0062V22.492V23.4831H29.9353H30.8644V28.4384V33.3936H31.4839H32.1033V28.4384V23.4831H33.0324H33.9615V22.4975V21.5119L33.0633 21.4755L32.1652 21.4391L32.1318 18.8685L32.0982 16.298H31.4814H30.8644V18.8995Z" fill="#585858"/>
</svg>
