<svg width="49" height="49" viewBox="0 0 49 49" fill="none" xmlns="http://www.w3.org/2000/svg">
<path fill-rule="evenodd" clip-rule="evenodd" d="M5.4287 3.93595C4.85442 4.06072 4.11262 4.4327 3.65218 4.82686C3.28799 5.13858 2.84467 5.78517 2.64574 6.29486C2.43195 6.84255 2.33329 8.22459 2.42906 9.33065C2.50145 10.1668 2.5458 10.3516 2.79646 10.8593C3.27377 11.8263 4.20164 12.541 5.40757 12.8707C5.89998 13.0053 6.8673 13.0134 22.3597 13.0134C40.231 13.0134 39.1463 13.0411 40.1713 12.56C41.1977 12.0783 41.9977 11.0431 42.2041 9.92944C42.3083 9.36777 42.3075 7.57414 42.2029 7.01882C42 5.9424 41.1803 4.78492 40.2816 4.30592C39.3122 3.78924 40.3287 3.81664 22.3195 3.8221C8.84402 3.8262 5.84069 3.84645 5.4287 3.93595ZM7.64982 6.26907C7.44696 6.33149 7.10736 6.53548 6.8951 6.72236C5.3625 8.07146 6.27855 10.6292 8.30501 10.6591C9.33756 10.6743 10.2086 10.0753 10.5358 9.12498C10.5874 8.97474 10.6295 8.63128 10.629 8.36173C10.6266 6.85765 9.13663 5.81104 7.64982 6.26907ZM35.931 15.1675C35.7728 15.2265 35.2305 15.5375 34.7259 15.8586C33.0179 16.9453 31.1705 17.7281 29.4297 18.1028C29.0099 18.1932 28.1061 18.3246 27.4212 18.3947C25.8634 18.5544 25.5802 18.6276 25.1722 18.9769C24.5716 19.4909 24.4878 19.7526 24.4954 21.0878C24.5133 24.2165 25.1799 27.7055 26.3027 30.547C26.6689 31.4738 27.6506 33.337 28.224 34.1934C30.0098 36.8609 32.3452 39.0363 35.2929 40.778C35.8498 41.1071 35.9351 41.133 36.4579 41.133C37.1334 41.133 37.3506 41.0377 38.7165 40.1423C43.8135 36.8005 46.9328 31.9774 48.0614 25.6926C48.3121 24.2963 48.4795 22.5582 48.4959 21.1804C48.5096 20.0286 48.4963 19.8957 48.3375 19.6015C47.9594 18.9009 47.3641 18.5661 46.3417 18.4792C43.0033 18.1955 40.7068 17.4444 38.209 15.8195C37.8455 15.5831 37.4419 15.3347 37.3121 15.2676C36.9689 15.0901 36.2733 15.0397 35.931 15.1675ZM5.4287 15.7462C4.00954 16.0545 2.82113 17.2076 2.53158 18.557C2.38897 19.2214 2.35257 20.1905 2.43348 21.1673C2.50064 21.9786 2.54451 22.1605 2.79566 22.6687C3.26558 23.6194 4.16669 24.3204 5.38113 24.6798C5.80895 24.8065 6.58064 24.8207 14.3142 24.8446L22.7789 24.8707L22.7308 24.5258C22.7042 24.3361 22.6601 23.1325 22.6327 21.851C22.589 19.8123 22.5999 19.4559 22.719 18.9989C23.078 17.6227 24.0584 16.5772 25.3971 16.1431C25.705 16.0432 25.8109 15.9725 25.7787 15.8885C25.7541 15.8244 25.734 15.7389 25.734 15.6983C25.734 15.6539 21.7964 15.6271 15.8319 15.6309C7.81918 15.6361 5.83418 15.6581 5.4287 15.7462ZM35.6964 18.0463C34.9131 18.5662 32.8807 19.5657 31.9605 19.8836C30.827 20.2753 29.4825 20.588 28.3451 20.7246C26.4211 20.9558 26.6178 20.9019 26.6178 21.1971C26.6178 21.8151 26.7979 23.6976 26.9455 24.6228C27.1112 25.661 27.2983 26.4895 27.5945 27.495L27.7659 28.0775H32.0922H36.4183L36.439 33.3828L36.4596 38.6881L37.3032 38.1359C40.3703 36.1281 42.6447 33.5813 44.1021 30.5226C44.59 29.4986 45.0964 28.2687 45.0964 28.1075C45.0964 28.0153 44.3906 27.9972 40.7981 27.9972H36.4998V22.8151C36.4998 18.7195 36.4788 17.6344 36.3994 17.6397C36.3442 17.6434 36.0278 17.8264 35.6964 18.0463ZM7.64982 18.0793C7.15805 18.2307 6.55469 18.7745 6.32073 19.277C5.80044 20.3943 6.37263 21.8689 7.49645 22.3068C9.02929 22.9042 10.6282 21.8306 10.6282 20.204C10.6282 18.6682 9.15342 17.616 7.64982 18.0793ZM5.76911 27.4867C4.29692 27.7949 3.33355 28.486 2.79494 29.6203C2.43292 30.3825 2.31248 31.4659 2.42938 32.9089C2.49454 33.7134 2.54845 33.9654 2.74577 34.387C3.18371 35.323 4.03389 36.0411 5.15867 36.4254L5.76911 36.6339L16.6755 36.6565C22.674 36.6688 27.5819 36.6573 27.5819 36.6308C27.5819 36.6042 27.3515 36.2868 27.0699 35.9253C25.403 33.7855 24.1927 31.2952 23.4512 28.4792L23.1868 27.4749L14.5582 27.464C9.81262 27.458 5.85748 27.4682 5.76911 27.4867ZM7.64982 29.8895C7.44696 29.952 7.10736 30.1559 6.8951 30.3428C6.09947 31.0431 5.89894 32.0873 6.37649 33.0429C6.78302 33.8565 7.46383 34.2745 8.38608 34.2767C10.4552 34.2817 11.422 31.713 9.86637 30.3437C9.2536 29.8044 8.45653 29.641 7.64982 29.8895ZM19.7887 40.9924V42.539H17.981H16.1734V44.5791C16.1734 46.3654 16.1892 46.6253 16.3005 46.668C16.5318 46.7568 28.2225 46.7235 28.3906 46.6336C28.5374 46.555 28.546 46.4469 28.546 44.6718C28.546 43.6386 28.524 42.736 28.4972 42.6661C28.4548 42.5555 28.2158 42.539 26.6493 42.539H24.8503L24.8502 40.9924V39.4458H22.3194H19.7886L19.7887 40.9924ZM1.63392 42.9498C0.673916 43.3329 0.209541 44.6019 0.6936 45.5191C0.941373 45.9886 1.44214 46.3615 1.97127 46.4707C2.2597 46.5302 4.27853 46.5514 8.29987 46.537L14.205 46.5159L14.2266 44.6881L14.2482 42.8604L8.04029 42.8654C4.16147 42.8686 1.75789 42.9003 1.63392 42.9498ZM30.3938 44.7106V46.5608L36.5601 46.5384L42.7263 46.5159L43.0591 46.3379C44.2276 45.713 44.4551 44.2169 43.517 43.3266C43.0078 42.8433 43.2627 42.8604 36.5425 42.8604H30.3938V44.7106Z" fill="#585858"/>
</svg>
