<svg width="65" height="65" viewBox="0 0 65 65" fill="none" xmlns="http://www.w3.org/2000/svg">
<rect x="1" y="1.32007" width="63" height="63" stroke="black"/>
<path d="M17.6045 3.73328C17.7853 11.3679 19.7054 19.0003 22.1095 25.2509C24.6349 31.8165 27.7638 36.9208 29.5439 38.7009L29.8821 39.0389V42.4669H35.7819V39.0389L36.1201 38.7009C37.9002 36.9206 41.0292 31.8165 43.5546 25.2509C45.9586 19.0003 47.8787 11.3679 48.0596 3.73328H17.6045ZM11.114 12.4926C8.80926 13.2685 6.97185 14.8287 6.28837 16.3874C5.90167 17.2691 5.84203 18.1111 6.16165 18.969C6.1982 19.0673 6.24117 19.1666 6.28939 19.2663C6.64435 19.0458 7.00823 18.8399 7.38009 18.6492L8.18516 18.2368L8.77783 18.9199C9.43669 19.6792 10.0104 20.5065 10.4993 21.3728C10.8293 20.9804 11.1671 20.3642 11.4035 19.5725C11.9795 17.6443 11.9578 14.8334 11.114 12.4926ZM54.55 12.4926C53.7061 14.8333 53.6845 17.6443 54.2604 19.5725C54.4969 20.3642 54.8348 20.9804 55.1648 21.3728C55.6538 20.5063 56.2274 19.6792 56.8862 18.9199L57.4789 18.2368L58.284 18.6492C58.6558 18.8399 59.0197 19.0458 59.3747 19.2663C59.4228 19.1664 59.4657 19.0673 59.5024 18.969C59.822 18.1111 59.7624 17.2691 59.3757 16.3874C58.6922 14.8287 56.8548 13.2685 54.55 12.4926ZM7.61121 21.1807C5.01388 22.7821 3.23495 25.2176 2.89828 27.3336C2.71269 28.5007 2.90982 29.5427 3.58099 30.4816C3.7939 30.7797 4.06106 31.0708 4.38952 31.3487C4.82598 30.6698 5.31666 30.0274 5.85678 29.4278L6.46215 28.7557L7.25953 29.1828C8.27404 29.7261 9.21698 30.3915 10.0735 31.139C10.1983 30.673 10.2811 30.1268 10.3009 29.5209C10.3825 27.0278 9.43361 23.6806 7.61134 21.1807H7.61121ZM58.0529 21.1807C56.2303 23.6804 55.2816 27.0279 55.3632 29.5209C55.3829 30.1268 55.4658 30.673 55.5906 31.139C56.4471 30.3915 57.39 29.7261 58.4045 29.1828L59.2019 28.7557L59.8073 29.4278C60.3474 30.0274 60.8381 30.6697 61.2745 31.3485C61.6029 31.0709 61.87 30.7797 62.0831 30.4815C62.7542 29.5427 62.9514 28.5007 62.7658 27.3336C62.4291 25.2176 60.6502 22.7821 58.0529 21.1807ZM6.97544 31.7103C5.12931 34.1223 4.34668 37.0218 4.79456 39.1169C5.04184 40.273 5.60232 41.179 6.57015 41.8203C7.20425 42.2405 8.04254 42.5514 9.12759 42.6726C9.3698 41.8864 9.67435 41.1207 10.0383 40.3829L10.4391 39.5701L11.3241 39.7669C11.8493 39.8838 12.3672 40.0293 12.8753 40.2C12.8274 39.7078 12.7074 39.1503 12.5001 38.5558C11.6772 36.1964 9.58239 33.4019 6.97544 31.7103ZM58.6886 31.7103C56.0817 33.4019 53.9867 36.1964 53.164 38.5558C52.9567 39.1503 52.8366 39.7078 52.7888 40.2C53.2978 40.0285 53.8155 39.8839 54.3398 39.7669L55.2248 39.5701L55.6257 40.3829C55.9897 41.1207 56.2943 41.8864 56.5365 42.6726C57.6215 42.5515 58.4598 42.2404 59.0939 41.8203C60.0617 41.179 60.6222 40.2729 60.8695 39.1169C61.3174 37.0218 60.5348 34.1223 58.6886 31.7103ZM11.7338 42.2779C10.5429 45.2458 10.576 48.415 11.6428 50.4274C12.229 51.5328 13.0673 52.3008 14.2423 52.6798C14.8305 52.8695 15.5194 52.9607 16.3182 52.9111C16.0444 51.4804 15.9628 49.965 16.093 48.43L16.1702 47.5227L17.0705 47.3862C17.6426 47.2999 18.2187 47.2438 18.7966 47.2179C18.8677 47.2147 18.9386 47.2128 19.0095 47.2103C17.4167 45.1869 14.6638 43.1792 11.7338 42.2779ZM53.9303 42.2779C51.0003 43.1792 48.2472 45.1868 46.6544 47.2103C46.7255 47.2128 46.7964 47.2147 46.8673 47.2179C47.4445 47.2443 48.021 47.2996 48.5936 47.3862L49.494 47.5227L49.571 48.43C49.7013 49.9649 49.6197 51.4804 49.3459 52.9111C50.1447 52.9606 50.8337 52.8695 51.4217 52.6798C52.5968 52.3008 53.4352 51.5328 54.0212 50.4273C55.0881 48.4149 55.1212 45.2457 53.9303 42.2779ZM25.6149 44.7755C25.3657 45.7224 24.8396 46.5766 24.1571 47.2589C24.0149 47.3999 23.8658 47.5336 23.7103 47.6597C25.609 48.0823 27.386 48.7745 28.8924 49.6426C29.1981 48.9551 29.5819 48.3158 30.099 47.7785C30.7748 47.0767 31.7431 46.5711 32.832 46.5711C33.9209 46.5711 34.8894 47.0767 35.5651 47.7785C36.0822 48.3159 36.4659 48.9552 36.7717 49.6424C38.2871 48.7693 40.0764 48.0739 41.9879 47.6519C41.8205 47.5145 41.6604 47.3684 41.5084 47.2142C40.838 46.5302 40.3194 45.6941 40.064 44.7755H25.6149ZM32.832 48.8797C32.3916 48.8797 32.1093 49.0187 31.7624 49.3793C31.4154 49.7398 31.0704 50.3438 30.797 51.0848C30.25 52.567 29.9834 54.5478 29.8792 56.0158C29.7419 57.9452 30.2639 60.2955 31.4548 61.1538C32.0618 61.5914 33.6022 61.5914 34.2093 61.1538C35.4001 60.2955 35.9221 57.9452 35.7849 56.0158C35.6806 54.5478 35.4141 52.567 34.8671 51.0848C34.5936 50.3439 34.2485 49.7397 33.9017 49.3793C33.5548 49.0189 33.2725 48.8797 32.832 48.8797ZM19.5547 49.5183C19.3348 49.5173 19.1156 49.5211 18.8972 49.5298C18.717 49.5369 18.5419 49.5659 18.3631 49.5799C18.3095 53.1476 19.6221 56.4471 21.5688 58.1274C22.6287 59.0424 23.8243 59.509 25.2048 59.4301C25.9626 59.3868 26.7945 59.1698 27.6897 58.7221C27.5268 57.7391 27.5131 56.7444 27.5764 55.8519C27.6575 54.7117 27.814 53.2916 28.1509 51.8917C25.95 50.5211 22.7095 49.5324 19.5547 49.5182V49.5183ZM46.1093 49.5183C42.9546 49.5324 39.714 50.5213 37.5131 51.8917C37.8501 53.2916 38.0066 54.7117 38.0876 55.8519C38.151 56.7443 38.1372 57.7391 37.9744 58.7223C38.8696 59.1699 39.7015 59.3868 40.4593 59.4301C41.8398 59.509 43.0354 59.0424 44.0954 58.1275C46.042 56.4471 47.3546 53.1476 47.3009 49.5799C47.1223 49.5659 46.947 49.5369 46.7669 49.5298C46.5478 49.5211 46.3286 49.5173 46.1093 49.5183Z" fill="#636363"/>
</svg>
