<svg width="49" height="49" viewBox="0 0 49 49" fill="none" xmlns="http://www.w3.org/2000/svg">
<path fill-rule="evenodd" clip-rule="evenodd" d="M22.8513 3.87174C14.4073 4.54213 7.18132 10.2402 4.50933 18.3355C3.20732 22.2802 3.1602 27.0632 4.38566 30.9002C4.53796 31.377 4.6632 31.8091 4.66399 31.8605C4.66478 31.912 4.52026 31.9222 4.34283 31.8832C3.67367 31.7363 2.38688 32.2166 1.63848 32.8928C0.694047 33.746 0.251251 35.4337 0.641967 36.6909C0.891434 37.4939 4.87209 44.3181 5.37643 44.8077C7.2458 46.622 10.2915 45.997 11.4021 43.5711C11.7316 42.8514 11.7931 41.7524 11.5456 41.0108C11.3271 40.3563 7.53314 33.7812 7.00456 33.1411C6.23294 32.2065 5.38195 29.5395 5.11129 27.2067C4.91616 25.5261 5.03081 22.3972 5.34058 20.9452C6.80323 14.0894 11.7726 8.47702 18.3055 6.30272C20.631 5.52873 21.5407 5.3956 24.5056 5.3956C27.4778 5.3956 28.406 5.53189 30.7056 6.30565C36.4764 8.24751 41.172 12.9514 43.0439 18.6663C43.8174 21.0273 43.9436 21.8824 43.9465 24.7779C43.9487 27.0402 43.9168 27.5242 43.6956 28.575C43.2402 30.7392 42.6082 32.4208 41.9409 33.2443C41.4517 33.8479 37.6491 40.4417 37.4946 40.9544C37.1918 41.9587 37.2459 42.8683 37.6613 43.7528C37.9122 44.2872 38.8729 45.2469 39.4088 45.4986C40.8243 46.1633 42.5606 45.8695 43.6492 44.7807C44.2242 44.2057 48.2268 37.2661 48.4117 36.5236C48.5903 35.8061 48.4886 34.6622 48.1916 34.0486C47.8391 33.3204 47.2092 32.6387 46.6158 32.343C45.9228 31.9976 45.0672 31.7956 44.6683 31.8832C44.4909 31.9222 44.3464 31.912 44.3472 31.8605C44.348 31.8091 44.4732 31.377 44.6255 30.9002C45.0511 29.5675 45.3482 27.9417 45.4636 26.314C46.1843 16.1502 39.596 7.04673 29.6304 4.43651C27.75 3.944 24.9157 3.70783 22.8513 3.87174ZM18.6517 14.7299C12.373 16.834 12.2931 16.8707 12.5455 17.5345C12.6076 17.6978 12.7495 17.8799 12.861 17.9391C13.1885 18.113 24.319 21.7913 24.5167 21.791C24.6158 21.7908 26.6703 21.1313 29.0822 20.3255C31.494 19.5196 33.4802 18.8602 33.4956 18.8601C33.5111 18.8598 33.5238 20.7507 33.5238 23.0619C33.5238 27.7027 33.5197 27.6746 34.2285 27.8252C34.4299 27.868 34.6836 27.9813 34.792 28.077C35.2339 28.4669 34.8663 29.3434 34.261 29.3434C33.9187 29.3434 33.5238 29.7474 33.5238 30.0975C33.5238 30.4934 33.908 30.8089 34.39 30.8089C35.3311 30.8089 36.2348 30.0366 36.4595 29.0405C36.658 28.1609 36.1416 27.033 35.3727 26.6663L34.9893 26.4835V22.4103V18.3372L35.5971 18.1457C35.9314 18.0403 36.2674 17.8786 36.3439 17.7866C36.5491 17.5393 36.5129 17.0626 36.2716 16.8337C36.1212 16.6911 25.8505 13.1685 24.562 12.8176C24.5 12.8008 21.8404 13.6613 18.6517 14.7299ZM16.9603 24.8164C16.9713 28.9152 16.9935 29.0842 17.546 29.2784C17.816 29.3733 17.951 29.3175 18.6769 28.8108C19.7103 28.0892 20.4783 27.8242 21.2707 27.9155C21.8163 27.9784 22.2815 28.1826 23.9138 29.0759L24.5056 29.3998L25.041 29.1102C25.3356 28.9508 25.9316 28.622 26.3656 28.3793C27.0954 27.9712 27.2182 27.9387 28.0002 27.9472C28.979 27.9578 29.3531 28.0983 30.3439 28.8277C31.1186 29.398 31.3427 29.4463 31.7359 29.1279L32.002 28.9124L32.02 24.957C32.03 22.7815 32.0037 21.0016 31.9616 21.0016C31.9196 21.0016 30.2891 21.5342 28.3383 22.1852C26.3876 22.8362 24.6628 23.3688 24.5056 23.3688C24.3483 23.3688 22.6236 22.8362 20.6728 22.1852C18.7221 21.5342 17.0863 21.0016 17.0379 21.0016C16.9896 21.0016 16.9546 22.7183 16.9603 24.8164ZM23.7158 33.9578C23.1729 34.123 22.7382 34.405 22.3297 34.8573C21.7731 35.4733 21.5546 36.0314 21.5502 36.8481C21.5438 38.0281 22.1373 39.0179 23.1355 39.4918L23.6918 39.7559L23.7382 41.6797C23.7801 43.4149 23.8102 43.6532 24.0448 44.1108C24.3975 44.7986 24.7932 45.2022 25.4638 45.5586L26.0274 45.8581L31.7187 45.8921L37.41 45.9262L37.115 45.6103C36.9529 45.4366 36.6865 45.0788 36.5233 44.8153L36.2265 44.3363H31.1983H26.17L25.7323 43.8986L25.2947 43.4609V41.5964V39.7319L25.6641 39.61C27.1102 39.1327 27.917 37.058 27.2179 35.614C26.5912 34.3194 25.0003 33.5671 23.7158 33.9578Z" fill="#585858"/>
</svg>
