<svg width="41" height="38" viewBox="0 0 41 38" fill="none" xmlns="http://www.w3.org/2000/svg">
<path fill-rule="evenodd" clip-rule="evenodd" d="M9.54087 0.980108C8.78067 1.0925 7.92998 1.51985 7.47453 2.01816C6.77169 2.78721 6.52622 3.82102 6.79628 4.87457C6.91772 5.34834 7.11094 5.72271 7.57211 6.37773C7.96265 6.93239 8.04314 7.08034 8.12845 7.40053C8.37941 8.34231 7.85074 9.13801 6.81187 9.38209C6.54565 9.44464 6.0166 9.46456 3.93563 9.49054C1.45908 9.52143 1.37792 9.52537 1.11781 9.62834C0.633261 9.82012 0.409966 10.1875 0.353384 10.8858C0.335005 11.1124 0.326441 12.2612 0.334331 13.4388C0.347322 15.3811 0.357426 15.6141 0.443164 15.9488C0.563112 16.417 0.68965 16.6641 0.935367 16.9098C1.32999 17.3044 1.90712 17.4289 2.4993 17.2472C2.81286 17.1509 2.98452 17.0499 3.91855 16.4119C4.4836 16.026 5.07025 15.8329 5.69178 15.8283C6.25221 15.8242 6.55826 15.8935 7.08337 16.1435C7.40246 16.2954 7.56648 16.4145 7.85487 16.7039C8.52471 17.3759 8.86401 18.2465 8.86622 19.2986C8.86954 20.8805 8.11166 22.1127 6.81341 22.6362C6.5036 22.7612 6.35296 22.7916 5.95641 22.8092C5.1035 22.8471 4.48456 22.6297 3.42905 21.9215C2.64552 21.3957 2.46379 21.3199 1.99132 21.3216C1.19075 21.3245 0.59044 21.876 0.402508 22.7813C0.336593 23.0989 0.301759 27.0651 0.358629 27.7771C0.401402 28.3122 0.567249 28.699 0.828073 28.8717C1.19383 29.1139 1.31099 29.1245 3.93563 29.1512C5.28522 29.1649 6.52804 29.1977 6.69745 29.2242C7.59198 29.364 8.23088 30.0857 8.18464 30.904C8.16391 31.2708 8.01066 31.6277 7.60377 32.2566C7.22492 32.842 6.91762 33.4664 6.80162 33.8861C6.6172 34.5535 6.70058 35.4632 6.99412 35.9858C7.65135 37.156 9.16327 37.872 10.6045 37.6957C12.5745 37.4548 13.8326 36.0072 13.622 34.2239C13.5435 33.5595 13.357 33.132 12.8139 32.3715C12.3046 31.6582 12.1739 31.3658 12.1486 30.883C12.1315 30.558 12.1454 30.4464 12.2253 30.2657C12.455 29.7464 13.0157 29.3671 13.7432 29.239C14.0157 29.191 14.7775 29.1663 16.4857 29.1499C17.7865 29.1374 18.9266 29.1073 19.0193 29.0831C19.6402 28.9204 19.8424 28.6724 19.9311 27.9648C19.9596 27.7377 19.9819 26.5985 19.9823 25.3482C19.9833 22.9499 20.0034 22.7114 20.247 22.2136C20.478 21.7413 21.023 21.3658 21.5697 21.3022C21.9823 21.2542 22.3395 21.4 23.157 21.9501C24.1496 22.6179 24.6933 22.8209 25.4893 22.8209C26.3812 22.8209 27.2893 22.3349 27.8726 21.5453C28.2765 20.9987 28.546 20.1147 28.5456 19.3384C28.5444 17.2224 27.007 15.6448 25.1537 15.8579C24.4711 15.9364 23.85 16.2219 22.8443 16.9197C22.1831 17.3783 21.647 17.4931 21.2084 17.2698C20.8753 17.1001 20.4365 16.5163 20.2095 15.9407C19.9525 15.2889 19.9564 15.334 19.9727 13.1982C19.9947 10.3262 19.9398 9.99107 19.4031 9.72172C19.0035 9.52109 18.494 9.47639 16.981 9.50921C15.5121 9.54101 13.9669 9.47923 13.484 9.36944C12.8412 9.22322 12.3207 8.78534 12.1825 8.27442C12.0995 7.96769 12.1524 7.49108 12.309 7.13374C12.3839 6.96294 12.6169 6.57856 12.8267 6.27963C13.2345 5.69885 13.4964 5.1493 13.5793 4.70083C13.6437 4.35282 13.6453 3.71676 13.5827 3.37756C13.515 3.0105 13.198 2.39619 12.9105 2.07474C12.157 1.23242 10.8051 0.793234 9.54087 0.980108ZM29.8766 0.976355C28.1179 1.29645 27.0061 2.48953 27.0061 4.05664C27.0061 4.79446 27.2034 5.32525 27.8098 6.21905C28.3287 6.98387 28.4339 7.19398 28.4975 7.59246C28.5559 7.95783 28.4768 8.38643 28.3069 8.62502C28.1556 8.83749 27.8616 9.08181 27.6114 9.20292C27.1158 9.44286 26.9615 9.4558 24.2155 9.48765L21.6414 9.51753L21.3528 9.66187C20.9746 9.85096 20.7683 10.1186 20.7323 10.4668C20.6762 11.0087 20.6546 13.4754 20.6955 14.6657C20.7481 16.1986 20.7957 16.3603 21.2565 16.5719C21.6853 16.7688 22.14 16.6408 22.8443 16.1251C24.5747 14.8579 26.2113 14.8134 27.7038 15.9931C28.4846 16.6103 28.9669 17.4142 29.1578 18.4169C29.3029 19.1785 29.1724 20.3064 28.8366 21.195C28.49 22.1123 27.6608 22.9024 26.6754 23.2546C25.407 23.708 24.1581 23.4779 22.8384 22.5477C22.2376 22.1243 21.6567 21.9593 21.324 22.1175C21.0184 22.2628 20.7844 22.7725 20.7084 23.4587C20.655 23.9405 20.6947 28.0685 20.755 28.3084C20.8108 28.5298 21.0954 28.8605 21.3359 28.9831C21.5376 29.0861 22.256 29.195 22.4982 29.1595C22.8289 29.111 26.6032 29.217 27.0177 29.2865C27.753 29.4097 28.1851 29.6868 28.4147 30.1823C28.4907 30.3463 28.5146 30.4921 28.5132 30.7837C28.5112 31.2379 28.4016 31.5609 28.1132 31.9625C27.1892 33.2496 26.9596 33.8503 27.0202 34.8224C27.1154 36.3493 28.3185 37.4758 30.0835 37.6904C31.1442 37.8193 32.3192 37.446 33.0739 36.7401C33.779 36.0805 34.1233 34.9575 33.9119 34.0069C33.7497 33.278 33.6068 32.9928 32.9242 32.0347C32.5928 31.5696 32.4786 31.2559 32.4757 30.8024C32.4708 30.0377 32.9156 29.5325 33.8139 29.2825C34.1225 29.1965 35.8016 29.13 37.8076 29.1241C38.9623 29.1207 39.3924 29.1035 39.5278 29.0552C39.8255 28.9489 40.0468 28.746 40.1821 28.4554L40.3077 28.1856L40.3086 25.7078C40.3096 23.0239 40.2861 22.6879 40.0622 22.1891C39.9103 21.8506 39.578 21.5239 39.2632 21.4037C39.0882 21.3369 38.9422 21.3221 38.613 21.3378C38.2442 21.3554 38.1442 21.3806 37.852 21.529C37.6669 21.623 37.3214 21.8438 37.0842 22.0195C36.3491 22.5641 35.8033 22.7749 35.0394 22.8095C34.1263 22.8508 33.4526 22.5863 32.8038 21.9319C32.3591 21.4833 32.1292 21.0885 31.9347 20.4393C31.8213 20.061 31.8047 19.9212 31.8027 19.3327C31.7997 18.4208 31.9614 17.8412 32.3999 17.1917C32.9892 16.319 33.8599 15.8383 34.8466 15.8411C35.5955 15.8431 36.4264 16.1389 37.122 16.651C37.8903 17.2166 38.2566 17.3652 38.7787 17.3233C39.5962 17.2577 40.1613 16.6419 40.2863 15.6801C40.3461 15.2201 40.3439 11.0939 40.2837 10.677C40.2119 10.1805 40.0358 9.88853 39.7081 9.72259C39.3327 9.53254 38.9439 9.49675 37.2303 9.49448C35.6789 9.49246 34.3098 9.43208 33.8145 9.34389C32.9348 9.18723 32.3784 8.53606 32.4597 7.75826C32.5029 7.34544 32.618 7.05767 32.9175 6.61358C33.7826 5.33117 33.926 5.00207 33.9685 4.20098C34.0638 2.40923 32.6419 1.02206 30.6387 0.952394C30.3476 0.942242 30.0046 0.95302 29.8766 0.976355Z" fill="#585858"/>
</svg>
