<svg width="48" height="48" viewBox="0 0 48 48" fill="none" xmlns="http://www.w3.org/2000/svg">
<path d="M23.9844 3.99609C12.9444 3.99609 3.98438 12.9561 3.98438 23.9961C3.98438 35.0361 12.9444 43.9961 23.9844 43.9961C35.0244 43.9961 43.9844 35.0361 43.9844 23.9961C43.9844 12.9561 35.0244 3.99609 23.9844 3.99609ZM33.2644 17.5961C32.9644 20.7561 31.6644 28.4361 31.0044 31.9761C30.7244 33.4761 30.1644 33.9761 29.6444 34.0361C28.4844 34.1361 27.6044 33.2761 26.4844 32.5361C24.7244 31.3761 23.7244 30.6561 22.0244 29.5361C20.0444 28.2361 21.3244 27.5161 22.4644 26.3561C22.7644 26.0561 27.8844 21.3961 27.9844 20.9761C27.9983 20.9125 27.9964 20.8464 27.979 20.7837C27.9616 20.721 27.9291 20.6634 27.8844 20.6161C27.7644 20.5161 27.6044 20.5561 27.4644 20.5761C27.2844 20.6161 24.4844 22.4761 19.0244 26.1561C18.2244 26.6961 17.5044 26.9761 16.8644 26.9561C16.1444 26.9361 14.7844 26.5561 13.7644 26.2161C12.5044 25.8161 11.5244 25.5961 11.6044 24.8961C11.6444 24.5361 12.1444 24.1761 13.0844 23.7961C18.9244 21.2561 22.8044 19.5761 24.7444 18.7761C30.3044 16.4561 31.4444 16.0561 32.2044 16.0561C32.3644 16.0561 32.7444 16.0961 32.9844 16.2961C33.1844 16.4561 33.2444 16.6761 33.2644 16.8361C33.2444 16.9561 33.2844 17.3161 33.2644 17.5961Z" fill="#EFEFEF"/>
</svg>
