<svg width="45" height="49" viewBox="0 0 45 49" fill="none" xmlns="http://www.w3.org/2000/svg">
<path fill-rule="evenodd" clip-rule="evenodd" d="M22.0699 0.368406C21.9241 0.529485 20.7413 1.49349 20.0018 2.05392C15.7164 5.30148 10.5484 7.63592 5.25106 8.71683C3.6452 9.04455 1.95089 9.28464 0.70795 9.36068C0.323646 9.3842 0.139039 9.41633 0.121223 9.4628C0.106918 9.50011 0.0666745 10.2217 0.0318282 11.0663C-0.163782 15.8076 0.544461 20.6865 2.09541 25.2829C2.93329 27.7659 4.15265 30.4447 5.45852 32.6713C6.73887 34.8546 8.486 37.2482 10.201 39.169C10.7599 39.7949 12.5023 41.5334 13.1897 42.1509C15.7691 44.4682 18.8401 46.5742 21.8226 48.0711L22.2024 48.2617L22.6348 48.0453C23.8362 47.444 25.2512 46.615 26.6042 45.7199C35.3461 39.9367 41.5111 30.7944 43.6013 20.5145C43.9431 18.8332 44.1723 17.164 44.3246 15.2482C44.3962 14.3471 44.4013 10.7738 44.3322 9.92959L44.2893 9.40558L44.0535 9.39191C40.8221 9.20458 36.9242 8.35952 33.6844 7.14388C29.6927 5.64607 25.7229 3.30749 22.6359 0.635071C22.3987 0.429714 22.196 0.261719 22.1855 0.261719C22.175 0.261719 22.123 0.309717 22.0699 0.368406ZM32.2111 14.3114C27.5488 17.202 23.4144 20.7191 20.0533 24.6541C19.7579 24.9999 19.4963 25.3048 19.4719 25.3315C19.446 25.3601 18.3487 24.5681 16.8145 23.4133L14.2013 21.4464L12.7496 22.7096L11.2979 23.9729L11.7067 24.361C11.9315 24.5745 12.6932 25.3183 13.3993 26.014C14.8147 27.4084 19.4595 31.9549 20.4407 32.9063C20.8767 33.329 21.0709 33.4862 21.0893 33.4312C21.1038 33.3879 21.3803 32.8338 21.7037 32.1997C24.7006 26.3248 28.4812 21.1241 33.1046 16.5166L34.2152 15.4099L33.641 14.6377C33.3252 14.213 33.0453 13.8598 33.0189 13.8529C32.9924 13.846 32.6289 14.0523 32.2111 14.3114Z" fill="#585858"/>
</svg>
