<svg width="48" height="38" viewBox="0 0 48 38" fill="none" xmlns="http://www.w3.org/2000/svg">
<path fill-rule="evenodd" clip-rule="evenodd" d="M22.9412 3.55137V6.84113L21.8839 6.8749L20.8265 6.90878L22.3813 9.40878C23.2365 10.7838 23.9648 11.9088 24 11.9088C24.0352 11.9088 24.7635 10.7838 25.6187 9.40878L27.1735 6.90878L26.1161 6.8749L25.0588 6.84113V3.55137V0.261719H24H22.9412V3.55137ZM6.96941 7.34878L6.23518 8.08301L8.53341 10.3835L10.8318 12.6838L10.0985 13.4103C9.69518 13.8098 9.38894 14.1588 9.41788 14.1857C9.50718 14.2685 15.1873 15.5842 15.2379 15.5337C15.2842 15.4872 13.9959 9.78372 13.9154 9.67937C13.8929 9.65031 13.5622 9.95466 13.1805 10.3558C12.7987 10.757 12.4426 11.0852 12.3891 11.0852C12.3355 11.0852 11.2869 10.0794 10.0588 8.84995C8.83071 7.62054 7.79835 6.61466 7.76471 6.61466C7.73106 6.61466 7.37318 6.94501 6.96941 7.34878ZM37.9409 8.85019C36.7126 10.0798 35.6692 11.0724 35.6222 11.0561C35.5752 11.0398 35.2165 10.7142 34.8251 10.3324C34.4336 9.95078 34.098 9.6596 34.0792 9.68537C34.0604 9.71125 33.7661 10.95 33.4253 12.4382C33.0845 13.9264 32.7779 15.2421 32.744 15.3618C32.6899 15.5532 32.7304 15.5697 33.0765 15.4978C34.1706 15.2707 38.5369 14.2275 38.5861 14.1816C38.6174 14.1524 38.3007 13.814 37.8825 13.4294L37.1221 12.7301L39.4446 10.4054L41.7671 8.08078L41.0274 7.34772C40.6206 6.94454 40.2622 6.61466 40.2309 6.61466C40.1998 6.61466 39.1692 7.62066 37.9409 8.85019ZM22.7647 14.8503C21.5899 15.2158 20.4305 16.3402 20.0352 17.497C19.722 18.4137 19.7695 19.7001 20.1472 20.525C20.5749 21.4594 21.3759 22.2763 22.2666 22.6871C22.8921 22.9756 23.1471 23.0254 24 23.0254C24.8529 23.0254 25.1079 22.9756 25.7334 22.6871C27.5565 21.8464 28.5531 19.8017 28.0661 17.901C27.7327 16.6 27.0408 15.7358 25.8361 15.116C25.342 14.8617 25.0473 14.801 24.1765 14.7736C23.5941 14.7554 22.9588 14.7898 22.7647 14.8503ZM6.47059 22.1441V23.2029H3.23529H0V24.2617V25.3205H3.23106H6.46212L6.49577 26.4196L6.52941 27.5185L9.09282 25.9283C11.1448 24.6552 11.6259 24.3094 11.5046 24.1941C11.3402 24.038 6.60859 21.0852 6.52271 21.0852C6.494 21.0852 6.47059 21.5617 6.47059 22.1441ZM38.8824 22.6565C37.5235 23.5105 36.4335 24.2608 36.4601 24.3237C36.4867 24.3867 37.6249 25.1315 38.9895 25.9789L41.4706 27.5196L41.5042 26.4201L41.5379 25.3205H44.7689H48V24.2617V23.2029H44.7647H41.5294V22.1441C41.5294 21.5617 41.4898 21.0894 41.4412 21.0945C41.3926 21.0996 40.2412 21.8024 38.8824 22.6565ZM21.0493 24.2421C19.0414 24.7662 17.362 26.5289 16.9418 28.5532C16.8731 28.8837 16.8316 29.9449 16.8496 30.9112L16.8824 32.6683L17.5294 32.8129C20.8806 33.5622 27.1194 33.5622 30.4706 32.8129L31.1176 32.6683L31.1504 30.9112C31.1684 29.9449 31.1269 28.8837 31.0582 28.5532C30.7567 27.1007 29.7064 25.6362 28.4045 24.853C27.2981 24.1875 26.4993 24.04 24 24.04C22.3215 24.04 21.6464 24.0862 21.0493 24.2421ZM13.3529 31.7791C11.0993 32.5563 9.936 33.522 10.1631 34.4269C10.5456 35.9509 13.9015 37.188 19.3529 37.8144C21.3466 38.0436 27.0775 38.0058 29.1765 37.7497C34.2207 37.1342 37.4692 35.892 37.8339 34.4389C38.0019 33.7694 37.3699 33.0115 36.1154 32.3782C35.4868 32.0609 33.7664 31.4382 33.5182 31.4382C33.2751 31.4382 33.6422 31.9483 34.0529 32.181C34.6491 32.5188 34.7868 32.749 34.6409 33.1638C34.1516 34.5551 27.0664 35.5294 20.7059 35.0801C14.7662 34.6604 11.7296 33.367 13.8784 32.172C14.1968 31.9949 14.4819 31.7572 14.5118 31.6441C14.5821 31.3781 14.4818 31.3898 13.3529 31.7791Z" fill="#585858"/>
</svg>
