<svg width="15" height="9" viewBox="0 0 15 9" fill="none" xmlns="http://www.w3.org/2000/svg">
<path d="M13.8635 1.20067C13.6759 1.0132 13.4216 0.90788 13.1565 0.90788C12.8913 0.90788 12.637 1.0132 12.4495 1.20067L7.49946 6.15067L2.54946 1.20067C2.36086 1.01851 2.10826 0.917714 1.84606 0.919992C1.58387 0.92227 1.33305 1.02744 1.14764 1.21285C0.962237 1.39826 0.857069 1.64907 0.85479 1.91126C0.852512 2.17346 0.953306 2.42606 1.13546 2.61467L6.79246 8.27167C6.97999 8.45914 7.2343 8.56445 7.49946 8.56445C7.76463 8.56445 8.01894 8.45914 8.20646 8.27167L13.8635 2.61467C14.0509 2.42714 14.1563 2.17283 14.1563 1.90767C14.1563 1.6425 14.0509 1.38819 13.8635 1.20067Z" fill="white"/>
</svg>
