<svg width="48" height="48" viewBox="0 0 48 48" fill="none" xmlns="http://www.w3.org/2000/svg">
<path d="M23.9844 3.99609C35.0304 3.99609 43.9844 12.9501 43.9844 23.9961C43.9844 35.0421 35.0304 43.9961 23.9844 43.9961C20.4499 44.0022 16.9776 43.0668 13.9244 41.2861L3.99241 43.9961L6.69641 34.0601C4.91432 31.006 3.97821 27.5321 3.98441 23.9961C3.98441 12.9501 12.9384 3.99609 23.9844 3.99609ZM17.1684 14.5961L16.7684 14.6121C16.5098 14.6299 16.2571 14.6978 16.0244 14.8121C15.8076 14.9351 15.6095 15.0887 15.4364 15.2681C15.1964 15.4941 15.0604 15.6901 14.9144 15.8801C14.1746 16.8419 13.7764 18.0227 13.7824 19.2361C13.7864 20.2161 14.0424 21.1701 14.4424 22.0621C15.2604 23.8661 16.6064 25.7761 18.3824 27.5461C18.8104 27.9721 19.2304 28.4001 19.6824 28.7981C21.8893 30.7409 24.519 32.142 27.3624 32.8901L28.4984 33.0641C28.8684 33.0841 29.2384 33.0561 29.6104 33.0381C30.1928 33.0074 30.7614 32.8497 31.2764 32.5761C31.5381 32.4408 31.7937 32.294 32.0424 32.1361C32.0424 32.1361 32.1271 32.0788 32.2924 31.9561C32.5624 31.7561 32.7284 31.6141 32.9524 31.3801C33.1204 31.2068 33.2604 31.0054 33.3724 30.7761C33.5284 30.4501 33.6844 29.8281 33.7484 29.3101C33.7964 28.9141 33.7824 28.6981 33.7764 28.5641C33.7684 28.3501 33.5904 28.1281 33.3964 28.0341L32.2324 27.5121C32.2324 27.5121 30.4924 26.7541 29.4284 26.2701C29.317 26.2216 29.1977 26.1938 29.0764 26.1881C28.9396 26.1738 28.8012 26.189 28.6708 26.2329C28.5403 26.2767 28.4209 26.348 28.3204 26.4421C28.3104 26.4381 28.1764 26.5521 26.7304 28.3041C26.6474 28.4156 26.5331 28.4999 26.402 28.5462C26.2709 28.5925 26.129 28.5987 25.9944 28.5641C25.8641 28.5294 25.7364 28.4852 25.6124 28.4321C25.3644 28.3281 25.2784 28.2881 25.1084 28.2161C23.9602 27.7159 22.8973 27.039 21.9584 26.2101C21.7064 25.9901 21.4724 25.7501 21.2324 25.5181C20.4456 24.7645 19.7599 23.9121 19.1924 22.9821L19.0744 22.7921C18.9909 22.6637 18.9225 22.5261 18.8704 22.3821C18.7944 22.0881 18.9924 21.8521 18.9924 21.8521C18.9924 21.8521 19.4784 21.3201 19.7044 21.0321C19.9244 20.7521 20.1104 20.4801 20.2304 20.2861C20.4664 19.9061 20.5404 19.5161 20.4164 19.2141C19.8564 17.8461 19.2777 16.4854 18.6804 15.1321C18.5624 14.8641 18.2124 14.6721 17.8944 14.6341C17.7864 14.6208 17.6784 14.6101 17.5704 14.6021C17.3019 14.5867 17.0326 14.5894 16.7644 14.6101L17.1684 14.5961Z" fill="#EFEFEF"/>
</svg>
